<?xml version="1.0" encoding="UTF-8" standalone="no"?><!DOCTYPE svg PUBLIC "-//W3C//DTD SVG 1.1//EN" "http://www.w3.org/Graphics/SVG/1.1/DTD/svg11.dtd"><svg width="100%" height="100%" viewBox="0 0 29 29" version="1.1" xmlns="http://www.w3.org/2000/svg" xmlns:xlink="http://www.w3.org/1999/xlink" xml:space="preserve" xmlns:serif="http://www.serif.com/" style="fill-rule:evenodd;clip-rule:evenodd;stroke-linejoin:round;stroke-miterlimit:2;"><g><path d="M14.424,28.849c7.966,0 14.424,-6.458 14.424,-14.424c-0,-7.966 -6.458,-14.425 -14.424,-14.425c-7.967,-0 -14.424,6.459 -14.424,14.425c-0,7.966 6.457,14.424 14.424,14.424Zm-0,-0.266c-7.82,0 -14.158,-6.339 -14.158,-14.158c-0,-7.82 6.338,-14.159 14.158,-14.159c7.819,-0 14.158,6.339 14.158,14.159c0,7.819 -6.339,14.158 -14.158,14.158Z" style="fill:#19171b;"/><path d="M12.493,22.084l3.085,0l0,-7.725l2.152,0l0.229,-2.586l-2.381,0l0,-1.473c0,-0.61 0.122,-0.851 0.712,-0.851l1.669,0l0,-2.684l-2.136,0c-2.295,0 -3.33,1.011 -3.33,2.946l-0,2.062l-1.604,0l-0,2.619l1.604,0l-0,7.692Z" style="fill:#19171b;fill-rule:nonzero;"/></g></svg>