<?xml version="1.0" encoding="UTF-8" standalone="no"?><!DOCTYPE svg PUBLIC "-//W3C//DTD SVG 1.1//EN" "http://www.w3.org/Graphics/SVG/1.1/DTD/svg11.dtd"><svg width="100%" height="100%" viewBox="0 0 29 29" version="1.1" xmlns="http://www.w3.org/2000/svg" xmlns:xlink="http://www.w3.org/1999/xlink" xml:space="preserve" xmlns:serif="http://www.serif.com/" style="fill-rule:evenodd;clip-rule:evenodd;stroke-linejoin:round;stroke-miterlimit:2;"><g><path d="M14.425,28.849c7.966,-0 14.424,-6.459 14.424,-14.425c0,-7.966 -6.458,-14.424 -14.424,-14.424c-7.967,-0 -14.425,6.458 -14.425,14.424c0,7.966 6.458,14.425 14.425,14.425Zm-0,-0.266c-7.82,-0 -14.159,-6.34 -14.159,-14.159c-0,-7.819 6.339,-14.158 14.159,-14.158c7.819,-0 14.158,6.339 14.158,14.158c0,7.819 -6.339,14.159 -14.158,14.159Z" style="fill:#19171b;"/><path d="M14.425,7.476c-1.888,0 -2.125,0.008 -2.865,0.042c-0.74,0.034 -1.245,0.151 -1.687,0.323c-0.457,0.177 -0.844,0.415 -1.23,0.802c-0.387,0.385 -0.624,0.773 -0.802,1.23c-0.172,0.442 -0.289,0.947 -0.323,1.686c-0.034,0.742 -0.042,0.978 -0.042,2.865c0,1.887 0.008,2.124 0.042,2.865c0.034,0.739 0.151,1.244 0.323,1.687c0.178,0.456 0.415,0.844 0.802,1.23c0.386,0.386 0.773,0.624 1.23,0.802c0.442,0.171 0.947,0.289 1.687,0.323c0.74,0.033 0.977,0.041 2.865,0.041c1.886,0 2.123,-0.008 2.864,-0.041c0.74,-0.034 1.244,-0.152 1.687,-0.323c0.457,-0.178 0.844,-0.416 1.231,-0.802c0.385,-0.386 0.623,-0.774 0.801,-1.23c0.172,-0.443 0.289,-0.948 0.323,-1.687c0.033,-0.741 0.042,-0.978 0.042,-2.865c-0,-1.887 -0.009,-2.123 -0.042,-2.865c-0.034,-0.739 -0.151,-1.244 -0.323,-1.686c-0.178,-0.457 -0.416,-0.845 -0.801,-1.23c-0.387,-0.387 -0.774,-0.625 -1.231,-0.802c-0.443,-0.172 -0.947,-0.289 -1.687,-0.323c-0.741,-0.034 -0.978,-0.042 -2.864,-0.042Zm-0,1.252c1.854,0 2.075,0.007 2.807,0.041c0.678,0.03 1.045,0.144 1.29,0.239c0.325,0.126 0.556,0.276 0.799,0.519c0.243,0.244 0.394,0.475 0.52,0.799c0.096,0.245 0.208,0.613 0.239,1.29c0.034,0.733 0.04,0.953 0.04,2.808c0,1.855 -0.006,2.075 -0.04,2.808c-0.031,0.678 -0.143,1.045 -0.239,1.29c-0.126,0.324 -0.277,0.556 -0.52,0.799c-0.243,0.243 -0.474,0.393 -0.799,0.52c-0.245,0.095 -0.612,0.208 -1.29,0.239c-0.732,0.033 -0.952,0.04 -2.807,0.04c-1.856,-0 -2.075,-0.007 -2.808,-0.04c-0.677,-0.031 -1.046,-0.144 -1.291,-0.239c-0.324,-0.127 -0.555,-0.277 -0.798,-0.52c-0.243,-0.243 -0.394,-0.475 -0.52,-0.799c-0.095,-0.245 -0.209,-0.612 -0.239,-1.29c-0.034,-0.733 -0.041,-0.953 -0.041,-2.808c0,-1.855 0.007,-2.075 0.041,-2.808c0.03,-0.677 0.144,-1.045 0.239,-1.29c0.126,-0.324 0.277,-0.555 0.52,-0.799c0.243,-0.243 0.474,-0.393 0.798,-0.519c0.245,-0.095 0.614,-0.209 1.291,-0.239c0.733,-0.034 0.952,-0.041 2.808,-0.041Z" style="fill:#19171b;fill-rule:nonzero;"/><path d="M14.425,16.74c-1.28,0 -2.317,-1.037 -2.317,-2.316c0,-1.279 1.037,-2.316 2.317,-2.316c1.279,0 2.315,1.037 2.315,2.316c0,1.279 -1.036,2.316 -2.315,2.316Zm-0,-5.884c-1.971,-0 -3.568,1.598 -3.568,3.568c-0,1.97 1.597,3.568 3.568,3.568c1.97,-0 3.567,-1.598 3.567,-3.568c-0,-1.97 -1.597,-3.568 -3.567,-3.568Z" style="fill:#19171b;fill-rule:nonzero;"/><path d="M18.967,10.715c0,0.46 -0.373,0.834 -0.834,0.834c-0.46,0 -0.834,-0.374 -0.834,-0.834c0,-0.46 0.374,-0.833 0.834,-0.833c0.461,-0 0.834,0.373 0.834,0.833Z" style="fill:#19171b;fill-rule:nonzero;"/></g></svg>