<?xml version="1.0" encoding="UTF-8" standalone="no"?><!DOCTYPE svg PUBLIC "-//W3C//DTD SVG 1.1//EN" "http://www.w3.org/Graphics/SVG/1.1/DTD/svg11.dtd"><svg width="100%" height="100%" viewBox="0 0 29 29" version="1.1" xmlns="http://www.w3.org/2000/svg" xmlns:xlink="http://www.w3.org/1999/xlink" xml:space="preserve" xmlns:serif="http://www.serif.com/" style="fill-rule:evenodd;clip-rule:evenodd;stroke-linejoin:round;stroke-miterlimit:2;"><g><path d="M14.425,28.849c7.966,-0 14.424,-6.458 14.424,-14.425c-0,-7.966 -6.458,-14.424 -14.424,-14.424c-7.966,0 -14.425,6.458 -14.425,14.424c-0,7.967 6.459,14.425 14.425,14.425Zm-0,-0.266c-7.82,-0 -14.159,-6.339 -14.159,-14.159c-0,-7.819 6.339,-14.158 14.159,-14.158c7.819,-0 14.158,6.339 14.158,14.158c-0,7.82 -6.339,14.159 -14.158,14.159Z" style="fill:#19171b;"/><rect x="8.325" y="11.592" width="2.623" height="8.472" style="fill:#19171b;fill-rule:nonzero;"/><path d="M9.624,10.482c0.857,-0 1.551,-0.701 1.551,-1.564c-0,-0.862 -0.694,-1.563 -1.551,-1.563c-0.857,0 -1.55,0.701 -1.55,1.563c-0,0.863 0.693,1.564 1.55,1.564Z" style="fill:#19171b;fill-rule:nonzero;"/><path d="M15.14,15.617c0,-1.192 0.549,-1.901 1.598,-1.901c0.964,-0 1.428,0.681 1.428,1.901l0,4.447l2.61,-0l0,-5.364c0,-2.27 -1.287,-3.367 -3.083,-3.367c-1.796,-0 -2.553,1.4 -2.553,1.4l0,-1.141l-2.516,-0l0,8.472l2.516,-0l0,-4.447Z" style="fill:#19171b;fill-rule:nonzero;"/></g></svg>