<?xml version="1.0" encoding="UTF-8" standalone="no"?><!DOCTYPE svg PUBLIC "-//W3C//DTD SVG 1.1//EN" "http://www.w3.org/Graphics/SVG/1.1/DTD/svg11.dtd"><svg width="100%" height="100%" viewBox="0 0 55 62" version="1.1" xmlns="http://www.w3.org/2000/svg" xmlns:xlink="http://www.w3.org/1999/xlink" xml:space="preserve" xmlns:serif="http://www.serif.com/" style="fill-rule:evenodd;clip-rule:evenodd;stroke-linejoin:round;stroke-miterlimit:2;"><g><path d="M16.306,10.583c-4.474,-0.025 -9.432,1.164 -14.872,3.591c-0.472,0.21 -0.726,0.727 -0.605,1.229l3.503,14.509c-2.258,3.862 -3.708,8.749 -4.326,14.674c-0.054,0.514 0.267,0.992 0.762,1.138l14.316,4.221c2.216,3.887 5.724,7.587 10.546,11.084c0.418,0.304 0.993,0.265 1.367,-0.09l10.813,-10.289c4.474,0.025 9.432,-1.163 14.872,-3.59c0.472,-0.211 0.726,-0.727 0.605,-1.229l-3.503,-14.509c2.258,-3.862 3.708,-8.75 4.326,-14.675c0.054,-0.513 -0.267,-0.992 -0.762,-1.138l-14.316,-4.221c-2.216,-3.887 -5.724,-7.586 -10.546,-11.084c-0.418,-0.303 -0.993,-0.265 -1.366,0.091l-10.814,10.288Zm-1.924,29.773c0.326,6.671 4.295,12.785 11.79,18.412l8.736,-8.312c-2.78,-0.366 -5.354,-1.245 -7.722,-2.632c-2.538,-1.485 -4.846,-3.566 -6.918,-6.245c-1.884,-0.307 -3.846,-0.714 -5.886,-1.223Zm33.783,-6.618c-1.707,2.225 -3.756,4.014 -6.14,5.371c-2.556,1.455 -5.512,2.415 -8.868,2.869c-1.208,1.478 -2.542,2.973 -4.002,4.486c5.94,3.053 13.219,2.673 21.84,-1.004l-2.83,-11.722Zm-35.879,-9.229c-5.615,3.618 -8.925,10.111 -10.051,19.416l11.567,3.41c-1.074,-2.591 -1.599,-5.26 -1.582,-8.003c0.018,-2.941 0.665,-5.98 1.949,-9.114c-0.676,-1.786 -1.304,-3.688 -1.883,-5.709Zm11.122,17.497c1.205,1.308 2.488,2.42 3.851,3.336c1.018,-1.041 1.976,-2.073 2.871,-3.095c-2.103,0.094 -4.344,0.014 -6.722,-0.241Zm9.266,-20.375c-3.896,-0.584 -7.425,-0.71 -10.59,-0.37c-2.453,3.081 -4.328,6.075 -5.615,8.985c1.441,3.666 3.097,6.786 4.973,9.356c3.896,0.584 7.425,0.711 10.59,0.371c2.454,-3.082 4.328,-6.075 5.615,-8.985c-1.441,-3.666 -3.097,-6.786 -4.973,-9.357Zm5.992,12.14c-0.97,1.869 -2.159,3.769 -3.57,5.701c1.735,-0.389 3.34,-0.944 4.815,-1.666c-0.392,-1.403 -0.807,-2.748 -1.245,-4.035Zm-23.296,-0.621c-0.53,1.697 -0.852,3.365 -0.964,5.003c1.411,0.362 2.783,0.675 4.116,0.939c-1.133,-1.774 -2.184,-3.754 -3.152,-5.942Zm24.944,-19.252c1.074,2.591 1.599,5.26 1.582,8.004c-0.018,2.941 -0.665,5.98 -1.949,9.114c0.676,1.785 1.304,3.688 1.883,5.708c5.615,-3.617 8.925,-10.111 10.051,-19.415l-11.567,-3.411Zm-4.72,8.243c1.133,1.775 2.184,3.755 3.152,5.942c0.531,-1.697 0.853,-3.364 0.965,-5.003c-1.412,-0.361 -2.784,-0.674 -4.117,-0.939Zm-10.633,-7.371c-5.94,-3.054 -13.219,-2.674 -21.84,1.003l2.83,11.723c1.707,-2.225 3.756,-4.015 6.141,-5.372c2.555,-1.455 5.511,-2.414 8.867,-2.869c1.208,-1.478 2.542,-2.973 4.002,-4.485Zm-5.941,6.992c-1.735,0.389 -3.34,0.943 -4.815,1.666c0.392,1.403 0.807,2.747 1.245,4.034c0.97,-1.868 2.159,-3.769 3.57,-5.7Zm0.188,-10.985c2.78,0.366 5.354,1.246 7.722,2.632c2.538,1.486 4.846,3.566 6.918,6.245c1.884,0.307 3.846,0.715 5.886,1.224c-0.326,-6.672 -4.295,-12.785 -11.789,-18.413l-8.737,8.312Zm7.649,5.114c-1.018,1.041 -1.976,2.073 -2.871,3.096c2.103,-0.095 4.344,-0.015 6.722,0.241c-1.205,-1.308 -2.488,-2.421 -3.851,-3.337Z" style="fill:#0d0d0d;"/></g></svg>