<?xml version="1.0" encoding="UTF-8" standalone="no"?><!DOCTYPE svg PUBLIC "-//W3C//DTD SVG 1.1//EN" "http://www.w3.org/Graphics/SVG/1.1/DTD/svg11.dtd"><svg width="100%" height="100%" viewBox="0 0 274 469" version="1.1" xmlns="http://www.w3.org/2000/svg" xmlns:xlink="http://www.w3.org/1999/xlink" xml:space="preserve" xmlns:serif="http://www.serif.com/" style="fill-rule:evenodd;clip-rule:evenodd;stroke-linejoin:round;stroke-miterlimit:2;"><rect x="-0" y="-0" width="273.007" height="468.062" style="fill:#f2f2f2;"/><path d="M22.163,92.74l228.68,-0c0.276,-0 0.5,-0.224 0.5,-0.5c0,-0.276 -0.224,-0.5 -0.5,-0.5l-228.68,-0c-0.275,-0 -0.5,0.224 -0.5,0.5c0,0.276 0.225,0.5 0.5,0.5Z" style="fill:#0d0d0d;"/><g><path d="M51.696,32.429c-3.626,-0.02 -7.645,0.943 -12.055,2.911c-0.383,0.17 -0.589,0.589 -0.49,0.996l2.839,11.761c-1.83,3.131 -3.006,7.092 -3.507,11.895c-0.043,0.416 0.217,0.804 0.618,0.922l11.605,3.422c1.796,3.151 4.64,6.15 8.548,8.985c0.339,0.246 0.805,0.214 1.108,-0.073l8.765,-8.341c3.627,0.021 7.646,-0.942 12.056,-2.91c0.382,-0.171 0.588,-0.589 0.49,-0.996l-2.839,-11.761c1.83,-3.131 3.005,-7.093 3.506,-11.896c0.044,-0.415 -0.216,-0.804 -0.617,-0.922l-11.605,-3.422c-1.796,-3.15 -4.64,-6.149 -8.549,-8.984c-0.339,-0.246 -0.805,-0.215 -1.107,0.073l-8.766,8.34Zm-1.559,24.134c0.264,5.408 3.481,10.364 9.557,14.925l7.081,-6.738c-2.253,-0.297 -4.34,-1.009 -6.259,-2.133c-2.058,-1.204 -3.929,-2.891 -5.608,-5.063c-1.527,-0.249 -3.118,-0.578 -4.771,-0.991Zm27.384,-5.365c-1.384,1.804 -3.044,3.254 -4.977,4.354c-2.072,1.18 -4.468,1.958 -7.188,2.326c-0.98,1.198 -2.061,2.41 -3.244,3.636c4.815,2.475 10.715,2.167 17.703,-0.814l-2.294,-9.502Zm-29.083,-7.481c-4.552,2.933 -7.235,8.196 -8.148,15.739l9.376,2.764c-0.87,-2.1 -1.296,-4.264 -1.282,-6.487c0.015,-2.384 0.539,-4.847 1.58,-7.388c-0.548,-1.448 -1.057,-2.989 -1.526,-4.628Zm9.015,14.183c0.977,1.061 2.017,1.962 3.122,2.705c0.825,-0.844 1.601,-1.681 2.327,-2.509c-1.705,0.076 -3.521,0.011 -5.449,-0.196Zm7.511,-16.516c-3.158,-0.473 -6.019,-0.575 -8.584,-0.299c-1.989,2.497 -3.508,4.924 -4.552,7.283c1.168,2.971 2.511,5.501 4.031,7.584c3.159,0.473 6.019,0.576 8.585,0.301c1.989,-2.499 3.508,-4.925 4.551,-7.284c-1.168,-2.971 -2.51,-5.5 -4.031,-7.585Zm4.857,9.841c-0.786,1.515 -1.75,3.055 -2.894,4.621c1.407,-0.315 2.708,-0.765 3.903,-1.35c-0.317,-1.137 -0.654,-2.228 -1.009,-3.271Zm-18.884,-0.503c-0.429,1.375 -0.69,2.727 -0.781,4.055c1.144,0.294 2.256,0.547 3.336,0.761c-0.918,-1.438 -1.77,-3.043 -2.555,-4.816Zm20.22,-15.606c0.871,2.1 1.296,4.264 1.282,6.488c-0.014,2.384 -0.539,4.848 -1.579,7.388c0.548,1.447 1.057,2.989 1.526,4.627c4.552,-2.932 7.235,-8.196 8.147,-15.738l-9.376,-2.765Zm-3.826,6.682c0.918,1.439 1.77,3.044 2.555,4.816c0.431,-1.375 0.692,-2.726 0.782,-4.055c-1.144,-0.293 -2.256,-0.546 -3.337,-0.761Zm-8.619,-5.975c-4.815,-2.476 -10.715,-2.168 -17.704,0.813l2.294,9.503c1.384,-1.804 3.045,-3.255 4.978,-4.355c2.071,-1.179 4.468,-1.957 7.188,-2.326c0.979,-1.198 2.06,-2.409 3.244,-3.635Zm-4.816,5.668c-1.406,0.315 -2.707,0.764 -3.903,1.35c0.318,1.137 0.654,2.227 1.009,3.27c0.787,-1.514 1.75,-3.055 2.894,-4.62Zm0.153,-8.905c2.253,0.297 4.34,1.01 6.259,2.134c2.057,1.204 3.928,2.89 5.608,5.062c1.527,0.249 3.117,0.579 4.771,0.992c-0.264,-5.408 -3.482,-10.363 -9.556,-14.926l-7.082,6.738Zm6.2,4.146c-0.825,0.843 -1.602,1.68 -2.327,2.509c1.704,-0.077 3.521,-0.012 5.448,0.196c-0.976,-1.061 -2.016,-1.963 -3.121,-2.705Z" style="fill:#0d0d0d;"/><g><path d="M96.576,57.34l-0,-18.592l2.46,0l0,16.398l9.156,-0l0,2.194l-11.616,-0Z" style="fill:#0d0d0d;fill-rule:nonzero;"/><path d="M109.981,50.606c-0,-2.494 0.693,-4.342 2.079,-5.542c1.159,-0.998 2.571,-1.497 4.236,-1.497c1.852,0 3.365,0.607 4.54,1.82c1.175,1.213 1.763,2.89 1.763,5.029c-0,1.733 -0.26,3.096 -0.78,4.089c-0.52,0.994 -1.277,1.765 -2.27,2.315c-0.993,0.549 -2.078,0.824 -3.253,0.824c-1.885,0 -3.409,-0.604 -4.572,-1.813c-1.162,-1.209 -1.743,-2.951 -1.743,-5.225Zm2.346,-0c-0,1.725 0.376,3.016 1.128,3.874c0.753,0.858 1.7,1.287 2.841,1.287c1.133,0 2.076,-0.431 2.828,-1.293c0.753,-0.863 1.129,-2.177 1.129,-3.944c-0,-1.666 -0.379,-2.928 -1.135,-3.786c-0.757,-0.858 -1.697,-1.287 -2.822,-1.287c-1.141,-0 -2.088,0.427 -2.841,1.281c-0.752,0.854 -1.128,2.143 -1.128,3.868Z" style="fill:#0d0d0d;fill-rule:nonzero;"/><path d="M124.856,58.456l2.22,0.33c0.093,0.684 0.35,1.183 0.773,1.496c0.567,0.423 1.34,0.634 2.321,0.634c1.057,0 1.873,-0.211 2.447,-0.634c0.575,-0.423 0.964,-1.015 1.167,-1.775c0.119,-0.465 0.174,-1.442 0.165,-2.93c-0.998,1.175 -2.24,1.763 -3.728,1.763c-1.852,-0 -3.285,-0.668 -4.299,-2.004c-1.015,-1.336 -1.522,-2.938 -1.522,-4.806c-0,-1.285 0.232,-2.471 0.697,-3.558c0.465,-1.086 1.139,-1.925 2.023,-2.517c0.883,-0.592 1.921,-0.888 3.113,-0.888c1.59,0 2.9,0.643 3.932,1.928l-0,-1.623l2.105,-0l-0,11.642c-0,2.096 -0.214,3.582 -0.641,4.457c-0.427,0.875 -1.103,1.566 -2.029,2.074c-0.925,0.507 -2.065,0.761 -3.417,0.761c-1.607,-0 -2.905,-0.362 -3.894,-1.085c-0.989,-0.723 -1.467,-1.811 -1.433,-3.265Zm1.89,-8.091c-0,1.767 0.351,3.056 1.052,3.868c0.702,0.811 1.581,1.217 2.638,1.217c1.049,0 1.928,-0.403 2.638,-1.211c0.71,-0.807 1.065,-2.073 1.065,-3.798c0,-1.649 -0.365,-2.892 -1.097,-3.729c-0.731,-0.837 -1.612,-1.255 -2.644,-1.255c-1.014,-0 -1.877,0.412 -2.587,1.236c-0.71,0.825 -1.065,2.049 -1.065,3.672Z" style="fill:#0d0d0d;fill-rule:nonzero;"/><path d="M138.87,50.606c-0,-2.494 0.693,-4.342 2.079,-5.542c1.159,-0.998 2.571,-1.497 4.236,-1.497c1.852,0 3.365,0.607 4.54,1.82c1.175,1.213 1.763,2.89 1.763,5.029c-0,1.733 -0.26,3.096 -0.78,4.089c-0.52,0.994 -1.277,1.765 -2.27,2.315c-0.993,0.549 -2.078,0.824 -3.253,0.824c-1.885,0 -3.409,-0.604 -4.572,-1.813c-1.162,-1.209 -1.743,-2.951 -1.743,-5.225Zm2.346,-0c-0,1.725 0.376,3.016 1.128,3.874c0.753,0.858 1.7,1.287 2.841,1.287c1.133,0 2.076,-0.431 2.828,-1.293c0.753,-0.863 1.129,-2.177 1.129,-3.944c-0,-1.666 -0.379,-2.928 -1.135,-3.786c-0.757,-0.858 -1.697,-1.287 -2.822,-1.287c-1.141,-0 -2.088,0.427 -2.841,1.281c-0.752,0.854 -1.128,2.143 -1.128,3.868Z" style="fill:#0d0d0d;fill-rule:nonzero;"/><path d="M167.721,50.821l2.46,0.622c-0.516,2.02 -1.444,3.561 -2.784,4.622c-1.34,1.061 -2.978,1.592 -4.914,1.592c-2.004,-0 -3.633,-0.408 -4.889,-1.224c-1.255,-0.816 -2.211,-1.997 -2.866,-3.544c-0.655,-1.548 -0.983,-3.209 -0.983,-4.984c0,-1.937 0.37,-3.625 1.11,-5.067c0.74,-1.441 1.792,-2.536 3.158,-3.284c1.365,-0.749 2.868,-1.123 4.508,-1.123c1.86,0 3.424,0.474 4.692,1.421c1.269,0.947 2.152,2.278 2.651,3.994l-2.422,0.571c-0.432,-1.353 -1.057,-2.338 -1.877,-2.955c-0.82,-0.617 -1.852,-0.926 -3.095,-0.926c-1.428,0 -2.623,0.343 -3.582,1.028c-0.96,0.685 -1.634,1.604 -2.023,2.758c-0.389,1.154 -0.583,2.344 -0.583,3.57c-0,1.581 0.23,2.961 0.691,4.14c0.461,1.18 1.177,2.061 2.149,2.645c0.973,0.583 2.025,0.875 3.158,0.875c1.378,-0 2.545,-0.398 3.5,-1.192c0.956,-0.795 1.602,-1.975 1.941,-3.539Z" style="fill:#0d0d0d;fill-rule:nonzero;"/><path d="M182.14,53.003l2.359,0.291c-0.372,1.378 -1.061,2.448 -2.068,3.209c-1.006,0.761 -2.291,1.141 -3.855,1.141c-1.97,0 -3.532,-0.606 -4.686,-1.82c-1.154,-1.213 -1.731,-2.914 -1.731,-5.104c0,-2.266 0.584,-4.024 1.75,-5.276c1.167,-1.251 2.68,-1.877 4.54,-1.877c1.801,0 3.272,0.613 4.414,1.839c1.141,1.226 1.712,2.951 1.712,5.174c-0,0.136 -0.005,0.339 -0.013,0.609l-10.044,0c0.085,1.48 0.503,2.613 1.256,3.399c0.752,0.786 1.69,1.179 2.815,1.179c0.837,0 1.551,-0.22 2.143,-0.659c0.592,-0.44 1.061,-1.142 1.408,-2.105Zm-7.495,-3.691l7.52,0c-0.101,-1.133 -0.389,-1.982 -0.862,-2.549c-0.727,-0.879 -1.67,-1.319 -2.828,-1.319c-1.049,0 -1.93,0.351 -2.644,1.053c-0.715,0.702 -1.11,1.64 -1.186,2.815Z" style="fill:#0d0d0d;fill-rule:nonzero;"/><path d="M187.365,57.34l-0,-13.468l2.054,-0l0,1.915c0.989,-1.48 2.418,-2.22 4.287,-2.22c0.811,0 1.557,0.146 2.238,0.438c0.68,0.292 1.19,0.674 1.528,1.148c0.338,0.473 0.575,1.035 0.71,1.686c0.085,0.423 0.127,1.163 0.127,2.22l0,8.281l-2.283,-0l0,-8.193c0,-0.93 -0.088,-1.625 -0.266,-2.086c-0.178,-0.461 -0.492,-0.828 -0.945,-1.103c-0.452,-0.275 -0.983,-0.412 -1.591,-0.412c-0.973,-0 -1.812,0.308 -2.518,0.926c-0.706,0.617 -1.059,1.788 -1.059,3.512l0,7.356l-2.282,-0Z" style="fill:#0d0d0d;fill-rule:nonzero;"/><path d="M206.793,55.298l0.33,2.016c-0.643,0.136 -1.218,0.203 -1.725,0.203c-0.828,0 -1.471,-0.131 -1.927,-0.393c-0.457,-0.262 -0.778,-0.606 -0.964,-1.033c-0.186,-0.427 -0.279,-1.326 -0.279,-2.695l-0,-7.749l-1.674,0l-0,-1.775l1.674,-0l-0,-3.336l2.27,-1.369l-0,4.705l2.295,-0l0,1.775l-2.295,0l-0,7.876c-0,0.651 0.04,1.069 0.12,1.255c0.081,0.186 0.212,0.334 0.393,0.444c0.182,0.11 0.442,0.165 0.78,0.165c0.254,-0 0.588,-0.03 1.002,-0.089Z" style="fill:#0d0d0d;fill-rule:nonzero;"/><path d="M209,57.34l-0,-13.468l2.054,-0l0,2.042c0.524,-0.956 1.008,-1.586 1.452,-1.89c0.444,-0.304 0.932,-0.457 1.465,-0.457c0.769,0 1.551,0.246 2.346,0.736l-0.786,2.118c-0.558,-0.33 -1.116,-0.495 -1.674,-0.495c-0.499,0 -0.947,0.15 -1.344,0.45c-0.398,0.301 -0.681,0.717 -0.85,1.25c-0.254,0.811 -0.381,1.699 -0.381,2.663l0,7.051l-2.282,-0Z" style="fill:#0d0d0d;fill-rule:nonzero;"/><path d="M217.687,41.373l-0,-2.625l2.282,0l0,2.625l-2.282,0Zm-0,15.967l-0,-13.468l2.282,-0l0,13.468l-2.282,-0Z" style="fill:#0d0d0d;fill-rule:nonzero;"/><path d="M221.922,57.34l4.921,-7.001l-4.553,-6.467l2.854,-0l2.067,3.158c0.389,0.6 0.702,1.103 0.938,1.509c0.372,-0.558 0.715,-1.053 1.027,-1.484l2.27,-3.183l2.727,-0l-4.654,6.341l5.009,7.127l-2.803,-0l-2.764,-4.185l-0.736,-1.129l-3.538,5.314l-2.765,-0Z" style="fill:#0d0d0d;fill-rule:nonzero;"/></g></g><g><g><path d="M39.219,425.776l0,-6.703l-2.504,0l0,-0.897l6.024,0l0,0.897l-2.514,0l-0,6.703l-1.006,0Z" style="fill:#0d0d0d;fill-rule:nonzero;"/><path d="M43.651,425.776l0,-7.6l0.934,0l-0,2.727c0.435,-0.505 0.985,-0.757 1.648,-0.757c0.408,0 0.762,0.081 1.063,0.241c0.3,0.161 0.516,0.383 0.645,0.666c0.13,0.284 0.195,0.695 0.195,1.234l-0,3.489l-0.933,0l-0,-3.489c-0,-0.466 -0.102,-0.806 -0.304,-1.018c-0.202,-0.213 -0.488,-0.319 -0.858,-0.319c-0.276,-0 -0.536,0.071 -0.78,0.215c-0.244,0.143 -0.417,0.338 -0.521,0.583c-0.104,0.245 -0.155,0.584 -0.155,1.016l-0,3.012l-0.934,0Z" style="fill:#0d0d0d;fill-rule:nonzero;"/><path d="M53.325,424.003l0.964,0.119c-0.152,0.564 -0.434,1.001 -0.845,1.312c-0.411,0.311 -0.936,0.467 -1.576,0.467c-0.805,-0 -1.444,-0.248 -1.915,-0.744c-0.472,-0.496 -0.708,-1.192 -0.708,-2.087c0,-0.926 0.239,-1.645 0.715,-2.157c0.477,-0.511 1.096,-0.767 1.856,-0.767c0.736,0 1.338,0.251 1.804,0.752c0.467,0.501 0.7,1.206 0.7,2.115c0,0.055 -0.001,0.138 -0.005,0.249l-4.106,-0c0.035,0.605 0.206,1.068 0.514,1.389c0.307,0.322 0.691,0.482 1.15,0.482c0.343,0 0.635,-0.09 0.876,-0.269c0.242,-0.18 0.434,-0.467 0.576,-0.861Zm-3.064,-1.508l3.074,-0c-0.041,-0.464 -0.159,-0.811 -0.352,-1.042c-0.297,-0.36 -0.683,-0.54 -1.156,-0.54c-0.429,0 -0.789,0.144 -1.081,0.431c-0.292,0.287 -0.454,0.67 -0.485,1.151Z" style="fill:#0d0d0d;fill-rule:nonzero;"/><path d="M58.411,425.776l-0,-5.505l0.834,-0l0,0.772c0.173,-0.27 0.403,-0.486 0.69,-0.651c0.286,-0.164 0.613,-0.246 0.979,-0.246c0.408,0 0.743,0.085 1.004,0.254c0.26,0.17 0.445,0.406 0.552,0.71c0.435,-0.642 1.002,-0.964 1.7,-0.964c0.546,0 0.966,0.151 1.26,0.454c0.294,0.302 0.44,0.768 0.44,1.397l0,3.779l-0.928,0l0,-3.468c0,-0.373 -0.03,-0.642 -0.09,-0.806c-0.061,-0.164 -0.17,-0.297 -0.329,-0.397c-0.159,-0.1 -0.346,-0.15 -0.56,-0.15c-0.387,-0 -0.709,0.129 -0.965,0.386c-0.255,0.258 -0.383,0.67 -0.383,1.237l-0,3.198l-0.933,0l-0,-3.577c-0,-0.415 -0.076,-0.726 -0.228,-0.933c-0.152,-0.207 -0.401,-0.311 -0.747,-0.311c-0.263,-0 -0.505,0.069 -0.728,0.207c-0.223,0.139 -0.385,0.341 -0.485,0.607c-0.1,0.266 -0.15,0.65 -0.15,1.151l-0,2.856l-0.933,0Z" style="fill:#0d0d0d;fill-rule:nonzero;"/><path d="M66.907,423.023c0,-1.019 0.284,-1.774 0.85,-2.265c0.474,-0.408 1.051,-0.612 1.732,-0.612c0.757,0 1.375,0.248 1.856,0.744c0.48,0.496 0.72,1.181 0.72,2.056c0,0.708 -0.106,1.265 -0.318,1.671c-0.213,0.407 -0.522,0.722 -0.928,0.947c-0.406,0.224 -0.85,0.337 -1.33,0.337c-0.771,-0 -1.394,-0.248 -1.869,-0.742c-0.475,-0.494 -0.713,-1.206 -0.713,-2.136Zm0.959,0c0,0.705 0.154,1.233 0.462,1.584c0.307,0.351 0.694,0.526 1.161,0.526c0.463,0 0.848,-0.176 1.156,-0.529c0.308,-0.352 0.461,-0.889 0.461,-1.612c0,-0.681 -0.154,-1.196 -0.464,-1.547c-0.309,-0.351 -0.693,-0.526 -1.153,-0.526c-0.467,-0 -0.854,0.174 -1.161,0.523c-0.308,0.349 -0.462,0.876 -0.462,1.581Z" style="fill:#0d0d0d;fill-rule:nonzero;"/><path d="M74.02,425.776l-0.866,0l0,-7.6l0.933,0l0,2.712c0.394,-0.495 0.897,-0.742 1.509,-0.742c0.338,0 0.659,0.068 0.961,0.205c0.303,0.136 0.552,0.328 0.747,0.575c0.195,0.247 0.348,0.546 0.459,0.895c0.11,0.349 0.166,0.722 0.166,1.119c-0,0.944 -0.234,1.673 -0.7,2.188c-0.467,0.515 -1.027,0.773 -1.68,0.773c-0.65,-0 -1.159,-0.272 -1.529,-0.814l-0,0.689Zm-0.011,-2.794c0,0.66 0.09,1.137 0.27,1.431c0.294,0.48 0.691,0.72 1.192,0.72c0.408,0 0.761,-0.177 1.058,-0.531c0.297,-0.354 0.446,-0.882 0.446,-1.584c-0,-0.719 -0.143,-1.249 -0.428,-1.591c-0.285,-0.343 -0.63,-0.514 -1.034,-0.514c-0.408,0 -0.76,0.178 -1.058,0.532c-0.297,0.354 -0.446,0.866 -0.446,1.537Z" style="fill:#0d0d0d;fill-rule:nonzero;"/><path d="M79.069,419.249l0,-1.073l0.933,0l0,1.073l-0.933,0Zm0,6.527l0,-5.505l0.933,-0l0,5.505l-0.933,0Z" style="fill:#0d0d0d;fill-rule:nonzero;"/><rect x="81.402" y="418.176" width="0.933" height="7.6" style="fill:#0d0d0d;fill-rule:nonzero;"/><path d="M87.55,424.003l0.965,0.119c-0.153,0.564 -0.434,1.001 -0.845,1.312c-0.412,0.311 -0.937,0.467 -1.576,0.467c-0.806,-0 -1.444,-0.248 -1.916,-0.744c-0.472,-0.496 -0.708,-1.192 -0.708,-2.087c0,-0.926 0.239,-1.645 0.716,-2.157c0.477,-0.511 1.095,-0.767 1.856,-0.767c0.736,0 1.337,0.251 1.804,0.752c0.466,0.501 0.7,1.206 0.7,2.115c-0,0.055 -0.002,0.138 -0.006,0.249l-4.105,-0c0.034,0.605 0.205,1.068 0.513,1.389c0.307,0.322 0.691,0.482 1.151,0.482c0.342,0 0.634,-0.09 0.876,-0.269c0.242,-0.18 0.434,-0.467 0.575,-0.861Zm-3.063,-1.508l3.074,-0c-0.042,-0.464 -0.159,-0.811 -0.353,-1.042c-0.297,-0.36 -0.682,-0.54 -1.156,-0.54c-0.428,0 -0.789,0.144 -1.081,0.431c-0.292,0.287 -0.453,0.67 -0.484,1.151Z" style="fill:#0d0d0d;fill-rule:nonzero;"/><path d="M94.165,425.776l-2.094,-5.505l0.985,-0l1.182,3.297c0.128,0.356 0.245,0.725 0.352,1.109c0.083,-0.29 0.199,-0.639 0.348,-1.047l1.223,-3.359l0.959,-0l-2.084,5.505l-0.871,0Z" style="fill:#0d0d0d;fill-rule:nonzero;"/><path d="M101.713,424.003l0.964,0.119c-0.152,0.564 -0.433,1.001 -0.845,1.312c-0.411,0.311 -0.936,0.467 -1.575,0.467c-0.806,-0 -1.444,-0.248 -1.916,-0.744c-0.472,-0.496 -0.708,-1.192 -0.708,-2.087c0,-0.926 0.239,-1.645 0.716,-2.157c0.477,-0.511 1.095,-0.767 1.856,-0.767c0.736,0 1.337,0.251 1.804,0.752c0.466,0.501 0.7,1.206 0.7,2.115c-0,0.055 -0.002,0.138 -0.006,0.249l-4.105,-0c0.034,0.605 0.205,1.068 0.513,1.389c0.307,0.322 0.691,0.482 1.151,0.482c0.342,0 0.634,-0.09 0.876,-0.269c0.242,-0.18 0.434,-0.467 0.575,-0.861Zm-3.064,-1.508l3.075,-0c-0.042,-0.464 -0.159,-0.811 -0.353,-1.042c-0.297,-0.36 -0.682,-0.54 -1.156,-0.54c-0.429,0 -0.789,0.144 -1.081,0.431c-0.292,0.287 -0.453,0.67 -0.485,1.151Z" style="fill:#0d0d0d;fill-rule:nonzero;"/><path d="M103.839,425.776l-0,-5.505l0.84,-0l-0,0.834c0.214,-0.39 0.412,-0.648 0.593,-0.772c0.182,-0.125 0.381,-0.187 0.599,-0.187c0.314,0 0.634,0.1 0.959,0.301l-0.321,0.866c-0.229,-0.135 -0.457,-0.203 -0.685,-0.203c-0.204,0 -0.387,0.062 -0.549,0.184c-0.163,0.123 -0.278,0.293 -0.348,0.511c-0.103,0.332 -0.155,0.695 -0.155,1.089l-0,2.882l-0.933,0Z" style="fill:#0d0d0d;fill-rule:nonzero;"/><path d="M107.011,424.133l0.923,-0.145c0.052,0.369 0.196,0.653 0.433,0.85c0.237,0.197 0.568,0.295 0.993,0.295c0.428,0 0.746,-0.087 0.954,-0.262c0.207,-0.174 0.311,-0.379 0.311,-0.614c-0,-0.211 -0.092,-0.377 -0.275,-0.498c-0.128,-0.082 -0.446,-0.188 -0.954,-0.316c-0.684,-0.173 -1.159,-0.322 -1.423,-0.448c-0.264,-0.126 -0.465,-0.301 -0.601,-0.524c-0.137,-0.223 -0.205,-0.469 -0.205,-0.738c-0,-0.246 0.056,-0.473 0.168,-0.682c0.113,-0.209 0.266,-0.383 0.459,-0.521c0.145,-0.107 0.343,-0.198 0.594,-0.272c0.25,-0.075 0.519,-0.112 0.806,-0.112c0.432,0 0.811,0.062 1.138,0.187c0.326,0.124 0.567,0.293 0.723,0.505c0.156,0.213 0.263,0.497 0.321,0.853l-0.912,0.124c-0.041,-0.283 -0.162,-0.504 -0.36,-0.663c-0.199,-0.159 -0.48,-0.239 -0.843,-0.239c-0.428,0 -0.734,0.071 -0.917,0.213c-0.183,0.142 -0.275,0.308 -0.275,0.498c-0,0.121 0.038,0.229 0.114,0.326c0.076,0.1 0.195,0.183 0.358,0.249c0.093,0.035 0.368,0.114 0.824,0.239c0.66,0.176 1.121,0.32 1.382,0.432c0.26,0.113 0.465,0.276 0.614,0.49c0.148,0.215 0.223,0.481 0.223,0.799c-0,0.311 -0.091,0.604 -0.272,0.878c-0.182,0.275 -0.444,0.488 -0.786,0.638c-0.342,0.15 -0.729,0.226 -1.161,0.226c-0.715,-0 -1.261,-0.149 -1.636,-0.446c-0.375,-0.298 -0.614,-0.738 -0.718,-1.322Z" style="fill:#0d0d0d;fill-rule:nonzero;"/><path d="M112.698,419.249l0,-1.073l0.933,0l0,1.073l-0.933,0Zm0,6.527l0,-5.505l0.933,-0l0,5.505l-0.933,0Z" style="fill:#0d0d0d;fill-rule:nonzero;"/><path d="M114.705,423.023c-0,-1.019 0.283,-1.774 0.85,-2.265c0.473,-0.408 1.05,-0.612 1.731,-0.612c0.757,0 1.376,0.248 1.856,0.744c0.481,0.496 0.721,1.181 0.721,2.056c-0,0.708 -0.107,1.265 -0.319,1.671c-0.213,0.407 -0.522,0.722 -0.928,0.947c-0.406,0.224 -0.849,0.337 -1.33,0.337c-0.77,-0 -1.393,-0.248 -1.869,-0.742c-0.475,-0.494 -0.712,-1.206 -0.712,-2.136Zm0.959,0c-0,0.705 0.153,1.233 0.461,1.584c0.308,0.351 0.695,0.526 1.161,0.526c0.463,0 0.849,-0.176 1.156,-0.529c0.308,-0.352 0.462,-0.889 0.462,-1.612c-0,-0.681 -0.155,-1.196 -0.464,-1.547c-0.31,-0.351 -0.694,-0.526 -1.154,-0.526c-0.466,-0 -0.853,0.174 -1.161,0.523c-0.308,0.349 -0.461,0.876 -0.461,1.581Z" style="fill:#0d0d0d;fill-rule:nonzero;"/><path d="M120.957,425.776l-0,-5.505l0.839,-0l0,0.782c0.405,-0.604 0.989,-0.907 1.753,-0.907c0.331,0 0.636,0.06 0.915,0.179c0.278,0.119 0.486,0.276 0.624,0.469c0.139,0.194 0.235,0.424 0.291,0.69c0.034,0.172 0.051,0.475 0.051,0.907l0,3.385l-0.933,0l0,-3.349c0,-0.38 -0.036,-0.664 -0.109,-0.853c-0.072,-0.188 -0.201,-0.338 -0.386,-0.451c-0.185,-0.112 -0.402,-0.168 -0.65,-0.168c-0.398,-0 -0.741,0.126 -1.029,0.378c-0.289,0.253 -0.433,0.731 -0.433,1.436l-0,3.007l-0.933,0Z" style="fill:#0d0d0d;fill-rule:nonzero;"/><path d="M129.811,425.776l0,-7.6l0.933,0l0,2.727c0.436,-0.505 0.985,-0.757 1.649,-0.757c0.408,0 0.762,0.081 1.062,0.241c0.301,0.161 0.516,0.383 0.646,0.666c0.129,0.284 0.194,0.695 0.194,1.234l0,3.489l-0.933,0l0,-3.489c0,-0.466 -0.101,-0.806 -0.303,-1.018c-0.202,-0.213 -0.488,-0.319 -0.858,-0.319c-0.277,-0 -0.537,0.071 -0.78,0.215c-0.244,0.143 -0.418,0.338 -0.521,0.583c-0.104,0.245 -0.156,0.584 -0.156,1.016l0,3.012l-0.933,0Z" style="fill:#0d0d0d;fill-rule:nonzero;"/><path d="M139.308,425.097c-0.345,0.294 -0.678,0.501 -0.998,0.622c-0.319,0.121 -0.662,0.182 -1.029,0.182c-0.604,-0 -1.069,-0.148 -1.394,-0.444c-0.325,-0.295 -0.488,-0.673 -0.488,-1.132c0,-0.27 0.062,-0.516 0.185,-0.739c0.122,-0.223 0.283,-0.402 0.482,-0.537c0.198,-0.135 0.422,-0.236 0.671,-0.306c0.183,-0.048 0.46,-0.095 0.829,-0.14c0.754,-0.089 1.309,-0.197 1.665,-0.321c0.003,-0.128 0.005,-0.209 0.005,-0.244c-0,-0.38 -0.088,-0.648 -0.265,-0.803c-0.238,-0.211 -0.592,-0.316 -1.062,-0.316c-0.439,-0 -0.763,0.077 -0.972,0.23c-0.21,0.154 -0.364,0.426 -0.464,0.817l-0.913,-0.125c0.083,-0.39 0.22,-0.706 0.41,-0.946c0.19,-0.24 0.465,-0.425 0.824,-0.554c0.359,-0.13 0.776,-0.195 1.249,-0.195c0.47,0 0.852,0.055 1.146,0.166c0.294,0.111 0.51,0.25 0.648,0.417c0.138,0.168 0.235,0.38 0.29,0.635c0.031,0.159 0.047,0.446 0.047,0.861l0,1.244c0,0.868 0.02,1.416 0.06,1.646c0.039,0.23 0.118,0.45 0.236,0.661l-0.975,0c-0.097,-0.193 -0.159,-0.42 -0.187,-0.679Zm-0.077,-2.084c-0.339,0.138 -0.847,0.256 -1.525,0.352c-0.383,0.056 -0.655,0.118 -0.813,0.187c-0.159,0.069 -0.282,0.17 -0.369,0.303c-0.086,0.133 -0.129,0.281 -0.129,0.444c-0,0.248 0.094,0.456 0.282,0.622c0.189,0.166 0.464,0.249 0.827,0.249c0.36,-0 0.679,-0.079 0.959,-0.236c0.28,-0.158 0.486,-0.373 0.617,-0.646c0.1,-0.211 0.151,-0.522 0.151,-0.933l-0,-0.342Z" style="fill:#0d0d0d;fill-rule:nonzero;"/><path d="M141.247,424.133l0.923,-0.145c0.052,0.369 0.196,0.653 0.433,0.85c0.237,0.197 0.567,0.295 0.993,0.295c0.428,0 0.746,-0.087 0.953,-0.262c0.208,-0.174 0.311,-0.379 0.311,-0.614c0,-0.211 -0.091,-0.377 -0.274,-0.498c-0.128,-0.082 -0.446,-0.188 -0.954,-0.316c-0.684,-0.173 -1.159,-0.322 -1.423,-0.448c-0.265,-0.126 -0.465,-0.301 -0.602,-0.524c-0.136,-0.223 -0.204,-0.469 -0.204,-0.738c-0,-0.246 0.056,-0.473 0.168,-0.682c0.112,-0.209 0.265,-0.383 0.459,-0.521c0.145,-0.107 0.343,-0.198 0.594,-0.272c0.25,-0.075 0.519,-0.112 0.806,-0.112c0.432,0 0.811,0.062 1.138,0.187c0.326,0.124 0.567,0.293 0.723,0.505c0.155,0.213 0.262,0.497 0.321,0.853l-0.912,0.124c-0.042,-0.283 -0.162,-0.504 -0.361,-0.663c-0.198,-0.159 -0.479,-0.239 -0.842,-0.239c-0.429,0 -0.734,0.071 -0.918,0.213c-0.183,0.142 -0.274,0.308 -0.274,0.498c-0,0.121 0.038,0.229 0.114,0.326c0.076,0.1 0.195,0.183 0.357,0.249c0.094,0.035 0.369,0.114 0.825,0.239c0.66,0.176 1.12,0.32 1.381,0.432c0.261,0.113 0.466,0.276 0.615,0.49c0.148,0.215 0.223,0.481 0.223,0.799c-0,0.311 -0.091,0.604 -0.273,0.878c-0.181,0.275 -0.443,0.488 -0.785,0.638c-0.342,0.15 -0.729,0.226 -1.161,0.226c-0.716,-0 -1.261,-0.149 -1.636,-0.446c-0.375,-0.298 -0.614,-0.738 -0.718,-1.322Z" style="fill:#0d0d0d;fill-rule:nonzero;"/><rect x="149.858" y="418.176" width="0.933" height="7.6" style="fill:#0d0d0d;fill-rule:nonzero;"/><path d="M152.243,419.249l-0,-1.073l0.933,0l-0,1.073l-0.933,0Zm-0,6.527l-0,-5.505l0.933,-0l-0,5.505l-0.933,0Z" style="fill:#0d0d0d;fill-rule:nonzero;"/><path d="M154.596,425.776l0,-5.505l0.835,-0l-0,0.772c0.173,-0.27 0.402,-0.486 0.689,-0.651c0.287,-0.164 0.614,-0.246 0.98,-0.246c0.408,0 0.742,0.085 1.003,0.254c0.261,0.17 0.445,0.406 0.552,0.71c0.436,-0.642 1.003,-0.964 1.701,-0.964c0.546,0 0.966,0.151 1.259,0.454c0.294,0.302 0.441,0.768 0.441,1.397l0,3.779l-0.928,0l0,-3.468c0,-0.373 -0.03,-0.642 -0.091,-0.806c-0.06,-0.164 -0.17,-0.297 -0.329,-0.397c-0.159,-0.1 -0.345,-0.15 -0.56,-0.15c-0.387,-0 -0.708,0.129 -0.964,0.386c-0.256,0.258 -0.384,0.67 -0.384,1.237l0,3.198l-0.933,0l0,-3.577c0,-0.415 -0.076,-0.726 -0.228,-0.933c-0.152,-0.207 -0.401,-0.311 -0.746,-0.311c-0.263,-0 -0.506,0.069 -0.729,0.207c-0.223,0.139 -0.384,0.341 -0.484,0.607c-0.101,0.266 -0.151,0.65 -0.151,1.151l0,2.856l-0.933,0Z" style="fill:#0d0d0d;fill-rule:nonzero;"/><path d="M163.445,419.249l0,-1.073l0.934,0l-0,1.073l-0.934,0Zm0,6.527l0,-5.505l0.934,-0l-0,5.505l-0.934,0Z" style="fill:#0d0d0d;fill-rule:nonzero;"/><path d="M167.836,424.941l0.135,0.825c-0.263,0.055 -0.498,0.083 -0.705,0.083c-0.339,-0 -0.601,-0.054 -0.788,-0.161c-0.186,-0.107 -0.318,-0.248 -0.394,-0.423c-0.076,-0.174 -0.114,-0.541 -0.114,-1.101l0,-3.168l-0.684,0l-0,-0.725l0.684,-0l0,-1.364l0.928,-0.56l0,1.924l0.938,-0l0,0.725l-0.938,0l0,3.22c0,0.266 0.016,0.437 0.049,0.513c0.033,0.076 0.087,0.136 0.161,0.181c0.074,0.045 0.181,0.068 0.319,0.068c0.104,-0 0.24,-0.012 0.409,-0.037Z" style="fill:#0d0d0d;fill-rule:nonzero;"/><path d="M172.518,424.003l0.964,0.119c-0.152,0.564 -0.434,1.001 -0.845,1.312c-0.411,0.311 -0.937,0.467 -1.576,0.467c-0.805,-0 -1.444,-0.248 -1.916,-0.744c-0.471,-0.496 -0.707,-1.192 -0.707,-2.087c-0,-0.926 0.238,-1.645 0.715,-2.157c0.477,-0.511 1.096,-0.767 1.856,-0.767c0.736,0 1.338,0.251 1.804,0.752c0.467,0.501 0.7,1.206 0.7,2.115c-0,0.055 -0.002,0.138 -0.005,0.249l-4.106,-0c0.035,0.605 0.206,1.068 0.513,1.389c0.308,0.322 0.691,0.482 1.151,0.482c0.342,0 0.634,-0.09 0.876,-0.269c0.242,-0.18 0.434,-0.467 0.576,-0.861Zm-3.064,-1.508l3.074,-0c-0.042,-0.464 -0.159,-0.811 -0.353,-1.042c-0.297,-0.36 -0.682,-0.54 -1.156,-0.54c-0.428,0 -0.788,0.144 -1.08,0.431c-0.293,0.287 -0.454,0.67 -0.485,1.151Z" style="fill:#0d0d0d;fill-rule:nonzero;"/><path d="M178.225,425.776l0,-0.695c-0.349,0.546 -0.862,0.82 -1.539,0.82c-0.439,-0 -0.843,-0.121 -1.211,-0.363c-0.368,-0.242 -0.653,-0.58 -0.855,-1.014c-0.202,-0.434 -0.304,-0.932 -0.304,-1.495c0,-0.55 0.092,-1.049 0.275,-1.496c0.183,-0.448 0.458,-0.791 0.825,-1.029c0.366,-0.239 0.775,-0.358 1.228,-0.358c0.332,0 0.627,0.07 0.887,0.21c0.259,0.14 0.47,0.322 0.632,0.547l0,-2.727l0.928,0l0,7.6l-0.866,0Zm-2.949,-2.747c-0,0.705 0.148,1.232 0.445,1.581c0.298,0.349 0.648,0.523 1.053,0.523c0.408,0 0.754,-0.166 1.039,-0.5c0.285,-0.334 0.428,-0.842 0.428,-1.527c-0,-0.753 -0.145,-1.306 -0.436,-1.659c-0.29,-0.352 -0.648,-0.528 -1.073,-0.528c-0.414,-0 -0.761,0.169 -1.039,0.508c-0.278,0.338 -0.417,0.872 -0.417,1.602Z" style="fill:#0d0d0d;fill-rule:nonzero;"/><path d="M183.731,425.776l-0,-4.78l-0.824,0l-0,-0.725l0.824,-0l-0,-0.586c-0,-0.37 0.033,-0.645 0.098,-0.824c0.09,-0.242 0.248,-0.439 0.475,-0.589c0.226,-0.15 0.543,-0.225 0.951,-0.225c0.263,-0 0.553,0.031 0.871,0.093l-0.14,0.814c-0.194,-0.035 -0.377,-0.052 -0.55,-0.052c-0.283,-0 -0.483,0.06 -0.601,0.181c-0.117,0.121 -0.176,0.348 -0.176,0.68l-0,0.508l1.073,-0l-0,0.725l-1.073,0l-0,4.78l-0.928,0Z" style="fill:#0d0d0d;fill-rule:nonzero;"/><path d="M190.066,425.776l-0,-0.809c-0.429,0.622 -1.011,0.934 -1.747,0.934c-0.325,-0 -0.628,-0.063 -0.91,-0.187c-0.282,-0.125 -0.491,-0.281 -0.627,-0.469c-0.137,-0.189 -0.233,-0.419 -0.288,-0.692c-0.038,-0.184 -0.057,-0.474 -0.057,-0.871l-0,-3.411l0.933,-0l0,3.053c0,0.487 0.019,0.816 0.057,0.985c0.059,0.245 0.183,0.438 0.373,0.578c0.19,0.14 0.425,0.21 0.705,0.21c0.28,-0 0.543,-0.072 0.788,-0.215c0.246,-0.144 0.419,-0.339 0.521,-0.586c0.102,-0.247 0.153,-0.606 0.153,-1.076l0,-2.949l0.933,-0l0,5.505l-0.834,0Z" style="fill:#0d0d0d;fill-rule:nonzero;"/><path d="M192.362,425.776l0,-5.505l0.84,-0l0,0.782c0.404,-0.604 0.989,-0.907 1.752,-0.907c0.332,0 0.637,0.06 0.915,0.179c0.279,0.119 0.487,0.276 0.625,0.469c0.138,0.194 0.235,0.424 0.29,0.69c0.035,0.172 0.052,0.475 0.052,0.907l0,3.385l-0.933,0l0,-3.349c0,-0.38 -0.036,-0.664 -0.109,-0.853c-0.072,-0.188 -0.201,-0.338 -0.386,-0.451c-0.185,-0.112 -0.402,-0.168 -0.651,-0.168c-0.397,-0 -0.74,0.126 -1.029,0.378c-0.288,0.253 -0.433,0.731 -0.433,1.436l0,3.007l-0.933,0Z" style="fill:#0d0d0d;fill-rule:nonzero;"/><path d="M200.304,424.941l0.135,0.825c-0.263,0.055 -0.498,0.083 -0.705,0.083c-0.339,-0 -0.601,-0.054 -0.788,-0.161c-0.187,-0.107 -0.318,-0.248 -0.394,-0.423c-0.076,-0.174 -0.114,-0.541 -0.114,-1.101l0,-3.168l-0.684,0l-0,-0.725l0.684,-0l0,-1.364l0.928,-0.56l0,1.924l0.938,-0l0,0.725l-0.938,0l0,3.22c0,0.266 0.016,0.437 0.049,0.513c0.033,0.076 0.087,0.136 0.161,0.181c0.074,0.045 0.181,0.068 0.319,0.068c0.103,-0 0.24,-0.012 0.409,-0.037Z" style="fill:#0d0d0d;fill-rule:nonzero;"/><path d="M201.222,419.249l-0,-1.073l0.933,0l0,1.073l-0.933,0Zm-0,6.527l-0,-5.505l0.933,-0l0,5.505l-0.933,0Z" style="fill:#0d0d0d;fill-rule:nonzero;"/><path d="M203.228,423.023c0,-1.019 0.284,-1.774 0.85,-2.265c0.474,-0.408 1.051,-0.612 1.732,-0.612c0.757,0 1.375,0.248 1.856,0.744c0.48,0.496 0.72,1.181 0.72,2.056c0,0.708 -0.106,1.265 -0.318,1.671c-0.213,0.407 -0.522,0.722 -0.928,0.947c-0.407,0.224 -0.85,0.337 -1.33,0.337c-0.771,-0 -1.394,-0.248 -1.869,-0.742c-0.475,-0.494 -0.713,-1.206 -0.713,-2.136Zm0.959,0c0,0.705 0.154,1.233 0.462,1.584c0.307,0.351 0.694,0.526 1.161,0.526c0.463,0 0.848,-0.176 1.156,-0.529c0.307,-0.352 0.461,-0.889 0.461,-1.612c0,-0.681 -0.154,-1.196 -0.464,-1.547c-0.309,-0.351 -0.693,-0.526 -1.153,-0.526c-0.467,-0 -0.854,0.174 -1.161,0.523c-0.308,0.349 -0.462,0.876 -0.462,1.581Z" style="fill:#0d0d0d;fill-rule:nonzero;"/><path d="M209.48,425.776l0,-5.505l0.84,-0l0,0.782c0.404,-0.604 0.988,-0.907 1.752,-0.907c0.332,0 0.637,0.06 0.915,0.179c0.278,0.119 0.487,0.276 0.625,0.469c0.138,0.194 0.235,0.424 0.29,0.69c0.035,0.172 0.052,0.475 0.052,0.907l0,3.385l-0.933,0l-0,-3.349c-0,-0.38 -0.036,-0.664 -0.109,-0.853c-0.073,-0.188 -0.201,-0.338 -0.386,-0.451c-0.185,-0.112 -0.402,-0.168 -0.651,-0.168c-0.397,-0 -0.74,0.126 -1.029,0.378c-0.288,0.253 -0.433,0.731 -0.433,1.436l0,3.007l-0.933,0Z" style="fill:#0d0d0d;fill-rule:nonzero;"/><path d="M218.977,425.097c-0.345,0.294 -0.678,0.501 -0.997,0.622c-0.32,0.121 -0.663,0.182 -1.03,0.182c-0.604,-0 -1.069,-0.148 -1.394,-0.444c-0.325,-0.295 -0.487,-0.673 -0.487,-1.132c-0,-0.27 0.061,-0.516 0.184,-0.739c0.122,-0.223 0.283,-0.402 0.482,-0.537c0.199,-0.135 0.422,-0.236 0.671,-0.306c0.183,-0.048 0.46,-0.095 0.83,-0.14c0.753,-0.089 1.308,-0.197 1.664,-0.321c0.003,-0.128 0.005,-0.209 0.005,-0.244c-0,-0.38 -0.088,-0.648 -0.265,-0.803c-0.238,-0.211 -0.592,-0.316 -1.062,-0.316c-0.439,-0 -0.763,0.077 -0.972,0.23c-0.209,0.154 -0.364,0.426 -0.464,0.817l-0.913,-0.125c0.083,-0.39 0.22,-0.706 0.41,-0.946c0.19,-0.24 0.465,-0.425 0.824,-0.554c0.36,-0.13 0.776,-0.195 1.25,-0.195c0.47,0 0.851,0.055 1.145,0.166c0.294,0.111 0.51,0.25 0.648,0.417c0.138,0.168 0.235,0.38 0.291,0.635c0.031,0.159 0.046,0.446 0.046,0.861l0,1.244c0,0.868 0.02,1.416 0.06,1.646c0.04,0.23 0.118,0.45 0.236,0.661l-0.975,0c-0.097,-0.193 -0.159,-0.42 -0.187,-0.679Zm-0.077,-2.084c-0.339,0.138 -0.847,0.256 -1.524,0.352c-0.384,0.056 -0.655,0.118 -0.814,0.187c-0.159,0.069 -0.282,0.17 -0.368,0.303c-0.087,0.133 -0.13,0.281 -0.13,0.444c-0,0.248 0.094,0.456 0.283,0.622c0.188,0.166 0.463,0.249 0.826,0.249c0.36,-0 0.679,-0.079 0.959,-0.236c0.28,-0.158 0.486,-0.373 0.617,-0.646c0.101,-0.211 0.151,-0.522 0.151,-0.933l-0,-0.342Z" style="fill:#0d0d0d;fill-rule:nonzero;"/><rect x="221.269" y="418.176" width="0.933" height="7.6" style="fill:#0d0d0d;fill-rule:nonzero;"/><path d="M223.654,419.249l-0,-1.073l0.933,0l-0,1.073l-0.933,0Zm-0,6.527l-0,-5.505l0.933,-0l-0,5.505l-0.933,0Z" style="fill:#0d0d0d;fill-rule:nonzero;"/><path d="M228.044,424.941l0.135,0.825c-0.262,0.055 -0.497,0.083 -0.705,0.083c-0.339,-0 -0.601,-0.054 -0.788,-0.161c-0.186,-0.107 -0.318,-0.248 -0.394,-0.423c-0.076,-0.174 -0.114,-0.541 -0.114,-1.101l0,-3.168l-0.684,0l-0,-0.725l0.684,-0l0,-1.364l0.928,-0.56l0,1.924l0.938,-0l0,0.725l-0.938,0l0,3.22c0,0.266 0.017,0.437 0.049,0.513c0.033,0.076 0.087,0.136 0.161,0.181c0.074,0.045 0.181,0.068 0.319,0.068c0.104,-0 0.24,-0.012 0.409,-0.037Z" style="fill:#0d0d0d;fill-rule:nonzero;"/><path d="M228.962,419.249l0,-1.073l0.933,0l0,1.073l-0.933,0Zm0,6.527l0,-5.505l0.933,-0l0,5.505l-0.933,0Z" style="fill:#0d0d0d;fill-rule:nonzero;"/><path d="M235.084,424.003l0.965,0.119c-0.152,0.564 -0.434,1.001 -0.845,1.312c-0.412,0.311 -0.937,0.467 -1.576,0.467c-0.806,-0 -1.444,-0.248 -1.916,-0.744c-0.472,-0.496 -0.707,-1.192 -0.707,-2.087c-0,-0.926 0.238,-1.645 0.715,-2.157c0.477,-0.511 1.096,-0.767 1.856,-0.767c0.736,0 1.337,0.251 1.804,0.752c0.466,0.501 0.7,1.206 0.7,2.115c-0,0.055 -0.002,0.138 -0.005,0.249l-4.106,-0c0.034,0.605 0.205,1.068 0.513,1.389c0.308,0.322 0.691,0.482 1.151,0.482c0.342,0 0.634,-0.09 0.876,-0.269c0.242,-0.18 0.434,-0.467 0.575,-0.861Zm-3.063,-1.508l3.074,-0c-0.042,-0.464 -0.159,-0.811 -0.353,-1.042c-0.297,-0.36 -0.682,-0.54 -1.156,-0.54c-0.428,0 -0.789,0.144 -1.081,0.431c-0.292,0.287 -0.453,0.67 -0.484,1.151Z" style="fill:#0d0d0d;fill-rule:nonzero;"/><path d="M236.847,424.133l0.923,-0.145c0.052,0.369 0.196,0.653 0.433,0.85c0.236,0.197 0.567,0.295 0.992,0.295c0.429,0 0.747,-0.087 0.954,-0.262c0.208,-0.174 0.311,-0.379 0.311,-0.614c0,-0.211 -0.091,-0.377 -0.274,-0.498c-0.128,-0.082 -0.446,-0.188 -0.954,-0.316c-0.685,-0.173 -1.159,-0.322 -1.423,-0.448c-0.265,-0.126 -0.465,-0.301 -0.602,-0.524c-0.136,-0.223 -0.204,-0.469 -0.204,-0.738c-0,-0.246 0.056,-0.473 0.168,-0.682c0.112,-0.209 0.265,-0.383 0.459,-0.521c0.145,-0.107 0.343,-0.198 0.593,-0.272c0.251,-0.075 0.52,-0.112 0.807,-0.112c0.432,0 0.811,0.062 1.137,0.187c0.327,0.124 0.568,0.293 0.724,0.505c0.155,0.213 0.262,0.497 0.321,0.853l-0.912,0.124c-0.042,-0.283 -0.162,-0.504 -0.361,-0.663c-0.198,-0.159 -0.479,-0.239 -0.842,-0.239c-0.429,0 -0.734,0.071 -0.918,0.213c-0.183,0.142 -0.274,0.308 -0.274,0.498c-0,0.121 0.038,0.229 0.114,0.326c0.076,0.1 0.195,0.183 0.357,0.249c0.094,0.035 0.368,0.114 0.825,0.239c0.66,0.176 1.12,0.32 1.381,0.432c0.261,0.113 0.466,0.276 0.614,0.49c0.149,0.215 0.223,0.481 0.223,0.799c0,0.311 -0.09,0.604 -0.272,0.878c-0.181,0.275 -0.443,0.488 -0.785,0.638c-0.342,0.15 -0.729,0.226 -1.161,0.226c-0.716,-0 -1.261,-0.149 -1.636,-0.446c-0.375,-0.298 -0.614,-0.738 -0.718,-1.322Z" style="fill:#0d0d0d;fill-rule:nonzero;"/><rect x="242.793" y="424.713" width="1.063" height="1.063" style="fill:#0d0d0d;fill-rule:nonzero;"/></g><g><path d="M24.64,401.587l-0,-6.68l-2.495,0l-0,-0.893l6.003,-0l-0,0.893l-2.506,0l0,6.68l-1.002,0Z" style="fill:#0d0d0d;fill-rule:nonzero;"/><path d="M29.057,401.587l-0,-7.573l0.93,-0l-0,2.717c0.434,-0.503 0.981,-0.754 1.643,-0.754c0.406,-0 0.759,0.08 1.059,0.24c0.299,0.16 0.514,0.381 0.643,0.664c0.129,0.282 0.194,0.692 0.194,1.229l-0,3.477l-0.93,0l-0,-3.477c-0,-0.465 -0.101,-0.803 -0.302,-1.015c-0.202,-0.212 -0.487,-0.318 -0.855,-0.318c-0.276,0 -0.535,0.072 -0.778,0.215c-0.243,0.143 -0.416,0.337 -0.519,0.581c-0.103,0.245 -0.155,0.582 -0.155,1.013l-0,3.001l-0.93,0Z" style="fill:#0d0d0d;fill-rule:nonzero;"/><path d="M34.946,395.083l0,-1.069l0.93,-0l0,1.069l-0.93,-0Zm0,6.504l0,-5.486l0.93,-0l0,5.486l-0.93,0Z" style="fill:#0d0d0d;fill-rule:nonzero;"/><path d="M36.92,399.949l0.919,-0.144c0.052,0.368 0.196,0.651 0.432,0.847c0.236,0.196 0.566,0.295 0.989,0.295c0.427,-0 0.744,-0.087 0.951,-0.261c0.206,-0.174 0.31,-0.378 0.31,-0.613c-0,-0.21 -0.092,-0.375 -0.274,-0.495c-0.128,-0.083 -0.444,-0.188 -0.951,-0.316c-0.682,-0.172 -1.154,-0.321 -1.418,-0.446c-0.263,-0.126 -0.463,-0.3 -0.599,-0.522c-0.136,-0.222 -0.204,-0.468 -0.204,-0.736c-0,-0.245 0.056,-0.471 0.168,-0.68c0.112,-0.208 0.264,-0.381 0.457,-0.519c0.145,-0.107 0.342,-0.197 0.592,-0.271c0.249,-0.074 0.517,-0.111 0.803,-0.111c0.43,-0 0.808,0.062 1.134,0.186c0.325,0.124 0.566,0.292 0.721,0.503c0.155,0.212 0.261,0.495 0.32,0.85l-0.909,0.124c-0.042,-0.282 -0.161,-0.503 -0.359,-0.661c-0.199,-0.158 -0.478,-0.238 -0.84,-0.238c-0.427,0 -0.732,0.071 -0.914,0.212c-0.183,0.141 -0.274,0.307 -0.274,0.496c-0,0.121 0.038,0.229 0.113,0.326c0.076,0.099 0.195,0.182 0.357,0.248c0.093,0.034 0.367,0.113 0.821,0.237c0.658,0.176 1.117,0.32 1.377,0.432c0.26,0.111 0.464,0.274 0.612,0.488c0.148,0.213 0.222,0.478 0.222,0.795c0,0.31 -0.09,0.602 -0.271,0.876c-0.181,0.274 -0.441,0.486 -0.782,0.635c-0.341,0.15 -0.727,0.225 -1.158,0.225c-0.713,0 -1.256,-0.148 -1.63,-0.444c-0.373,-0.296 -0.612,-0.735 -0.715,-1.318Z" style="fill:#0d0d0d;fill-rule:nonzero;"/><path d="M45.527,395.083l-0,-1.069l0.93,-0l-0,1.069l-0.93,-0Zm-0,6.504l-0,-5.486l0.93,-0l-0,5.486l-0.93,0Z" style="fill:#0d0d0d;fill-rule:nonzero;"/><path d="M47.5,399.949l0.92,-0.144c0.052,0.368 0.195,0.651 0.431,0.847c0.236,0.196 0.566,0.295 0.99,0.295c0.427,-0 0.743,-0.087 0.95,-0.261c0.207,-0.174 0.31,-0.378 0.31,-0.613c0,-0.21 -0.091,-0.375 -0.274,-0.495c-0.127,-0.083 -0.444,-0.188 -0.95,-0.316c-0.682,-0.172 -1.155,-0.321 -1.418,-0.446c-0.264,-0.126 -0.464,-0.3 -0.6,-0.522c-0.136,-0.222 -0.204,-0.468 -0.204,-0.736c0,-0.245 0.056,-0.471 0.168,-0.68c0.112,-0.208 0.264,-0.381 0.457,-0.519c0.145,-0.107 0.342,-0.197 0.592,-0.271c0.25,-0.074 0.517,-0.111 0.803,-0.111c0.431,-0 0.809,0.062 1.134,0.186c0.326,0.124 0.566,0.292 0.721,0.503c0.155,0.212 0.262,0.495 0.32,0.85l-0.909,0.124c-0.041,-0.282 -0.161,-0.503 -0.359,-0.661c-0.198,-0.158 -0.478,-0.238 -0.84,-0.238c-0.427,0 -0.731,0.071 -0.914,0.212c-0.183,0.141 -0.274,0.307 -0.274,0.496c0,0.121 0.038,0.229 0.114,0.326c0.076,0.099 0.194,0.182 0.356,0.248c0.093,0.034 0.367,0.113 0.822,0.237c0.658,0.176 1.116,0.32 1.377,0.432c0.26,0.111 0.464,0.274 0.612,0.488c0.148,0.213 0.222,0.478 0.222,0.795c-0,0.31 -0.091,0.602 -0.271,0.876c-0.181,0.274 -0.442,0.486 -0.783,0.635c-0.341,0.15 -0.727,0.225 -1.157,0.225c-0.713,0 -1.257,-0.148 -1.63,-0.444c-0.374,-0.296 -0.612,-0.735 -0.716,-1.318Z" style="fill:#0d0d0d;fill-rule:nonzero;"/><path d="M59.682,400.91c-0.344,0.293 -0.676,0.5 -0.994,0.62c-0.319,0.121 -0.661,0.181 -1.026,0.181c-0.603,0 -1.066,-0.147 -1.39,-0.442c-0.323,-0.294 -0.485,-0.67 -0.485,-1.128c-0,-0.269 0.061,-0.514 0.183,-0.737c0.122,-0.222 0.283,-0.4 0.481,-0.534c0.198,-0.135 0.421,-0.236 0.669,-0.305c0.182,-0.048 0.458,-0.095 0.826,-0.14c0.751,-0.089 1.304,-0.196 1.659,-0.32c0.003,-0.127 0.005,-0.208 0.005,-0.243c-0,-0.379 -0.088,-0.645 -0.264,-0.8c-0.237,-0.21 -0.59,-0.316 -1.059,-0.316c-0.437,0 -0.76,0.077 -0.968,0.23c-0.209,0.154 -0.363,0.425 -0.463,0.814l-0.909,-0.124c0.083,-0.389 0.219,-0.703 0.408,-0.943c0.19,-0.239 0.463,-0.423 0.822,-0.553c0.358,-0.129 0.773,-0.193 1.245,-0.193c0.468,-0 0.849,0.055 1.141,0.165c0.293,0.11 0.508,0.249 0.646,0.416c0.138,0.167 0.234,0.378 0.289,0.633c0.031,0.158 0.047,0.444 0.047,0.857l-0,1.24c-0,0.865 0.02,1.411 0.059,1.64c0.04,0.23 0.118,0.449 0.235,0.659l-0.971,0c-0.096,-0.193 -0.158,-0.418 -0.186,-0.677Zm-0.077,-2.076c-0.338,0.137 -0.844,0.254 -1.519,0.351c-0.383,0.055 -0.653,0.117 -0.811,0.186c-0.159,0.069 -0.281,0.17 -0.367,0.302c-0.086,0.133 -0.129,0.28 -0.129,0.442c-0,0.248 0.094,0.454 0.281,0.62c0.188,0.165 0.463,0.248 0.824,0.248c0.358,-0 0.677,-0.079 0.956,-0.235c0.279,-0.157 0.484,-0.371 0.615,-0.644c0.1,-0.21 0.15,-0.52 0.15,-0.929l-0,-0.341Z" style="fill:#0d0d0d;fill-rule:nonzero;"/><path d="M65.003,401.587l0,-7.573l1.003,-0l-0,6.679l3.73,0l-0,0.894l-4.733,0Z" style="fill:#0d0d0d;fill-rule:nonzero;"/><path d="M70.464,398.844c-0,-1.016 0.282,-1.769 0.847,-2.258c0.472,-0.406 1.047,-0.609 1.726,-0.609c0.754,-0 1.371,0.247 1.849,0.741c0.479,0.494 0.718,1.177 0.718,2.048c0,0.706 -0.106,1.262 -0.317,1.667c-0.212,0.404 -0.52,0.718 -0.925,0.942c-0.405,0.224 -0.847,0.336 -1.325,0.336c-0.768,0 -1.389,-0.246 -1.863,-0.739c-0.473,-0.492 -0.71,-1.202 -0.71,-2.128Zm0.956,-0c-0,0.703 0.153,1.229 0.46,1.578c0.306,0.35 0.692,0.525 1.157,0.525c0.461,-0 0.845,-0.176 1.152,-0.527c0.306,-0.352 0.46,-0.887 0.46,-1.607c-0,-0.679 -0.155,-1.193 -0.463,-1.542c-0.308,-0.35 -0.691,-0.525 -1.149,-0.525c-0.465,0 -0.851,0.174 -1.157,0.522c-0.307,0.348 -0.46,0.873 -0.46,1.576Z" style="fill:#0d0d0d;fill-rule:nonzero;"/><path d="M76.524,402.042l0.904,0.134c0.038,0.279 0.143,0.482 0.315,0.61c0.231,0.172 0.546,0.258 0.946,0.258c0.43,0 0.762,-0.086 0.997,-0.258c0.234,-0.172 0.392,-0.414 0.475,-0.724c0.048,-0.189 0.071,-0.587 0.067,-1.193c-0.406,0.479 -0.913,0.718 -1.519,0.718c-0.754,0 -1.338,-0.272 -1.751,-0.816c-0.413,-0.544 -0.62,-1.197 -0.62,-1.958c-0,-0.524 0.095,-1.007 0.284,-1.449c0.19,-0.443 0.464,-0.785 0.824,-1.026c0.36,-0.241 0.783,-0.361 1.268,-0.361c0.648,-0 1.182,0.261 1.602,0.785l-0,-0.661l0.857,-0l0,4.742c0,0.854 -0.086,1.46 -0.26,1.816c-0.174,0.357 -0.45,0.638 -0.827,0.845c-0.377,0.206 -0.841,0.31 -1.392,0.31c-0.655,-0 -1.183,-0.147 -1.586,-0.442c-0.403,-0.294 -0.598,-0.738 -0.584,-1.33Zm0.77,-3.296c-0,0.72 0.143,1.245 0.428,1.575c0.286,0.331 0.645,0.496 1.075,0.496c0.427,0 0.785,-0.164 1.075,-0.493c0.289,-0.329 0.434,-0.845 0.434,-1.547c-0,-0.672 -0.149,-1.178 -0.447,-1.519c-0.298,-0.341 -0.657,-0.512 -1.077,-0.512c-0.414,0 -0.765,0.168 -1.054,0.504c-0.29,0.336 -0.434,0.834 -0.434,1.496Z" style="fill:#0d0d0d;fill-rule:nonzero;"/><path d="M82.233,398.844c-0,-1.016 0.282,-1.769 0.847,-2.258c0.472,-0.406 1.047,-0.609 1.725,-0.609c0.755,-0 1.371,0.247 1.85,0.741c0.479,0.494 0.718,1.177 0.718,2.048c-0,0.706 -0.106,1.262 -0.318,1.667c-0.212,0.404 -0.52,0.718 -0.925,0.942c-0.404,0.224 -0.846,0.336 -1.325,0.336c-0.768,0 -1.389,-0.246 -1.862,-0.739c-0.474,-0.492 -0.71,-1.202 -0.71,-2.128Zm0.955,-0c0,0.703 0.154,1.229 0.46,1.578c0.307,0.35 0.692,0.525 1.157,0.525c0.462,-0 0.846,-0.176 1.152,-0.527c0.307,-0.352 0.46,-0.887 0.46,-1.607c0,-0.679 -0.154,-1.193 -0.462,-1.542c-0.308,-0.35 -0.692,-0.525 -1.15,-0.525c-0.465,0 -0.85,0.174 -1.157,0.522c-0.306,0.348 -0.46,0.873 -0.46,1.576Z" style="fill:#0d0d0d;fill-rule:nonzero;"/><path d="M91.521,401.587l0,-7.573l2.609,-0c0.589,-0 1.039,0.036 1.349,0.108c0.434,0.1 0.804,0.281 1.11,0.542c0.4,0.338 0.699,0.769 0.897,1.295c0.198,0.525 0.297,1.125 0.297,1.8c-0,0.575 -0.067,1.085 -0.202,1.529c-0.134,0.445 -0.306,0.812 -0.516,1.103c-0.21,0.291 -0.44,0.52 -0.69,0.687c-0.25,0.167 -0.551,0.294 -0.904,0.38c-0.353,0.086 -0.759,0.129 -1.217,0.129l-2.733,0Zm1.003,-0.894l1.617,0c0.499,0 0.891,-0.046 1.175,-0.139c0.284,-0.093 0.511,-0.224 0.679,-0.393c0.238,-0.237 0.423,-0.557 0.556,-0.958c0.132,-0.401 0.199,-0.888 0.199,-1.459c-0,-0.793 -0.13,-1.401 -0.39,-1.827c-0.261,-0.425 -0.577,-0.71 -0.948,-0.855c-0.269,-0.103 -0.701,-0.155 -1.297,-0.155l-1.591,0l-0,5.786Z" style="fill:#0d0d0d;fill-rule:nonzero;"/><path d="M102.799,399.82l0.961,0.119c-0.151,0.562 -0.432,0.997 -0.842,1.307c-0.41,0.31 -0.933,0.465 -1.571,0.465c-0.802,0 -1.438,-0.247 -1.908,-0.741c-0.471,-0.494 -0.706,-1.188 -0.706,-2.08c0,-0.923 0.238,-1.639 0.713,-2.149c0.476,-0.509 1.092,-0.764 1.85,-0.764c0.733,-0 1.333,0.249 1.798,0.749c0.465,0.499 0.697,1.202 0.697,2.108c0,0.055 -0.002,0.137 -0.005,0.248l-4.092,-0c0.035,0.602 0.205,1.064 0.512,1.384c0.306,0.32 0.689,0.481 1.147,0.481c0.341,-0 0.632,-0.09 0.873,-0.269c0.241,-0.179 0.432,-0.465 0.573,-0.858Zm-3.053,-1.503l3.063,-0c-0.041,-0.462 -0.158,-0.808 -0.351,-1.038c-0.296,-0.359 -0.68,-0.538 -1.152,-0.538c-0.427,0 -0.786,0.143 -1.077,0.429c-0.291,0.286 -0.452,0.668 -0.483,1.147Z" style="fill:#0d0d0d;fill-rule:nonzero;"/><path d="M104.556,399.949l0.919,-0.144c0.052,0.368 0.196,0.651 0.432,0.847c0.236,0.196 0.565,0.295 0.989,0.295c0.427,-0 0.744,-0.087 0.951,-0.261c0.206,-0.174 0.309,-0.378 0.309,-0.613c0,-0.21 -0.091,-0.375 -0.273,-0.495c-0.128,-0.083 -0.445,-0.188 -0.951,-0.316c-0.682,-0.172 -1.155,-0.321 -1.418,-0.446c-0.263,-0.126 -0.463,-0.3 -0.599,-0.522c-0.136,-0.222 -0.204,-0.468 -0.204,-0.736c-0,-0.245 0.056,-0.471 0.168,-0.68c0.111,-0.208 0.264,-0.381 0.457,-0.519c0.144,-0.107 0.342,-0.197 0.591,-0.271c0.25,-0.074 0.518,-0.111 0.804,-0.111c0.43,-0 0.808,0.062 1.134,0.186c0.325,0.124 0.565,0.292 0.72,0.503c0.155,0.212 0.262,0.495 0.321,0.85l-0.91,0.124c-0.041,-0.282 -0.161,-0.503 -0.359,-0.661c-0.198,-0.158 -0.478,-0.238 -0.839,-0.238c-0.427,0 -0.732,0.071 -0.915,0.212c-0.182,0.141 -0.273,0.307 -0.273,0.496c-0,0.121 0.037,0.229 0.113,0.326c0.076,0.099 0.195,0.182 0.357,0.248c0.093,0.034 0.366,0.113 0.821,0.237c0.658,0.176 1.117,0.32 1.377,0.432c0.26,0.111 0.464,0.274 0.612,0.488c0.148,0.213 0.222,0.478 0.222,0.795c0,0.31 -0.09,0.602 -0.271,0.876c-0.181,0.274 -0.442,0.486 -0.783,0.635c-0.341,0.15 -0.726,0.225 -1.157,0.225c-0.713,0 -1.256,-0.148 -1.63,-0.444c-0.374,-0.296 -0.612,-0.735 -0.715,-1.318Z" style="fill:#0d0d0d;fill-rule:nonzero;"/><path d="M110.223,395.083l-0,-1.069l0.93,-0l-0,1.069l-0.93,-0Zm-0,6.504l-0,-5.486l0.93,-0l-0,5.486l-0.93,0Z" style="fill:#0d0d0d;fill-rule:nonzero;"/><path d="M112.398,402.042l0.904,0.134c0.038,0.279 0.143,0.482 0.315,0.61c0.231,0.172 0.546,0.258 0.946,0.258c0.43,0 0.762,-0.086 0.997,-0.258c0.234,-0.172 0.392,-0.414 0.475,-0.724c0.048,-0.189 0.071,-0.587 0.067,-1.193c-0.406,0.479 -0.913,0.718 -1.519,0.718c-0.754,0 -1.338,-0.272 -1.751,-0.816c-0.413,-0.544 -0.62,-1.197 -0.62,-1.958c-0,-0.524 0.095,-1.007 0.284,-1.449c0.19,-0.443 0.464,-0.785 0.824,-1.026c0.36,-0.241 0.783,-0.361 1.268,-0.361c0.648,-0 1.182,0.261 1.602,0.785l-0,-0.661l0.858,-0l-0,4.742c-0,0.854 -0.087,1.46 -0.261,1.816c-0.174,0.357 -0.45,0.638 -0.827,0.845c-0.377,0.206 -0.841,0.31 -1.392,0.31c-0.655,-0 -1.183,-0.147 -1.586,-0.442c-0.403,-0.294 -0.598,-0.738 -0.584,-1.33Zm0.77,-3.296c-0,0.72 0.143,1.245 0.428,1.575c0.286,0.331 0.645,0.496 1.075,0.496c0.427,0 0.785,-0.164 1.075,-0.493c0.289,-0.329 0.434,-0.845 0.434,-1.547c-0,-0.672 -0.149,-1.178 -0.447,-1.519c-0.298,-0.341 -0.657,-0.512 -1.077,-0.512c-0.414,0 -0.765,0.168 -1.054,0.504c-0.29,0.336 -0.434,0.834 -0.434,1.496Z" style="fill:#0d0d0d;fill-rule:nonzero;"/><path d="M118.453,401.587l-0,-5.486l0.837,-0l-0,0.78c0.403,-0.603 0.985,-0.904 1.746,-0.904c0.33,-0 0.634,0.059 0.912,0.178c0.277,0.119 0.484,0.275 0.622,0.467c0.138,0.193 0.234,0.422 0.289,0.688c0.035,0.172 0.052,0.473 0.052,0.904l0,3.373l-0.93,0l0,-3.337c0,-0.379 -0.036,-0.662 -0.108,-0.85c-0.073,-0.188 -0.201,-0.338 -0.385,-0.449c-0.184,-0.112 -0.401,-0.168 -0.649,-0.168c-0.396,-0 -0.737,0.125 -1.025,0.377c-0.288,0.251 -0.431,0.728 -0.431,1.431l-0,2.996l-0.93,0Z" style="fill:#0d0d0d;fill-rule:nonzero;"/><path d="M130.857,400.91c-0.345,0.293 -0.676,0.5 -0.995,0.62c-0.318,0.121 -0.66,0.181 -1.025,0.181c-0.603,0 -1.066,-0.147 -1.39,-0.442c-0.324,-0.294 -0.486,-0.67 -0.486,-1.128c0,-0.269 0.062,-0.514 0.184,-0.737c0.122,-0.222 0.282,-0.4 0.48,-0.534c0.198,-0.135 0.421,-0.236 0.669,-0.305c0.183,-0.048 0.458,-0.095 0.827,-0.14c0.751,-0.089 1.304,-0.196 1.658,-0.32c0.004,-0.127 0.005,-0.208 0.005,-0.243c0,-0.379 -0.087,-0.645 -0.263,-0.8c-0.238,-0.21 -0.591,-0.316 -1.059,-0.316c-0.438,0 -0.76,0.077 -0.969,0.23c-0.208,0.154 -0.362,0.425 -0.462,0.814l-0.909,-0.124c0.082,-0.389 0.218,-0.703 0.408,-0.943c0.189,-0.239 0.463,-0.423 0.821,-0.553c0.358,-0.129 0.773,-0.193 1.245,-0.193c0.469,-0 0.849,0.055 1.142,0.165c0.293,0.11 0.508,0.249 0.646,0.416c0.137,0.167 0.234,0.378 0.289,0.633c0.031,0.158 0.046,0.444 0.046,0.857l0,1.24c0,0.865 0.02,1.411 0.06,1.64c0.04,0.23 0.118,0.449 0.235,0.659l-0.971,0c-0.097,-0.193 -0.159,-0.418 -0.186,-0.677Zm-0.078,-2.076c-0.337,0.137 -0.844,0.254 -1.519,0.351c-0.382,0.055 -0.652,0.117 -0.811,0.186c-0.158,0.069 -0.28,0.17 -0.367,0.302c-0.086,0.133 -0.129,0.28 -0.129,0.442c0,0.248 0.094,0.454 0.282,0.62c0.188,0.165 0.462,0.248 0.824,0.248c0.358,-0 0.677,-0.079 0.956,-0.235c0.279,-0.157 0.484,-0.371 0.614,-0.644c0.1,-0.21 0.15,-0.52 0.15,-0.929l0,-0.341Z" style="fill:#0d0d0d;fill-rule:nonzero;"/><path d="M133.161,403.69l-0,-7.589l0.847,-0l0,0.713c0.2,-0.279 0.425,-0.489 0.677,-0.628c0.251,-0.14 0.556,-0.209 0.914,-0.209c0.469,-0 0.882,0.12 1.24,0.361c0.358,0.241 0.629,0.582 0.811,1.021c0.183,0.439 0.274,0.92 0.274,1.444c0,0.561 -0.101,1.066 -0.302,1.516c-0.202,0.449 -0.494,0.794 -0.878,1.033c-0.384,0.239 -0.788,0.359 -1.212,0.359c-0.31,0 -0.588,-0.065 -0.834,-0.196c-0.246,-0.131 -0.449,-0.296 -0.607,-0.496l-0,2.671l-0.93,-0Zm0.842,-4.815c-0,0.706 0.143,1.228 0.429,1.565c0.286,0.338 0.632,0.507 1.038,0.507c0.413,-0 0.767,-0.175 1.062,-0.525c0.294,-0.349 0.442,-0.891 0.442,-1.625c-0,-0.699 -0.144,-1.222 -0.432,-1.57c-0.287,-0.348 -0.631,-0.522 -1.031,-0.522c-0.396,0 -0.746,0.185 -1.051,0.555c-0.305,0.371 -0.457,0.909 -0.457,1.615Z" style="fill:#0d0d0d;fill-rule:nonzero;"/><path d="M139.045,403.69l0,-7.589l0.847,-0l0,0.713c0.2,-0.279 0.426,-0.489 0.677,-0.628c0.252,-0.14 0.556,-0.209 0.915,-0.209c0.468,-0 0.881,0.12 1.239,0.361c0.359,0.241 0.629,0.582 0.812,1.021c0.182,0.439 0.273,0.92 0.273,1.444c0,0.561 -0.1,1.066 -0.302,1.516c-0.201,0.449 -0.494,0.794 -0.878,1.033c-0.384,0.239 -0.788,0.359 -1.212,0.359c-0.31,0 -0.588,-0.065 -0.834,-0.196c-0.246,-0.131 -0.449,-0.296 -0.607,-0.496l0,2.671l-0.93,-0Zm0.842,-4.815c0,0.706 0.143,1.228 0.429,1.565c0.286,0.338 0.632,0.507 1.038,0.507c0.414,-0 0.768,-0.175 1.062,-0.525c0.295,-0.349 0.442,-0.891 0.442,-1.625c-0,-0.699 -0.144,-1.222 -0.432,-1.57c-0.287,-0.348 -0.631,-0.522 -1.03,-0.522c-0.396,0 -0.747,0.185 -1.052,0.555c-0.304,0.371 -0.457,0.909 -0.457,1.615Z" style="fill:#0d0d0d;fill-rule:nonzero;"/><path d="M151.429,401.587l-0,-0.692c-0.348,0.544 -0.86,0.816 -1.535,0.816c-0.437,0 -0.839,-0.12 -1.206,-0.361c-0.367,-0.242 -0.651,-0.578 -0.853,-1.01c-0.201,-0.433 -0.302,-0.93 -0.302,-1.491c0,-0.548 0.091,-1.044 0.274,-1.49c0.183,-0.446 0.456,-0.788 0.821,-1.026c0.366,-0.237 0.774,-0.356 1.225,-0.356c0.33,-0 0.625,0.069 0.883,0.209c0.259,0.139 0.469,0.321 0.631,0.545l-0,-2.717l0.924,-0l0,7.573l-0.862,0Zm-2.94,-2.738c-0,0.703 0.148,1.228 0.444,1.576c0.296,0.348 0.646,0.522 1.049,0.522c0.406,-0 0.752,-0.167 1.036,-0.499c0.284,-0.332 0.426,-0.839 0.426,-1.521c0,-0.751 -0.145,-1.302 -0.434,-1.654c-0.289,-0.351 -0.646,-0.527 -1.069,-0.527c-0.414,0 -0.759,0.169 -1.036,0.507c-0.277,0.337 -0.416,0.869 -0.416,1.596Z" style="fill:#0d0d0d;fill-rule:nonzero;"/><path d="M157.509,399.82l0.961,0.119c-0.152,0.562 -0.432,0.997 -0.842,1.307c-0.41,0.31 -0.933,0.465 -1.571,0.465c-0.802,0 -1.438,-0.247 -1.908,-0.741c-0.471,-0.494 -0.706,-1.188 -0.706,-2.08c0,-0.923 0.238,-1.639 0.713,-2.149c0.476,-0.509 1.092,-0.764 1.85,-0.764c0.733,-0 1.333,0.249 1.798,0.749c0.465,0.499 0.697,1.202 0.697,2.108c0,0.055 -0.002,0.137 -0.005,0.248l-4.092,-0c0.035,0.602 0.205,1.064 0.512,1.384c0.306,0.32 0.689,0.481 1.147,0.481c0.341,-0 0.632,-0.09 0.873,-0.269c0.241,-0.179 0.432,-0.465 0.573,-0.858Zm-3.053,-1.503l3.063,-0c-0.041,-0.462 -0.158,-0.808 -0.351,-1.038c-0.296,-0.359 -0.68,-0.538 -1.152,-0.538c-0.427,0 -0.786,0.143 -1.077,0.429c-0.291,0.286 -0.452,0.668 -0.483,1.147Z" style="fill:#0d0d0d;fill-rule:nonzero;"/><path d="M161.162,401.587l-2.088,-5.486l0.982,-0l1.178,3.285c0.127,0.355 0.244,0.724 0.351,1.106c0.083,-0.289 0.198,-0.637 0.346,-1.044l1.22,-3.347l0.955,-0l-2.076,5.486l-0.868,0Z" style="fill:#0d0d0d;fill-rule:nonzero;"/><path d="M168.684,399.82l0.96,0.119c-0.151,0.562 -0.432,0.997 -0.842,1.307c-0.409,0.31 -0.933,0.465 -1.57,0.465c-0.803,0 -1.439,-0.247 -1.909,-0.741c-0.47,-0.494 -0.705,-1.188 -0.705,-2.08c-0,-0.923 0.237,-1.639 0.713,-2.149c0.475,-0.509 1.092,-0.764 1.849,-0.764c0.734,-0 1.333,0.249 1.798,0.749c0.465,0.499 0.697,1.202 0.697,2.108c0,0.055 -0.001,0.137 -0.005,0.248l-4.091,-0c0.034,0.602 0.205,1.064 0.511,1.384c0.307,0.32 0.689,0.481 1.147,0.481c0.341,-0 0.632,-0.09 0.873,-0.269c0.241,-0.179 0.432,-0.465 0.574,-0.858Zm-3.054,-1.503l3.064,-0c-0.041,-0.462 -0.159,-0.808 -0.351,-1.038c-0.297,-0.359 -0.681,-0.538 -1.152,-0.538c-0.428,0 -0.787,0.143 -1.078,0.429c-0.291,0.286 -0.452,0.668 -0.483,1.147Z" style="fill:#0d0d0d;fill-rule:nonzero;"/><rect x="170.791" y="394.014" width="0.93" height="7.574" style="fill:#0d0d0d;fill-rule:nonzero;"/><path d="M172.817,398.844c-0,-1.016 0.282,-1.769 0.847,-2.258c0.472,-0.406 1.047,-0.609 1.725,-0.609c0.755,-0 1.371,0.247 1.85,0.741c0.479,0.494 0.718,1.177 0.718,2.048c-0,0.706 -0.106,1.262 -0.318,1.667c-0.212,0.404 -0.52,0.718 -0.925,0.942c-0.404,0.224 -0.846,0.336 -1.325,0.336c-0.768,0 -1.389,-0.246 -1.862,-0.739c-0.474,-0.492 -0.71,-1.202 -0.71,-2.128Zm0.955,-0c0,0.703 0.154,1.229 0.46,1.578c0.307,0.35 0.692,0.525 1.157,0.525c0.462,-0 0.846,-0.176 1.152,-0.527c0.307,-0.352 0.46,-0.887 0.46,-1.607c0,-0.679 -0.154,-1.193 -0.462,-1.542c-0.308,-0.35 -0.692,-0.525 -1.15,-0.525c-0.465,0 -0.85,0.174 -1.157,0.522c-0.306,0.348 -0.46,0.873 -0.46,1.576Z" style="fill:#0d0d0d;fill-rule:nonzero;"/><path d="M179.047,403.69l-0,-7.589l0.847,-0l0,0.713c0.2,-0.279 0.426,-0.489 0.677,-0.628c0.251,-0.14 0.556,-0.209 0.914,-0.209c0.469,-0 0.882,0.12 1.24,0.361c0.358,0.241 0.629,0.582 0.811,1.021c0.183,0.439 0.274,0.92 0.274,1.444c0,0.561 -0.101,1.066 -0.302,1.516c-0.202,0.449 -0.494,0.794 -0.878,1.033c-0.384,0.239 -0.788,0.359 -1.212,0.359c-0.31,0 -0.588,-0.065 -0.834,-0.196c-0.246,-0.131 -0.449,-0.296 -0.607,-0.496l-0,2.671l-0.93,-0Zm0.842,-4.815c0,0.706 0.143,1.228 0.429,1.565c0.286,0.338 0.632,0.507 1.038,0.507c0.414,-0 0.767,-0.175 1.062,-0.525c0.294,-0.349 0.442,-0.891 0.442,-1.625c-0,-0.699 -0.144,-1.222 -0.432,-1.57c-0.287,-0.348 -0.631,-0.522 -1.03,-0.522c-0.396,0 -0.747,0.185 -1.052,0.555c-0.305,0.371 -0.457,0.909 -0.457,1.615Z" style="fill:#0d0d0d;fill-rule:nonzero;"/><path d="M188.687,399.82l0.961,0.119c-0.152,0.562 -0.432,0.997 -0.842,1.307c-0.41,0.31 -0.933,0.465 -1.571,0.465c-0.802,0 -1.438,-0.247 -1.909,-0.741c-0.47,-0.494 -0.705,-1.188 -0.705,-2.08c0,-0.923 0.238,-1.639 0.713,-2.149c0.476,-0.509 1.092,-0.764 1.85,-0.764c0.733,-0 1.333,0.249 1.798,0.749c0.464,0.499 0.697,1.202 0.697,2.108c-0,0.055 -0.002,0.137 -0.005,0.248l-4.092,-0c0.035,0.602 0.205,1.064 0.512,1.384c0.306,0.32 0.688,0.481 1.147,0.481c0.341,-0 0.632,-0.09 0.873,-0.269c0.241,-0.179 0.432,-0.465 0.573,-0.858Zm-3.053,-1.503l3.063,-0c-0.041,-0.462 -0.158,-0.808 -0.351,-1.038c-0.296,-0.359 -0.68,-0.538 -1.152,-0.538c-0.427,0 -0.786,0.143 -1.077,0.429c-0.291,0.286 -0.452,0.668 -0.483,1.147Z" style="fill:#0d0d0d;fill-rule:nonzero;"/><path d="M194.375,401.587l0,-0.692c-0.348,0.544 -0.859,0.816 -1.534,0.816c-0.438,0 -0.84,-0.12 -1.207,-0.361c-0.366,-0.242 -0.651,-0.578 -0.852,-1.01c-0.202,-0.433 -0.302,-0.93 -0.302,-1.491c-0,-0.548 0.091,-1.044 0.274,-1.49c0.182,-0.446 0.456,-0.788 0.821,-1.026c0.365,-0.237 0.773,-0.356 1.224,-0.356c0.331,-0 0.625,0.069 0.884,0.209c0.258,0.139 0.468,0.321 0.63,0.545l0,-2.717l0.925,-0l-0,7.573l-0.863,0Zm-2.94,-2.738c0,0.703 0.149,1.228 0.445,1.576c0.296,0.348 0.646,0.522 1.049,0.522c0.406,-0 0.751,-0.167 1.035,-0.499c0.284,-0.332 0.427,-0.839 0.427,-1.521c-0,-0.751 -0.145,-1.302 -0.434,-1.654c-0.29,-0.351 -0.646,-0.527 -1.07,-0.527c-0.413,0 -0.758,0.169 -1.036,0.507c-0.277,0.337 -0.416,0.869 -0.416,1.596Z" style="fill:#0d0d0d;fill-rule:nonzero;"/><path d="M199.862,401.587l-0,-4.763l-0.822,-0l0,-0.723l0.822,-0l-0,-0.584c-0,-0.369 0.032,-0.642 0.098,-0.822c0.089,-0.241 0.247,-0.436 0.472,-0.586c0.226,-0.15 0.542,-0.225 0.948,-0.225c0.262,0 0.551,0.031 0.868,0.093l-0.139,0.811c-0.193,-0.034 -0.376,-0.051 -0.548,-0.051c-0.282,-0 -0.482,0.06 -0.599,0.181c-0.117,0.12 -0.176,0.346 -0.176,0.676l0,0.507l1.07,-0l-0,0.723l-1.07,-0l0,4.763l-0.924,0Z" style="fill:#0d0d0d;fill-rule:nonzero;"/><path d="M202.233,398.844c-0,-1.016 0.282,-1.769 0.847,-2.258c0.472,-0.406 1.047,-0.609 1.726,-0.609c0.754,-0 1.37,0.247 1.849,0.741c0.479,0.494 0.718,1.177 0.718,2.048c0,0.706 -0.106,1.262 -0.318,1.667c-0.211,0.404 -0.52,0.718 -0.924,0.942c-0.405,0.224 -0.847,0.336 -1.325,0.336c-0.768,0 -1.389,-0.246 -1.863,-0.739c-0.473,-0.492 -0.71,-1.202 -0.71,-2.128Zm0.956,-0c-0,0.703 0.153,1.229 0.459,1.578c0.307,0.35 0.693,0.525 1.158,0.525c0.461,-0 0.845,-0.176 1.152,-0.527c0.306,-0.352 0.459,-0.887 0.459,-1.607c0,-0.679 -0.154,-1.193 -0.462,-1.542c-0.308,-0.35 -0.691,-0.525 -1.149,-0.525c-0.465,0 -0.851,0.174 -1.158,0.522c-0.306,0.348 -0.459,0.873 -0.459,1.576Z" style="fill:#0d0d0d;fill-rule:nonzero;"/><path d="M208.453,401.587l-0,-5.486l0.837,-0l-0,0.831c0.213,-0.389 0.411,-0.645 0.591,-0.769c0.181,-0.124 0.38,-0.186 0.597,-0.186c0.313,-0 0.632,0.1 0.956,0.299l-0.32,0.863c-0.228,-0.134 -0.455,-0.201 -0.682,-0.201c-0.204,-0 -0.386,0.061 -0.548,0.183c-0.162,0.122 -0.277,0.292 -0.346,0.509c-0.104,0.331 -0.155,0.692 -0.155,1.085l-0,2.872l-0.93,0Z" style="fill:#0d0d0d;fill-rule:nonzero;"/><path d="M218.486,401.587l-0,-0.692c-0.348,0.544 -0.86,0.816 -1.535,0.816c-0.437,0 -0.839,-0.12 -1.206,-0.361c-0.367,-0.242 -0.651,-0.578 -0.852,-1.01c-0.202,-0.433 -0.303,-0.93 -0.303,-1.491c0,-0.548 0.092,-1.044 0.274,-1.49c0.183,-0.446 0.457,-0.788 0.822,-1.026c0.365,-0.237 0.773,-0.356 1.224,-0.356c0.331,-0 0.625,0.069 0.883,0.209c0.259,0.139 0.469,0.321 0.631,0.545l-0,-2.717l0.924,-0l0,7.573l-0.862,0Zm-2.94,-2.738c0,0.703 0.148,1.228 0.444,1.576c0.297,0.348 0.646,0.522 1.049,0.522c0.407,-0 0.752,-0.167 1.036,-0.499c0.284,-0.332 0.426,-0.839 0.426,-1.521c0,-0.751 -0.145,-1.302 -0.434,-1.654c-0.289,-0.351 -0.646,-0.527 -1.069,-0.527c-0.414,0 -0.759,0.169 -1.036,0.507c-0.277,0.337 -0.416,0.869 -0.416,1.596Z" style="fill:#0d0d0d;fill-rule:nonzero;"/><path d="M224.566,399.82l0.961,0.119c-0.151,0.562 -0.432,0.997 -0.842,1.307c-0.41,0.31 -0.933,0.465 -1.57,0.465c-0.803,0 -1.439,-0.247 -1.909,-0.741c-0.47,-0.494 -0.706,-1.188 -0.706,-2.08c0,-0.923 0.238,-1.639 0.713,-2.149c0.476,-0.509 1.092,-0.764 1.85,-0.764c0.733,-0 1.333,0.249 1.798,0.749c0.465,0.499 0.697,1.202 0.697,2.108c0,0.055 -0.002,0.137 -0.005,0.248l-4.092,-0c0.035,0.602 0.205,1.064 0.512,1.384c0.306,0.32 0.689,0.481 1.147,0.481c0.341,-0 0.632,-0.09 0.873,-0.269c0.241,-0.179 0.432,-0.465 0.573,-0.858Zm-3.053,-1.503l3.064,-0c-0.042,-0.462 -0.159,-0.808 -0.352,-1.038c-0.296,-0.359 -0.68,-0.538 -1.152,-0.538c-0.427,0 -0.786,0.143 -1.077,0.429c-0.291,0.286 -0.452,0.668 -0.483,1.147Z" style="fill:#0d0d0d;fill-rule:nonzero;"/><path d="M226.323,399.949l0.919,-0.144c0.052,0.368 0.196,0.651 0.432,0.847c0.236,0.196 0.565,0.295 0.989,0.295c0.427,-0 0.744,-0.087 0.951,-0.261c0.206,-0.174 0.31,-0.378 0.31,-0.613c-0,-0.21 -0.092,-0.375 -0.274,-0.495c-0.128,-0.083 -0.445,-0.188 -0.951,-0.316c-0.682,-0.172 -1.154,-0.321 -1.418,-0.446c-0.263,-0.126 -0.463,-0.3 -0.599,-0.522c-0.136,-0.222 -0.204,-0.468 -0.204,-0.736c-0,-0.245 0.056,-0.471 0.168,-0.68c0.112,-0.208 0.264,-0.381 0.457,-0.519c0.145,-0.107 0.342,-0.197 0.591,-0.271c0.25,-0.074 0.518,-0.111 0.804,-0.111c0.43,-0 0.808,0.062 1.134,0.186c0.325,0.124 0.565,0.292 0.72,0.503c0.155,0.212 0.262,0.495 0.321,0.85l-0.91,0.124c-0.041,-0.282 -0.161,-0.503 -0.359,-0.661c-0.198,-0.158 -0.477,-0.238 -0.839,-0.238c-0.427,0 -0.732,0.071 -0.915,0.212c-0.182,0.141 -0.273,0.307 -0.273,0.496c-0,0.121 0.038,0.229 0.113,0.326c0.076,0.099 0.195,0.182 0.357,0.248c0.093,0.034 0.367,0.113 0.821,0.237c0.658,0.176 1.117,0.32 1.377,0.432c0.26,0.111 0.464,0.274 0.612,0.488c0.148,0.213 0.222,0.478 0.222,0.795c0,0.31 -0.09,0.602 -0.271,0.876c-0.181,0.274 -0.442,0.486 -0.783,0.635c-0.341,0.15 -0.726,0.225 -1.157,0.225c-0.713,0 -1.256,-0.148 -1.63,-0.444c-0.373,-0.296 -0.612,-0.735 -0.715,-1.318Z" style="fill:#0d0d0d;fill-rule:nonzero;"/><path d="M231.99,401.587l0,-7.573l0.93,-0l-0,4.318l2.201,-2.231l1.204,-0l-2.098,2.035l2.309,3.451l-1.147,0l-1.813,-2.805l-0.656,0.63l-0,2.175l-0.93,0Z" style="fill:#0d0d0d;fill-rule:nonzero;"/><path d="M239.305,400.755l0.135,0.822c-0.262,0.055 -0.496,0.083 -0.703,0.083c-0.337,-0 -0.599,-0.054 -0.785,-0.161c-0.186,-0.106 -0.317,-0.247 -0.393,-0.421c-0.076,-0.174 -0.113,-0.54 -0.113,-1.098l-0,-3.156l-0.682,-0l-0,-0.723l0.682,-0l-0,-1.359l0.924,-0.558l0,1.917l0.935,-0l0,0.723l-0.935,-0l0,3.208c0,0.265 0.017,0.436 0.049,0.512c0.033,0.075 0.087,0.136 0.161,0.18c0.074,0.045 0.18,0.068 0.317,0.068c0.104,-0 0.24,-0.012 0.408,-0.037Z" style="fill:#0d0d0d;fill-rule:nonzero;"/><path d="M239.869,398.844c-0,-1.016 0.282,-1.769 0.847,-2.258c0.472,-0.406 1.047,-0.609 1.725,-0.609c0.755,-0 1.371,0.247 1.85,0.741c0.479,0.494 0.718,1.177 0.718,2.048c-0,0.706 -0.106,1.262 -0.318,1.667c-0.212,0.404 -0.52,0.718 -0.925,0.942c-0.404,0.224 -0.846,0.336 -1.325,0.336c-0.768,0 -1.389,-0.246 -1.862,-0.739c-0.474,-0.492 -0.71,-1.202 -0.71,-2.128Zm0.955,-0c0,0.703 0.154,1.229 0.46,1.578c0.307,0.35 0.692,0.525 1.157,0.525c0.462,-0 0.846,-0.176 1.152,-0.527c0.307,-0.352 0.46,-0.887 0.46,-1.607c0,-0.679 -0.154,-1.193 -0.462,-1.542c-0.308,-0.35 -0.692,-0.525 -1.15,-0.525c-0.465,0 -0.85,0.174 -1.157,0.522c-0.306,0.348 -0.46,0.873 -0.46,1.576Z" style="fill:#0d0d0d;fill-rule:nonzero;"/><path d="M246.099,403.69l-0,-7.589l0.847,-0l0,0.713c0.2,-0.279 0.426,-0.489 0.677,-0.628c0.251,-0.14 0.556,-0.209 0.914,-0.209c0.469,-0 0.882,0.12 1.24,0.361c0.358,0.241 0.629,0.582 0.811,1.021c0.183,0.439 0.274,0.92 0.274,1.444c0,0.561 -0.101,1.066 -0.302,1.516c-0.202,0.449 -0.494,0.794 -0.878,1.033c-0.384,0.239 -0.788,0.359 -1.212,0.359c-0.31,0 -0.588,-0.065 -0.834,-0.196c-0.246,-0.131 -0.449,-0.296 -0.607,-0.496l-0,2.671l-0.93,-0Zm0.842,-4.815c0,0.706 0.143,1.228 0.429,1.565c0.286,0.338 0.632,0.507 1.038,0.507c0.414,-0 0.767,-0.175 1.062,-0.525c0.294,-0.349 0.442,-0.891 0.442,-1.625c-0,-0.699 -0.144,-1.222 -0.432,-1.57c-0.287,-0.348 -0.631,-0.522 -1.03,-0.522c-0.397,0 -0.747,0.185 -1.052,0.555c-0.305,0.371 -0.457,0.909 -0.457,1.615Z" style="fill:#0d0d0d;fill-rule:nonzero;"/></g><path d="M1.186,411.955l270.635,-0c0.327,-0 0.592,-0.265 0.592,-0.592c-0,-0.326 -0.265,-0.592 -0.592,-0.592l-270.635,0c-0.327,0 -0.592,0.266 -0.592,0.592c0,0.327 0.265,0.592 0.592,0.592Z" style="fill:#0d0d0d;"/></g><g><g><path d="M53.543,334.363l0,-8.45l-3.096,-0l-0,-1.721l8.292,0l0,1.721l-3.089,-0l-0,8.45l-2.107,0Z" style="fill:#0d0d0d;fill-rule:nonzero;"/><path d="M63.978,334.363l-0,-1.103c-0.276,0.393 -0.637,0.703 -1.086,0.93c-0.448,0.227 -0.922,0.34 -1.42,0.34c-0.508,-0 -0.963,-0.109 -1.366,-0.326c-0.404,-0.218 -0.696,-0.523 -0.876,-0.916c-0.18,-0.393 -0.27,-0.937 -0.27,-1.63l-0,-4.663l2,0l-0,3.386c-0,1.036 0.037,1.671 0.11,1.904c0.074,0.234 0.208,0.419 0.402,0.555c0.195,0.137 0.442,0.205 0.74,0.205c0.342,0 0.648,-0.091 0.919,-0.274c0.27,-0.183 0.455,-0.409 0.555,-0.68c0.1,-0.27 0.149,-0.933 0.149,-1.988l0,-3.108l2,0l0,7.368l-1.857,0Z" style="fill:#0d0d0d;fill-rule:nonzero;"/><path d="M69.821,334.363l-2,0l0,-7.368l1.858,0l0,1.048c0.318,-0.495 0.604,-0.821 0.858,-0.978c0.254,-0.158 0.542,-0.236 0.865,-0.236c0.455,-0 0.894,0.122 1.316,0.367l-0.619,1.7c-0.337,-0.213 -0.65,-0.319 -0.939,-0.319c-0.28,0 -0.518,0.075 -0.712,0.226c-0.195,0.15 -0.348,0.422 -0.459,0.815c-0.112,0.393 -0.168,1.216 -0.168,2.47l0,2.275Z" style="fill:#0d0d0d;fill-rule:nonzero;"/><path d="M80.455,334.363l-2,0l0,-3.76c0,-0.796 -0.042,-1.31 -0.128,-1.544c-0.085,-0.233 -0.224,-0.415 -0.416,-0.544c-0.192,-0.13 -0.424,-0.195 -0.694,-0.195c-0.347,0 -0.657,0.093 -0.933,0.278c-0.275,0.185 -0.464,0.43 -0.566,0.735c-0.102,0.306 -0.153,0.87 -0.153,1.693l0,3.337l-2,0l0,-7.368l1.858,0l0,1.083c0.66,-0.833 1.49,-1.249 2.491,-1.249c0.442,-0 0.845,0.077 1.21,0.232c0.366,0.155 0.642,0.353 0.83,0.593c0.187,0.241 0.317,0.514 0.391,0.819c0.074,0.305 0.11,0.742 0.11,1.311l0,4.579Z" style="fill:#0d0d0d;fill-rule:nonzero;"/><path d="M85.587,326.995l2.129,0l1.807,5.231l1.766,-5.231l2.071,0l-2.669,7.091l-0.477,1.283c-0.176,0.431 -0.343,0.759 -0.502,0.986c-0.159,0.226 -0.342,0.41 -0.548,0.551c-0.206,0.141 -0.46,0.251 -0.762,0.33c-0.301,0.078 -0.641,0.118 -1.021,0.118c-0.384,-0 -0.762,-0.04 -1.132,-0.118l-0.178,-1.527c0.313,0.06 0.596,0.091 0.847,0.091c0.465,-0 0.809,-0.133 1.032,-0.399c0.223,-0.266 0.394,-0.605 0.513,-1.017l-2.876,-7.389Z" style="fill:#0d0d0d;fill-rule:nonzero;"/><path d="M94.178,330.575c0,-0.647 0.164,-1.274 0.492,-1.88c0.327,-0.606 0.791,-1.068 1.391,-1.388c0.6,-0.319 1.271,-0.478 2.011,-0.478c1.143,-0 2.081,0.362 2.811,1.086c0.731,0.723 1.097,1.638 1.097,2.743c-0,1.115 -0.369,2.039 -1.107,2.772c-0.738,0.733 -1.667,1.1 -2.787,1.1c-0.693,-0 -1.353,-0.153 -1.982,-0.458c-0.629,-0.305 -1.107,-0.753 -1.434,-1.343c-0.328,-0.589 -0.492,-1.307 -0.492,-2.154Zm2.05,0.104c0,0.731 0.178,1.291 0.534,1.679c0.356,0.389 0.795,0.583 1.317,0.583c0.522,0 0.96,-0.194 1.313,-0.583c0.354,-0.388 0.531,-0.953 0.531,-1.693c-0,-0.721 -0.177,-1.276 -0.531,-1.665c-0.353,-0.388 -0.791,-0.582 -1.313,-0.582c-0.522,-0 -0.961,0.194 -1.317,0.582c-0.356,0.389 -0.534,0.949 -0.534,1.679Z" style="fill:#0d0d0d;fill-rule:nonzero;"/><path d="M108.521,334.363l-0,-1.103c-0.275,0.393 -0.637,0.703 -1.086,0.93c-0.448,0.227 -0.921,0.34 -1.42,0.34c-0.507,-0 -0.963,-0.109 -1.366,-0.326c-0.404,-0.218 -0.695,-0.523 -0.876,-0.916c-0.18,-0.393 -0.27,-0.937 -0.27,-1.63l-0,-4.663l2,0l-0,3.386c-0,1.036 0.037,1.671 0.11,1.904c0.074,0.234 0.208,0.419 0.402,0.555c0.195,0.137 0.442,0.205 0.741,0.205c0.341,0 0.647,-0.091 0.918,-0.274c0.27,-0.183 0.455,-0.409 0.555,-0.68c0.1,-0.27 0.149,-0.933 0.149,-1.988l0,-3.108l2.001,0l-0,7.368l-1.858,0Z" style="fill:#0d0d0d;fill-rule:nonzero;"/><path d="M114.364,334.363l-2,0l0,-7.368l1.858,0l0,1.048c0.318,-0.495 0.604,-0.821 0.858,-0.978c0.254,-0.158 0.542,-0.236 0.865,-0.236c0.455,-0 0.894,0.122 1.316,0.367l-0.619,1.7c-0.337,-0.213 -0.65,-0.319 -0.939,-0.319c-0.28,0 -0.518,0.075 -0.712,0.226c-0.195,0.15 -0.348,0.422 -0.459,0.815c-0.112,0.393 -0.168,1.216 -0.168,2.47l0,2.275Z" style="fill:#0d0d0d;fill-rule:nonzero;"/><path d="M129.105,334.363l-1.857,0l-0,-1.082c-0.309,0.421 -0.673,0.734 -1.093,0.94c-0.42,0.206 -0.843,0.309 -1.27,0.309c-0.869,-0 -1.613,-0.341 -2.232,-1.023c-0.619,-0.683 -0.929,-1.634 -0.929,-2.855c0,-1.249 0.302,-2.199 0.904,-2.848c0.603,-0.65 1.364,-0.975 2.285,-0.975c0.845,-0 1.575,0.342 2.192,1.027l0,-3.664l2,0l0,10.171Zm-5.338,-3.843c0,0.786 0.112,1.355 0.335,1.706c0.322,0.509 0.773,0.764 1.352,0.764c0.46,-0 0.852,-0.191 1.174,-0.573c0.323,-0.381 0.484,-0.951 0.484,-1.71c0,-0.846 -0.156,-1.456 -0.469,-1.828c-0.314,-0.372 -0.714,-0.559 -1.203,-0.559c-0.475,0 -0.872,0.184 -1.192,0.552c-0.321,0.368 -0.481,0.917 -0.481,1.648Z" style="fill:#0d0d0d;fill-rule:nonzero;"/><path d="M135.454,332.018l1.993,0.326c-0.256,0.713 -0.66,1.255 -1.213,1.627c-0.553,0.373 -1.245,0.559 -2.075,0.559c-1.314,-0 -2.287,-0.419 -2.918,-1.256c-0.498,-0.671 -0.748,-1.517 -0.748,-2.539c0,-1.221 0.328,-2.178 0.983,-2.869c0.654,-0.692 1.483,-1.037 2.484,-1.037c1.124,-0 2.012,0.362 2.662,1.086c0.65,0.723 0.961,1.832 0.932,3.326l-5.011,0c0.015,0.578 0.176,1.028 0.484,1.35c0.309,0.321 0.693,0.482 1.153,0.482c0.314,-0 0.577,-0.083 0.79,-0.25c0.214,-0.166 0.375,-0.435 0.484,-0.805Zm0.114,-1.97c-0.014,-0.564 -0.163,-0.993 -0.448,-1.287c-0.285,-0.294 -0.631,-0.441 -1.039,-0.441c-0.437,0 -0.797,0.155 -1.082,0.465c-0.285,0.31 -0.425,0.731 -0.42,1.263l2.989,-0Z" style="fill:#0d0d0d;fill-rule:nonzero;"/><path d="M141.263,334.363l-3.047,-7.368l2.1,0l1.423,3.761l0.413,1.255c0.109,-0.319 0.178,-0.529 0.207,-0.631c0.066,-0.208 0.137,-0.416 0.213,-0.624l1.438,-3.761l2.057,0l-3.004,7.368l-1.8,0Z" style="fill:#0d0d0d;fill-rule:nonzero;"/><path d="M147.291,325.996l0,-1.804l2,0l0,1.804l-2,0Zm0,8.367l0,-7.368l2,0l0,7.368l-2,0Z" style="fill:#0d0d0d;fill-rule:nonzero;"/><path d="M157.932,329.174l-1.971,0.347c-0.067,-0.384 -0.217,-0.673 -0.452,-0.868c-0.235,-0.194 -0.54,-0.291 -0.915,-0.291c-0.498,0 -0.895,0.168 -1.192,0.503c-0.297,0.335 -0.445,0.896 -0.445,1.682c0,0.875 0.151,1.492 0.452,1.853c0.301,0.361 0.706,0.541 1.214,0.541c0.379,0 0.69,-0.105 0.932,-0.316c0.242,-0.21 0.413,-0.572 0.513,-1.085l1.964,0.326c-0.204,0.878 -0.595,1.542 -1.174,1.991c-0.579,0.449 -1.355,0.673 -2.328,0.673c-1.105,-0 -1.987,-0.34 -2.644,-1.02c-0.657,-0.68 -0.986,-1.621 -0.986,-2.824c0,-1.216 0.33,-2.163 0.989,-2.841c0.66,-0.677 1.552,-1.016 2.677,-1.016c0.92,-0 1.652,0.193 2.196,0.579c0.543,0.386 0.933,0.975 1.17,1.766Z" style="fill:#0d0d0d;fill-rule:nonzero;"/><path d="M163.826,332.018l1.993,0.326c-0.256,0.713 -0.661,1.255 -1.214,1.627c-0.552,0.373 -1.244,0.559 -2.074,0.559c-1.315,-0 -2.288,-0.419 -2.919,-1.256c-0.498,-0.671 -0.747,-1.517 -0.747,-2.539c-0,-1.221 0.327,-2.178 0.982,-2.869c0.655,-0.692 1.483,-1.037 2.484,-1.037c1.125,-0 2.012,0.362 2.662,1.086c0.65,0.723 0.961,1.832 0.933,3.326l-5.011,0c0.014,0.578 0.175,1.028 0.484,1.35c0.308,0.321 0.693,0.482 1.153,0.482c0.313,-0 0.576,-0.083 0.79,-0.25c0.213,-0.166 0.375,-0.435 0.484,-0.805Zm0.114,-1.97c-0.014,-0.564 -0.164,-0.993 -0.449,-1.287c-0.284,-0.294 -0.631,-0.441 -1.039,-0.441c-0.436,0 -0.797,0.155 -1.082,0.465c-0.284,0.31 -0.424,0.731 -0.42,1.263l2.99,-0Z" style="fill:#0d0d0d;fill-rule:nonzero;"/><path d="M175.072,326.995l0,1.554l-1.367,0l0,2.97c0,0.601 0.014,0.951 0.04,1.051c0.026,0.099 0.085,0.181 0.178,0.246c0.092,0.065 0.205,0.097 0.338,0.097c0.185,0 0.453,-0.062 0.804,-0.187l0.171,1.512c-0.465,0.195 -0.992,0.292 -1.58,0.292c-0.361,-0 -0.686,-0.059 -0.976,-0.177c-0.289,-0.118 -0.501,-0.271 -0.637,-0.458c-0.135,-0.187 -0.229,-0.441 -0.281,-0.76c-0.042,-0.226 -0.064,-0.684 -0.064,-1.373l0,-3.213l-0.918,0l0,-1.554l0.918,0l0,-1.464l2.007,-1.137l0,2.601l1.367,0Z" style="fill:#0d0d0d;fill-rule:nonzero;"/><path d="M175.997,330.575c0,-0.647 0.164,-1.274 0.492,-1.88c0.327,-0.606 0.791,-1.068 1.391,-1.388c0.6,-0.319 1.271,-0.478 2.011,-0.478c1.143,-0 2.081,0.362 2.811,1.086c0.731,0.723 1.096,1.638 1.096,2.743c0,1.115 -0.368,2.039 -1.106,2.772c-0.738,0.733 -1.667,1.1 -2.787,1.1c-0.693,-0 -1.354,-0.153 -1.982,-0.458c-0.629,-0.305 -1.107,-0.753 -1.434,-1.343c-0.328,-0.589 -0.492,-1.307 -0.492,-2.154Zm2.05,0.104c0,0.731 0.178,1.291 0.534,1.679c0.356,0.389 0.795,0.583 1.317,0.583c0.522,0 0.96,-0.194 1.313,-0.583c0.354,-0.388 0.53,-0.953 0.53,-1.693c0,-0.721 -0.176,-1.276 -0.53,-1.665c-0.353,-0.388 -0.791,-0.582 -1.313,-0.582c-0.522,-0 -0.961,0.194 -1.317,0.582c-0.356,0.389 -0.534,0.949 -0.534,1.679Z" style="fill:#0d0d0d;fill-rule:nonzero;"/><path d="M188.895,331.054l2.05,-0.194c0.123,0.67 0.373,1.163 0.751,1.477c0.377,0.315 0.886,0.472 1.526,0.472c0.679,0 1.19,-0.14 1.534,-0.419c0.344,-0.28 0.516,-0.608 0.516,-0.982c0,-0.241 -0.072,-0.445 -0.217,-0.614c-0.144,-0.169 -0.397,-0.316 -0.758,-0.441c-0.247,-0.083 -0.809,-0.231 -1.687,-0.444c-1.129,-0.273 -1.922,-0.608 -2.377,-1.006c-0.641,-0.559 -0.961,-1.242 -0.961,-2.047c0,-0.518 0.151,-1.002 0.452,-1.453c0.301,-0.451 0.736,-0.794 1.303,-1.03c0.567,-0.236 1.251,-0.354 2.053,-0.354c1.31,-0 2.296,0.28 2.958,0.839c0.661,0.56 1.009,1.307 1.042,2.241l-2.107,0.091c-0.09,-0.523 -0.283,-0.899 -0.58,-1.128c-0.296,-0.229 -0.741,-0.343 -1.334,-0.343c-0.612,-0 -1.092,0.122 -1.438,0.367c-0.223,0.158 -0.335,0.368 -0.335,0.632c0,0.24 0.105,0.446 0.314,0.617c0.265,0.218 0.911,0.444 1.936,0.68c1.025,0.236 1.783,0.48 2.274,0.732c0.491,0.252 0.875,0.597 1.153,1.034c0.277,0.437 0.416,0.977 0.416,1.62c0,0.583 -0.166,1.128 -0.498,1.637c-0.332,0.509 -0.802,0.887 -1.409,1.135c-0.608,0.247 -1.365,0.371 -2.271,0.371c-1.319,-0 -2.332,-0.297 -3.039,-0.892c-0.707,-0.594 -1.13,-1.46 -1.267,-2.598Z" style="fill:#0d0d0d;fill-rule:nonzero;"/><path d="M202.604,326.995l-0,1.554l-1.367,0l0,2.97c0,0.601 0.013,0.951 0.039,1.051c0.026,0.099 0.086,0.181 0.178,0.246c0.093,0.065 0.205,0.097 0.338,0.097c0.185,0 0.453,-0.062 0.805,-0.187l0.17,1.512c-0.465,0.195 -0.991,0.292 -1.58,0.292c-0.36,-0 -0.685,-0.059 -0.975,-0.177c-0.289,-0.118 -0.502,-0.271 -0.637,-0.458c-0.135,-0.187 -0.229,-0.441 -0.281,-0.76c-0.043,-0.226 -0.064,-0.684 -0.064,-1.373l-0,-3.213l-0.918,0l-0,-1.554l0.918,0l-0,-1.464l2.007,-1.137l0,2.601l1.367,0Z" style="fill:#0d0d0d;fill-rule:nonzero;"/><path d="M205.486,329.243l-1.815,-0.319c0.204,-0.712 0.556,-1.24 1.054,-1.582c0.498,-0.342 1.238,-0.513 2.221,-0.513c0.892,-0 1.556,0.103 1.992,0.308c0.437,0.206 0.744,0.468 0.922,0.784c0.178,0.317 0.267,0.899 0.267,1.745l-0.021,2.276c-0,0.648 0.032,1.125 0.096,1.433c0.064,0.307 0.184,0.637 0.359,0.988l-1.978,0c-0.053,-0.129 -0.117,-0.321 -0.193,-0.575c-0.033,-0.116 -0.057,-0.192 -0.071,-0.229c-0.341,0.323 -0.707,0.566 -1.096,0.728c-0.389,0.162 -0.804,0.243 -1.246,0.243c-0.778,-0 -1.391,-0.206 -1.839,-0.618c-0.449,-0.411 -0.673,-0.932 -0.673,-1.561c-0,-0.416 0.102,-0.787 0.306,-1.113c0.204,-0.326 0.49,-0.576 0.858,-0.749c0.367,-0.174 0.898,-0.325 1.59,-0.455c0.935,-0.171 1.583,-0.331 1.944,-0.479l-0,-0.194c-0,-0.375 -0.095,-0.642 -0.285,-0.801c-0.19,-0.16 -0.548,-0.24 -1.075,-0.24c-0.356,0 -0.633,0.069 -0.833,0.205c-0.199,0.137 -0.36,0.376 -0.484,0.718Zm2.677,1.582c-0.257,0.083 -0.662,0.183 -1.217,0.298c-0.556,0.116 -0.919,0.229 -1.09,0.34c-0.26,0.181 -0.391,0.41 -0.391,0.687c0,0.273 0.104,0.509 0.313,0.708c0.209,0.199 0.475,0.298 0.797,0.298c0.361,0 0.705,-0.115 1.032,-0.347c0.242,-0.176 0.401,-0.391 0.477,-0.645c0.053,-0.166 0.079,-0.483 0.079,-0.95l-0,-0.389Z" style="fill:#0d0d0d;fill-rule:nonzero;"/><path d="M214.013,334.363l-2,0l0,-7.368l1.858,0l0,1.048c0.318,-0.495 0.604,-0.821 0.858,-0.978c0.254,-0.158 0.542,-0.236 0.865,-0.236c0.455,-0 0.894,0.122 1.316,0.367l-0.619,1.7c-0.337,-0.213 -0.65,-0.319 -0.939,-0.319c-0.28,0 -0.518,0.075 -0.712,0.226c-0.195,0.15 -0.348,0.422 -0.459,0.815c-0.112,0.393 -0.168,1.216 -0.168,2.47l0,2.275Z" style="fill:#0d0d0d;fill-rule:nonzero;"/><path d="M221.238,326.995l0,1.554l-1.367,0l0,2.97c0,0.601 0.013,0.951 0.04,1.051c0.026,0.099 0.085,0.181 0.177,0.246c0.093,0.065 0.206,0.097 0.339,0.097c0.185,0 0.453,-0.062 0.804,-0.187l0.171,1.512c-0.465,0.195 -0.992,0.292 -1.58,0.292c-0.361,-0 -0.686,-0.059 -0.976,-0.177c-0.289,-0.118 -0.501,-0.271 -0.637,-0.458c-0.135,-0.187 -0.229,-0.441 -0.281,-0.76c-0.042,-0.226 -0.064,-0.684 -0.064,-1.373l0,-3.213l-0.918,0l-0,-1.554l0.918,0l0,-1.464l2.007,-1.137l0,2.601l1.367,0Z" style="fill:#0d0d0d;fill-rule:nonzero;"/></g><path d="M55.593,312.194c-2.798,0 -5.069,-2.214 -5.069,-4.94c-0,-0 -0,-75.133 -0,-75.133c-0,-2.727 2.271,-4.941 5.069,-4.941l161.898,0c2.798,0 5.069,2.214 5.069,4.941c-0,0 -0,75.133 -0,75.133c-0,2.726 -2.271,4.94 -5.069,4.94c0,0 -161.898,0 -161.898,0Zm-2.86,-31.17l1.296,-0c0.979,-0 1.774,-0.775 1.774,-1.73l0,-19.214c0,-0.954 -0.795,-1.729 -1.774,-1.729l-1.296,-0l-0,-26.23c-0,-1.539 1.281,-2.788 2.86,-2.788c-0,0 161.898,0 161.898,0c1.579,0 2.86,1.249 2.86,2.788l0,75.133c0,1.538 -1.281,2.788 -2.86,2.788l-161.898,-0c-1.579,-0 -2.86,-1.25 -2.86,-2.788l-0,-26.23Z" style="fill:#0d0d0d;"/><path d="M82.018,206.698l2.2,9.983l4.385,-9.273l-6.585,-0.71Z" style="fill:#0d0d0d;"/><path d="M86.184,209.137c1.828,-11.968 5.774,-21.972 12.829,-29.152c7.03,-7.154 17.14,-11.471 31.228,-12.19c0.609,-0.031 1.077,-0.538 1.045,-1.131c-0.032,-0.594 -0.552,-1.05 -1.16,-1.019c-14.769,0.754 -25.339,5.351 -32.708,12.851c-7.345,7.475 -11.516,17.864 -13.418,30.324c-0.09,0.588 0.327,1.136 0.93,1.223c0.602,0.087 1.165,-0.319 1.254,-0.906Z" style="fill:#0d0d0d;"/><path d="M135.342,223.058l2.209,0l-0,-73.485c-0,-1.539 1.281,-2.788 2.86,-2.788l26.91,-0l-0,1.263c-0,0.955 0.795,1.73 1.774,1.73l19.712,-0c0.979,-0 1.775,-0.775 1.775,-1.73l-0,-1.263l26.909,-0c1.579,-0 2.86,1.249 2.86,2.788l0,73.485l2.209,0l-0,-73.485c-0,-2.727 -2.271,-4.941 -5.069,-4.941c0,-0 -77.08,-0 -77.08,-0c-2.798,-0 -5.069,2.214 -5.069,4.941l0,73.485Z" style="fill:#0d0d0d;"/></g></svg>