<?xml version="1.0" encoding="UTF-8" standalone="no"?><!DOCTYPE svg PUBLIC "-//W3C//DTD SVG 1.1//EN" "http://www.w3.org/Graphics/SVG/1.1/DTD/svg11.dtd"><svg width="100%" height="100%" viewBox="0 0 29 29" version="1.1" xmlns="http://www.w3.org/2000/svg" xmlns:xlink="http://www.w3.org/1999/xlink" xml:space="preserve" xmlns:serif="http://www.serif.com/" style="fill-rule:evenodd;clip-rule:evenodd;stroke-linejoin:round;stroke-miterlimit:2;"><g><path d="M14.425,28.849c7.966,0 14.424,-6.458 14.424,-14.424c0,-7.966 -6.458,-14.425 -14.424,-14.425c-7.967,-0 -14.425,6.459 -14.425,14.425c0,7.966 6.458,14.424 14.425,14.424Zm-0,-0.266c-7.82,0 -14.159,-6.338 -14.159,-14.158c-0,-7.82 6.339,-14.159 14.159,-14.159c7.819,-0 14.158,6.339 14.158,14.159c0,7.82 -6.339,14.158 -14.158,14.158Z" style="fill:#19171b;"/><path d="M10.369,15.602c0.198,0.081 0.376,0.004 0.433,-0.216c0.04,-0.151 0.135,-0.534 0.176,-0.694c0.059,-0.217 0.036,-0.293 -0.124,-0.481c-0.348,-0.411 -0.57,-0.943 -0.57,-1.696c-0,-2.184 1.634,-4.141 4.256,-4.141c2.321,0 3.597,1.419 3.597,3.314c-0,2.492 -1.103,4.596 -2.741,4.596c-0.904,-0 -1.581,-0.748 -1.365,-1.665c0.261,-1.095 0.764,-2.277 0.764,-3.068c-0,-0.708 -0.38,-1.298 -1.166,-1.298c-0.925,0 -1.668,0.957 -1.668,2.238c0,0.816 0.277,1.368 0.277,1.368c-0,-0 -0.946,4.009 -1.113,4.711c-0.33,1.397 -0.049,3.112 -0.025,3.285c0.014,0.102 0.145,0.126 0.205,0.049c0.086,-0.111 1.187,-1.471 1.56,-2.829c0.107,-0.384 0.609,-2.375 0.609,-2.375c0.3,0.572 1.178,1.077 2.111,1.077c2.78,-0 4.665,-2.534 4.665,-5.925c0,-2.564 -2.171,-4.952 -5.473,-4.952c-4.107,-0 -6.178,2.944 -6.178,5.4c-0,1.487 0.563,2.81 1.77,3.302Z" style="fill:#19171b;fill-rule:nonzero;"/></g></svg>