<?xml version="1.0" encoding="UTF-8" standalone="no"?><!DOCTYPE svg PUBLIC "-//W3C//DTD SVG 1.1//EN" "http://www.w3.org/Graphics/SVG/1.1/DTD/svg11.dtd"><svg width="100%" height="100%" viewBox="0 0 89 89" version="1.1" xmlns="http://www.w3.org/2000/svg" xmlns:xlink="http://www.w3.org/1999/xlink" xml:space="preserve" xmlns:serif="http://www.serif.com/" style="fill-rule:evenodd;clip-rule:evenodd;stroke-linejoin:round;stroke-miterlimit:2;"><g><rect x="0" y="0" width="88.08" height="88.08" style="fill:#f2f2f2;"/><path d="M88.08,0l-88.08,0l0,88.08l88.08,0l0,-88.08Zm-0.45,0.45l0,87.18c-0,-0 -87.18,-0 -87.18,-0c0,-0 0,-87.18 0,-87.18l87.18,0Z"/><g><path d="M21.207,28.984c0.794,-1.777 1.586,-3.554 2.38,-5.331c1.607,-3.347 4.157,-4.22 7.65,-2.618c5.162,2.245 10.324,4.491 15.486,6.736c3.979,1.716 7.865,-0.784 11.659,-7.5c-2.463,5.489 -4.926,10.977 -7.389,16.466c-1.448,2.564 -3.361,3.57 -5.737,3.018c-8.016,-3.591 -16.032,-7.181 -24.049,-10.771Z" style="fill:url(#_Linear1);fill-rule:nonzero;"/><path d="M66.873,59.096c-0.794,1.777 -1.586,3.555 -2.38,5.331c-1.607,3.347 -4.157,4.22 -7.65,2.618c-5.162,-2.245 -10.324,-4.491 -15.486,-6.736c-3.979,-1.716 -7.865,0.785 -11.659,7.5c2.463,-5.489 4.926,-10.977 7.389,-16.466c1.448,-2.564 3.361,-3.57 5.737,-3.018c8.016,3.591 16.032,7.181 24.049,10.771Z" style="fill:url(#_Linear2);fill-rule:nonzero;"/><path d="M28.984,66.873c-1.777,-0.794 -3.554,-1.586 -5.331,-2.38c-3.347,-1.607 -4.22,-4.156 -2.618,-7.65c2.245,-5.162 4.491,-10.324 6.736,-15.486c1.716,-3.978 -0.785,-7.865 -7.5,-11.659c5.489,2.463 10.977,4.926 16.466,7.389c2.564,1.448 3.57,3.361 3.018,5.737c-3.591,8.016 -7.181,16.032 -10.771,24.049Z" style="fill:url(#_Linear3);fill-rule:nonzero;"/><path d="M59.096,21.207c1.777,0.794 3.554,1.587 5.331,2.38c3.347,1.607 4.22,4.157 2.618,7.65c-2.245,5.162 -4.491,10.324 -6.736,15.487c-1.716,3.978 0.785,7.864 7.5,11.658c-5.489,-2.463 -10.977,-4.926 -16.466,-7.389c-2.564,-1.448 -3.57,-3.36 -3.018,-5.737c3.591,-8.016 7.181,-16.032 10.771,-24.049Z" style="fill:url(#_Linear4);fill-rule:nonzero;"/></g></g><defs><linearGradient id="_Linear1" x1="0" y1="0" x2="1" y2="0" gradientUnits="userSpaceOnUse" gradientTransform="matrix(23.0428,22.762,-22.762,23.0428,25.8489,18.6218)"><stop offset="0" style="stop-color:#000;stop-opacity:1"/><stop offset="1" style="stop-color:#000;stop-opacity:1"/></linearGradient><linearGradient id="_Linear2" x1="0" y1="0" x2="1" y2="0" gradientUnits="userSpaceOnUse" gradientTransform="matrix(-23.0428,-22.762,22.762,-23.0428,62.2311,69.4584)"><stop offset="0" style="stop-color:#000;stop-opacity:1"/><stop offset="1" style="stop-color:#000;stop-opacity:1"/></linearGradient><linearGradient id="_Linear3" x1="0" y1="0" x2="1" y2="0" gradientUnits="userSpaceOnUse" gradientTransform="matrix(22.762,-23.0428,23.0428,22.762,18.6217,62.2312)"><stop offset="0" style="stop-color:#000;stop-opacity:1"/><stop offset="1" style="stop-color:#000;stop-opacity:1"/></linearGradient><linearGradient id="_Linear4" x1="0" y1="0" x2="1" y2="0" gradientUnits="userSpaceOnUse" gradientTransform="matrix(-22.762,23.0428,-23.0428,-22.762,69.4583,25.8489)"><stop offset="0" style="stop-color:#000;stop-opacity:1"/><stop offset="1" style="stop-color:#000;stop-opacity:1"/></linearGradient></defs></svg>