<?xml version="1.0" encoding="UTF-8" standalone="no"?><!DOCTYPE svg PUBLIC "-//W3C//DTD SVG 1.1//EN" "http://www.w3.org/Graphics/SVG/1.1/DTD/svg11.dtd"><svg width="100%" height="100%" viewBox="0 0 89 90" version="1.1" xmlns="http://www.w3.org/2000/svg" xmlns:xlink="http://www.w3.org/1999/xlink" xml:space="preserve" xmlns:serif="http://www.serif.com/" style="fill-rule:evenodd;clip-rule:evenodd;stroke-linejoin:round;stroke-miterlimit:2;"><g><rect x="0" y="1.102" width="88.08" height="88.08" style="fill:#f2f2f2;"/><path d="M88.08,1.102l-88.08,0l0,88.08l88.08,0l0,-88.08Zm-0.45,0.45l0,87.18c-0,-0 -87.18,-0 -87.18,-0c0,-0 0,-87.18 0,-87.18l87.18,0Z"/><g><path d="M43.848,17.214c4.461,7.705 8.923,15.409 13.384,23.114c-2.91,5.151 -5.82,10.302 -8.73,15.453c-4.487,-7.745 -8.974,-15.49 -13.461,-23.234c2.936,-5.111 5.871,-10.222 8.807,-15.333Z" style="fill-opacity:0;fill-rule:nonzero;"/><path d="M43.848,17.214l13.384,23.114c-2.91,5.151 -5.82,10.302 -8.73,15.453c-4.487,-7.745 -8.974,-15.49 -13.461,-23.234l8.807,-15.333Zm0.012,6.866c3.14,5.423 6.281,10.846 9.421,16.269c-0,-0 -4.816,8.525 -4.816,8.525c-3.155,-5.445 -6.31,-10.89 -9.464,-16.334l4.859,-8.46Z"/><path d="M18.138,62.189c4.441,-7.715 8.883,-15.431 13.325,-23.147c5.915,-0.055 11.831,-0.111 17.747,-0.166c-4.464,7.758 -8.927,15.516 -13.391,23.275c-5.894,0.013 -11.787,0.026 -17.681,0.038Z" style="fill-opacity:0;fill-rule:nonzero;"/><path d="M18.138,62.189c4.441,-7.715 8.883,-15.431 13.325,-23.147c5.915,-0.055 11.831,-0.111 17.747,-0.166c-4.464,7.758 -8.927,15.516 -13.391,23.275c-5.894,0.013 -11.787,0.026 -17.681,0.038Zm5.939,-3.442c3.127,-5.431 6.253,-10.862 9.38,-16.293c3.263,-0.031 6.526,-0.062 9.79,-0.092c-3.138,5.454 -6.276,10.909 -9.414,16.363l-9.756,0.022Z"/><path d="M69.942,61.968c-8.903,0.011 -17.805,0.023 -26.708,0.034c-3.006,-5.096 -6.012,-10.191 -9.018,-15.287c8.951,-0.013 17.901,-0.027 26.852,-0.041c2.958,5.098 5.916,10.196 8.874,15.294Z" style="fill-opacity:0;fill-rule:nonzero;"/><path d="M69.942,61.968c-8.903,0.011 -17.805,0.023 -26.708,0.034c-3.006,-5.096 -6.012,-10.191 -9.018,-15.287c8.951,-0.013 17.901,-0.027 26.852,-0.041c2.958,5.098 5.916,10.196 8.874,15.294Zm-5.951,-3.423c-6.267,0.008 -12.533,0.017 -18.8,0.025c-1.658,-2.812 -3.316,-5.623 -4.975,-8.434c6.293,-0.009 12.586,-0.019 18.878,-0.029l4.897,8.438Z"/></g></g></svg>