<?xml version="1.0" encoding="UTF-8" standalone="no"?><!DOCTYPE svg PUBLIC "-//W3C//DTD SVG 1.1//EN" "http://www.w3.org/Graphics/SVG/1.1/DTD/svg11.dtd"><svg width="100%" height="100%" viewBox="0 0 89 89" version="1.1" xmlns="http://www.w3.org/2000/svg" xmlns:xlink="http://www.w3.org/1999/xlink" xml:space="preserve" xmlns:serif="http://www.serif.com/" style="fill-rule:evenodd;clip-rule:evenodd;stroke-linejoin:bevel;stroke-miterlimit:10;"><g><rect x="0" y="0" width="88.08" height="88.08" style="fill:#f2f2f2;"/><path d="M88.08,0l-88.08,0l0,88.08l88.08,0l0,-88.08Zm-0.4,0.4l0,87.28c0,-0 -87.28,-0 -87.28,-0c0,0 0,-87.28 0,-87.28l87.28,-0Z"/><g><path d="M65.781,33.572c-3.275,7.102 -2.649,13.264 1.881,18.488c-7.679,-1.887 -14.913,0.223 -21.705,6.329" style="fill-opacity:0;fill-rule:nonzero;stroke:#000;stroke-width:3.49px;"/><path d="M27.315,27.047c7.788,-0.715 12.812,-4.338 15.071,-10.872c2.206,7.592 7.65,12.802 16.333,15.631" style="fill-opacity:0;fill-rule:nonzero;stroke:#000;stroke-width:3.49px;"/><path d="M40.897,63.623c-4.513,-6.389 -10.163,-8.927 -16.95,-7.617c5.471,-5.706 7.262,-13.026 5.369,-21.96" style="fill-opacity:0;fill-rule:nonzero;stroke:#000;stroke-width:3.49px;"/><path d="M62.014,55.781c-7.788,0.714 -12.812,4.338 -15.071,10.872c-2.206,-7.593 -7.65,-12.803 -16.333,-15.631" style="fill-opacity:0;fill-rule:nonzero;stroke:#000;stroke-width:3.49px;"/><path d="M23.547,49.256c3.276,-7.103 2.65,-13.266 -1.88,-18.488c7.679,1.885 14.913,-0.225 21.705,-6.33" style="fill-opacity:0;fill-rule:nonzero;stroke:#000;stroke-width:3.49px;"/><path d="M48.432,19.204c4.512,6.389 10.163,8.928 16.95,7.616c-5.472,5.707 -7.262,13.027 -5.37,21.961" style="fill-opacity:0;fill-rule:nonzero;stroke:#000;stroke-width:3.49px;"/></g></g></svg>