<?xml version="1.0" encoding="UTF-8" standalone="no"?><!DOCTYPE svg PUBLIC "-//W3C//DTD SVG 1.1//EN" "http://www.w3.org/Graphics/SVG/1.1/DTD/svg11.dtd"><svg width="100%" height="100%" viewBox="0 0 89 89" version="1.1" xmlns="http://www.w3.org/2000/svg" xmlns:xlink="http://www.w3.org/1999/xlink" xml:space="preserve" xmlns:serif="http://www.serif.com/" style="fill-rule:evenodd;clip-rule:evenodd;stroke-linecap:round;stroke-miterlimit:10;"><rect x="0" y="0" width="88.08" height="88.08" style="fill:#f2f2f2;"/><path d="M88.08,0l-88.08,0l0,88.08l88.08,0l0,-88.08Zm-0.45,0.45l0,87.18c-0,-0 -87.18,-0 -87.18,-0c0,-0 0,-87.18 0,-87.18l87.18,0Z"/><g><g><path d="M56.395,18.297c2.992,5.326 5.984,10.651 8.977,15.976c-0.878,1.52 -1.755,3.039 -2.632,4.558c0.364,0.595 0.728,1.19 1.092,1.785c1.285,-2.229 2.569,-4.459 3.853,-6.688c-3.374,-5.928 -6.748,-11.856 -10.121,-17.785c-6.129,0.028 -12.258,0.056 -18.386,0.084c-4.511,7.823 -9.022,15.647 -13.533,23.471c6.047,0.068 12.095,0.137 18.142,0.206c4.203,-7.203 8.406,-14.405 12.608,-21.607Z" style="fill-rule:nonzero;stroke:#000;stroke-width:0.37px;"/><path d="M31.685,64.258c-2.992,-5.326 -5.984,-10.651 -8.977,-15.977c0.878,-1.519 1.755,-3.038 2.632,-4.558c-0.364,-0.595 -0.728,-1.19 -1.092,-1.785c-1.285,2.23 -2.569,4.46 -3.853,6.689c3.374,5.928 6.748,11.856 10.121,17.784c6.129,-0.027 12.258,-0.055 18.386,-0.083c4.511,-7.824 9.022,-15.647 13.533,-23.471c-6.047,-0.069 -12.095,-0.137 -18.142,-0.206c-4.203,7.202 -8.406,14.404 -12.608,21.607Z" style="fill-rule:nonzero;stroke:#000;stroke-width:0.37px;"/></g></g></svg>