<?xml version="1.0" encoding="UTF-8" standalone="no"?><!DOCTYPE svg PUBLIC "-//W3C//DTD SVG 1.1//EN" "http://www.w3.org/Graphics/SVG/1.1/DTD/svg11.dtd"><svg width="100%" height="100%" viewBox="0 0 89 89" version="1.1" xmlns="http://www.w3.org/2000/svg" xmlns:xlink="http://www.w3.org/1999/xlink" xml:space="preserve" xmlns:serif="http://www.serif.com/" style="fill-rule:evenodd;clip-rule:evenodd;stroke-linejoin:round;stroke-miterlimit:2;"><g><rect x="0" y="0" width="88.08" height="88.08" style="fill:#f2f2f2;"/><path d="M88.08,0l-88.08,0l0,88.08l88.08,0l0,-88.08Zm-0.45,0.45l0,87.18c-0,0 -87.18,0 -87.18,0c-0,-0 -0,-87.18 -0,-87.18l87.18,0Z" style="fill:#f20d0d;"/><path d="M41.314,50.576c-0.02,-0.735 -0.031,-1.286 -0.031,-1.654c0,-2.163 0.307,-4.031 0.919,-5.603c0.449,-1.184 1.174,-2.379 2.174,-3.583c0.735,-0.878 2.057,-2.159 3.966,-3.843c1.908,-1.684 3.148,-3.026 3.72,-4.027c0.572,-1 0.857,-2.092 0.857,-3.276c0,-2.144 -0.837,-4.027 -2.51,-5.65c-1.674,-1.623 -3.726,-2.434 -6.155,-2.434c-2.348,0 -4.308,0.735 -5.88,2.204c-1.572,1.47 -2.603,3.767 -3.093,6.89l-5.664,-0.673c0.51,-4.185 2.026,-7.39 4.547,-9.616c2.521,-2.225 5.854,-3.337 9.998,-3.337c4.389,0 7.89,1.194 10.503,3.582c2.613,2.389 3.919,5.278 3.919,8.666c0,1.96 -0.459,3.767 -1.378,5.42c-0.918,1.654 -2.715,3.665 -5.389,6.033c-1.796,1.592 -2.97,2.766 -3.521,3.521c-0.552,0.756 -0.96,1.623 -1.225,2.603c-0.266,0.98 -0.419,2.572 -0.46,4.777l-5.297,0Zm-0.337,11.054l0,-6.277l6.278,0l0,6.277l-6.278,0Z" style="fill:#ff2600;fill-rule:nonzero;"/><g><path d="M5.366,81.592l-0,-5.011l0.663,-0l-0,2.057l2.604,0l0,-2.057l0.663,-0l0,5.011l-0.663,-0l0,-2.362l-2.604,-0l-0,2.362l-0.663,-0Z" style="fill:#f20d0d;fill-rule:nonzero;"/><path d="M10.093,79.777c-0,-0.673 0.187,-1.17 0.56,-1.494c0.312,-0.269 0.693,-0.403 1.142,-0.403c0.499,-0 0.907,0.163 1.224,0.49c0.316,0.327 0.475,0.779 0.475,1.355c-0,0.468 -0.07,0.835 -0.211,1.103c-0.14,0.267 -0.344,0.475 -0.611,0.623c-0.268,0.149 -0.56,0.223 -0.877,0.223c-0.508,-0 -0.919,-0.163 -1.232,-0.489c-0.314,-0.326 -0.47,-0.795 -0.47,-1.408Zm0.632,-0c0,0.464 0.101,0.813 0.304,1.044c0.203,0.231 0.458,0.347 0.766,0.347c0.305,-0 0.559,-0.116 0.762,-0.349c0.203,-0.232 0.304,-0.587 0.304,-1.063c0,-0.449 -0.102,-0.789 -0.306,-1.02c-0.204,-0.231 -0.457,-0.347 -0.76,-0.347c-0.308,-0 -0.563,0.115 -0.766,0.345c-0.203,0.23 -0.304,0.578 -0.304,1.043Z" style="fill:#f20d0d;fill-rule:nonzero;"/><path d="M14.885,81.592l-1.111,-3.63l0.636,-0l0.577,2.095l0.216,0.779c0.009,-0.039 0.071,-0.288 0.188,-0.748l0.577,-2.126l0.633,-0l0.543,2.105l0.181,0.694l0.209,-0.701l0.622,-2.098l0.598,-0l-1.135,3.63l-0.639,-0l-0.578,-2.174l-0.14,-0.619l-0.735,2.793l-0.642,-0Z" style="fill:#f20d0d;fill-rule:nonzero;"/><path d="M22.558,81.041l0.089,0.544c-0.173,0.036 -0.328,0.054 -0.465,0.054c-0.223,0 -0.396,-0.035 -0.519,-0.106c-0.123,-0.07 -0.21,-0.163 -0.26,-0.278c-0.05,-0.115 -0.075,-0.357 -0.075,-0.726l-0,-2.089l-0.452,0l0,-0.478l0.452,-0l-0,-0.899l0.611,-0.369l0,1.268l0.619,-0l0,0.478l-0.619,0l0,2.123c0,0.175 0.011,0.288 0.033,0.338c0.022,0.05 0.057,0.09 0.106,0.12c0.049,0.029 0.119,0.044 0.21,0.044c0.068,0 0.158,-0.008 0.27,-0.024Z" style="fill:#f20d0d;fill-rule:nonzero;"/><path d="M22.931,79.777c-0,-0.673 0.186,-1.17 0.56,-1.494c0.312,-0.269 0.693,-0.403 1.142,-0.403c0.499,-0 0.907,0.163 1.223,0.49c0.317,0.327 0.476,0.779 0.476,1.355c-0,0.468 -0.071,0.835 -0.211,1.103c-0.14,0.267 -0.344,0.475 -0.612,0.623c-0.267,0.149 -0.559,0.223 -0.876,0.223c-0.508,-0 -0.919,-0.163 -1.232,-0.489c-0.314,-0.326 -0.47,-0.795 -0.47,-1.408Zm0.632,-0c-0,0.464 0.101,0.813 0.304,1.044c0.203,0.231 0.458,0.347 0.766,0.347c0.305,-0 0.559,-0.116 0.762,-0.349c0.203,-0.232 0.304,-0.587 0.304,-1.063c0,-0.449 -0.102,-0.789 -0.306,-1.02c-0.204,-0.231 -0.457,-0.347 -0.76,-0.347c-0.308,-0 -0.563,0.115 -0.766,0.345c-0.203,0.23 -0.304,0.578 -0.304,1.043Z" style="fill:#f20d0d;fill-rule:nonzero;"/><path d="M31.376,81.592l0,-0.534c-0.282,0.411 -0.666,0.616 -1.151,0.616c-0.215,-0 -0.415,-0.041 -0.6,-0.123c-0.186,-0.082 -0.324,-0.186 -0.414,-0.31c-0.09,-0.124 -0.153,-0.276 -0.19,-0.456c-0.025,-0.121 -0.037,-0.312 -0.037,-0.574l-0,-2.249l0.615,-0l0,2.013c0,0.321 0.013,0.538 0.038,0.649c0.038,0.162 0.12,0.289 0.246,0.381c0.125,0.093 0.28,0.139 0.465,0.139c0.184,-0 0.357,-0.047 0.519,-0.142c0.162,-0.095 0.276,-0.223 0.344,-0.386c0.067,-0.163 0.1,-0.4 0.1,-0.709l0,-1.945l0.616,-0l-0,3.63l-0.551,-0Z" style="fill:#f20d0d;fill-rule:nonzero;"/><path d="M32.644,80.508l0.609,-0.096c0.034,0.244 0.129,0.431 0.285,0.561c0.156,0.13 0.375,0.195 0.655,0.195c0.282,-0 0.492,-0.058 0.629,-0.173c0.136,-0.115 0.205,-0.25 0.205,-0.405c-0,-0.139 -0.061,-0.248 -0.181,-0.328c-0.085,-0.055 -0.294,-0.124 -0.629,-0.208c-0.451,-0.114 -0.764,-0.213 -0.938,-0.296c-0.175,-0.083 -0.307,-0.198 -0.397,-0.345c-0.09,-0.147 -0.135,-0.31 -0.135,-0.487c0,-0.162 0.037,-0.312 0.111,-0.45c0.074,-0.138 0.175,-0.252 0.303,-0.343c0.095,-0.071 0.226,-0.131 0.391,-0.18c0.165,-0.049 0.342,-0.073 0.531,-0.073c0.285,-0 0.535,0.041 0.751,0.123c0.215,0.082 0.374,0.193 0.477,0.333c0.102,0.14 0.173,0.328 0.211,0.562l-0.601,0.082c-0.027,-0.187 -0.107,-0.332 -0.238,-0.437c-0.131,-0.105 -0.316,-0.157 -0.555,-0.157c-0.283,-0 -0.484,0.046 -0.605,0.14c-0.121,0.093 -0.181,0.202 -0.181,0.328c-0,0.08 0.025,0.151 0.075,0.215c0.05,0.066 0.129,0.121 0.236,0.164c0.061,0.023 0.242,0.075 0.543,0.157c0.435,0.117 0.739,0.212 0.911,0.286c0.172,0.074 0.307,0.182 0.405,0.323c0.098,0.141 0.147,0.317 0.147,0.526c0,0.205 -0.06,0.398 -0.179,0.58c-0.12,0.181 -0.293,0.321 -0.518,0.42c-0.226,0.099 -0.481,0.149 -0.766,0.149c-0.471,-0 -0.831,-0.098 -1.078,-0.294c-0.247,-0.196 -0.405,-0.487 -0.474,-0.872Z" style="fill:#f20d0d;fill-rule:nonzero;"/><path d="M38.875,80.423l0.636,0.078c-0.1,0.372 -0.286,0.66 -0.557,0.865c-0.271,0.205 -0.617,0.308 -1.039,0.308c-0.531,-0 -0.952,-0.164 -1.263,-0.491c-0.311,-0.327 -0.466,-0.785 -0.466,-1.376c-0,-0.61 0.157,-1.084 0.471,-1.421c0.315,-0.338 0.723,-0.506 1.224,-0.506c0.485,-0 0.882,0.165 1.189,0.495c0.308,0.331 0.462,0.796 0.462,1.395c-0,0.036 -0.001,0.091 -0.004,0.164l-2.707,-0c0.023,0.399 0.136,0.704 0.339,0.916c0.202,0.212 0.455,0.318 0.758,0.318c0.226,-0 0.419,-0.059 0.578,-0.178c0.16,-0.118 0.286,-0.308 0.379,-0.567Zm-2.02,-0.995l2.027,0c-0.027,-0.305 -0.105,-0.534 -0.232,-0.687c-0.196,-0.237 -0.45,-0.355 -0.762,-0.355c-0.283,-0 -0.52,0.094 -0.713,0.283c-0.193,0.189 -0.299,0.442 -0.32,0.759Z" style="fill:#f20d0d;fill-rule:nonzero;"/><path d="M44.597,81.144c-0.228,0.194 -0.447,0.33 -0.658,0.41c-0.211,0.08 -0.437,0.12 -0.678,0.12c-0.399,-0 -0.706,-0.098 -0.92,-0.293c-0.214,-0.194 -0.321,-0.443 -0.321,-0.746c-0,-0.178 0.04,-0.341 0.121,-0.487c0.081,-0.147 0.187,-0.265 0.318,-0.354c0.131,-0.089 0.279,-0.156 0.443,-0.202c0.121,-0.032 0.303,-0.063 0.547,-0.092c0.496,-0.059 0.862,-0.13 1.097,-0.212c0.002,-0.084 0.003,-0.138 0.003,-0.161c0,-0.25 -0.058,-0.427 -0.174,-0.53c-0.157,-0.139 -0.391,-0.208 -0.701,-0.208c-0.289,-0 -0.503,0.051 -0.641,0.152c-0.137,0.101 -0.239,0.281 -0.305,0.538l-0.602,-0.082c0.055,-0.257 0.145,-0.465 0.27,-0.623c0.125,-0.159 0.306,-0.281 0.543,-0.366c0.237,-0.086 0.512,-0.128 0.824,-0.128c0.31,-0 0.562,0.036 0.756,0.109c0.193,0.073 0.336,0.165 0.427,0.275c0.091,0.111 0.155,0.25 0.191,0.419c0.021,0.105 0.031,0.294 0.031,0.567l-0,0.821c-0,0.572 0.013,0.933 0.039,1.085c0.026,0.151 0.078,0.297 0.156,0.436l-0.643,-0c-0.064,-0.128 -0.105,-0.277 -0.123,-0.448Zm-0.051,-1.374c-0.223,0.091 -0.558,0.168 -1.005,0.232c-0.253,0.037 -0.432,0.078 -0.537,0.123c-0.104,0.046 -0.185,0.113 -0.242,0.2c-0.057,0.088 -0.086,0.185 -0.086,0.292c0,0.165 0.062,0.301 0.187,0.411c0.124,0.109 0.305,0.164 0.545,0.164c0.237,-0 0.447,-0.052 0.632,-0.156c0.185,-0.104 0.32,-0.245 0.407,-0.425c0.066,-0.139 0.099,-0.344 0.099,-0.616l-0,-0.225Z" style="fill:#f20d0d;fill-rule:nonzero;"/><path d="M46.122,81.592l-0,-3.63l0.553,-0l0,0.516c0.267,-0.399 0.652,-0.598 1.156,-0.598c0.218,-0 0.419,0.039 0.603,0.118c0.183,0.078 0.321,0.181 0.412,0.309c0.091,0.128 0.155,0.279 0.191,0.455c0.023,0.113 0.034,0.313 0.034,0.598l0,2.232l-0.615,-0l0,-2.208c0,-0.251 -0.024,-0.438 -0.072,-0.563c-0.048,-0.124 -0.132,-0.223 -0.254,-0.297c-0.122,-0.074 -0.265,-0.111 -0.429,-0.111c-0.262,-0 -0.489,0.083 -0.679,0.249c-0.19,0.167 -0.285,0.482 -0.285,0.947l-0,1.983l-0.615,-0Z" style="fill:#f20d0d;fill-rule:nonzero;"/><path d="M49.987,82.99l-0.068,-0.578c0.134,0.036 0.252,0.055 0.352,0.055c0.137,-0 0.246,-0.023 0.328,-0.069c0.082,-0.045 0.149,-0.109 0.202,-0.191c0.038,-0.062 0.101,-0.214 0.188,-0.458c0.011,-0.034 0.029,-0.084 0.054,-0.151l-1.377,-3.636l0.663,-0l0.755,2.102c0.098,0.266 0.186,0.547 0.264,0.841c0.07,-0.283 0.155,-0.559 0.253,-0.828l0.775,-2.115l0.616,-0l-1.381,3.691c-0.148,0.399 -0.263,0.673 -0.345,0.824c-0.11,0.203 -0.235,0.351 -0.376,0.446c-0.142,0.094 -0.31,0.142 -0.506,0.142c-0.119,-0 -0.251,-0.025 -0.397,-0.075Z" style="fill:#f20d0d;fill-rule:nonzero;"/><path d="M56.686,81.592l0,-4.42l-1.65,0l-0,-0.591l3.971,-0l0,0.591l-1.657,0l-0,4.42l-0.664,-0Z" style="fill:#f20d0d;fill-rule:nonzero;"/><path d="M61.318,80.423l0.636,0.078c-0.101,0.372 -0.286,0.66 -0.558,0.865c-0.271,0.205 -0.617,0.308 -1.039,0.308c-0.531,-0 -0.952,-0.164 -1.263,-0.491c-0.311,-0.327 -0.466,-0.785 -0.466,-1.376c-0,-0.61 0.157,-1.084 0.472,-1.421c0.314,-0.338 0.722,-0.506 1.223,-0.506c0.486,-0 0.882,0.165 1.19,0.495c0.307,0.331 0.461,0.796 0.461,1.395c0,0.036 -0.001,0.091 -0.003,0.164l-2.707,-0c0.022,0.399 0.135,0.704 0.338,0.916c0.203,0.212 0.456,0.318 0.759,0.318c0.225,-0 0.418,-0.059 0.577,-0.178c0.16,-0.118 0.286,-0.308 0.38,-0.567Zm-2.02,-0.995l2.027,0c-0.028,-0.305 -0.105,-0.534 -0.233,-0.687c-0.196,-0.237 -0.45,-0.355 -0.762,-0.355c-0.283,-0 -0.52,0.094 -0.713,0.283c-0.192,0.189 -0.299,0.442 -0.319,0.759Z" style="fill:#f20d0d;fill-rule:nonzero;"/><path d="M62.726,81.592l0,-3.63l0.55,-0l0,0.509c0.114,-0.178 0.266,-0.321 0.455,-0.429c0.189,-0.108 0.404,-0.162 0.646,-0.162c0.269,-0 0.489,0.056 0.661,0.167c0.172,0.112 0.294,0.268 0.364,0.468c0.287,-0.423 0.661,-0.635 1.121,-0.635c0.36,-0 0.637,0.099 0.831,0.299c0.194,0.199 0.29,0.506 0.29,0.921l0,2.492l-0.611,-0l-0,-2.287c-0,-0.246 -0.02,-0.423 -0.06,-0.532c-0.04,-0.108 -0.112,-0.195 -0.217,-0.261c-0.105,-0.066 -0.228,-0.099 -0.369,-0.099c-0.256,-0 -0.467,0.085 -0.636,0.255c-0.169,0.169 -0.253,0.441 -0.253,0.815l0,2.109l-0.615,-0l-0,-2.359c-0,-0.273 -0.05,-0.478 -0.151,-0.615c-0.1,-0.137 -0.264,-0.205 -0.492,-0.205c-0.173,-0 -0.333,0.045 -0.48,0.137c-0.147,0.091 -0.254,0.224 -0.32,0.4c-0.066,0.175 -0.099,0.428 -0.099,0.758l0,1.884l-0.615,-0Z" style="fill:#f20d0d;fill-rule:nonzero;"/><path d="M68.557,82.983l0,-5.021l0.561,-0l-0,0.471c0.132,-0.184 0.281,-0.323 0.447,-0.415c0.167,-0.092 0.368,-0.138 0.605,-0.138c0.31,-0 0.584,0.079 0.821,0.239c0.237,0.159 0.416,0.384 0.536,0.675c0.121,0.291 0.181,0.609 0.181,0.955c0,0.372 -0.066,0.706 -0.199,1.003c-0.134,0.298 -0.327,0.526 -0.582,0.684c-0.254,0.158 -0.521,0.238 -0.801,0.238c-0.205,-0 -0.389,-0.044 -0.552,-0.13c-0.163,-0.087 -0.297,-0.196 -0.402,-0.328l0,1.767l-0.615,-0Zm0.557,-3.186c0,0.467 0.095,0.812 0.284,1.036c0.189,0.223 0.418,0.335 0.687,0.335c0.273,-0 0.507,-0.116 0.702,-0.347c0.195,-0.231 0.293,-0.59 0.293,-1.075c-0,-0.463 -0.096,-0.809 -0.286,-1.039c-0.19,-0.23 -0.417,-0.345 -0.682,-0.345c-0.262,-0 -0.494,0.122 -0.695,0.367c-0.202,0.245 -0.303,0.601 -0.303,1.068Z" style="fill:#f20d0d;fill-rule:nonzero;"/><rect x="72.436" y="76.581" width="0.615" height="5.011" style="fill:#f20d0d;fill-rule:nonzero;"/><path d="M76.374,81.144c-0.228,0.194 -0.447,0.33 -0.658,0.41c-0.211,0.08 -0.437,0.12 -0.678,0.12c-0.399,-0 -0.706,-0.098 -0.92,-0.293c-0.214,-0.194 -0.321,-0.443 -0.321,-0.746c-0,-0.178 0.04,-0.341 0.121,-0.487c0.081,-0.147 0.187,-0.265 0.318,-0.354c0.131,-0.089 0.279,-0.156 0.443,-0.202c0.12,-0.032 0.303,-0.063 0.547,-0.092c0.496,-0.059 0.862,-0.13 1.097,-0.212c0.002,-0.084 0.003,-0.138 0.003,-0.161c0,-0.25 -0.058,-0.427 -0.174,-0.53c-0.157,-0.139 -0.391,-0.208 -0.701,-0.208c-0.289,-0 -0.503,0.051 -0.641,0.152c-0.138,0.101 -0.24,0.281 -0.306,0.538l-0.601,-0.082c0.054,-0.257 0.144,-0.465 0.27,-0.623c0.125,-0.159 0.306,-0.281 0.543,-0.366c0.237,-0.086 0.512,-0.128 0.824,-0.128c0.31,-0 0.562,0.036 0.755,0.109c0.194,0.073 0.336,0.165 0.428,0.275c0.091,0.111 0.155,0.25 0.191,0.419c0.021,0.105 0.031,0.294 0.031,0.567l-0,0.821c-0,0.572 0.013,0.933 0.039,1.085c0.026,0.151 0.078,0.297 0.156,0.436l-0.643,-0c-0.064,-0.128 -0.105,-0.277 -0.123,-0.448Zm-0.051,-1.374c-0.224,0.091 -0.559,0.168 -1.005,0.232c-0.253,0.037 -0.432,0.078 -0.537,0.123c-0.105,0.046 -0.185,0.113 -0.242,0.2c-0.057,0.088 -0.086,0.185 -0.086,0.292c0,0.165 0.062,0.301 0.186,0.411c0.125,0.109 0.306,0.164 0.546,0.164c0.237,-0 0.447,-0.052 0.632,-0.156c0.184,-0.104 0.32,-0.245 0.407,-0.425c0.066,-0.139 0.099,-0.344 0.099,-0.616l-0,-0.225Z" style="fill:#f20d0d;fill-rule:nonzero;"/><path d="M79.242,81.041l0.089,0.544c-0.174,0.036 -0.329,0.054 -0.465,0.054c-0.224,0 -0.397,-0.035 -0.52,-0.106c-0.123,-0.07 -0.209,-0.163 -0.26,-0.278c-0.05,-0.115 -0.075,-0.357 -0.075,-0.726l0,-2.089l-0.451,0l0,-0.478l0.451,-0l0,-0.899l0.612,-0.369l0,1.268l0.619,-0l-0,0.478l-0.619,0l0,2.123c0,0.175 0.011,0.288 0.032,0.338c0.022,0.05 0.057,0.09 0.106,0.12c0.049,0.029 0.119,0.044 0.211,0.044c0.068,0 0.158,-0.008 0.27,-0.024Z" style="fill:#f20d0d;fill-rule:nonzero;"/><path d="M82.328,80.423l0.636,0.078c-0.1,0.372 -0.286,0.66 -0.557,0.865c-0.271,0.205 -0.618,0.308 -1.039,0.308c-0.531,-0 -0.952,-0.164 -1.263,-0.491c-0.311,-0.327 -0.467,-0.785 -0.467,-1.376c0,-0.61 0.157,-1.084 0.472,-1.421c0.314,-0.338 0.722,-0.506 1.223,-0.506c0.486,-0 0.882,0.165 1.19,0.495c0.308,0.331 0.461,0.796 0.461,1.395c0,0.036 -0.001,0.091 -0.003,0.164l-2.707,-0c0.023,0.399 0.135,0.704 0.338,0.916c0.203,0.212 0.456,0.318 0.759,0.318c0.226,-0 0.418,-0.059 0.578,-0.178c0.159,-0.118 0.286,-0.308 0.379,-0.567Zm-2.02,-0.995l2.027,0c-0.027,-0.305 -0.105,-0.534 -0.233,-0.687c-0.195,-0.237 -0.45,-0.355 -0.762,-0.355c-0.282,-0 -0.52,0.094 -0.712,0.283c-0.193,0.189 -0.299,0.442 -0.32,0.759Z" style="fill:#f20d0d;fill-rule:nonzero;"/></g></g></svg>