<?xml version="1.0" encoding="UTF-8" standalone="no"?><!DOCTYPE svg PUBLIC "-//W3C//DTD SVG 1.1//EN" "http://www.w3.org/Graphics/SVG/1.1/DTD/svg11.dtd"><svg width="100%" height="100%" viewBox="0 0 89 89" version="1.1" xmlns="http://www.w3.org/2000/svg" xmlns:xlink="http://www.w3.org/1999/xlink" xml:space="preserve" xmlns:serif="http://www.serif.com/" style="fill-rule:evenodd;clip-rule:evenodd;stroke-linecap:round;stroke-miterlimit:10;"><rect x="0" y="0" width="88.08" height="88.08" style="fill:#f2f2f2;"/><path d="M88.08,0l-88.08,0l0,88.08l88.08,0l0,-88.08Zm-0.4,0.4l0,87.28c0,-0 -87.28,-0 -87.28,-0c0,0 0,-87.28 0,-87.28l87.28,-0Z"/><g><g><path d="M60.161,69.022c-5.098,-0.06 -10.197,-0.12 -15.295,-0.179c-0.644,-1.065 -1.287,-2.131 -1.931,-3.196c-0.404,0.256 -0.808,0.512 -1.213,0.768c0.809,1.415 1.619,2.83 2.428,4.245c5.693,0.035 11.387,0.07 17.08,0.105c2.538,-4.442 5.076,-8.884 7.614,-13.326c-3.92,-6.82 -7.841,-13.641 -11.761,-20.462c-4.008,2.541 -8.016,5.081 -12.024,7.622c5.034,8.141 10.068,16.282 15.102,24.423Z" style="fill-rule:nonzero;stroke:#000;stroke-width:0.04px;"/><path d="M67.014,29.926c-0.06,5.099 -0.119,10.197 -0.179,15.296c-1.065,0.643 -2.13,1.287 -3.195,1.93c0.256,0.405 0.512,0.809 0.768,1.213c1.414,-0.809 2.829,-1.618 4.244,-2.427c0.035,-5.694 0.07,-11.387 0.106,-17.081c-4.442,-2.538 -8.884,-5.075 -13.326,-7.613c-6.821,3.92 -13.642,7.84 -20.462,11.76c2.54,4.009 5.081,8.017 7.621,12.025c8.141,-5.034 16.282,-10.068 24.423,-15.103Z" style="fill-rule:nonzero;stroke:#000;stroke-width:0.04px;"/><path d="M27.919,23.073c5.098,0.06 10.197,0.12 15.295,0.179c0.644,1.066 1.287,2.131 1.931,3.196c0.404,-0.256 0.808,-0.512 1.213,-0.768c-0.809,-1.415 -1.619,-2.83 -2.428,-4.244c-5.693,-0.036 -11.387,-0.071 -17.08,-0.106c-2.538,4.442 -5.076,8.884 -7.614,13.326c3.92,6.82 7.841,13.641 11.761,20.462c4.008,-2.541 8.016,-5.081 12.024,-7.622c-5.034,-8.141 -10.068,-16.282 -15.102,-24.423Z" style="fill-rule:nonzero;stroke:#000;stroke-width:0.04px;"/><path d="M21.066,62.169c0.06,-5.099 0.119,-10.197 0.179,-15.296c1.065,-0.643 2.13,-1.287 3.195,-1.93c-0.256,-0.404 -0.512,-0.809 -0.768,-1.213c-1.414,0.809 -2.829,1.618 -4.244,2.427c-0.035,5.694 -0.07,11.387 -0.106,17.081c4.442,2.538 8.884,5.076 13.326,7.613c6.821,-3.92 13.642,-7.84 20.462,-11.76c-2.54,-4.008 -5.081,-8.017 -7.621,-12.025c-8.141,5.034 -16.282,10.068 -24.423,15.103Z" style="fill-rule:nonzero;stroke:#000;stroke-width:0.04px;"/></g></g></svg>