<?xml version="1.0" encoding="UTF-8" standalone="no"?><!DOCTYPE svg PUBLIC "-//W3C//DTD SVG 1.1//EN" "http://www.w3.org/Graphics/SVG/1.1/DTD/svg11.dtd"><svg width="100%" height="100%" viewBox="0 0 89 89" version="1.1" xmlns="http://www.w3.org/2000/svg" xmlns:xlink="http://www.w3.org/1999/xlink" xml:space="preserve" xmlns:serif="http://www.serif.com/" style="fill-rule:evenodd;clip-rule:evenodd;stroke-linecap:round;stroke-miterlimit:10;"><rect x="0" y="0" width="88.08" height="88.08" style="fill:#f2f2f2;"/><path d="M88.08,0l-88.08,0l0,88.08l88.08,0l0,-88.08Zm-0.45,0.45l0,87.18c-0,-0 -87.18,-0 -87.18,-0c0,-0 0,-87.18 0,-87.18l87.18,0Z"/><g><g><path d="M59.459,68.378c-6.143,-0.072 -12.287,-0.144 -18.43,-0.216c-0.882,-1.528 -1.765,-3.056 -2.647,-4.584c-0.701,0.018 -1.403,0.036 -2.104,0.053c1.296,2.24 2.592,4.48 3.889,6.72c6.86,0.043 13.72,0.085 20.58,0.127c3.058,-5.352 6.116,-10.704 9.174,-16.056c-4.546,-7.864 -9.092,-15.728 -13.639,-23.592c-3.101,5.234 -6.202,10.467 -9.303,15.7c4.16,7.282 8.32,14.565 12.48,21.848Z" style="fill-rule:nonzero;stroke:#000;stroke-width:0.09px;"/><path d="M58.821,23.783c3.009,5.356 6.019,10.712 9.028,16.069c-0.882,1.528 -1.765,3.056 -2.647,4.584c0.366,0.599 0.733,1.197 1.099,1.795c1.292,-2.242 2.583,-4.485 3.875,-6.727c-3.393,-5.962 -6.787,-11.925 -10.18,-17.887c-6.164,0.028 -12.328,0.056 -18.493,0.084c-4.537,7.869 -9.074,15.738 -13.611,23.607c6.083,0.069 12.165,0.138 18.247,0.206c4.228,-7.243 8.455,-14.487 12.682,-21.731Z" style="fill-rule:nonzero;stroke:#000;stroke-width:0.09px;"/><path d="M20.367,46.812c3.134,-5.284 6.268,-10.568 9.402,-15.853l5.294,0c0.335,-0.616 0.67,-1.232 1.005,-1.849c-2.588,0.003 -5.176,0.005 -7.763,0.008c-3.467,5.92 -6.934,11.84 -10.401,17.76c3.106,5.324 6.212,10.649 9.319,15.973c9.083,-0.005 18.166,-0.011 27.25,-0.016c-2.982,-5.302 -5.963,-10.604 -8.945,-15.906c-8.387,-0.039 -16.774,-0.078 -25.161,-0.117Z" style="fill-rule:nonzero;stroke:#000;stroke-width:0.09px;"/></g></g></svg>