<?xml version="1.0" encoding="UTF-8" standalone="no"?><!DOCTYPE svg PUBLIC "-//W3C//DTD SVG 1.1//EN" "http://www.w3.org/Graphics/SVG/1.1/DTD/svg11.dtd"><svg width="100%" height="100%" viewBox="0 0 89 89" version="1.1" xmlns="http://www.w3.org/2000/svg" xmlns:xlink="http://www.w3.org/1999/xlink" xml:space="preserve" xmlns:serif="http://www.serif.com/" style="fill-rule:evenodd;clip-rule:evenodd;stroke-linejoin:round;stroke-miterlimit:2;"><g><rect x="0" y="0" width="88.08" height="88.08" style="fill:#f2f2f2;"/><path d="M88.08,0l-88.08,0l0,88.08l88.08,0l0,-88.08Zm-0.45,0.45l0,87.18c-0,0 -87.18,0 -87.18,0c-0,-0 -0,-87.18 -0,-87.18l87.18,0Z"/><path d="M60.868,31.087l-22.403,-13.008l-20.47,11.819l1.427,2.472c6.346,-3.664 12.693,-7.328 19.039,-10.992l2.775,1.612l-22.466,12.898l0,23.637l2.855,0l0,-21.984l2.783,-1.598l-0.063,25.906l20.47,11.818l1.427,-2.472c-6.346,-3.664 -12.692,-7.328 -19.038,-10.992l0.008,-3.21l22.403,13.008l20.47,-11.819l-1.427,-2.472c-6.346,3.664 -12.693,7.328 -19.039,10.992l-2.775,-1.612l22.466,-12.898l0,-23.637l-2.855,0l0,21.984l-2.783,1.598l0.063,-25.906l-20.47,-11.818l-1.427,2.472c6.346,3.664 12.692,7.328 19.038,10.992l-0.008,3.21Zm-33.601,3.215l-0.047,19.395l16.773,9.738l16.82,-9.657l0.047,-19.395l-16.773,-9.738l-16.82,9.657Z"/></g></svg>