<?xml version="1.0" encoding="UTF-8" standalone="no"?><!DOCTYPE svg PUBLIC "-//W3C//DTD SVG 1.1//EN" "http://www.w3.org/Graphics/SVG/1.1/DTD/svg11.dtd"><svg width="100%" height="100%" viewBox="0 0 89 89" version="1.1" xmlns="http://www.w3.org/2000/svg" xmlns:xlink="http://www.w3.org/1999/xlink" xml:space="preserve" xmlns:serif="http://www.serif.com/" style="fill-rule:evenodd;clip-rule:evenodd;stroke-linejoin:round;stroke-miterlimit:2;"><g><rect x="0" y="0" width="88.08" height="88.08" style="fill:#f2f2f2;"/><path d="M88.08,0l-88.08,0l0,88.08l88.08,0l0,-88.08Zm-0.4,0.4l-0,87.28c0,-0 -87.28,-0 -87.28,-0c0,0 0,-87.28 0,-87.28l87.28,-0Z"/><path d="M24.118,29.158l0.006,-3.634c0.001,-0.796 -0.644,-1.444 -1.441,-1.445c-0.797,-0.001 -1.444,0.644 -1.446,1.441l-0.046,28.332l-3.144,-1.822c-0.689,-0.399 -1.573,-0.164 -1.972,0.525c-0.4,0.689 -0.164,1.573 0.525,1.972l24.513,14.207l-3.15,1.812c-0.69,0.397 -0.928,1.28 -0.531,1.97c0.397,0.691 1.28,0.929 1.97,0.532l24.56,-14.126l-0.006,3.634c-0.001,0.796 0.644,1.444 1.441,1.445c0.797,0.001 1.444,-0.644 1.446,-1.441l0.046,-28.332l3.144,1.822c0.689,0.399 1.573,0.164 1.972,-0.525c0.4,-0.689 0.164,-1.573 -0.525,-1.972l-24.513,-14.207l3.15,-1.812c0.69,-0.397 0.928,-1.28 0.531,-1.97c-0.397,-0.691 -1.28,-0.929 -1.97,-0.532l-24.56,14.126Zm-0.006,3.333l-0.038,23.032l19.928,11.549l19.966,-11.483l0.038,-23.032l-19.928,-11.549l-19.966,11.483Z" style="fill:url(#_Linear1);"/></g><defs><linearGradient id="_Linear1" x1="0" y1="0" x2="1" y2="0" gradientUnits="userSpaceOnUse" gradientTransform="matrix(-76.0006,-14.5447,14.5447,-76.0006,230.28,176.476)"><stop offset="0" style="stop-color:#212121;stop-opacity:1"/><stop offset="1" style="stop-color:#212121;stop-opacity:1"/></linearGradient></defs></svg>