<?xml version="1.0" encoding="UTF-8" standalone="no"?><!DOCTYPE svg PUBLIC "-//W3C//DTD SVG 1.1//EN" "http://www.w3.org/Graphics/SVG/1.1/DTD/svg11.dtd"><svg width="100%" height="100%" viewBox="0 0 89 89" version="1.1" xmlns="http://www.w3.org/2000/svg" xmlns:xlink="http://www.w3.org/1999/xlink" xml:space="preserve" xmlns:serif="http://www.serif.com/" style="fill-rule:evenodd;clip-rule:evenodd;stroke-linecap:round;stroke-miterlimit:10;"><rect x="0" y="0" width="88.08" height="88.08" style="fill:#f2f2f2;"/><path d="M88.08,0l-88.08,0l0,88.08l88.08,0l0,-88.08Zm-0.4,0.4l0,87.28c0,-0 -87.28,-0 -87.28,-0c0,0 0,-87.28 0,-87.28l87.28,-0Z"/><g><g><path d="M72.385,35.708c-1.814,2.979 -3.627,5.958 -5.441,8.937c0.286,0.431 0.572,0.863 0.857,1.295c2.065,-3.425 4.131,-6.849 6.196,-10.273c-2.033,-3.365 -4.066,-6.729 -6.098,-10.094c-5.944,0.004 -11.889,0.007 -17.833,0.01c-1.973,3.265 -3.947,6.53 -5.92,9.795c9.413,0.11 18.826,0.22 28.239,0.33Z" style="fill-rule:nonzero;stroke:#000;stroke-width:0.06px;"/><path d="M55.061,15.961c1.765,3.006 3.53,6.011 5.295,9.017c0.53,-0.023 1.06,-0.046 1.59,-0.069c-2.039,-3.439 -4.077,-6.878 -6.116,-10.317c-4.033,0.017 -8.067,0.035 -12.101,0.053c-2.969,4.972 -5.938,9.945 -8.907,14.917c1.941,3.283 3.883,6.566 5.824,9.848c4.805,-7.816 9.61,-15.633 14.415,-23.449Z" style="fill-rule:nonzero;stroke:#000;stroke-width:0.06px;"/><path d="M28.689,20.573c3.578,0.027 7.157,0.054 10.735,0.081c0.244,-0.454 0.489,-0.909 0.733,-1.363c-4.104,-0.015 -8.207,-0.03 -12.311,-0.045c-2.001,3.382 -4.002,6.764 -6.003,10.146c2.975,4.969 5.95,9.939 8.925,14.908c3.915,0.018 7.83,0.035 11.745,0.053c-4.608,-7.926 -9.216,-15.853 -13.824,-23.78Z" style="fill-rule:nonzero;stroke:#000;stroke-width:0.06px;"/><path d="M19.64,44.934c1.813,-2.979 3.627,-5.958 5.44,-8.937c-0.285,-0.431 -0.571,-0.863 -0.857,-1.295c-2.065,3.425 -4.13,6.849 -6.195,10.273c2.033,3.365 4.065,6.729 6.098,10.093c5.944,-0.003 11.888,-0.006 17.832,-0.009c1.974,-3.265 3.947,-6.53 5.921,-9.795c-9.413,-0.11 -18.826,-0.22 -28.239,-0.33Z" style="fill-rule:nonzero;stroke:#000;stroke-width:0.06px;"/><path d="M36.963,64.681c-1.765,-3.006 -3.53,-6.012 -5.295,-9.017c-0.53,0.023 -1.059,0.046 -1.589,0.069c2.038,3.439 4.077,6.878 6.115,10.317c4.034,-0.017 8.068,-0.035 12.102,-0.053c2.969,-4.972 5.938,-9.945 8.907,-14.917c-1.942,-3.283 -3.883,-6.566 -5.824,-9.848c-4.806,7.816 -9.611,15.633 -14.416,23.449Z" style="fill-rule:nonzero;stroke:#000;stroke-width:0.06px;"/><path d="M63.336,60.069c-3.579,-0.027 -7.157,-0.054 -10.736,-0.081c-0.244,0.454 -0.488,0.909 -0.732,1.363c4.103,0.015 8.207,0.03 12.311,0.045c2.001,-3.382 4.002,-6.764 6.003,-10.146c-2.975,-4.969 -5.95,-9.939 -8.925,-14.908c-3.915,-0.018 -7.83,-0.035 -11.745,-0.053c4.608,7.926 9.216,15.853 13.824,23.78Z" style="fill-rule:nonzero;stroke:#000;stroke-width:0.06px;"/></g></g></svg>