<?xml version="1.0" encoding="UTF-8" standalone="no"?><!DOCTYPE svg PUBLIC "-//W3C//DTD SVG 1.1//EN" "http://www.w3.org/Graphics/SVG/1.1/DTD/svg11.dtd"><svg width="100%" height="100%" viewBox="0 0 89 89" version="1.1" xmlns="http://www.w3.org/2000/svg" xmlns:xlink="http://www.w3.org/1999/xlink" xml:space="preserve" xmlns:serif="http://www.serif.com/" style="fill-rule:evenodd;clip-rule:evenodd;stroke-linejoin:round;stroke-miterlimit:2;"><g><rect x="0" y="0" width="88.08" height="88.08" style="fill:#f2f2f2;"/><path d="M88.08,0l-88.08,0l0,88.08l88.08,0l0,-88.08Zm-0.4,0.4l0,87.28c0,-0 -87.28,-0 -87.28,-0c0,0 0,-87.28 0,-87.28l87.28,-0Z"/><g><g><path d="M74.332,35.206c-3.618,3.22 -7.237,6.439 -10.856,9.659c0.093,0.341 0.185,0.682 0.278,1.023c4.047,-3.605 8.094,-7.211 12.141,-10.817c-2.199,-3.92 -4.398,-7.84 -6.597,-11.76c-8.098,-0.091 -16.195,-0.181 -24.292,-0.272c-1.392,4.107 -2.784,8.214 -4.176,12.321c11.168,-0.051 22.335,-0.102 33.502,-0.154Z" style="fill:url(#_Linear1);fill-rule:nonzero;"/><path d="M48.1,9.035c1.944,4.437 3.888,8.873 5.831,13.31c0.354,0.017 0.707,0.035 1.06,0.052c-2.179,-4.963 -4.358,-9.926 -6.536,-14.889c-4.408,0.88 -8.816,1.76 -13.224,2.64c-2.588,7.673 -5.176,15.346 -7.765,23.019c3.476,2.593 6.952,5.185 10.428,7.778c3.402,-10.636 6.804,-21.273 10.206,-31.91Z" style="fill:url(#_Linear2);fill-rule:nonzero;"/><path d="M15.104,25.896c4.82,-0.477 9.64,-0.955 14.46,-1.433c0.126,-0.33 0.251,-0.661 0.377,-0.991c-5.393,0.538 -10.787,1.077 -16.18,1.615c-0.526,4.464 -1.051,8.928 -1.576,13.392c6.498,4.833 12.995,9.666 19.493,14.498c3.54,-2.504 7.08,-5.009 10.62,-7.513c-9.064,-6.523 -18.129,-13.045 -27.194,-19.568Z" style="fill:url(#_Linear3);fill-rule:nonzero;"/><path d="M20.943,62.488c1.036,-4.732 2.071,-9.464 3.106,-14.195c-0.275,-0.222 -0.551,-0.444 -0.826,-0.665c-1.155,5.296 -2.31,10.592 -3.464,15.888c4.083,1.878 8.166,3.757 12.25,5.636c6.604,-4.686 13.208,-9.372 19.812,-14.059c-1.288,-4.14 -2.576,-8.281 -3.864,-12.422c-9.005,6.606 -18.009,13.211 -27.014,19.817Z" style="fill:url(#_Linear4);fill-rule:nonzero;"/><path d="M57.548,68.242c-4.18,-2.447 -8.36,-4.894 -12.54,-7.34c-0.296,0.193 -0.592,0.386 -0.888,0.58c4.68,2.735 9.36,5.469 14.04,8.204c3.049,-3.303 6.097,-6.606 9.146,-9.908c-2.416,-7.729 -4.832,-15.458 -7.248,-23.187c-4.336,-0.055 -8.673,-0.11 -13.009,-0.164c3.5,10.605 7,21.21 10.499,31.815Z" style="fill:url(#_Linear5);fill-rule:nonzero;"/><path d="M26.597,32.771c-3.082,-2.172 -6.164,-4.343 -9.246,-6.515c3.983,-0.397 7.966,-0.794 11.95,-1.19c-0.901,2.568 -1.803,5.137 -2.704,7.705Z" style="fill:url(#_Linear6);fill-rule:nonzero;"/><path d="M31.033,53.682c-3.018,2.26 -6.035,4.52 -9.053,6.78c0.853,-3.911 1.707,-7.822 2.56,-11.733c2.165,1.651 4.329,3.302 6.493,4.953Z" style="fill:url(#_Linear7);fill-rule:nonzero;"/><path d="M52.291,55.924c1.217,3.569 2.434,7.138 3.651,10.706c-3.455,-2.02 -6.911,-4.041 -10.367,-6.061c2.239,-1.548 4.478,-3.096 6.716,-4.645Z" style="fill:url(#_Linear8);fill-rule:nonzero;"/><path d="M60.993,36.4c3.77,-0.055 7.54,-0.11 11.31,-0.164c-2.989,2.662 -5.978,5.325 -8.968,7.987c-0.78,-2.608 -1.561,-5.216 -2.342,-7.823Z" style="fill:url(#_Linear9);fill-rule:nonzero;"/><path d="M45.113,22.09c1.113,-3.602 2.226,-7.205 3.339,-10.807c1.609,3.666 3.217,7.332 4.825,10.998c-2.721,-0.064 -5.442,-0.127 -8.164,-0.191Z" style="fill:url(#_Linear10);fill-rule:nonzero;"/></g></g></g><defs><linearGradient id="_Linear1" x1="0" y1="0" x2="1" y2="0" gradientUnits="userSpaceOnUse" gradientTransform="matrix(35.0647,0,0,35.0647,40.8301,23.0392)"><stop offset="0" style="stop-color:#005493;stop-opacity:1"/><stop offset="1" style="stop-color:#ebebeb;stop-opacity:1"/></linearGradient><linearGradient id="_Linear2" x1="0" y1="0" x2="1" y2="0" gradientUnits="userSpaceOnUse" gradientTransform="matrix(10.8356,-33.3485,33.3485,10.8356,26.176,37.1381)"><stop offset="0" style="stop-color:#005493;stop-opacity:1"/><stop offset="1" style="stop-color:#ebebeb;stop-opacity:1"/></linearGradient><linearGradient id="_Linear3" x1="0" y1="0" x2="1" y2="0" gradientUnits="userSpaceOnUse" gradientTransform="matrix(-28.3679,-20.6105,20.6105,-28.3679,35.0564,55.4317)"><stop offset="0" style="stop-color:#005493;stop-opacity:1"/><stop offset="1" style="stop-color:#ebebeb;stop-opacity:1"/></linearGradient><linearGradient id="_Linear4" x1="0" y1="0" x2="1" y2="0" gradientUnits="userSpaceOnUse" gradientTransform="matrix(-28.3679,20.6105,-20.6105,-28.3679,55.1989,52.639)"><stop offset="0" style="stop-color:#005493;stop-opacity:1"/><stop offset="1" style="stop-color:#ebebeb;stop-opacity:1"/></linearGradient><linearGradient id="_Linear5" x1="0" y1="0" x2="1" y2="0" gradientUnits="userSpaceOnUse" gradientTransform="matrix(10.8356,33.3485,-33.3485,10.8356,58.7672,32.6193)"><stop offset="0" style="stop-color:#005493;stop-opacity:1"/><stop offset="1" style="stop-color:#ebebeb;stop-opacity:1"/></linearGradient><linearGradient id="_Linear6" x1="0" y1="0" x2="1" y2="0" gradientUnits="userSpaceOnUse" gradientTransform="matrix(11.9502,0,0,11.9502,17.3507,25.0656)"><stop offset="0" style="stop-color:#005493;stop-opacity:1"/><stop offset="1" style="stop-color:#cecece;stop-opacity:1"/></linearGradient><linearGradient id="_Linear7" x1="0" y1="0" x2="1" y2="0" gradientUnits="userSpaceOnUse" gradientTransform="matrix(3.69281,-11.3653,11.3653,3.69281,20.8476,60.0945)"><stop offset="0" style="stop-color:#005493;stop-opacity:1"/><stop offset="1" style="stop-color:#cecece;stop-opacity:1"/></linearGradient><linearGradient id="_Linear8" x1="0" y1="0" x2="1" y2="0" gradientUnits="userSpaceOnUse" gradientTransform="matrix(-9.66791,-7.02415,7.02415,-9.66791,55.2427,67.5932)"><stop offset="0" style="stop-color:#005493;stop-opacity:1"/><stop offset="1" style="stop-color:#cecece;stop-opacity:1"/></linearGradient><linearGradient id="_Linear9" x1="0" y1="0" x2="1" y2="0" gradientUnits="userSpaceOnUse" gradientTransform="matrix(-9.66791,7.02415,-7.02415,-9.66791,73.0031,37.1988)"><stop offset="0" style="stop-color:#005493;stop-opacity:1"/><stop offset="1" style="stop-color:#cecece;stop-opacity:1"/></linearGradient><linearGradient id="_Linear10" x1="0" y1="0" x2="1" y2="0" gradientUnits="userSpaceOnUse" gradientTransform="matrix(3.69281,11.3653,-11.3653,3.69281,49.5846,10.9152)"><stop offset="0" style="stop-color:#005493;stop-opacity:1"/><stop offset="1" style="stop-color:#cecece;stop-opacity:1"/></linearGradient></defs></svg>