<?xml version="1.0" encoding="UTF-8" standalone="no"?><!DOCTYPE svg PUBLIC "-//W3C//DTD SVG 1.1//EN" "http://www.w3.org/Graphics/SVG/1.1/DTD/svg11.dtd"><svg width="100%" height="100%" viewBox="0 0 89 89" version="1.1" xmlns="http://www.w3.org/2000/svg" xmlns:xlink="http://www.w3.org/1999/xlink" xml:space="preserve" xmlns:serif="http://www.serif.com/" style="fill-rule:evenodd;clip-rule:evenodd;stroke-linecap:round;stroke-linejoin:round;stroke-miterlimit:10;"><rect x="0" y="0" width="88.08" height="88.08" style="fill:#f2f2f2;"/><path d="M88.08,0l-88.08,0l0,88.08l88.08,0l0,-88.08Zm-0.4,0.4l0,87.28c0,-0 -87.28,-0 -87.28,-0c0,0 0,-87.28 0,-87.28l87.28,-0Z"/><g><path d="M49.625,22.339c1.311,1.913 2.621,3.826 3.932,5.739c1.077,0.315 2.154,0.63 3.232,0.946c-2.102,-3.136 -4.204,-6.272 -6.306,-9.408c-3.944,-0.074 -7.887,-0.147 -11.831,-0.22c-3.66,6.091 -7.32,12.182 -10.98,18.274c2.493,2.875 4.986,5.751 7.478,8.626c4.825,-7.985 9.65,-15.971 14.475,-23.957Z" style="fill-rule:nonzero;stroke:#000;stroke-width:0.08px;"/><path d="M22.407,33.876c2.224,-0.655 4.448,-1.31 6.672,-1.965c0.633,-0.928 1.266,-1.855 1.899,-2.782c-3.632,1.03 -7.264,2.06 -10.896,3.09c-1.288,3.728 -2.577,7.456 -3.866,11.184c4.663,5.363 9.325,10.726 13.987,16.089c3.505,-1.482 7.011,-2.964 10.516,-4.446c-6.104,-7.057 -12.208,-14.113 -18.312,-21.17Z" style="fill-rule:nonzero;stroke:#000;stroke-width:0.08px;"/><path d="M24.969,63.327c0.064,-2.317 0.128,-4.635 0.192,-6.953c-0.686,-0.888 -1.373,-1.777 -2.059,-2.665c-0.143,3.772 -0.285,7.545 -0.428,11.317c3.147,2.378 6.295,4.755 9.442,7.133c6.541,-2.777 13.083,-5.554 19.624,-8.331c-0.327,-3.791 -0.653,-7.583 -0.979,-11.374c-8.598,3.624 -17.195,7.249 -25.792,10.873Z" style="fill-rule:nonzero;stroke:#000;stroke-width:0.08px;"/><path d="M53.77,69.992c-2.185,-0.777 -4.369,-1.554 -6.554,-2.331c-1.057,0.378 -2.114,0.756 -3.171,1.134c3.544,1.302 7.088,2.603 10.632,3.905c3.233,-2.259 6.467,-4.518 9.701,-6.776c-0.62,-7.08 -1.239,-14.159 -1.859,-21.238c-3.707,-0.861 -7.414,-1.723 -11.12,-2.584c0.79,9.297 1.58,18.593 2.371,27.89Z" style="fill-rule:nonzero;stroke:#000;stroke-width:0.08px;"/><path d="M69.008,44.66c-1.414,1.837 -2.828,3.675 -4.242,5.512c0.033,1.122 0.066,2.245 0.099,3.367c2.333,-2.968 4.666,-5.936 6.999,-8.905c-1.149,-3.773 -2.298,-7.546 -3.447,-11.32c-6.924,-1.598 -13.848,-3.197 -20.772,-4.795c-1.965,3.259 -3.93,6.518 -5.894,9.778c9.086,2.121 18.172,4.242 27.257,6.363Z" style="fill-rule:nonzero;stroke:#000;stroke-width:0.08px;"/></g></svg>