<?xml version="1.0" encoding="UTF-8" standalone="no"?><!DOCTYPE svg PUBLIC "-//W3C//DTD SVG 1.1//EN" "http://www.w3.org/Graphics/SVG/1.1/DTD/svg11.dtd"><svg width="100%" height="100%" viewBox="0 0 89 89" version="1.1" xmlns="http://www.w3.org/2000/svg" xmlns:xlink="http://www.w3.org/1999/xlink" xml:space="preserve" xmlns:serif="http://www.serif.com/" style="fill-rule:evenodd;clip-rule:evenodd;stroke-linejoin:round;stroke-miterlimit:2;"><g><rect x="0" y="0" width="88.08" height="88.08" style="fill:#f2f2f2;"/><path d="M88.08,0l-88.08,0l0,88.08l88.08,0l0,-88.08Zm-0.4,0.4l-0,87.28c0,-0 -87.28,-0 -87.28,-0c0,0 0,-87.28 0,-87.28l87.28,-0Z"/><g><path d="M68.041,57.498c-0.822,0.437 -1.644,0.874 -2.465,1.311c0.155,1.245 -0.243,2.275 -1.193,3.088c-3.495,1.992 -6.99,3.985 -10.485,5.978c-1.531,0.992 -3.304,0.902 -5.317,-0.273c-6.915,-4.069 -13.83,-8.139 -20.746,-12.208c-0.01,1.027 -0.021,2.055 -0.032,3.083c6.914,4.012 13.827,8.023 20.741,12.034c1.611,1.104 3.463,1.244 5.555,0.422c4.315,-2.551 8.046,-4.691 11.195,-6.418c2.151,-1.126 3.067,-3.465 2.747,-7.017Z" style="fill:url(#_Linear1);fill-rule:nonzero;"/><path d="M47.328,17.628c0.79,0.494 1.579,0.987 2.368,1.48c1.001,-0.757 2.091,-0.927 3.271,-0.511c3.473,2.031 6.946,4.061 10.419,6.091c1.625,0.83 2.433,2.411 2.423,4.741c-0.067,8.024 -0.134,16.047 -0.201,24.071c0.896,-0.505 1.791,-1.009 2.687,-1.514c0.017,-7.993 0.034,-15.986 0.051,-23.979c0.151,-1.947 -0.654,-3.621 -2.412,-5.022c-4.367,-2.461 -8.085,-4.623 -11.156,-6.486c-2.05,-1.3 -4.534,-0.923 -7.45,1.129Z" style="fill:url(#_Linear2);fill-rule:nonzero;"/><path d="M23.156,55.501c0.033,-0.93 0.065,-1.86 0.098,-2.79c-1.156,-0.489 -1.849,-1.348 -2.078,-2.577c0.022,-4.023 0.044,-8.046 0.066,-12.069c-0.094,-1.823 0.87,-3.312 2.894,-4.469c6.982,-3.954 13.964,-7.908 20.946,-11.862c-0.885,-0.523 -1.77,-1.046 -2.655,-1.569c-6.93,3.982 -13.861,7.963 -20.792,11.945c-1.761,0.843 -2.809,2.377 -3.142,4.6c0.052,5.012 0.039,9.313 -0.04,12.904c-0.1,2.426 1.468,4.388 4.703,5.887Z" style="fill:url(#_Linear3);fill-rule:nonzero;"/><path d="M24.309,29.587c0.822,-0.437 1.644,-0.874 2.466,-1.311c-0.155,-1.245 0.242,-2.274 1.192,-3.088c3.495,-1.992 6.99,-3.985 10.485,-5.977c1.532,-0.993 3.304,-0.902 5.317,0.272c6.915,4.069 13.831,8.139 20.746,12.209c0.011,-1.028 0.021,-2.056 0.032,-3.084c-6.914,-4.011 -13.827,-8.023 -20.741,-12.034c-1.611,-1.104 -3.462,-1.244 -5.555,-0.421c-4.314,2.551 -8.046,4.69 -11.195,6.417c-2.151,1.126 -3.066,3.465 -2.747,7.017Z" style="fill:url(#_Linear4);fill-rule:nonzero;"/><path d="M45.022,69.457c-0.789,-0.493 -1.579,-0.987 -2.368,-1.48c-1.001,0.757 -2.091,0.927 -3.27,0.511c-3.473,-2.03 -6.946,-4.061 -10.419,-6.091c-1.626,-0.83 -2.433,-2.41 -2.423,-4.741c0.067,-8.023 0.133,-16.047 0.2,-24.071c-0.895,0.505 -1.791,1.01 -2.686,1.515c-0.018,7.993 -0.035,15.985 -0.052,23.978c-0.15,1.947 0.654,3.621 2.413,5.022c4.366,2.461 8.085,4.623 11.155,6.487c2.051,1.299 4.534,0.923 7.45,-1.13Z" style="fill:url(#_Linear5);fill-rule:nonzero;"/><path d="M69.194,31.584c-0.032,0.93 -0.065,1.86 -0.097,2.791c1.155,0.488 1.848,1.347 2.077,2.576c-0.022,4.023 -0.043,8.046 -0.065,12.069c0.094,1.823 -0.871,3.313 -2.894,4.469c-6.982,3.954 -13.965,7.908 -20.947,11.862c0.885,0.523 1.77,1.046 2.655,1.569c6.931,-3.981 13.861,-7.963 20.792,-11.944c1.761,-0.844 2.809,-2.377 3.143,-4.601c-0.052,-5.012 -0.039,-9.313 0.039,-12.904c0.1,-2.426 -1.467,-4.388 -4.703,-5.887Z" style="fill:url(#_Linear6);fill-rule:nonzero;"/></g></g><defs><linearGradient id="_Linear1" x1="0" y1="0" x2="1" y2="0" gradientUnits="userSpaceOnUse" gradientTransform="matrix(-39.1798,-15.7074,15.7074,-39.1798,68.3032,71.8252)"><stop offset="0" style="stop-color:#000;stop-opacity:1"/><stop offset="1" style="stop-color:#000;stop-opacity:1"/></linearGradient><linearGradient id="_Linear2" x1="0" y1="0" x2="1" y2="0" gradientUnits="userSpaceOnUse" gradientTransform="matrix(5.98684,41.7844,-41.7844,5.98684,59.6045,10.238)"><stop offset="0" style="stop-color:#000;stop-opacity:1"/><stop offset="1" style="stop-color:#000;stop-opacity:1"/></linearGradient><linearGradient id="_Linear3" x1="0" y1="0" x2="1" y2="0" gradientUnits="userSpaceOnUse" gradientTransform="matrix(33.1929,-26.077,26.077,33.1929,10.6178,48.5649)"><stop offset="0" style="stop-color:#000;stop-opacity:1"/><stop offset="1" style="stop-color:#000;stop-opacity:1"/></linearGradient><linearGradient id="_Linear4" x1="0" y1="0" x2="1" y2="0" gradientUnits="userSpaceOnUse" gradientTransform="matrix(39.1798,15.7074,-15.7074,39.1798,24.0472,15.2602)"><stop offset="0" style="stop-color:#000;stop-opacity:1"/><stop offset="1" style="stop-color:#000;stop-opacity:1"/></linearGradient><linearGradient id="_Linear5" x1="0" y1="0" x2="1" y2="0" gradientUnits="userSpaceOnUse" gradientTransform="matrix(-5.98684,-41.7844,41.7844,-5.98684,32.7458,76.8474)"><stop offset="0" style="stop-color:#000;stop-opacity:1"/><stop offset="1" style="stop-color:#000;stop-opacity:1"/></linearGradient><linearGradient id="_Linear6" x1="0" y1="0" x2="1" y2="0" gradientUnits="userSpaceOnUse" gradientTransform="matrix(-33.1929,26.077,-26.077,-33.1929,81.7326,38.5205)"><stop offset="0" style="stop-color:#000;stop-opacity:1"/><stop offset="1" style="stop-color:#000;stop-opacity:1"/></linearGradient></defs></svg>