<?xml version="1.0" encoding="UTF-8" standalone="no"?><!DOCTYPE svg PUBLIC "-//W3C//DTD SVG 1.1//EN" "http://www.w3.org/Graphics/SVG/1.1/DTD/svg11.dtd"><svg width="100%" height="100%" viewBox="0 0 89 89" version="1.1" xmlns="http://www.w3.org/2000/svg" xmlns:xlink="http://www.w3.org/1999/xlink" xml:space="preserve" xmlns:serif="http://www.serif.com/" style="fill-rule:evenodd;clip-rule:evenodd;stroke-linejoin:round;stroke-miterlimit:2;"><g><rect x="0" y="0" width="88.08" height="88.08" style="fill:#f2f2f2;"/><path d="M88.08,0l-88.08,0l0,88.08l88.08,0l0,-88.08Zm-0.4,0.4l0,87.28c0,-0 -87.28,-0 -87.28,-0c0,0 0,-87.28 0,-87.28l87.28,-0Z"/><g><path d="M13.828,65.266c20.148,-0.041 40.296,-0.082 60.444,-0.123c-5.646,-4.939 -11.291,-9.878 -16.937,-14.817c-14.502,4.98 -29.004,9.96 -43.507,14.94Z" style="fill:url(#_Linear1);fill-rule:nonzero;"/><path d="M43.442,12.013c-10.039,17.469 -20.077,34.938 -30.115,52.408c7.1,-2.42 14.2,-4.84 21.3,-7.26c2.938,-15.049 5.876,-30.099 8.815,-45.148Z" style="fill:url(#_Linear2);fill-rule:nonzero;"/><path d="M74.753,64.285c-10.109,-17.427 -20.219,-34.855 -30.328,-52.283c-1.455,7.358 -2.909,14.717 -4.363,22.075c11.564,10.07 23.127,20.139 34.691,30.208Z" style="fill:url(#_Linear3);fill-rule:nonzero;"/></g></g><defs><linearGradient id="_Linear1" x1="0" y1="0" x2="1" y2="0" gradientUnits="userSpaceOnUse" gradientTransform="matrix(-17.3457,30.0436,-30.0436,-17.3457,76.4533,61.3642)"><stop offset="0" style="stop-color:#011993;stop-opacity:1"/><stop offset="1" style="stop-color:#00fdff;stop-opacity:1"/></linearGradient><linearGradient id="_Linear2" x1="0" y1="0" x2="1" y2="0" gradientUnits="userSpaceOnUse" gradientTransform="matrix(-17.3457,-30.0436,30.0436,-17.3457,15.5082,68.1988)"><stop offset="0" style="stop-color:#011993;stop-opacity:1"/><stop offset="1" style="stop-color:#00fdff;stop-opacity:1"/></linearGradient><linearGradient id="_Linear3" x1="0" y1="0" x2="1" y2="0" gradientUnits="userSpaceOnUse" gradientTransform="matrix(34.6914,0,0,34.6914,40.0618,12.0016)"><stop offset="0" style="stop-color:#011993;stop-opacity:1"/><stop offset="1" style="stop-color:#00fdff;stop-opacity:1"/></linearGradient></defs></svg>