<?xml version="1.0" encoding="UTF-8" standalone="no"?><!DOCTYPE svg PUBLIC "-//W3C//DTD SVG 1.1//EN" "http://www.w3.org/Graphics/SVG/1.1/DTD/svg11.dtd"><svg width="100%" height="100%" viewBox="0 0 89 89" version="1.1" xmlns="http://www.w3.org/2000/svg" xmlns:xlink="http://www.w3.org/1999/xlink" xml:space="preserve" xmlns:serif="http://www.serif.com/" style="fill-rule:evenodd;clip-rule:evenodd;stroke-linejoin:round;stroke-miterlimit:2;"><g><rect x="0" y="0" width="88.08" height="88.08" style="fill:#f2f2f2;"/><path d="M88.08,0l-88.08,0l0,88.08l88.08,0l0,-88.08Zm-0.45,0.45l0,87.18c-0,-0 -87.18,-0 -87.18,-0c0,-0 0,-87.18 0,-87.18l87.18,0Z"/><g><path d="M71.132,56.332c-4.111,-22.32 -14.292,-36.855 -30.545,-43.605c9.161,14.673 11.989,28.394 8.483,41.162c6.681,2.005 14.035,2.819 22.062,2.443Z" style="fill:url(#_Linear1);fill-rule:nonzero;"/><path d="M39.838,12.772c-17.275,14.72 -24.772,30.805 -22.491,48.255c8.127,-15.27 18.595,-24.58 31.406,-27.927c-1.604,-6.788 -4.576,-13.564 -8.915,-20.328Z" style="fill:url(#_Linear2);fill-rule:nonzero;"/><path d="M17.761,61.654c21.385,7.6 39.064,6.05 53.035,-4.651c-17.288,0.598 -30.584,-3.813 -39.888,-13.234c-5.077,4.784 -9.459,10.745 -13.147,17.885Z" style="fill:url(#_Linear3);fill-rule:nonzero;"/></g></g><defs><linearGradient id="_Linear1" x1="0" y1="0" x2="1" y2="0" gradientUnits="userSpaceOnUse" gradientTransform="matrix(-13.0791,-48.4069,48.4069,-13.0791,53.4243,61.1992)"><stop offset="0" style="stop-color:#005493;stop-opacity:1"/><stop offset="1" style="stop-color:#ebebeb;stop-opacity:1"/></linearGradient><linearGradient id="_Linear2" x1="0" y1="0" x2="1" y2="0" gradientUnits="userSpaceOnUse" gradientTransform="matrix(-35.3821,35.5303,-35.5303,-35.3821,52.9067,25.6738)"><stop offset="0" style="stop-color:#005493;stop-opacity:1"/><stop offset="1" style="stop-color:#ebebeb;stop-opacity:1"/></linearGradient><linearGradient id="_Linear3" x1="0" y1="0" x2="1" y2="0" gradientUnits="userSpaceOnUse" gradientTransform="matrix(48.4611,12.8766,-12.8766,48.4611,22.3996,43.8847)"><stop offset="0" style="stop-color:#005493;stop-opacity:1"/><stop offset="1" style="stop-color:#ebebeb;stop-opacity:1"/></linearGradient></defs></svg>