<?xml version="1.0" encoding="UTF-8" standalone="no"?><!DOCTYPE svg PUBLIC "-//W3C//DTD SVG 1.1//EN" "http://www.w3.org/Graphics/SVG/1.1/DTD/svg11.dtd"><svg width="100%" height="100%" viewBox="0 0 89 89" version="1.1" xmlns="http://www.w3.org/2000/svg" xmlns:xlink="http://www.w3.org/1999/xlink" xml:space="preserve" xmlns:serif="http://www.serif.com/" style="fill-rule:evenodd;clip-rule:evenodd;stroke-linejoin:round;stroke-miterlimit:2;"><g><rect x="0" y="0" width="88.08" height="88.08" style="fill:#f2f2f2;"/><path d="M88.08,0l-88.08,0l0,88.08l88.08,0l0,-88.08Zm-0.45,0.45l0,87.18c-0,-0 -87.18,-0 -87.18,-0c0,-0 0,-87.18 0,-87.18l87.18,0Z"/><g><g><path d="M25.702,65.371c12.554,0.076 25.108,0.151 37.662,0.226c3.281,-5.719 6.562,-11.438 9.842,-17.157c-12.514,-0.08 -25.029,-0.159 -37.544,-0.238c-3.32,5.723 -6.64,11.446 -9.96,17.169Z" style="fill:url(#_Linear1);fill-rule:nonzero;"/><path d="M73.062,47.495c-6.212,-10.91 -12.424,-21.819 -18.636,-32.729c-6.593,0.018 -13.187,0.037 -19.78,0.055c6.189,10.878 12.378,21.755 18.567,32.633c6.616,0.014 13.232,0.028 19.849,0.041Z" style="fill:url(#_Linear2);fill-rule:nonzero;"/><path d="M33.901,15.418c-6.343,10.835 -12.685,21.669 -19.027,32.504c3.312,5.701 6.625,11.402 9.938,17.102c6.325,-10.798 12.651,-21.597 18.977,-32.395c-3.296,-5.737 -6.592,-11.474 -9.888,-17.211Z" style="fill:url(#_Linear3);fill-rule:nonzero;"/></g></g></g><defs><linearGradient id="_Linear1" x1="0" y1="0" x2="1" y2="0" gradientUnits="userSpaceOnUse" gradientTransform="matrix(47.5047,0,0,47.5047,25.7016,48.2023)"><stop offset="0" style="stop-color:#000;stop-opacity:1"/><stop offset="1" style="stop-color:#ebebeb;stop-opacity:1"/></linearGradient><linearGradient id="_Linear2" x1="0" y1="0" x2="1" y2="0" gradientUnits="userSpaceOnUse" gradientTransform="matrix(-23.7524,-41.1403,41.1403,-23.7524,58.1929,56.0799)"><stop offset="0" style="stop-color:#000;stop-opacity:1"/><stop offset="1" style="stop-color:#ebebeb;stop-opacity:1"/></linearGradient><linearGradient id="_Linear3" x1="0" y1="0" x2="1" y2="0" gradientUnits="userSpaceOnUse" gradientTransform="matrix(-23.7524,41.1403,-41.1403,-23.7524,48.7694,24.0028)"><stop offset="0" style="stop-color:#000;stop-opacity:1"/><stop offset="1" style="stop-color:#ebebeb;stop-opacity:1"/></linearGradient></defs></svg>