<?xml version="1.0" encoding="UTF-8" standalone="no"?><!DOCTYPE svg PUBLIC "-//W3C//DTD SVG 1.1//EN" "http://www.w3.org/Graphics/SVG/1.1/DTD/svg11.dtd"><svg width="100%" height="100%" viewBox="0 0 89 89" version="1.1" xmlns="http://www.w3.org/2000/svg" xmlns:xlink="http://www.w3.org/1999/xlink" xml:space="preserve" xmlns:serif="http://www.serif.com/" style="fill-rule:evenodd;clip-rule:evenodd;stroke-linecap:round;stroke-miterlimit:10;"><rect x="0" y="0" width="88.08" height="88.08" style="fill:#f2f2f2;"/><path d="M88.08,0l-88.08,0l0,88.08l88.08,0l0,-88.08Zm-0.4,0.4l0,87.28c0,-0 -87.28,-0 -87.28,-0c0,0 0,-87.28 0,-87.28l87.28,-0Z"/><g><g><path d="M59.173,19.066c1.545,2.727 3.092,5.454 4.638,8.182c0.433,-0.146 0.866,-0.29 1.3,-0.435c-1.755,-2.997 -3.51,-5.992 -5.265,-8.989c-3.534,0.016 -7.068,0.032 -10.602,0.048c-2.415,4.201 -4.831,8.403 -7.245,12.604c0.864,3.784 1.728,7.569 2.591,11.353c4.861,-7.587 9.722,-15.175 14.583,-22.763Z" style="fill-rule:nonzero;stroke:#000;stroke-width:0.05px;"/><path d="M38.217,17.326c3.022,0.836 6.043,1.67 9.065,2.506c0.204,-0.409 0.407,-0.818 0.611,-1.227c-3.359,-0.878 -6.719,-1.755 -10.079,-2.633c-2.488,2.51 -4.974,5.02 -7.462,7.53c1.262,4.679 2.526,9.357 3.789,14.036c3.287,2.066 6.574,4.131 9.86,6.196c-1.928,-8.802 -3.857,-17.606 -5.784,-26.408Z" style="fill-rule:nonzero;stroke:#000;stroke-width:0.05px;"/><path d="M22.168,30.915c2.727,-1.547 5.455,-3.093 8.181,-4.639c-0.144,-0.433 -0.29,-0.867 -0.434,-1.299c-2.996,1.755 -5.993,3.51 -8.989,5.263c0.016,3.535 0.032,7.069 0.049,10.603c4.201,2.415 8.402,4.83 12.604,7.246c3.784,-0.864 7.568,-1.728 11.353,-2.592c-7.589,-4.861 -15.176,-9.721 -22.764,-14.582Z" style="fill-rule:nonzero;stroke:#000;stroke-width:0.05px;"/><path d="M20.429,51.871c0.835,-3.022 1.669,-6.044 2.505,-9.066c-0.409,-0.203 -0.818,-0.407 -1.226,-0.611c-0.878,3.36 -1.756,6.719 -2.634,10.079c2.51,2.487 5.02,4.975 7.531,7.462c4.679,-1.263 9.357,-2.526 14.036,-3.789c2.065,-3.287 4.13,-6.573 6.194,-9.86c-8.802,1.928 -17.604,3.856 -26.406,5.785Z" style="fill-rule:nonzero;stroke:#000;stroke-width:0.05px;"/><path d="M34.017,67.919c-1.546,-2.727 -3.093,-5.454 -4.639,-8.182c-0.433,0.146 -0.866,0.29 -1.3,0.436c1.755,2.995 3.51,5.991 5.265,8.988c3.534,-0.016 7.068,-0.032 10.602,-0.048c2.415,-4.201 4.831,-8.403 7.245,-12.604c-0.863,-3.785 -1.727,-7.569 -2.591,-11.353c-4.861,7.587 -9.722,15.176 -14.582,22.763Z" style="fill-rule:nonzero;stroke:#000;stroke-width:0.05px;"/><path d="M54.973,69.659c-3.022,-0.835 -6.043,-1.671 -9.065,-2.505c-0.204,0.408 -0.408,0.817 -0.612,1.226c3.359,0.878 6.72,1.755 10.079,2.634c2.488,-2.511 4.975,-5.021 7.463,-7.531c-1.263,-4.679 -2.527,-9.358 -3.79,-14.036c-3.287,-2.065 -6.574,-4.131 -9.86,-6.196c1.928,8.802 3.857,17.605 5.785,26.408Z" style="fill-rule:nonzero;stroke:#000;stroke-width:0.05px;"/><path d="M71.021,56.07c-2.727,1.547 -5.455,3.093 -8.181,4.639c0.144,0.433 0.29,0.867 0.434,1.299c2.996,-1.755 5.993,-3.509 8.989,-5.264c-0.016,-3.534 -0.032,-7.068 -0.048,-10.602c-4.201,-2.415 -8.402,-4.83 -12.605,-7.245c-3.784,0.864 -7.568,1.728 -11.353,2.591c7.589,4.86 15.176,9.721 22.764,14.582Z" style="fill-rule:nonzero;stroke:#000;stroke-width:0.05px;"/><path d="M72.76,35.114c-0.834,3.022 -1.669,6.044 -2.504,9.066c0.408,0.203 0.817,0.407 1.226,0.611c0.877,-3.36 1.756,-6.719 2.633,-10.078c-2.51,-2.488 -5.02,-4.976 -7.531,-7.463c-4.678,1.263 -9.357,2.526 -14.035,3.788c-2.065,3.287 -4.13,6.574 -6.195,9.861c8.802,-1.929 17.604,-3.856 26.406,-5.785Z" style="fill-rule:nonzero;stroke:#000;stroke-width:0.05px;"/></g></g></svg>