<?xml version="1.0" encoding="UTF-8" standalone="no"?><!DOCTYPE svg PUBLIC "-//W3C//DTD SVG 1.1//EN" "http://www.w3.org/Graphics/SVG/1.1/DTD/svg11.dtd"><svg width="100%" height="100%" viewBox="0 0 89 89" version="1.1" xmlns="http://www.w3.org/2000/svg" xmlns:xlink="http://www.w3.org/1999/xlink" xml:space="preserve" xmlns:serif="http://www.serif.com/" style="fill-rule:evenodd;clip-rule:evenodd;stroke-linejoin:round;stroke-miterlimit:2;"><g><rect x="0" y="0" width="88.08" height="88.08" style="fill:#f2f2f2;"/><path d="M88.08,0l-88.08,0l0,88.08l88.08,0l0,-88.08Zm-0.4,0.4l0,87.28c0,-0 -87.28,-0 -87.28,-0c0,0 0,-87.28 0,-87.28l87.28,-0Z"/><g><g><g><path d="M46.528,41.349c7.089,-5.764 9.478,-12.234 7.168,-19.41c-2.043,-5.029 -5.406,-9.462 -10.09,-13.301c-0.831,4.777 -0.303,9.21 1.586,13.298c4.162,6.044 4.608,12.515 1.336,19.413Z" style="fill:url(#_Linear1);fill-rule:nonzero;"/><path d="M46.983,39.585c2.346,-8.831 0.476,-15.469 -5.611,-19.916c-4.608,-2.868 -9.936,-4.478 -15.981,-4.831c2.135,4.354 5.168,7.629 9.1,9.827c6.919,2.443 11.083,7.416 12.492,14.92Z" style="fill:url(#_Linear2);fill-rule:nonzero;"/><path d="M46.313,37.89c-3.292,-8.523 -8.707,-12.795 -16.245,-12.814c-5.414,0.388 -10.671,2.217 -15.769,5.485c4.286,2.267 8.666,3.134 13.138,2.601c7.034,-2.091 13.326,-0.515 18.876,4.728Z" style="fill:url(#_Linear3);fill-rule:nonzero;"/><path d="M44.775,36.913c-7.673,-4.961 -14.565,-5.233 -20.675,-0.819c-4.151,3.497 -7.329,8.066 -9.533,13.707c4.8,-0.686 8.853,-2.558 12.158,-5.618c4.461,-5.826 10.478,-8.25 18.05,-7.27Z" style="fill:url(#_Linear4);fill-rule:nonzero;"/><path d="M42.956,37.026c-9.123,0.497 -14.859,4.327 -17.207,11.49c-1.303,5.27 -1.189,10.834 0.344,16.692c3.481,-3.376 5.658,-7.273 6.534,-11.691c0.185,-7.336 3.628,-12.833 10.329,-16.491Z" style="fill:url(#_Linear5);fill-rule:nonzero;"/><path d="M41.552,38.187c-7.089,5.764 -9.478,12.234 -7.168,19.41c2.043,5.029 5.406,9.463 10.09,13.302c0.831,-4.777 0.303,-9.21 -1.586,-13.299c-4.162,-6.044 -4.608,-12.515 -1.336,-19.413Z" style="fill:url(#_Linear6);fill-rule:nonzero;"/><path d="M41.097,39.952c-2.346,8.83 -0.476,15.468 5.611,19.915c4.608,2.868 9.936,4.478 15.981,4.831c-2.135,-4.353 -5.168,-7.629 -9.1,-9.826c-6.919,-2.443 -11.083,-7.417 -12.492,-14.92Z" style="fill:url(#_Linear7);fill-rule:nonzero;"/><path d="M41.767,41.646c3.292,8.523 8.707,12.795 16.245,12.815c5.414,-0.389 10.671,-2.218 15.769,-5.486c-4.286,-2.267 -8.666,-3.134 -13.138,-2.601c-7.034,2.091 -13.326,0.515 -18.876,-4.728Z" style="fill:url(#_Linear8);fill-rule:nonzero;"/><path d="M43.305,42.623c7.673,4.961 14.565,5.234 20.675,0.819c4.151,-3.497 7.329,-8.066 9.533,-13.707c-4.8,0.686 -8.853,2.559 -12.158,5.619c-4.461,5.826 -10.478,8.249 -18.05,7.269Z" style="fill:url(#_Linear9);fill-rule:nonzero;"/><path d="M45.124,42.51c9.123,-0.497 14.859,-4.327 17.207,-11.49c1.303,-5.269 1.189,-10.833 -0.344,-16.692c-3.481,3.376 -5.658,7.273 -6.534,11.691c-0.185,7.336 -3.628,12.833 -10.329,16.491Z" style="fill:url(#_Linear10);fill-rule:nonzero;"/></g></g></g></g><defs><linearGradient id="_Linear1" x1="0" y1="0" x2="1" y2="0" gradientUnits="userSpaceOnUse" gradientTransform="matrix(9.8928,30.4469,-30.4469,9.8928,48.823,6.94255)"><stop offset="0" style="stop-color:#005493;stop-opacity:1"/><stop offset="1" style="stop-color:#8efa00;stop-opacity:1"/></linearGradient><linearGradient id="_Linear2" x1="0" y1="0" x2="1" y2="0" gradientUnits="userSpaceOnUse" gradientTransform="matrix(25.8997,18.8172,-18.8172,25.8997,28.6151,10.4003)"><stop offset="0" style="stop-color:#005493;stop-opacity:1"/><stop offset="1" style="stop-color:#8efa00;stop-opacity:1"/></linearGradient><linearGradient id="_Linear3" x1="0" y1="0" x2="1" y2="0" gradientUnits="userSpaceOnUse" gradientTransform="matrix(32.0138,0,0,32.0138,14.299,25.0756)"><stop offset="0" style="stop-color:#005493;stop-opacity:1"/><stop offset="1" style="stop-color:#8efa00;stop-opacity:1"/></linearGradient><linearGradient id="_Linear4" x1="0" y1="0" x2="1" y2="0" gradientUnits="userSpaceOnUse" gradientTransform="matrix(25.8997,-18.8172,18.8172,25.8997,11.343,45.3629)"><stop offset="0" style="stop-color:#005493;stop-opacity:1"/><stop offset="1" style="stop-color:#8efa00;stop-opacity:1"/></linearGradient><linearGradient id="_Linear5" x1="0" y1="0" x2="1" y2="0" gradientUnits="userSpaceOnUse" gradientTransform="matrix(9.8928,-30.4469,30.4469,9.8928,20.8761,63.5132)"><stop offset="0" style="stop-color:#005493;stop-opacity:1"/><stop offset="1" style="stop-color:#8efa00;stop-opacity:1"/></linearGradient><linearGradient id="_Linear6" x1="0" y1="0" x2="1" y2="0" gradientUnits="userSpaceOnUse" gradientTransform="matrix(-9.8928,-30.4469,30.4469,-9.8928,39.257,72.5937)"><stop offset="0" style="stop-color:#005493;stop-opacity:1"/><stop offset="1" style="stop-color:#8efa00;stop-opacity:1"/></linearGradient><linearGradient id="_Linear7" x1="0" y1="0" x2="1" y2="0" gradientUnits="userSpaceOnUse" gradientTransform="matrix(-25.8997,-18.8172,18.8172,-25.8997,59.4649,69.136)"><stop offset="0" style="stop-color:#005493;stop-opacity:1"/><stop offset="1" style="stop-color:#8efa00;stop-opacity:1"/></linearGradient><linearGradient id="_Linear8" x1="0" y1="0" x2="1" y2="0" gradientUnits="userSpaceOnUse" gradientTransform="matrix(-32.0138,3.92056e-15,-3.92056e-15,-32.0138,73.781,54.4607)"><stop offset="0" style="stop-color:#005493;stop-opacity:1"/><stop offset="1" style="stop-color:#8efa00;stop-opacity:1"/></linearGradient><linearGradient id="_Linear9" x1="0" y1="0" x2="1" y2="0" gradientUnits="userSpaceOnUse" gradientTransform="matrix(-25.8997,18.8172,-18.8172,-25.8997,76.737,34.1734)"><stop offset="0" style="stop-color:#005493;stop-opacity:1"/><stop offset="1" style="stop-color:#8efa00;stop-opacity:1"/></linearGradient><linearGradient id="_Linear10" x1="0" y1="0" x2="1" y2="0" gradientUnits="userSpaceOnUse" gradientTransform="matrix(-9.8928,30.4469,-30.4469,-9.8928,67.2039,16.0231)"><stop offset="0" style="stop-color:#005493;stop-opacity:1"/><stop offset="1" style="stop-color:#8efa00;stop-opacity:1"/></linearGradient></defs></svg>