<?xml version="1.0" encoding="UTF-8" standalone="no"?><!DOCTYPE svg PUBLIC "-//W3C//DTD SVG 1.1//EN" "http://www.w3.org/Graphics/SVG/1.1/DTD/svg11.dtd"><svg width="100%" height="100%" viewBox="0 0 89 89" version="1.1" xmlns="http://www.w3.org/2000/svg" xmlns:xlink="http://www.w3.org/1999/xlink" xml:space="preserve" xmlns:serif="http://www.serif.com/" style="fill-rule:evenodd;clip-rule:evenodd;stroke-linejoin:round;stroke-miterlimit:2;"><g><rect x="0" y="0" width="88.08" height="88.08" style="fill:#f2f2f2;"/><path d="M88.08,0l-88.08,0l0,88.08l88.08,0l0,-88.08Zm-0.45,0.45l0,87.18c-0,-0 -87.18,-0 -87.18,-0c0,-0 0,-87.18 0,-87.18l87.18,0Z"/><g><path d="M77.245,59.227c-17.786,-43.408 -33.369,-50.229 -46.751,-20.462c10.037,-17.826 25.621,-11.005 46.751,20.462Z" style="fill:url(#_Linear1);fill-rule:nonzero;"/><path d="M40.182,3.942c-28.7,37.107 -26.815,54.013 5.654,50.719c-20.456,0.22 -22.341,-16.686 -5.654,-50.719Z" style="fill:url(#_Linear2);fill-rule:nonzero;"/><path d="M10.835,63.682c46.486,6.302 60.184,-3.784 41.096,-30.256c10.42,17.605 -3.279,27.691 -41.096,30.256Z" style="fill:url(#_Linear3);fill-rule:nonzero;"/></g></g><defs><linearGradient id="_Linear1" x1="0" y1="0" x2="1" y2="0" gradientUnits="userSpaceOnUse" gradientTransform="matrix(46.7509,0,0,46.7509,30.4941,20.6015)"><stop offset="0" style="stop-color:#011993;stop-opacity:1"/><stop offset="1" style="stop-color:#73fdff;stop-opacity:1"/></linearGradient><linearGradient id="_Linear2" x1="0" y1="0" x2="1" y2="0" gradientUnits="userSpaceOnUse" gradientTransform="matrix(-23.3755,-40.4875,40.4875,-23.3755,30.1066,63.7422)"><stop offset="0" style="stop-color:#011993;stop-opacity:1"/><stop offset="1" style="stop-color:#73fdff;stop-opacity:1"/></linearGradient><linearGradient id="_Linear3" x1="0" y1="0" x2="1" y2="0" gradientUnits="userSpaceOnUse" gradientTransform="matrix(-23.3755,40.4875,-40.4875,-23.3755,67.6612,42.5075)"><stop offset="0" style="stop-color:#011993;stop-opacity:1"/><stop offset="1" style="stop-color:#73fdff;stop-opacity:1"/></linearGradient></defs></svg>