<?xml version="1.0" encoding="UTF-8" standalone="no"?><!DOCTYPE svg PUBLIC "-//W3C//DTD SVG 1.1//EN" "http://www.w3.org/Graphics/SVG/1.1/DTD/svg11.dtd"><svg width="100%" height="100%" viewBox="0 0 89 89" version="1.1" xmlns="http://www.w3.org/2000/svg" xmlns:xlink="http://www.w3.org/1999/xlink" xml:space="preserve" xmlns:serif="http://www.serif.com/" style="fill-rule:evenodd;clip-rule:evenodd;stroke-linejoin:round;stroke-miterlimit:2;"><g><rect x="0" y="0" width="88.08" height="88.08" style="fill:#f2f2f2;"/><path d="M88.08,0l-88.08,0l0,88.08l88.08,0l0,-88.08Zm-0.4,0.4l-0,87.28c0,-0 -87.28,-0 -87.28,-0c0,0 0,-87.28 0,-87.28l87.28,-0Z"/><path d="M49.017,34.901l-4.928,-2.844l-0.049,0.085l-0.049,-0.085l-4.928,2.844l0,-14.69l-16.047,-0.032l0.137,1.724c0.279,3.496 3.133,7.187 8.912,10.777l2.455,1.525l-0.063,-9.054l-3.187,0.022c0.007,1.05 0.014,2.1 0.022,3.149c-2.278,-1.674 -3.809,-3.302 -4.52,-4.948l9.104,0.018l0,13.35l-11.561,6.674c-1.523,-2.625 -3.045,-5.25 -4.568,-7.875c1.781,-0.207 3.957,0.305 6.546,1.44l-2.739,1.556l1.575,2.771l7.872,-4.473l-2.548,-1.363c-5.999,-3.21 -10.622,-3.836 -13.789,-2.329l-1.561,0.743l8.05,13.882l12.723,-7.346l0,5.69l0.098,0l-0.049,0.085l4.928,2.845l-12.723,7.345l7.997,13.914l1.424,-0.981c2.888,-1.99 4.657,-6.306 4.877,-13.107l0.093,-2.888l-7.809,4.581l1.612,2.749c0.906,-0.531 1.811,-1.062 2.717,-1.593c-0.312,2.809 -0.956,4.949 -2.026,6.388c-1.512,-2.631 -3.024,-5.262 -4.536,-7.893l11.561,-6.675l11.561,6.675c-1.512,2.631 -3.024,5.262 -4.536,7.893c-1.07,-1.439 -1.714,-3.579 -2.026,-6.388c0.906,0.531 1.811,1.062 2.717,1.593l1.612,-2.749l-7.809,-4.581l0.093,2.888c0.22,6.801 1.989,11.117 4.877,13.107l1.424,0.981l7.997,-13.914l-12.723,-7.345l4.928,-2.845l-0.049,-0.085l0.098,0l0,-5.69l12.723,7.346l8.05,-13.882l-1.561,-0.743c-3.167,-1.507 -7.79,-0.881 -13.789,2.329l-2.548,1.363l7.872,4.473l1.575,-2.771l-2.739,-1.556c2.589,-1.135 4.765,-1.647 6.546,-1.44c-1.523,2.625 -3.045,5.25 -4.568,7.875l-11.561,-6.674l0,-13.35l9.104,-0.018c-0.711,1.646 -2.242,3.274 -4.52,4.949c0.008,-1.05 0.015,-2.1 0.022,-3.15l-3.187,-0.022l-0.063,9.054l2.455,-1.525c5.779,-3.59 8.633,-7.281 8.912,-10.777l0.137,-1.724l-16.047,0.032l0,14.69Zm-9.954,3.681l0,5.746l4.977,2.874l4.977,-2.874l0,-5.746l-4.977,-2.873l-4.977,2.873Z"/></g></svg>