<?xml version="1.0" encoding="UTF-8" standalone="no"?><!DOCTYPE svg PUBLIC "-//W3C//DTD SVG 1.1//EN" "http://www.w3.org/Graphics/SVG/1.1/DTD/svg11.dtd"><svg width="100%" height="100%" viewBox="0 0 89 89" version="1.1" xmlns="http://www.w3.org/2000/svg" xmlns:xlink="http://www.w3.org/1999/xlink" xml:space="preserve" xmlns:serif="http://www.serif.com/" style="fill-rule:evenodd;clip-rule:evenodd;stroke-linejoin:round;stroke-miterlimit:2;"><g><rect x="0" y="0" width="88.08" height="88.08" style="fill:#f2f2f2;"/><path d="M88.08,0l-88.08,0l0,88.08l88.08,0l0,-88.08Zm-0.4,0.4l-0,87.28c0,-0 -87.28,-0 -87.28,-0c0,0 0,-87.28 0,-87.28l87.28,-0Z"/><path d="M42.008,22.509c-12.051,-3.533 -24.722,3.298 -28.375,15.34l8.078,2.451c-7.084,10.37 -4.503,24.531 5.821,31.727l4.827,-6.925c7.673,9.941 21.939,11.863 31.973,4.268l-5.095,-6.731c11.826,-4.226 18.062,-17.2 13.939,-29.089l-7.975,2.765c-0.365,-12.553 -10.777,-22.493 -23.358,-22.246l0.165,8.44Zm23.122,14.026l-8.502,0.167c-0.154,-7.856 -6.598,-14.113 -14.433,-14.058l-2.468,8.137c-7.519,-2.281 -15.461,1.914 -17.83,9.383l6.976,4.862c-4.493,6.446 -2.957,15.295 3.414,19.856l6.78,-5.132c4.742,6.265 13.633,7.539 19.939,2.889l-2.786,-8.033c7.424,-2.575 11.383,-10.636 8.91,-18.071Z"/></g></svg>