<?xml version="1.0" encoding="UTF-8" standalone="no"?><!DOCTYPE svg PUBLIC "-//W3C//DTD SVG 1.1//EN" "http://www.w3.org/Graphics/SVG/1.1/DTD/svg11.dtd"><svg width="100%" height="100%" viewBox="0 0 89 89" version="1.1" xmlns="http://www.w3.org/2000/svg" xmlns:xlink="http://www.w3.org/1999/xlink" xml:space="preserve" xmlns:serif="http://www.serif.com/" style="fill-rule:evenodd;clip-rule:evenodd;stroke-linejoin:round;stroke-miterlimit:2;"><g><rect x="0" y="0" width="88.08" height="88.08" style="fill:#f2f2f2;"/><path d="M88.08,0l-88.08,0l0,88.08l88.08,0l0,-88.08Zm-0.4,0.4l-0,87.28c0,-0 -87.28,-0 -87.28,-0c0,0 0,-87.28 0,-87.28l87.28,-0Z"/><g><path d="M44.169,13.356c0.01,1.054 0.02,2.108 0.03,3.162c-1.323,0.554 -2.121,1.527 -2.394,2.92c0.025,4.56 0.049,9.119 0.074,13.678c-0.106,2.066 0.987,3.754 3.28,5.064c7.913,4.481 15.825,8.962 23.738,13.443c-1.003,0.593 -2.006,1.186 -3.008,1.779c-7.855,-4.512 -15.709,-9.025 -23.564,-13.537c-1.996,-0.956 -3.183,-2.694 -3.561,-5.214c0.059,-5.679 0.044,-10.554 -0.045,-14.624c-0.074,-2.749 1.743,-4.972 5.45,-6.671Z" style="fill:url(#_Linear1);fill-rule:nonzero;"/><path d="M78.154,72.22c-0.908,-0.536 -1.816,-1.072 -2.724,-1.608c-1.141,0.869 -2.383,1.074 -3.726,0.613c-3.936,-2.301 -7.872,-4.602 -11.808,-6.903c-1.842,-0.94 -2.757,-2.731 -2.746,-5.372c0.076,-9.093 0.152,-18.186 0.227,-27.28c-1.014,0.573 -2.029,1.145 -3.044,1.717c-0.02,9.058 -0.039,18.116 -0.059,27.175c-0.17,2.206 0.742,4.103 2.735,5.691c4.948,2.788 9.162,5.239 12.642,7.351c2.344,1.438 5.178,0.977 8.503,-1.384Z" style="fill:url(#_Linear2);fill-rule:nonzero;"/><path d="M10.055,72.442c0.918,-0.518 1.836,-1.036 2.754,-1.554c-0.182,-1.423 0.262,-2.601 1.332,-3.534c3.961,-2.258 7.921,-4.516 11.882,-6.774c1.736,-1.125 3.744,-1.023 6.026,0.308c7.837,4.612 15.674,9.224 23.511,13.836c0.012,-1.165 0.024,-2.33 0.036,-3.494c-7.835,-4.546 -15.67,-9.092 -23.505,-13.638c-1.826,-1.251 -3.925,-1.41 -6.296,-0.478c-4.889,2.891 -9.118,5.315 -12.687,7.273c-2.418,1.311 -3.435,3.996 -3.053,8.055Z" style="fill:url(#_Linear3);fill-rule:nonzero;"/><path d="M43.911,13.356c-0.01,1.054 -0.02,2.108 -0.03,3.162c1.323,0.554 2.121,1.527 2.394,2.92c-0.025,4.56 -0.049,9.119 -0.074,13.678c0.106,2.066 -0.987,3.754 -3.28,5.064c-7.913,4.481 -15.825,8.962 -23.738,13.443c1.003,0.593 2.006,1.186 3.008,1.779c7.855,-4.512 15.709,-9.025 23.564,-13.537c1.996,-0.956 3.183,-2.694 3.561,-5.214c-0.059,-5.679 -0.044,-10.554 0.045,-14.624c0.074,-2.749 -1.743,-4.972 -5.45,-6.671Z" style="fill:url(#_Linear4);fill-rule:nonzero;"/><path d="M9.926,72.22c0.908,-0.536 1.816,-1.072 2.724,-1.608c1.141,0.869 2.383,1.074 3.726,0.613c3.936,-2.301 7.872,-4.602 11.808,-6.903c1.842,-0.94 2.757,-2.731 2.746,-5.372c-0.076,-9.093 -0.152,-18.186 -0.227,-27.28c1.014,0.573 2.029,1.145 3.044,1.717c0.02,9.058 0.039,18.116 0.059,27.175c0.17,2.206 -0.742,4.103 -2.735,5.691c-4.948,2.788 -9.162,5.239 -12.642,7.351c-2.344,1.438 -5.178,0.977 -8.503,-1.384Z" style="fill:url(#_Linear5);fill-rule:nonzero;"/><path d="M78.025,72.442c-0.918,-0.518 -1.836,-1.036 -2.754,-1.554c0.182,-1.423 -0.262,-2.601 -1.332,-3.534c-3.961,-2.258 -7.921,-4.516 -11.882,-6.774c-1.736,-1.125 -3.744,-1.023 -6.026,0.308c-7.837,4.612 -15.674,9.224 -23.511,13.836c-0.012,-1.165 -0.024,-2.33 -0.036,-3.494c7.835,-4.546 15.67,-9.092 23.505,-13.638c1.826,-1.251 3.925,-1.41 6.296,-0.478c4.889,2.891 9.118,5.315 12.687,7.273c2.418,1.311 3.435,3.996 3.053,8.055Z" style="fill:url(#_Linear6);fill-rule:nonzero;"/></g></g><defs><linearGradient id="_Linear1" x1="0" y1="0" x2="1" y2="0" gradientUnits="userSpaceOnUse" gradientTransform="matrix(37.617,29.5526,-29.5526,37.617,29.8393,21.2167)"><stop offset="0" style="stop-color:#000;stop-opacity:1"/><stop offset="1" style="stop-color:#000;stop-opacity:1"/></linearGradient><linearGradient id="_Linear2" x1="0" y1="0" x2="1" y2="0" gradientUnits="userSpaceOnUse" gradientTransform="matrix(-6.78479,-47.3536,47.3536,-6.78479,64.1814,80.6988)"><stop offset="0" style="stop-color:#000;stop-opacity:1"/><stop offset="1" style="stop-color:#000;stop-opacity:1"/></linearGradient><linearGradient id="_Linear3" x1="0" y1="0" x2="1" y2="0" gradientUnits="userSpaceOnUse" gradientTransform="matrix(44.4018,17.801,-17.801,44.4018,9.69797,56.1026)"><stop offset="0" style="stop-color:#000;stop-opacity:1"/><stop offset="1" style="stop-color:#000;stop-opacity:1"/></linearGradient><linearGradient id="_Linear4" x1="0" y1="0" x2="1" y2="0" gradientUnits="userSpaceOnUse" gradientTransform="matrix(-37.617,29.5526,-29.5526,-37.617,58.2407,21.2167)"><stop offset="0" style="stop-color:#000;stop-opacity:1"/><stop offset="1" style="stop-color:#000;stop-opacity:1"/></linearGradient><linearGradient id="_Linear5" x1="0" y1="0" x2="1" y2="0" gradientUnits="userSpaceOnUse" gradientTransform="matrix(6.78479,-47.3536,47.3536,6.78479,23.8986,80.6988)"><stop offset="0" style="stop-color:#000;stop-opacity:1"/><stop offset="1" style="stop-color:#000;stop-opacity:1"/></linearGradient><linearGradient id="_Linear6" x1="0" y1="0" x2="1" y2="0" gradientUnits="userSpaceOnUse" gradientTransform="matrix(-44.4018,17.801,-17.801,-44.4018,78.382,56.1026)"><stop offset="0" style="stop-color:#000;stop-opacity:1"/><stop offset="1" style="stop-color:#000;stop-opacity:1"/></linearGradient></defs></svg>