<?xml version="1.0" encoding="UTF-8" standalone="no"?><!DOCTYPE svg PUBLIC "-//W3C//DTD SVG 1.1//EN" "http://www.w3.org/Graphics/SVG/1.1/DTD/svg11.dtd"><svg width="100%" height="100%" viewBox="0 0 89 89" version="1.1" xmlns="http://www.w3.org/2000/svg" xmlns:xlink="http://www.w3.org/1999/xlink" xml:space="preserve" xmlns:serif="http://www.serif.com/" style="fill-rule:evenodd;clip-rule:evenodd;stroke-linejoin:round;stroke-miterlimit:2;"><g><rect x="0" y="0" width="88.08" height="88.08" style="fill:#f2f2f2;"/><path d="M88.08,0l-88.08,0l0,88.08l88.08,0l0,-88.08Zm-0.4,0.4l-0,87.28c0,-0 -87.28,-0 -87.28,-0c0,0 0,-87.28 0,-87.28l87.28,-0Z"/><g><g><g><path d="M58.057,36.215c-10.344,-5.954 -20.688,-11.908 -31.031,-17.862c2.159,-1.251 4.319,-2.502 6.478,-3.753c10.349,5.953 20.698,11.906 31.047,17.86c-2.165,1.251 -4.33,2.503 -6.494,3.755Z" style="fill:url(#_Linear1);fill-rule:nonzero;"/><path d="M58.9,37.675c-0.016,11.935 -0.031,23.87 -0.046,35.805c2.163,-1.245 4.325,-2.489 6.488,-3.734c0.019,-11.939 0.038,-23.878 0.057,-35.817c-2.166,1.249 -4.333,2.497 -6.499,3.746Z" style="fill:url(#_Linear2);fill-rule:nonzero;"/><path d="M43.197,61.953c-10.328,-5.981 -20.656,-11.962 -30.985,-17.942c-0.003,2.495 -0.007,4.991 -0.01,7.486c10.33,5.986 20.66,11.972 30.99,17.958c0.001,-2.501 0.003,-5.002 0.005,-7.502Z" style="fill:url(#_Linear3);fill-rule:nonzero;"/><path d="M30.023,36.215c10.344,-5.954 20.688,-11.908 31.031,-17.862c-2.159,-1.251 -4.319,-2.502 -6.478,-3.753c-10.349,5.953 -20.698,11.906 -31.047,17.86c2.165,1.251 4.33,2.503 6.494,3.755Z" style="fill:url(#_Linear4);fill-rule:nonzero;"/><path d="M29.18,37.675c0.016,11.935 0.031,23.87 0.046,35.805c-2.163,-1.245 -4.325,-2.489 -6.488,-3.734c-0.019,-11.939 -0.038,-23.878 -0.057,-35.817c2.166,1.249 4.333,2.497 6.499,3.746Z" style="fill:url(#_Linear5);fill-rule:nonzero;"/><path d="M44.883,61.953c10.328,-5.981 20.656,-11.962 30.985,-17.942c0.003,2.495 0.007,4.991 0.01,7.486c-10.33,5.986 -20.66,11.972 -30.99,17.958c-0.001,-2.501 -0.003,-5.002 -0.005,-7.502Z" style="fill:url(#_Linear6);fill-rule:nonzero;"/></g></g></g></g><defs><linearGradient id="_Linear1" x1="0" y1="0" x2="1" y2="0" gradientUnits="userSpaceOnUse" gradientTransform="matrix(-23.8918,-40.2793,40.2793,-23.8918,59.3121,36.9931)"><stop offset="0" style="stop-color:#000;stop-opacity:1"/><stop offset="1" style="stop-color:#000;stop-opacity:1"/></linearGradient><linearGradient id="_Linear2" x1="0" y1="0" x2="1" y2="0" gradientUnits="userSpaceOnUse" gradientTransform="matrix(22.937,40.8305,-40.8305,22.937,58.8536,36.199)"><stop offset="0" style="stop-color:#000;stop-opacity:1"/><stop offset="1" style="stop-color:#000;stop-opacity:1"/></linearGradient><linearGradient id="_Linear3" x1="0" y1="0" x2="1" y2="0" gradientUnits="userSpaceOnUse" gradientTransform="matrix(-46.8287,-0.551238,0.551238,-46.8287,44.4985,62.651)"><stop offset="0" style="stop-color:#000;stop-opacity:1"/><stop offset="1" style="stop-color:#000;stop-opacity:1"/></linearGradient><linearGradient id="_Linear4" x1="0" y1="0" x2="1" y2="0" gradientUnits="userSpaceOnUse" gradientTransform="matrix(23.8918,-40.2793,40.2793,23.8918,28.7679,36.9931)"><stop offset="0" style="stop-color:#000;stop-opacity:1"/><stop offset="1" style="stop-color:#000;stop-opacity:1"/></linearGradient><linearGradient id="_Linear5" x1="0" y1="0" x2="1" y2="0" gradientUnits="userSpaceOnUse" gradientTransform="matrix(-22.937,40.8305,-40.8305,-22.937,29.2264,36.199)"><stop offset="0" style="stop-color:#000;stop-opacity:1"/><stop offset="1" style="stop-color:#000;stop-opacity:1"/></linearGradient><linearGradient id="_Linear6" x1="0" y1="0" x2="1" y2="0" gradientUnits="userSpaceOnUse" gradientTransform="matrix(46.8287,-0.551238,0.551238,46.8287,43.5815,62.651)"><stop offset="0" style="stop-color:#000;stop-opacity:1"/><stop offset="1" style="stop-color:#000;stop-opacity:1"/></linearGradient></defs></svg>