<?xml version="1.0" encoding="UTF-8" standalone="no"?><!DOCTYPE svg PUBLIC "-//W3C//DTD SVG 1.1//EN" "http://www.w3.org/Graphics/SVG/1.1/DTD/svg11.dtd"><svg width="100%" height="100%" viewBox="0 0 89 89" version="1.1" xmlns="http://www.w3.org/2000/svg" xmlns:xlink="http://www.w3.org/1999/xlink" xml:space="preserve" xmlns:serif="http://www.serif.com/" style="fill-rule:evenodd;clip-rule:evenodd;stroke-linejoin:round;stroke-miterlimit:2;"><g><rect x="0" y="0" width="88.08" height="88.08" style="fill:#f2f2f2;"/><path d="M88.08,0l-88.08,0l0,88.08l88.08,0l0,-88.08Zm-0.45,0.45l0,87.18c-0,0 -87.18,0 -87.18,0c-0,-0 -0,-87.18 -0,-87.18l87.18,0Z"/><g><g><path d="M37.321,16.574c1.38,0.776 2.76,1.551 4.14,2.327c2.591,1.552 3.107,3.684 1.548,6.394c-2.206,4.014 -4.412,8.028 -6.618,12.042c-1.687,3.094 0.047,6.429 5.203,10.006c-4.262,-2.406 -8.524,-4.813 -12.786,-7.22c-1.968,-1.365 -2.64,-2.99 -2.016,-4.873c3.51,-6.225 7.02,-12.451 10.529,-18.676Z" style="fill:url(#_Linear1);fill-rule:nonzero;"/><path d="M69.036,71.506c0.018,-1.583 0.037,-3.166 0.055,-4.749c-0.049,-3.02 -1.637,-4.532 -4.763,-4.537c-4.579,-0.097 -9.159,-0.193 -13.738,-0.29c-3.523,-0.086 -5.545,-3.255 -6.065,-9.509c-0.046,4.894 -0.093,9.789 -0.14,14.683c0.199,2.387 1.27,3.781 3.213,4.182c7.146,0.073 14.292,0.147 21.438,0.22Z" style="fill:url(#_Linear2);fill-rule:nonzero;"/><path d="M12.325,59.869c1.362,0.807 2.724,1.614 4.085,2.422c2.64,1.467 4.744,0.849 6.311,-1.857c2.373,-3.917 4.747,-7.835 7.12,-11.752c1.836,-3.009 5.592,-3.175 11.267,-0.498c-4.215,-2.487 -8.43,-4.975 -12.645,-7.463c-2.167,-1.021 -3.91,-0.791 -5.229,0.692c-3.636,6.152 -7.272,12.304 -10.909,18.456Z" style="fill:url(#_Linear3);fill-rule:nonzero;"/><path d="M50.759,16.574c-1.38,0.776 -2.76,1.551 -4.14,2.327c-2.591,1.552 -3.107,3.684 -1.548,6.394c2.206,4.014 4.412,8.028 6.618,12.042c1.687,3.094 -0.047,6.429 -5.203,10.006c4.262,-2.406 8.524,-4.813 12.786,-7.22c1.968,-1.365 2.64,-2.99 2.016,-4.873c-3.51,-6.225 -7.02,-12.451 -10.529,-18.676Z" style="fill:url(#_Linear4);fill-rule:nonzero;"/><path d="M19.044,71.506c-0.018,-1.583 -0.037,-3.166 -0.055,-4.749c0.049,-3.02 1.637,-4.532 4.763,-4.537c4.579,-0.097 9.159,-0.193 13.738,-0.29c3.523,-0.086 5.545,-3.255 6.065,-9.509c0.046,4.894 0.093,9.789 0.14,14.683c-0.199,2.387 -1.27,3.781 -3.213,4.182c-7.146,0.073 -14.292,0.147 -21.438,0.22Z" style="fill:url(#_Linear5);fill-rule:nonzero;"/><path d="M75.755,59.869c-1.362,0.807 -2.724,1.614 -4.085,2.422c-2.64,1.467 -4.744,0.849 -6.311,-1.857c-2.373,-3.917 -4.747,-7.835 -7.12,-11.752c-1.836,-3.009 -5.592,-3.175 -11.267,-0.498c4.215,-2.487 8.43,-4.975 12.645,-7.463c2.167,-1.021 3.91,-0.791 5.229,0.692c3.636,6.152 7.272,12.304 10.909,18.456Z" style="fill:url(#_Linear6);fill-rule:nonzero;"/></g></g></g><defs><linearGradient id="_Linear1" x1="0" y1="0" x2="1" y2="0" gradientUnits="userSpaceOnUse" gradientTransform="matrix(-20.1671,16.9622,-16.9622,-20.1671,45.3679,21.1107)"><stop offset="0" style="stop-color:#000;stop-opacity:1"/><stop offset="1" style="stop-color:#000;stop-opacity:1"/></linearGradient><linearGradient id="_Linear2" x1="0" y1="0" x2="1" y2="0" gradientUnits="userSpaceOnUse" gradientTransform="matrix(-24.7732,8.98413,-8.98413,-24.7732,69.1307,62.269)"><stop offset="0" style="stop-color:#000;stop-opacity:1"/><stop offset="1" style="stop-color:#000;stop-opacity:1"/></linearGradient><linearGradient id="_Linear3" x1="0" y1="0" x2="1" y2="0" gradientUnits="userSpaceOnUse" gradientTransform="matrix(4.60615,-25.9463,25.9463,4.60615,20.2772,64.569)"><stop offset="0" style="stop-color:#000;stop-opacity:1"/><stop offset="1" style="stop-color:#000;stop-opacity:1"/></linearGradient><linearGradient id="_Linear4" x1="0" y1="0" x2="1" y2="0" gradientUnits="userSpaceOnUse" gradientTransform="matrix(20.1671,16.9622,-16.9622,20.1671,42.7121,21.1107)"><stop offset="0" style="stop-color:#000;stop-opacity:1"/><stop offset="1" style="stop-color:#000;stop-opacity:1"/></linearGradient><linearGradient id="_Linear5" x1="0" y1="0" x2="1" y2="0" gradientUnits="userSpaceOnUse" gradientTransform="matrix(24.7732,8.98413,-8.98413,24.7732,18.9493,62.269)"><stop offset="0" style="stop-color:#000;stop-opacity:1"/><stop offset="1" style="stop-color:#000;stop-opacity:1"/></linearGradient><linearGradient id="_Linear6" x1="0" y1="0" x2="1" y2="0" gradientUnits="userSpaceOnUse" gradientTransform="matrix(-4.60614,-25.9463,25.9463,-4.60614,67.8028,64.569)"><stop offset="0" style="stop-color:#000;stop-opacity:1"/><stop offset="1" style="stop-color:#000;stop-opacity:1"/></linearGradient></defs></svg>