<?xml version="1.0" encoding="UTF-8" standalone="no"?><!DOCTYPE svg PUBLIC "-//W3C//DTD SVG 1.1//EN" "http://www.w3.org/Graphics/SVG/1.1/DTD/svg11.dtd"><svg width="100%" height="100%" viewBox="0 0 89 89" version="1.1" xmlns="http://www.w3.org/2000/svg" xmlns:xlink="http://www.w3.org/1999/xlink" xml:space="preserve" xmlns:serif="http://www.serif.com/" style="fill-rule:evenodd;clip-rule:evenodd;stroke-linejoin:round;stroke-miterlimit:2;"><g><rect x="0" y="0" width="88.08" height="88.08" style="fill:#f2f2f2;"/><path d="M88.08,0l-88.08,0l0,88.08l88.08,0l0,-88.08Zm-0.45,0.45l0,87.18c-0,0 -87.18,0 -87.18,0c-0,-0 -0,-87.18 -0,-87.18l87.18,0Z"/><path d="M44.04,13.69c-0.174,-0.016 -0.353,0.016 -0.52,0.102c-3.615,1.871 -5.691,4.129 -6.336,6.673c-0.648,2.555 0.122,5.469 2.458,8.7c0.029,0.039 0.06,0.076 0.094,0.111l2.973,3.011l-2.492,2.524l-3.546,-0.023l-0.027,-4.231c-0.001,-0.049 -0.005,-0.097 -0.012,-0.145c-0.634,-3.936 -2.149,-6.542 -4.414,-7.89c-2.255,-1.342 -5.32,-1.472 -9.199,-0.238c-0.178,0.057 -0.328,0.161 -0.44,0.295c-0.134,0.112 -0.238,0.262 -0.295,0.44c-1.234,3.879 -1.104,6.944 0.238,9.199c1.348,2.265 3.954,3.78 7.89,4.414c0.048,0.007 0.096,0.011 0.145,0.012l4.231,0.027l0.023,3.546l-2.524,2.492l-3.011,-2.973c-0.035,-0.034 -0.072,-0.065 -0.111,-0.094c-3.231,-2.336 -6.145,-3.106 -8.7,-2.458c-2.544,0.645 -4.802,2.721 -6.673,6.336c-0.086,0.167 -0.118,0.346 -0.102,0.52c-0.016,0.174 0.016,0.353 0.102,0.52c1.871,3.615 4.129,5.691 6.673,6.336c2.555,0.648 5.469,-0.122 8.7,-2.458c0.039,-0.029 0.076,-0.06 0.111,-0.094l3.011,-2.973l2.524,2.492l-0.023,3.546l-4.231,0.027c-0.049,0.001 -0.097,0.005 -0.145,0.012c-3.936,0.634 -6.542,2.149 -7.89,4.414c-1.342,2.255 -1.472,5.32 -0.238,9.199c0.057,0.178 0.161,0.328 0.295,0.44c0.112,0.134 0.262,0.238 0.44,0.295c3.879,1.234 6.944,1.104 9.199,-0.238c2.265,-1.348 3.78,-3.954 4.414,-7.89c0.007,-0.048 0.011,-0.096 0.012,-0.145l0.027,-4.231l3.546,-0.023l2.492,2.524l-2.973,3.011c-0.034,0.035 -0.065,0.072 -0.094,0.111c-2.336,3.231 -3.106,6.145 -2.458,8.7c0.645,2.544 2.721,4.802 6.336,6.673c0.167,0.086 0.346,0.118 0.52,0.102c0.174,0.016 0.353,-0.016 0.52,-0.102c3.615,-1.871 5.691,-4.129 6.336,-6.673c0.648,-2.555 -0.122,-5.469 -2.458,-8.7c-0.029,-0.039 -0.06,-0.076 -0.094,-0.111l-2.973,-3.011l2.492,-2.524l3.546,0.023l0.027,4.231c0.001,0.049 0.005,0.097 0.012,0.145c0.634,3.936 2.149,6.542 4.414,7.89c2.255,1.342 5.32,1.472 9.199,0.238c0.178,-0.057 0.328,-0.161 0.44,-0.295c0.134,-0.112 0.238,-0.262 0.295,-0.44c1.234,-3.879 1.104,-6.944 -0.238,-9.199c-1.348,-2.265 -3.954,-3.78 -7.89,-4.414c-0.048,-0.007 -0.096,-0.011 -0.145,-0.012l-4.231,-0.027l-0.023,-3.546l2.524,-2.492l3.011,2.973c0.035,0.034 0.072,0.065 0.111,0.094c3.231,2.336 6.145,3.106 8.7,2.458c2.544,-0.645 4.802,-2.721 6.673,-6.336c0.086,-0.167 0.118,-0.346 0.102,-0.52c0.016,-0.174 -0.016,-0.353 -0.102,-0.52c-1.871,-3.615 -4.129,-5.691 -6.673,-6.336c-2.555,-0.648 -5.469,0.122 -8.7,2.458c-0.039,0.029 -0.076,0.06 -0.111,0.094l-3.011,2.973l-2.524,-2.492l0.023,-3.546l4.231,-0.027c0.049,-0.001 0.097,-0.005 0.145,-0.012c3.936,-0.634 6.542,-2.149 7.89,-4.414c1.342,-2.255 1.472,-5.32 0.238,-9.199c-0.057,-0.178 -0.161,-0.328 -0.295,-0.44c-0.112,-0.134 -0.262,-0.238 -0.44,-0.295c-3.879,-1.234 -6.944,-1.104 -9.199,0.238c-2.265,1.348 -3.78,3.954 -4.414,7.89c-0.007,0.048 -0.011,0.096 -0.012,0.145l-0.027,4.231l-3.546,0.023l-2.492,-2.524l2.973,-3.011c0.034,-0.035 0.065,-0.072 0.094,-0.111c2.336,-3.231 3.106,-6.145 2.458,-8.7c-0.645,-2.544 -2.721,-4.802 -6.336,-6.673c-0.167,-0.086 -0.346,-0.118 -0.52,-0.102Zm0,43.451l-2.905,2.943c-1.892,2.636 -2.644,4.977 -2.115,7.066c0.516,2.032 2.221,3.758 5.02,5.27c2.799,-1.512 4.504,-3.238 5.02,-5.27c0.529,-2.089 -0.223,-4.43 -2.116,-7.067l-2.904,-2.942Zm9.264,-3.837l0.027,4.135c0.526,3.202 1.649,5.389 3.501,6.491c1.801,1.073 4.227,1.088 7.275,0.177c0.911,-3.048 0.896,-5.474 -0.177,-7.275c-1.102,-1.852 -3.289,-2.975 -6.492,-3.502l-4.134,-0.026Zm-18.528,0l-4.135,0.027c-3.202,0.526 -5.389,1.649 -6.491,3.501c-1.073,1.801 -1.088,4.227 -0.177,7.275c3.048,0.911 5.474,0.896 7.275,-0.177c1.852,-1.102 2.975,-3.289 3.502,-6.492l0.026,-4.134Zm11.917,-16.982l-2.653,-2.687l-2.653,2.687c-0.104,0.141 -0.246,0.253 -0.412,0.319c-0.164,0.07 -0.343,0.092 -0.517,0.066l-3.775,-0.024l0.024,3.775c0.026,0.174 0.004,0.353 -0.066,0.517c-0.066,0.166 -0.178,0.308 -0.319,0.412l-2.687,2.653l2.687,2.653c0.141,0.104 0.253,0.246 0.319,0.412c0.07,0.164 0.092,0.343 0.066,0.517l-0.024,3.775l3.775,-0.024c0.174,-0.026 0.353,-0.004 0.517,0.066c0.165,0.066 0.308,0.178 0.412,0.319l2.653,2.687l2.653,-2.687c0.104,-0.141 0.247,-0.253 0.412,-0.319c0.164,-0.07 0.343,-0.092 0.517,-0.066l3.775,0.024l-0.024,-3.775c-0.026,-0.174 -0.004,-0.353 0.066,-0.517c0.066,-0.166 0.178,-0.308 0.319,-0.412l2.687,-2.653l-2.687,-2.653c-0.141,-0.104 -0.253,-0.246 -0.319,-0.412c-0.07,-0.164 -0.092,-0.343 -0.066,-0.517l0.024,-3.775l-3.775,0.024c-0.174,0.026 -0.353,0.004 -0.517,-0.066c-0.166,-0.066 -0.308,-0.178 -0.412,-0.319Zm25.727,7.718c-1.512,-2.799 -3.238,-4.504 -5.27,-5.02c-2.089,-0.529 -4.43,0.223 -7.067,2.116l-2.942,2.904l2.943,2.905c2.636,1.892 4.977,2.644 7.066,2.115c2.032,-0.516 3.758,-2.221 5.27,-5.02Zm-41.481,0l-2.943,-2.905c-2.636,-1.892 -4.977,-2.644 -7.066,-2.115c-2.032,0.516 -3.758,2.221 -5.27,5.02c1.512,2.799 3.238,4.504 5.27,5.02c2.089,0.529 4.43,-0.223 7.067,-2.116l2.942,-2.904Zm3.837,-9.264l-0.027,-4.135c-0.526,-3.202 -1.649,-5.389 -3.501,-6.491c-1.801,-1.073 -4.227,-1.088 -7.275,-0.177c-0.911,3.048 -0.896,5.474 0.177,7.275c1.102,1.852 3.289,2.975 6.492,3.502l4.134,0.026Zm29.331,-10.803c-3.048,-0.911 -5.474,-0.896 -7.275,0.177c-1.852,1.102 -2.975,3.289 -3.502,6.492l-0.026,4.134l4.135,-0.027c3.202,-0.526 5.389,-1.649 6.491,-3.501c1.073,-1.801 1.088,-4.227 0.177,-7.275Zm-20.067,-8.313c-2.799,1.512 -4.504,3.238 -5.02,5.27c-0.529,2.089 0.223,4.43 2.116,7.067l2.904,2.942l2.905,-2.943c1.892,-2.636 2.644,-4.977 2.115,-7.066c-0.516,-2.032 -2.221,-3.758 -5.02,-5.27Z"/></g></svg>