<?xml version="1.0" encoding="UTF-8" standalone="no"?><!DOCTYPE svg PUBLIC "-//W3C//DTD SVG 1.1//EN" "http://www.w3.org/Graphics/SVG/1.1/DTD/svg11.dtd"><svg width="100%" height="100%" viewBox="0 0 89 89" version="1.1" xmlns="http://www.w3.org/2000/svg" xmlns:xlink="http://www.w3.org/1999/xlink" xml:space="preserve" xmlns:serif="http://www.serif.com/" style="fill-rule:evenodd;clip-rule:evenodd;stroke-linejoin:round;stroke-miterlimit:2;"><g><rect x="0" y="0" width="88.08" height="88.08" style="fill:#f2f2f2;"/><path d="M88.08,0l-88.08,0l0,88.08l88.08,0l0,-88.08Zm-0.45,0.45l0,87.18c-0,0 -87.18,0 -87.18,0c-0,-0 -0,-87.18 -0,-87.18l87.18,0Z"/><path d="M44.04,15.034l-0.029,-0.032c-5.091,4.581 -7.18,9.243 -6.464,13.892c0.453,2.936 2.057,5.912 4.855,8.893c-0.958,0.873 -2.031,1.75 -3.215,2.63c-1.203,0.854 -2.368,1.603 -3.495,2.245c-1.97,-3.582 -4.304,-6.028 -6.957,-7.365c-4.2,-2.118 -9.279,-1.572 -15.21,1.854l0.022,0.037l-0.04,0.018c2.784,6.258 6.573,9.685 11.215,10.44c2.933,0.478 6.258,-0.129 9.958,-1.869c0.535,1.182 1.037,2.472 1.508,3.871c0.441,1.408 0.793,2.747 1.055,4.017c-4.016,0.767 -7.063,2.231 -9.155,4.341c-3.312,3.34 -4.362,8.339 -2.936,15.038l0.042,-0.009l0.005,0.043c6.812,-0.714 11.241,-3.258 13.394,-7.439c1.361,-2.642 1.811,-5.992 1.3,-10.049c1.289,-0.143 2.671,-0.221 4.147,-0.237c1.476,0.016 2.858,0.094 4.147,0.237c-0.511,4.057 -0.061,7.407 1.3,10.049c2.153,4.181 6.582,6.725 13.394,7.439l0.005,-0.043l0.042,0.009c1.426,-6.699 0.376,-11.698 -2.936,-15.038c-2.092,-2.11 -5.139,-3.574 -9.155,-4.341c0.262,-1.27 0.614,-2.609 1.055,-4.017c0.471,-1.399 0.973,-2.69 1.508,-3.871c3.7,1.74 7.025,2.347 9.958,1.869c4.642,-0.755 8.431,-4.182 11.215,-10.44l-0.04,-0.018l0.022,-0.037c-5.931,-3.426 -11.01,-3.972 -15.21,-1.854c-2.653,1.337 -4.987,3.783 -6.957,7.365c-1.127,-0.642 -2.292,-1.391 -3.495,-2.245c-1.185,-0.881 -2.257,-1.757 -3.215,-2.63c2.798,-2.981 4.402,-5.957 4.855,-8.893c0.716,-4.649 -1.373,-9.311 -6.464,-13.892l-0.029,0.032Zm6.416,40.894c-0.441,3.477 -0.095,6.361 1.085,8.653c1.617,3.139 4.804,5.065 9.493,5.906c0.649,-4.719 -0.197,-8.346 -2.683,-10.854c-1.815,-1.831 -4.451,-3.051 -7.895,-3.705Zm-12.832,-0c-3.444,0.654 -6.08,1.874 -7.895,3.705c-2.486,2.508 -3.332,6.135 -2.683,10.854c4.689,-0.841 7.876,-2.767 9.493,-5.906c1.18,-2.292 1.526,-5.176 1.085,-8.653Zm6.416,-16.521c-0.889,0.82 -1.868,1.64 -2.938,2.459l0.009,0.013c-0.189,0.138 -0.377,0.273 -0.566,0.407c-0.184,0.137 -0.372,0.275 -0.562,0.412l-0.009,-0.012c-1.11,0.765 -2.192,1.443 -3.247,2.034c0.506,1.099 0.983,2.283 1.431,3.555l0.015,-0.005c0.073,0.222 0.143,0.443 0.212,0.664c0.074,0.217 0.146,0.438 0.218,0.661l-0.014,0.005c0.384,1.292 0.695,2.531 0.931,3.717c1.201,-0.141 2.476,-0.229 3.823,-0.263l0,-0.015c0.235,-0 0.468,0.001 0.697,0.003c0.229,-0.002 0.462,-0.003 0.697,-0.003l0,0.015c1.348,0.034 2.622,0.122 3.823,0.263c0.236,-1.186 0.547,-2.425 0.931,-3.717l-0.014,-0.005c0.071,-0.222 0.144,-0.442 0.218,-0.661c0.068,-0.219 0.139,-0.441 0.212,-0.664l0.015,0.005c0.448,-1.272 0.925,-2.456 1.431,-3.555c-1.055,-0.591 -2.137,-1.269 -3.247,-2.034l-0.009,0.012c-0.19,-0.137 -0.378,-0.275 -0.562,-0.412c-0.189,-0.134 -0.377,-0.269 -0.566,-0.407l0.009,-0.013c-1.07,-0.819 -2.049,-1.639 -2.938,-2.459Zm27.497,-1.245c-4.287,-2.076 -7.998,-2.392 -11.151,-0.802c-2.302,1.161 -4.277,3.29 -5.964,6.363c3.17,1.494 6.02,2.056 8.565,1.642c3.485,-0.567 6.301,-3.004 8.55,-7.203Zm-37.879,5.561c-1.687,-3.073 -3.662,-5.202 -5.964,-6.363c-3.153,-1.59 -6.864,-1.274 -11.151,0.802c2.249,4.199 5.065,6.636 8.55,7.203c2.545,0.414 5.395,-0.148 8.565,-1.642Zm10.382,-25.539c-3.299,3.436 -4.746,6.868 -4.209,10.358c0.393,2.548 1.808,5.084 4.209,7.638c2.401,-2.554 3.816,-5.09 4.209,-7.638c0.537,-3.49 -0.91,-6.922 -4.209,-10.358Z"/></g></svg>