<?xml version="1.0" encoding="UTF-8" standalone="no"?><!DOCTYPE svg PUBLIC "-//W3C//DTD SVG 1.1//EN" "http://www.w3.org/Graphics/SVG/1.1/DTD/svg11.dtd"><svg width="100%" height="100%" viewBox="0 0 89 89" version="1.1" xmlns="http://www.w3.org/2000/svg" xmlns:xlink="http://www.w3.org/1999/xlink" xml:space="preserve" xmlns:serif="http://www.serif.com/" style="fill-rule:evenodd;clip-rule:evenodd;stroke-linejoin:round;stroke-miterlimit:2;"><g><rect x="0" y="0" width="88.08" height="88.08" style="fill:#f2f2f2;"/><path d="M88.08,0l-88.08,0l0,88.08l88.08,0l0,-88.08Zm-0.45,0.45l0,87.18c-0,0 -87.18,0 -87.18,0c-0,-0 -0,-87.18 -0,-87.18l87.18,0Z"/><path d="M11.203,43.853l-0.015,0.001c0.002,0.062 0.004,0.125 0.007,0.186c-0.003,0.061 -0.005,0.124 -0.007,0.186l0.015,0.001c0.496,10.067 8.944,17.933 19.057,17.67c4.523,0.171 9.145,-1.769 13.78,-5.937c4.636,4.168 9.261,6.109 13.787,5.937c10.107,0.262 18.554,-7.604 19.05,-17.67l0.015,-0.001c-0.002,-0.062 -0.004,-0.125 -0.007,-0.186c0.003,-0.061 0.005,-0.124 0.007,-0.186l-0.015,-0.001c-0.496,-10.067 -8.944,-17.933 -19.057,-17.67c-4.523,-0.171 -9.145,1.769 -13.78,5.937c-4.636,-4.168 -9.261,-6.109 -13.787,-5.937c-10.107,-0.262 -18.554,7.604 -19.05,17.67Zm30.084,-8.995c-0.522,-0.465 -1.044,-0.897 -1.566,-1.297c-3.144,-2.408 -6.254,-3.6 -9.369,-3.468l-0.141,0.001c-8.007,-0.236 -14.706,5.983 -15.101,13.946c0.395,7.963 7.094,14.182 15.101,13.946l0.141,0.001c3.115,0.132 6.225,-1.06 9.369,-3.468c0.522,-0.4 1.045,-0.833 1.566,-1.298c-1.564,-1.705 -3.128,-3.667 -4.687,-5.89c-2.591,2.801 -5.221,4.296 -7.794,4.626c-3.151,0.405 -6.361,-0.854 -9.512,-4.044l2.782,-2.749c2.098,2.123 4.135,3.183 6.232,2.913c2.022,-0.259 3.976,-1.662 5.986,-4.037c-2.01,-2.375 -3.965,-3.778 -5.986,-4.037c-2.097,-0.27 -4.134,0.79 -6.232,2.913l-2.782,-2.749c3.151,-3.19 6.361,-4.449 9.512,-4.044c2.573,0.33 5.204,1.826 7.794,4.626c1.559,-2.223 3.123,-4.185 4.687,-5.891Zm31.683,9.182c-0.395,-7.963 -7.094,-14.182 -15.101,-13.946l-0.141,-0.001c-3.115,-0.132 -6.225,1.06 -9.369,3.468c-0.522,0.4 -1.045,0.833 -1.566,1.298c1.564,1.705 3.128,3.667 4.687,5.89c2.591,-2.801 5.221,-4.296 7.794,-4.626c3.151,-0.405 6.361,0.854 9.512,4.044l-2.782,2.749c-2.098,-2.123 -4.135,-3.183 -6.232,-2.913c-2.022,0.259 -3.976,1.662 -5.986,4.037c2.01,2.375 3.965,3.778 5.986,4.037c2.097,0.27 4.134,-0.79 6.232,-2.913l2.782,2.749c-3.151,3.19 -6.361,4.449 -9.512,4.044c-2.573,-0.33 -5.204,-1.826 -7.794,-4.626c-1.559,2.223 -3.123,4.185 -4.687,5.891c0.522,0.465 1.044,0.897 1.566,1.297c3.144,2.408 6.254,3.6 9.369,3.468l0.141,-0.001c8.007,0.236 14.706,-5.983 15.101,-13.946Zm-28.93,-6.432c-1.648,1.824 -3.299,3.969 -4.958,6.432c1.658,2.463 3.31,4.608 4.958,6.432c1.648,-1.824 3.299,-3.969 4.958,-6.432c-1.658,-2.463 -3.31,-4.608 -4.958,-6.432Z"/></g></svg>