<?xml version="1.0" encoding="UTF-8" standalone="no"?><!DOCTYPE svg PUBLIC "-//W3C//DTD SVG 1.1//EN" "http://www.w3.org/Graphics/SVG/1.1/DTD/svg11.dtd"><svg width="100%" height="100%" viewBox="0 0 89 89" version="1.1" xmlns="http://www.w3.org/2000/svg" xmlns:xlink="http://www.w3.org/1999/xlink" xml:space="preserve" xmlns:serif="http://www.serif.com/" style="fill-rule:evenodd;clip-rule:evenodd;stroke-linejoin:round;stroke-miterlimit:2;"><g><rect x="0" y="0" width="88.08" height="88.08" style="fill:#f2f2f2;"/><path d="M88.08,0l-88.08,0l0,88.08l88.08,0l0,-88.08Zm-0.4,0.4l-0,87.28c0,-0 -87.28,-0 -87.28,-0c0,0 0,-87.28 0,-87.28l87.28,-0Z"/><g><g><path d="M20.41,15.244c1.791,0.007 3.581,0.014 5.372,0.022c3.414,0.108 5.097,1.93 5.048,5.466c0.028,5.18 0.057,10.361 0.086,15.542c0.035,3.986 3.585,6.328 10.648,7.025c-5.536,-0.033 -11.072,-0.066 -16.608,-0.099c-2.696,-0.266 -4.254,-1.502 -4.673,-3.706c0.042,-8.083 0.085,-16.167 0.127,-24.25Z" style="fill:url(#_Linear1);fill-rule:nonzero;"/><path d="M72.836,67.67c-0.007,-1.791 -0.014,-3.581 -0.022,-5.372c-0.108,-3.414 -1.93,-5.097 -5.466,-5.048c-5.18,-0.028 -10.361,-0.057 -15.542,-0.086c-3.986,-0.035 -6.328,-3.585 -7.025,-10.648c0.033,5.536 0.066,11.072 0.099,16.608c0.266,2.696 1.502,4.254 3.706,4.673c8.083,-0.042 16.167,-0.085 24.25,-0.127Z" style="fill:url(#_Linear2);fill-rule:nonzero;"/><path d="M20.41,72.836c1.791,-0.007 3.581,-0.014 5.372,-0.022c3.414,-0.108 5.097,-1.93 5.048,-5.466c0.028,-5.18 0.057,-10.361 0.086,-15.542c0.035,-3.986 3.585,-6.328 10.648,-7.025c-5.536,0.033 -11.072,0.066 -16.608,0.099c-2.696,0.266 -4.254,1.502 -4.673,3.706c0.042,8.083 0.085,16.167 0.127,24.25Z" style="fill:url(#_Linear3);fill-rule:nonzero;"/><path d="M15.244,20.41c0.007,1.791 0.014,3.581 0.022,5.372c0.108,3.414 1.93,5.097 5.466,5.048c5.18,0.028 10.361,0.057 15.542,0.086c3.986,0.035 6.328,3.585 7.025,10.648c-0.033,-5.536 -0.066,-11.072 -0.099,-16.608c-0.266,-2.696 -1.502,-4.254 -3.706,-4.673c-8.083,0.042 -16.167,0.085 -24.25,0.127Z" style="fill:url(#_Linear4);fill-rule:nonzero;"/><path d="M67.67,15.244c-1.791,0.007 -3.581,0.014 -5.372,0.022c-3.414,0.108 -5.097,1.93 -5.048,5.466c-0.028,5.18 -0.057,10.361 -0.086,15.542c-0.035,3.986 -3.585,6.328 -10.648,7.025c5.536,-0.033 11.072,-0.066 16.608,-0.099c2.696,-0.266 4.254,-1.502 4.673,-3.706c-0.042,-8.083 -0.085,-16.167 -0.127,-24.25Z" style="fill:url(#_Linear5);fill-rule:nonzero;"/><path d="M15.244,67.67c0.007,-1.791 0.014,-3.581 0.022,-5.372c0.108,-3.414 1.93,-5.097 5.466,-5.048c5.18,-0.028 10.361,-0.057 15.542,-0.086c3.986,-0.035 6.328,-3.585 7.025,-10.648c-0.033,5.536 -0.066,11.072 -0.099,16.608c-0.266,2.696 -1.502,4.254 -3.706,4.673c-8.083,-0.042 -16.167,-0.085 -24.25,-0.127Z" style="fill:url(#_Linear6);fill-rule:nonzero;"/><path d="M67.67,72.836c-1.791,-0.007 -3.581,-0.014 -5.372,-0.022c-3.414,-0.108 -5.097,-1.93 -5.048,-5.466c-0.028,-5.18 -0.057,-10.361 -0.086,-15.542c-0.035,-3.986 -3.585,-6.328 -10.648,-7.025c5.536,0.033 11.072,0.066 16.608,0.099c2.696,0.266 4.254,1.502 4.673,3.706c-0.042,8.083 -0.085,16.167 -0.127,24.25Z" style="fill:url(#_Linear7);fill-rule:nonzero;"/><path d="M72.836,20.41c-0.007,1.791 -0.014,3.581 -0.022,5.372c-0.108,3.414 -1.93,5.097 -5.466,5.048c-5.18,0.028 -10.361,0.057 -15.542,0.086c-3.986,0.035 -6.328,3.585 -7.025,10.648c0.033,-5.536 0.066,-11.072 0.099,-16.608c0.266,-2.696 1.502,-4.254 3.706,-4.673c8.083,0.042 16.167,0.085 24.25,0.127Z" style="fill:url(#_Linear8);fill-rule:nonzero;"/></g></g></g><defs><linearGradient id="_Linear1" x1="0" y1="0" x2="1" y2="0" gradientUnits="userSpaceOnUse" gradientTransform="matrix(-10.5949,27.8598,-27.8598,-10.5949,30.8581,15.2994)"><stop offset="0" style="stop-color:#000;stop-opacity:1"/><stop offset="1" style="stop-color:#000;stop-opacity:1"/></linearGradient><linearGradient id="_Linear2" x1="0" y1="0" x2="1" y2="0" gradientUnits="userSpaceOnUse" gradientTransform="matrix(-27.8598,10.5949,-10.5949,-27.8598,72.7806,57.2219)"><stop offset="0" style="stop-color:#000;stop-opacity:1"/><stop offset="1" style="stop-color:#000;stop-opacity:1"/></linearGradient><linearGradient id="_Linear3" x1="0" y1="0" x2="1" y2="0" gradientUnits="userSpaceOnUse" gradientTransform="matrix(-10.5949,-27.8598,27.8598,-10.5949,30.8581,72.7806)"><stop offset="0" style="stop-color:#000;stop-opacity:1"/><stop offset="1" style="stop-color:#000;stop-opacity:1"/></linearGradient><linearGradient id="_Linear4" x1="0" y1="0" x2="1" y2="0" gradientUnits="userSpaceOnUse" gradientTransform="matrix(27.8598,-10.5949,10.5949,27.8598,15.2994,30.8581)"><stop offset="0" style="stop-color:#000;stop-opacity:1"/><stop offset="1" style="stop-color:#000;stop-opacity:1"/></linearGradient><linearGradient id="_Linear5" x1="0" y1="0" x2="1" y2="0" gradientUnits="userSpaceOnUse" gradientTransform="matrix(10.5949,27.8598,-27.8598,10.5949,57.2219,15.2994)"><stop offset="0" style="stop-color:#000;stop-opacity:1"/><stop offset="1" style="stop-color:#000;stop-opacity:1"/></linearGradient><linearGradient id="_Linear6" x1="0" y1="0" x2="1" y2="0" gradientUnits="userSpaceOnUse" gradientTransform="matrix(27.8598,10.5949,-10.5949,27.8598,15.2994,57.2219)"><stop offset="0" style="stop-color:#000;stop-opacity:1"/><stop offset="1" style="stop-color:#000;stop-opacity:1"/></linearGradient><linearGradient id="_Linear7" x1="0" y1="0" x2="1" y2="0" gradientUnits="userSpaceOnUse" gradientTransform="matrix(10.5949,-27.8598,27.8598,10.5949,57.2219,72.7806)"><stop offset="0" style="stop-color:#000;stop-opacity:1"/><stop offset="1" style="stop-color:#000;stop-opacity:1"/></linearGradient><linearGradient id="_Linear8" x1="0" y1="0" x2="1" y2="0" gradientUnits="userSpaceOnUse" gradientTransform="matrix(-27.8598,-10.5949,10.5949,-27.8598,72.7806,30.8581)"><stop offset="0" style="stop-color:#000;stop-opacity:1"/><stop offset="1" style="stop-color:#000;stop-opacity:1"/></linearGradient></defs></svg>