<?xml version="1.0" encoding="UTF-8" standalone="no"?><!DOCTYPE svg PUBLIC "-//W3C//DTD SVG 1.1//EN" "http://www.w3.org/Graphics/SVG/1.1/DTD/svg11.dtd"><svg width="100%" height="100%" viewBox="0 0 89 89" version="1.1" xmlns="http://www.w3.org/2000/svg" xmlns:xlink="http://www.w3.org/1999/xlink" xml:space="preserve" xmlns:serif="http://www.serif.com/" style="fill-rule:evenodd;clip-rule:evenodd;stroke-linejoin:round;stroke-miterlimit:2;"><g><rect x="0" y="0" width="88.08" height="88.08" style="fill:#f2f2f2;"/><path d="M88.08,0l-88.08,0l0,88.08l88.08,0l0,-88.08Zm-0.45,0.45l0,87.18c-0,0 -87.18,0 -87.18,0c-0,-0 -0,-87.18 -0,-87.18l87.18,0Z"/><path d="M48.616,48.616l20.232,0c0.878,1.736 1.187,3.254 0.785,4.585c-0.28,0.928 -0.914,1.729 -1.852,2.442c-1.279,0.726 -2.708,0.788 -4.286,0.258c-0.976,-0.329 -1.994,-0.865 -3.061,-1.603c0.961,-0.01 1.922,-0.019 2.884,-0.029l-0.033,-3.19l-11.117,0.113l2.816,2.706c5.72,5.496 10.63,6.727 14.487,4.453l0.073,-0.043l0.068,-0.051c1.598,-1.187 2.605,-2.579 3.075,-4.134c0.674,-2.231 0.241,-4.88 -1.512,-7.903l-0.461,-0.794l-25.249,0l0,0.039l-0.039,0l0,25.249l0.794,0.461c3.023,1.753 5.672,2.186 7.903,1.512c1.555,-0.47 2.947,-1.477 4.134,-3.075l0.051,-0.068l0.043,-0.073c2.274,-3.857 1.043,-8.767 -4.453,-14.487l-2.706,-2.816l-0.113,11.117l3.19,0.033c0.01,-0.962 0.019,-1.923 0.029,-2.884c0.738,1.067 1.274,2.085 1.603,3.061c0.53,1.577 0.468,3.005 -0.255,4.281c-0.716,0.943 -1.518,1.577 -2.445,1.857c-1.331,0.402 -2.849,0.093 -4.585,-0.785l0,-20.232Zm-6.001,-3.151l0,-0.039l-25.249,-0l-0.461,0.794c-1.753,3.023 -2.186,5.672 -1.512,7.903c0.47,1.555 1.477,2.947 3.075,4.134l0.068,0.051l0.073,0.043c3.857,2.274 8.767,1.043 14.487,-4.453l2.816,-2.706l-11.117,-0.113l-0.033,3.19c0.962,0.01 1.923,0.019 2.884,0.029c-1.067,0.738 -2.085,1.274 -3.061,1.603c-1.577,0.53 -3.005,0.468 -4.281,-0.255c-0.943,-0.716 -1.577,-1.518 -1.857,-2.445c-0.402,-1.331 -0.093,-2.849 0.785,-4.585l20.232,-0l0,20.232c-1.736,0.878 -3.254,1.187 -4.585,0.785c-0.928,-0.28 -1.729,-0.914 -2.442,-1.852c-0.726,-1.279 -0.788,-2.708 -0.258,-4.286c0.329,-0.976 0.865,-1.994 1.603,-3.061c0.01,0.961 0.019,1.922 0.029,2.884l3.19,-0.033l-0.113,-11.117l-2.706,2.816c-5.496,5.72 -6.727,10.63 -4.453,14.487l0.043,0.073l0.051,0.068c1.187,1.598 2.579,2.605 4.134,3.075c2.231,0.674 4.88,0.241 7.903,-1.512l0.794,-0.461l0,-25.249l-0.039,-0Zm2.85,-2.85l0,0.039l25.249,0l0.461,-0.794c1.753,-3.023 2.186,-5.672 1.512,-7.903c-0.47,-1.555 -1.477,-2.947 -3.075,-4.134l-0.068,-0.051l-0.073,-0.043c-3.857,-2.274 -8.767,-1.043 -14.487,4.453l-2.816,2.706l11.117,0.113l0.033,-3.19c-0.962,-0.01 -1.923,-0.019 -2.884,-0.029c1.067,-0.738 2.085,-1.274 3.061,-1.603c1.577,-0.53 3.005,-0.468 4.281,0.255c0.943,0.716 1.577,1.518 1.857,2.445c0.402,1.331 0.093,2.849 -0.785,4.585l-20.232,0l0,-20.232c1.736,-0.878 3.254,-1.187 4.585,-0.785c0.928,0.28 1.729,0.914 2.442,1.852c0.726,1.279 0.788,2.708 0.258,4.286c-0.329,0.976 -0.865,1.994 -1.603,3.061c-0.01,-0.961 -0.019,-1.922 -0.029,-2.884l-3.19,0.033l0.113,11.117l2.706,-2.816c5.496,-5.72 6.727,-10.63 4.453,-14.487l-0.043,-0.073l-0.051,-0.068c-1.187,-1.598 -2.579,-2.605 -4.134,-3.075c-2.231,-0.674 -4.88,-0.241 -7.903,1.512l-0.794,0.461l0,25.249l0.039,0Zm-6.001,-3.151l-20.232,0c-0.878,-1.736 -1.187,-3.254 -0.785,-4.585c0.28,-0.928 0.914,-1.729 1.852,-2.442c1.279,-0.726 2.708,-0.788 4.286,-0.258c0.976,0.329 1.994,0.865 3.061,1.603c-0.961,0.01 -1.922,0.019 -2.884,0.029l0.033,3.19l11.117,-0.113l-2.816,-2.706c-5.72,-5.496 -10.63,-6.727 -14.487,-4.453l-0.073,0.043l-0.068,0.051c-1.598,1.187 -2.605,2.579 -3.075,4.134c-0.674,2.231 -0.241,4.88 1.512,7.903l0.461,0.794l25.249,0l0,-0.039l0.039,0l0,-25.249l-0.794,-0.461c-3.023,-1.753 -5.672,-2.186 -7.903,-1.512c-1.555,0.47 -2.947,1.477 -4.134,3.075l-0.051,0.068l-0.043,0.073c-2.274,3.857 -1.043,8.767 4.453,14.487l2.706,2.816l0.113,-11.117l-3.19,-0.033c-0.01,0.962 -0.019,1.923 -0.029,2.884c-0.738,-1.067 -1.274,-2.085 -1.603,-3.061c-0.53,-1.577 -0.468,-3.005 0.255,-4.281c0.716,-0.943 1.518,-1.577 2.445,-1.857c1.331,-0.402 2.849,-0.093 4.585,0.785l0,20.232Z"/></g></svg>