<?xml version="1.0" encoding="UTF-8" standalone="no"?><!DOCTYPE svg PUBLIC "-//W3C//DTD SVG 1.1//EN" "http://www.w3.org/Graphics/SVG/1.1/DTD/svg11.dtd"><svg width="100%" height="100%" viewBox="0 0 89 89" version="1.1" xmlns="http://www.w3.org/2000/svg" xmlns:xlink="http://www.w3.org/1999/xlink" xml:space="preserve" xmlns:serif="http://www.serif.com/" style="fill-rule:evenodd;clip-rule:evenodd;stroke-linejoin:round;stroke-miterlimit:2;"><g><rect x="0" y="0" width="88.08" height="88.08" style="fill:#f2f2f2;"/><path d="M88.08,0l-88.08,0l0,88.08l88.08,0l0,-88.08Zm-0.4,0.4l-0,87.28c0,-0 -87.28,-0 -87.28,-0c0,0 0,-87.28 0,-87.28l87.28,-0Z"/><path d="M70.539,65.662c-8.19,1.797 -13.945,1.456 -17.167,-1.85c-2.058,-2.111 -2.898,-5.361 -2.829,-9.655l-5.436,-0.088c-0.098,6.072 1.461,10.553 4.371,13.538c4.213,4.322 11.633,5.713 22.377,3.333l-1.148,-5.182l5.061,-1.596c-3.31,-10.495 -8.225,-16.225 -14.074,-17.712c-4.041,-1.028 -8.701,-0.138 -13.911,2.983l2.795,4.664c3.684,-2.207 6.918,-3.104 9.776,-2.378c4.474,1.138 7.646,5.952 10.185,13.943Zm-53.166,0.096l-1.148,5.182c10.744,2.38 18.164,0.989 22.377,-3.333c2.91,-2.985 4.469,-7.466 4.371,-13.538l-5.436,0.088c0.069,4.294 -0.771,7.544 -2.829,9.655c-3.222,3.306 -8.977,3.647 -17.167,1.85c2.539,-7.991 5.711,-12.805 10.185,-13.943c2.858,-0.726 6.092,0.171 9.776,2.378l2.795,-4.664c-5.21,-3.121 -9.87,-4.011 -13.911,-2.983c-5.849,1.487 -10.764,7.217 -14.074,17.712l5.061,1.596Zm26.667,-46.188l-3.913,-3.585c-7.434,8.115 -9.939,15.236 -8.302,21.045c1.13,4.013 4.231,7.604 9.538,10.555l2.643,-4.752c-3.754,-2.087 -6.148,-4.439 -6.948,-7.277c-1.252,-4.444 1.331,-9.598 6.982,-15.793c5.651,6.195 8.234,11.349 6.982,15.793c-0.8,2.838 -3.194,5.19 -6.948,7.277l2.643,4.752c5.307,-2.951 8.408,-6.542 9.538,-10.555c1.637,-5.809 -0.868,-12.93 -8.302,-21.045l-3.913,3.585Z"/></g></svg>