<?xml version="1.0" encoding="UTF-8" standalone="no"?><!DOCTYPE svg PUBLIC "-//W3C//DTD SVG 1.1//EN" "http://www.w3.org/Graphics/SVG/1.1/DTD/svg11.dtd"><svg width="100%" height="100%" viewBox="0 0 89 89" version="1.1" xmlns="http://www.w3.org/2000/svg" xmlns:xlink="http://www.w3.org/1999/xlink" xml:space="preserve" xmlns:serif="http://www.serif.com/" style="fill-rule:evenodd;clip-rule:evenodd;stroke-linejoin:round;stroke-miterlimit:2;"><g><rect x="0" y="0" width="88.08" height="88.08" style="fill:#f2f2f2;"/><path d="M88.08,0l-88.08,0l0,88.08l88.08,0l0,-88.08Zm-0.4,0.4l-0,87.28c0,-0 -87.28,-0 -87.28,-0c0,0 0,-87.28 0,-87.28l87.28,-0Z"/><path d="M44.04,64.354l9.717,-5.681c-2.796,-1.661 -5.591,-3.321 -8.386,-4.982l0.017,-4.533c5.503,3.184 11.007,6.368 16.51,9.552l-13.804,8.014l3.336,1.95c4.867,-2.824 9.734,-5.649 14.602,-8.474c1.46,0.83 2.921,1.66 4.381,2.49c-6.247,3.606 -12.494,7.212 -18.741,10.818l-7.632,-4.431l-7.632,4.431c-6.247,-3.606 -12.494,-7.212 -18.741,-10.818c1.46,-0.83 2.921,-1.66 4.381,-2.49c4.868,2.825 9.735,5.65 14.602,8.474l3.336,-1.95l-13.804,-8.014c5.503,-3.184 11.007,-6.368 16.51,-9.552l0.017,4.533c-2.795,1.661 -5.59,3.321 -8.386,4.982l9.717,5.681Zm-20.126,-30.136l-0.021,-8.825c6.246,-3.607 12.493,-7.214 18.739,-10.821c-0.011,1.679 -0.023,3.359 -0.035,5.039c-4.879,2.803 -9.759,5.606 -14.639,8.409l0.021,3.864l13.843,-7.948c0.005,6.358 0.011,12.716 0.016,19.074l-3.933,-2.252c-0.041,-3.251 -0.082,-6.502 -0.122,-9.753l-9.778,5.575l0.061,11.255c2.836,-1.59 5.672,-3.181 8.507,-4.771c1.306,0.76 2.612,1.52 3.918,2.281c-5.509,3.174 -11.018,6.348 -16.528,9.522l-0.038,-15.961l-3.357,1.913c0.013,5.628 0.025,11.255 0.038,16.883c-1.449,0.85 -2.898,1.7 -4.347,2.55c0,-7.213 0.001,-14.427 0.001,-21.64l7.654,-4.394Zm36.187,-2.334l0.021,-3.864c-4.88,-2.803 -9.76,-5.606 -14.639,-8.409c-0.012,-1.68 -0.024,-3.36 -0.035,-5.039c6.246,3.607 12.493,7.214 18.739,10.821l-0.021,8.825l7.654,4.394c0,7.213 0.001,14.427 0.001,21.64c-1.449,-0.85 -2.898,-1.7 -4.347,-2.55c0.013,-5.628 0.025,-11.255 0.038,-16.883l-3.357,-1.913l-0.038,15.961c-5.51,-3.174 -11.019,-6.348 -16.528,-9.522l3.918,-2.281l8.507,4.771l0.061,-11.255l-9.778,-5.575c-0.04,3.251 -0.081,6.502 -0.122,9.753l-3.933,2.252c0.005,-6.358 0.011,-12.716 0.016,-19.074l13.843,7.948Z" style="fill:url(#_Linear1);fill-rule:nonzero;"/></g><defs><linearGradient id="_Linear1" x1="0" y1="0" x2="1" y2="0" gradientUnits="userSpaceOnUse" gradientTransform="matrix(-19.5928,-42.1486,42.1486,-19.5928,198.299,211.366)"><stop offset="0" style="stop-color:#000;stop-opacity:1"/><stop offset="1" style="stop-color:#000;stop-opacity:1"/></linearGradient></defs></svg>