<?xml version="1.0" encoding="UTF-8" standalone="no"?><!DOCTYPE svg PUBLIC "-//W3C//DTD SVG 1.1//EN" "http://www.w3.org/Graphics/SVG/1.1/DTD/svg11.dtd"><svg width="100%" height="100%" viewBox="0 0 89 89" version="1.1" xmlns="http://www.w3.org/2000/svg" xmlns:xlink="http://www.w3.org/1999/xlink" xml:space="preserve" xmlns:serif="http://www.serif.com/" style="fill-rule:evenodd;clip-rule:evenodd;stroke-linejoin:round;stroke-miterlimit:2;"><g><rect x="0" y="0" width="88.08" height="88.08" style="fill:#f2f2f2;"/><path d="M88.08,0l-88.08,0l0,88.08l88.08,0l0,-88.08Zm-0.4,0.4l-0,87.28c0,-0 -87.28,-0 -87.28,-0c0,0 0,-87.28 0,-87.28l87.28,-0Z"/><g><path d="M61.874,66.511c-0.011,-3.982 -0.022,-7.964 -0.034,-11.946c3.472,1.9 6.943,3.801 10.414,5.701c0.045,-3.091 0.089,-6.183 0.133,-9.274c-6.072,-3.49 -12.144,-6.979 -18.216,-10.469c0.033,10.157 0.066,20.313 0.098,30.469c2.535,-1.493 5.07,-2.987 7.605,-4.481Z" style="fill:url(#_Linear1);fill-rule:nonzero;"/><path d="M33.496,70.72c3.443,-2 6.886,-4.001 10.329,-6.002c0.09,3.956 0.18,7.913 0.27,11.869c2.699,-1.507 5.399,-3.014 8.098,-4.521c-0.014,-7.004 -0.028,-14.007 -0.042,-21.01c-8.779,5.106 -17.558,10.212 -26.338,15.319c2.561,1.448 5.122,2.897 7.683,4.345Z" style="fill:url(#_Linear2);fill-rule:nonzero;"/><path d="M15.662,48.249c3.454,1.981 6.909,3.963 10.363,5.944c-3.382,2.056 -6.763,4.112 -10.144,6.168c2.655,1.584 5.31,3.168 7.965,4.753c6.058,-3.514 12.116,-7.028 18.174,-10.542c-8.812,-5.05 -17.624,-10.1 -26.436,-15.149c0.026,2.942 0.052,5.884 0.078,8.826Z" style="fill:url(#_Linear3);fill-rule:nonzero;"/><path d="M26.206,21.569c0.011,3.982 0.022,7.964 0.034,11.946c-3.472,-1.9 -6.943,-3.801 -10.414,-5.701c-0.045,3.091 -0.089,6.183 -0.133,9.274c6.072,3.49 12.144,6.979 18.216,10.469c-0.033,-10.157 -0.066,-20.313 -0.098,-30.469c-2.535,1.493 -5.07,2.987 -7.605,4.481Z" style="fill:url(#_Linear4);fill-rule:nonzero;"/><path d="M72.418,39.831c-3.454,-1.981 -6.909,-3.963 -10.363,-5.944c3.382,-2.056 6.763,-4.112 10.144,-6.168c-2.655,-1.584 -5.31,-3.168 -7.965,-4.753c-6.058,3.514 -12.116,7.028 -18.174,10.542c8.812,5.05 17.624,10.1 26.436,15.149c-0.026,-2.942 -0.052,-5.884 -0.078,-8.826Z" style="fill:url(#_Linear5);fill-rule:nonzero;"/><path d="M54.584,17.36c-3.443,2 -6.886,4.001 -10.329,6.002c-0.09,-3.956 -0.18,-7.913 -0.27,-11.869c-2.699,1.507 -5.399,3.014 -8.098,4.521c0.014,7.004 0.028,14.007 0.042,21.01c8.779,-5.106 17.558,-10.212 26.338,-15.319c-2.561,-1.448 -5.122,-2.897 -7.683,-4.345Z" style="fill:url(#_Linear6);fill-rule:nonzero;"/></g></g><defs><linearGradient id="_Linear1" x1="0" y1="0" x2="1" y2="0" gradientUnits="userSpaceOnUse" gradientTransform="matrix(-87.4966,7.76059,-7.76059,-87.4966,123.436,70.6108)"><stop offset="0" style="stop-color:#000;stop-opacity:1"/><stop offset="1" style="stop-color:#000;stop-opacity:1"/></linearGradient><linearGradient id="_Linear2" x1="0" y1="0" x2="1" y2="0" gradientUnits="userSpaceOnUse" gradientTransform="matrix(-50.4692,-71.894,71.894,-50.4692,60.7268,126.084)"><stop offset="0" style="stop-color:#000;stop-opacity:1"/><stop offset="1" style="stop-color:#000;stop-opacity:1"/></linearGradient><linearGradient id="_Linear3" x1="0" y1="0" x2="1" y2="0" gradientUnits="userSpaceOnUse" gradientTransform="matrix(37.0275,-79.6546,79.6546,37.0275,-18.6687,99.5132)"><stop offset="0" style="stop-color:#000;stop-opacity:1"/><stop offset="1" style="stop-color:#000;stop-opacity:1"/></linearGradient><linearGradient id="_Linear4" x1="0" y1="0" x2="1" y2="0" gradientUnits="userSpaceOnUse" gradientTransform="matrix(87.4966,-7.76059,7.76059,87.4966,-35.3555,17.4692)"><stop offset="0" style="stop-color:#000;stop-opacity:1"/><stop offset="1" style="stop-color:#000;stop-opacity:1"/></linearGradient><linearGradient id="_Linear5" x1="0" y1="0" x2="1" y2="0" gradientUnits="userSpaceOnUse" gradientTransform="matrix(-37.0275,79.6546,-79.6546,-37.0275,106.749,-11.4332)"><stop offset="0" style="stop-color:#000;stop-opacity:1"/><stop offset="1" style="stop-color:#000;stop-opacity:1"/></linearGradient><linearGradient id="_Linear6" x1="0" y1="0" x2="1" y2="0" gradientUnits="userSpaceOnUse" gradientTransform="matrix(50.4692,71.894,-71.894,50.4692,27.3532,-38.0039)"><stop offset="0" style="stop-color:#000;stop-opacity:1"/><stop offset="1" style="stop-color:#000;stop-opacity:1"/></linearGradient></defs></svg>