<?xml version="1.0" encoding="UTF-8" standalone="no"?><!DOCTYPE svg PUBLIC "-//W3C//DTD SVG 1.1//EN" "http://www.w3.org/Graphics/SVG/1.1/DTD/svg11.dtd"><svg width="100%" height="100%" viewBox="0 0 89 89" version="1.1" xmlns="http://www.w3.org/2000/svg" xmlns:xlink="http://www.w3.org/1999/xlink" xml:space="preserve" xmlns:serif="http://www.serif.com/" style="fill-rule:evenodd;clip-rule:evenodd;stroke-linejoin:round;stroke-miterlimit:2;"><g><rect x="0" y="0" width="88.08" height="88.08" style="fill:#f2f2f2;"/><path d="M88.08,0l-88.08,0l0,88.08l88.08,0l0,-88.08Zm-0.45,0.45l0,87.18c-0,0 -87.18,0 -87.18,0c-0,-0 -0,-87.18 -0,-87.18l87.18,0Z"/><path d="M29.261,39.966l-11.66,6.629c-0.015,0.008 -0.029,0.017 -0.044,0.026c-2.46,1.529 -3.523,3.657 -3.233,6.361c0.076,3.855 0.152,7.712 0.229,11.569c0.006,0.305 0.117,0.583 0.297,0.801c0.099,0.265 0.284,0.5 0.545,0.658c3.302,1.994 6.604,3.989 9.906,5.983c2.196,1.602 4.57,1.746 7.124,0.38c0.015,-0.008 0.03,-0.016 0.044,-0.025l11.571,-6.784l11.571,6.784c0.014,0.009 0.029,0.017 0.044,0.025c2.554,1.366 4.928,1.222 7.125,-0.38c3.301,-1.994 6.603,-3.989 9.905,-5.983c0.261,-0.158 0.446,-0.393 0.545,-0.658c0.18,-0.218 0.291,-0.496 0.297,-0.801c0.077,-3.857 0.153,-7.714 0.229,-11.571c0.29,-2.702 -0.773,-4.83 -3.233,-6.359c-0.015,-0.009 -0.029,-0.018 -0.044,-0.026l-11.66,-6.629l0.089,-13.412c0.001,-0.017 0,-0.034 0,-0.051c-0.094,-2.895 -1.406,-4.879 -3.892,-5.98c-3.377,-1.862 -6.755,-3.724 -10.134,-5.587c-0.267,-0.147 -0.563,-0.19 -0.842,-0.142c-0.279,-0.048 -0.575,-0.005 -0.842,0.142c-3.379,1.863 -6.757,3.725 -10.135,5.588c-2.486,1.1 -3.797,3.084 -3.891,5.979c0,0.017 -0.001,0.034 -0.001,0.051l0.09,13.412Zm29.538,2.972l-0.034,5.177c-0.009,2.683 -1.333,4.708 -4.059,6.015c-0.165,0.08 -0.336,0.156 -0.514,0.23c0.025,0.191 0.044,0.378 0.058,0.561c0.23,3.014 -0.861,5.173 -3.177,6.52l-4.469,2.62c3.433,2.013 6.866,4.026 10.302,6.039c1.57,0.83 3.031,0.771 4.38,-0.228c0.033,-0.025 0.067,-0.047 0.102,-0.068l9.555,-5.772l0.221,-11.162c0.001,-0.04 0.004,-0.081 0.008,-0.122c0.191,-1.67 -0.49,-2.966 -1.998,-3.911l-10.375,-5.899Zm-29.518,0.001c-4.995,2.839 -10.378,5.899 -10.381,5.901c-1.504,0.945 -2.183,2.24 -1.992,3.908c0.004,0.041 0.007,0.082 0.008,0.122l0.22,11.162l9.556,5.772c0.035,0.021 0.069,0.043 0.102,0.068c1.351,1 2.814,1.059 4.386,0.225l10.296,-6.036l-4.465,-2.618c-2.32,-1.349 -3.412,-3.508 -3.181,-6.522c0.014,-0.183 0.033,-0.37 0.058,-0.561c-0.178,-0.074 -0.349,-0.15 -0.515,-0.23c-2.725,-1.307 -4.049,-3.332 -4.058,-6.011l-0.034,-5.18Zm22.384,12.199c-2.019,0.448 -4.506,0.663 -7.462,0.625c-0.055,-0.001 -0.11,-0.005 -0.163,-0.012c-0.054,0.007 -0.108,0.011 -0.163,0.012c-2.956,0.038 -5.443,-0.177 -7.463,-0.625c-0.137,1.86 0.466,3.229 1.9,4.063c0.002,0.001 0.003,0.002 0.004,0.002l5.722,3.355l5.725,-3.357c1.435,-0.834 2.038,-2.203 1.9,-4.063Zm-7.625,-14.852c-1.286,1.39 -2.596,3.297 -3.947,5.708c-0.032,0.058 -0.069,0.112 -0.109,0.164c-0.024,0.06 -0.053,0.118 -0.087,0.176c-1.412,2.375 -2.409,4.463 -2.97,6.272c1.847,0.418 4.154,0.599 6.917,0.564c0.066,-0.001 0.132,0.003 0.196,0.012c0.064,-0.009 0.13,-0.013 0.196,-0.012c2.763,0.035 5.07,-0.146 6.917,-0.564c-0.561,-1.809 -1.558,-3.897 -2.97,-6.272c-0.034,-0.058 -0.063,-0.116 -0.087,-0.176c-0.04,-0.052 -0.077,-0.106 -0.109,-0.164c-1.352,-2.411 -2.661,-4.318 -3.947,-5.708Zm-1.937,-1.71c-1.542,-1.049 -3.029,-1.212 -4.469,-0.386c-0.001,0 -0.002,0.001 -0.004,0.002l-5.765,3.278l0.044,6.636c0.005,1.66 0.889,2.866 2.569,3.677c0.622,-1.973 1.679,-4.233 3.189,-6.774c0.029,-0.048 0.06,-0.093 0.093,-0.136c0.02,-0.05 0.044,-0.099 0.071,-0.148c1.445,-2.578 2.875,-4.624 4.272,-6.149Zm14.112,2.894l-5.769,-3.28c-1.44,-0.826 -2.927,-0.663 -4.469,0.386c1.397,1.525 2.827,3.571 4.272,6.149c0.027,0.049 0.051,0.098 0.071,0.148c0.033,0.043 0.064,0.088 0.093,0.136c1.51,2.541 2.567,4.801 3.189,6.774c1.68,-0.811 2.564,-2.017 2.569,-3.677l0,-0.004l0.044,-6.632Zm-12.175,-24.036l-9.777,5.389c-0.035,0.02 -0.072,0.038 -0.109,0.054c-1.543,0.67 -2.324,1.908 -2.389,3.686l0.08,11.934l4.5,-2.558c2.328,-1.334 4.744,-1.199 7.239,0.507c0.151,0.104 0.303,0.214 0.456,0.33c0.153,-0.116 0.305,-0.226 0.456,-0.33c2.495,-1.706 4.911,-1.841 7.235,-0.509l4.504,2.56c0.027,-3.979 0.053,-7.959 0.079,-11.941c-0.066,-1.774 -0.848,-3.01 -2.388,-3.679c-0.037,-0.016 -0.074,-0.034 -0.109,-0.054l-9.777,-5.389Z"/></g></svg>