<?xml version="1.0" encoding="UTF-8" standalone="no"?><!DOCTYPE svg PUBLIC "-//W3C//DTD SVG 1.1//EN" "http://www.w3.org/Graphics/SVG/1.1/DTD/svg11.dtd"><svg width="100%" height="100%" viewBox="0 0 89 89" version="1.1" xmlns="http://www.w3.org/2000/svg" xmlns:xlink="http://www.w3.org/1999/xlink" xml:space="preserve" xmlns:serif="http://www.serif.com/" style="fill-rule:evenodd;clip-rule:evenodd;stroke-linejoin:round;stroke-miterlimit:2;"><g><rect x="0" y="0" width="88.08" height="88.08" style="fill:#f2f2f2;"/><path d="M88.08,0l-88.08,0l0,88.08l88.08,0l0,-88.08Zm-0.4,0.4l-0,87.28c0,-0 -87.28,-0 -87.28,-0c0,0 0,-87.28 0,-87.28l87.28,-0Z"/><path d="M44.04,14.327c-2.307,-1.574 -4.788,-2.395 -7.43,-2.483l-0.087,2.594c1.908,0.064 3.699,0.604 5.383,1.608c-1.183,1.106 -2.314,2.433 -3.39,3.985l-0.724,1.041l4.045,2.949l-6.584,4.799l-7.449,3.302l-0.531,-4.976l-1.264,0.105c-1.881,0.157 -3.596,0.473 -5.146,0.944c-0.027,-1.96 0.401,-3.782 1.3,-5.465l-2.29,-1.222c-1.245,2.332 -1.775,4.891 -1.565,7.676c-2.517,1.21 -4.468,2.949 -5.865,5.193l2.203,1.372c1.009,-1.62 2.372,-2.901 4.083,-3.858c0.367,1.578 0.951,3.221 1.756,4.929l0.541,1.147l4.575,-2.029l0.865,8.102l-0.865,8.102l-4.575,-2.029l-0.541,1.147c-0.805,1.708 -1.389,3.351 -1.756,4.929c-1.711,-0.957 -3.074,-2.238 -4.083,-3.858l-2.203,1.372c1.397,2.244 3.348,3.983 5.865,5.193c-0.21,2.785 0.32,5.344 1.565,7.676l2.29,-1.222c-0.899,-1.683 -1.327,-3.505 -1.3,-5.465c1.55,0.471 3.265,0.787 5.146,0.944l1.264,0.105l0.531,-4.976l7.449,3.302l6.584,4.799l-4.045,2.949l0.724,1.041c1.076,1.552 2.207,2.879 3.39,3.985c-1.684,1.004 -3.475,1.544 -5.383,1.608l0.087,2.594c2.642,-0.088 5.123,-0.909 7.43,-2.483c2.307,1.574 4.788,2.395 7.43,2.483l0.087,-2.594c-1.908,-0.064 -3.699,-0.604 -5.383,-1.608c1.183,-1.106 2.314,-2.433 3.39,-3.985l0.724,-1.041l-4.045,-2.949l6.584,-4.799l7.449,-3.302l0.531,4.976l1.264,-0.105c1.881,-0.157 3.596,-0.473 5.146,-0.944c0.027,1.96 -0.401,3.782 -1.3,5.465l2.29,1.222c1.245,-2.332 1.775,-4.891 1.565,-7.676c2.517,-1.21 4.468,-2.949 5.865,-5.193l-2.203,-1.372c-1.009,1.62 -2.372,2.901 -4.083,3.858c-0.367,-1.578 -0.951,-3.221 -1.756,-4.929l-0.541,-1.147l-4.575,2.029l-0.865,-8.102l0.865,-8.102l4.575,2.029l0.541,-1.147c0.805,-1.708 1.389,-3.351 1.756,-4.929c1.711,0.957 3.074,2.238 4.083,3.858l2.203,-1.372c-1.397,-2.244 -3.348,-3.983 -5.865,-5.193c0.21,-2.785 -0.32,-5.344 -1.565,-7.676l-2.29,1.222c0.899,1.683 1.327,3.505 1.3,5.465c-1.55,-0.471 -3.265,-0.787 -5.146,-0.944l-1.264,-0.105l-0.531,4.976l-7.449,-3.302l-6.584,-4.799l4.045,-2.949l-0.724,-1.041c-1.076,-1.552 -2.207,-2.879 -3.39,-3.985c1.684,-1.004 3.475,-1.544 5.383,-1.608l-0.087,-2.594c-2.642,0.088 -5.123,0.909 -7.43,2.483Zm0,51.338l-2.645,1.929c0.848,1.106 1.729,2.064 2.645,2.872c0.916,-0.808 1.797,-1.766 2.645,-2.872l-2.645,-1.929Zm0,-40.038l-4.046,2.949c1.306,0.746 2.611,1.492 3.916,2.237l-1.288,2.254l-7.338,-4.193l-0.038,8.451l-2.595,-0.011l0.02,-4.51l-4.577,2.029l0.531,4.979c1.298,-0.758 2.597,-1.515 3.895,-2.273l1.308,2.243l-7.3,4.258l7.3,4.258l-1.308,2.243c-1.298,-0.758 -2.597,-1.515 -3.895,-2.273l-0.531,4.979l4.577,2.029l-0.02,-4.51l2.595,-0.011l0.038,8.451l7.338,-4.193l1.288,2.254c-1.305,0.745 -2.61,1.491 -3.916,2.237l4.046,2.949l4.046,-2.949c-1.306,-0.746 -2.611,-1.492 -3.916,-2.237l1.288,-2.254l7.338,4.193l0.038,-8.451l2.595,0.011l-0.02,4.51l4.577,-2.029l-0.531,-4.979c-1.298,0.758 -2.597,1.515 -3.895,2.273l-1.308,-2.243l7.3,-4.258l-7.3,-4.258l1.308,-2.243c1.298,0.758 2.597,1.515 3.895,2.273l0.531,-4.979l-4.577,-2.029l0.02,4.51l-2.595,0.011l-0.038,-8.451l-7.338,4.193l-1.288,-2.254c1.305,-0.745 2.61,-1.491 3.916,-2.237l-4.046,-2.949Zm18.728,29.226l0.348,3.255c1.382,-0.182 2.652,-0.466 3.809,-0.855c-0.241,-1.197 -0.63,-2.439 -1.164,-3.727l-2.993,1.327Zm-37.456,0l-2.993,-1.327c-0.534,1.288 -0.923,2.53 -1.164,3.727c1.157,0.389 2.427,0.673 3.809,0.855l0.348,-3.255Zm37.456,-21.626l2.993,1.327c0.534,-1.288 0.923,-2.53 1.164,-3.727c-1.157,-0.389 -2.427,-0.673 -3.809,-0.855l-0.348,3.255Zm-37.456,0l-0.348,-3.255c-1.382,0.182 -2.652,0.466 -3.809,0.855c0.241,1.197 0.63,2.439 1.164,3.727l2.993,-1.327Zm18.728,-15.613c-0.916,0.808 -1.797,1.766 -2.645,2.872l2.645,1.929l2.645,-1.929c-0.848,-1.106 -1.729,-2.064 -2.645,-2.872Z" style="fill:url(#_Linear1);"/></g><defs><linearGradient id="_Linear1" x1="0" y1="0" x2="1" y2="0" gradientUnits="userSpaceOnUse" gradientTransform="matrix(20.3717,4.88251,-4.88251,20.3717,169.145,157.346)"><stop offset="0" style="stop-color:#000;stop-opacity:1"/><stop offset="1" style="stop-color:#000;stop-opacity:1"/></linearGradient></defs></svg>