<?xml version="1.0" encoding="UTF-8" standalone="no"?><!DOCTYPE svg PUBLIC "-//W3C//DTD SVG 1.1//EN" "http://www.w3.org/Graphics/SVG/1.1/DTD/svg11.dtd"><svg width="100%" height="100%" viewBox="0 0 89 89" version="1.1" xmlns="http://www.w3.org/2000/svg" xmlns:xlink="http://www.w3.org/1999/xlink" xml:space="preserve" xmlns:serif="http://www.serif.com/" style="fill-rule:evenodd;clip-rule:evenodd;stroke-linejoin:round;stroke-miterlimit:2;"><g><rect x="0" y="0" width="88.08" height="88.08" style="fill:#f2f2f2;"/><path d="M88.08,0l-88.08,0l0,88.08l88.08,0l0,-88.08Zm-0.45,0.45l0,87.18l-87.18,0l0,-87.18l87.18,0Z"/><g><path d="M43.009,11.629c-0.015,2.915 -0.031,5.831 -0.046,8.747c-2.508,2.468 -5.017,4.936 -7.525,7.405c-2.855,-0.008 -5.71,-0.016 -8.565,-0.024c5.378,-5.376 10.757,-10.752 16.136,-16.128Z" style="fill:url(#_Linear1);fill-rule:nonzero;"/><path d="M20.393,21.851c2.051,2.072 4.101,4.145 6.152,6.218c-0.028,3.519 -0.056,7.037 -0.085,10.556c-2.024,2.014 -4.049,4.027 -6.073,6.04c0.002,-7.605 0.004,-15.209 0.006,-22.814Z" style="fill:url(#_Linear2);fill-rule:nonzero;"/><path d="M11.629,45.071c2.915,0.015 5.831,0.031 8.747,0.046c2.468,2.508 4.936,5.017 7.405,7.525c-0.008,2.855 -0.016,5.71 -0.024,8.565c-5.376,-5.378 -10.752,-10.757 -16.128,-16.136Z" style="fill:url(#_Linear3);fill-rule:nonzero;"/><path d="M21.851,67.687c2.072,-2.051 4.145,-4.101 6.218,-6.152c3.519,0.028 7.037,0.056 10.556,0.085c2.014,2.024 4.027,4.049 6.04,6.073c-7.605,-0.002 -15.209,-0.004 -22.814,-0.006Z" style="fill:url(#_Linear4);fill-rule:nonzero;"/><path d="M45.071,76.451c0.015,-2.915 0.031,-5.831 0.046,-8.747c2.508,-2.468 5.017,-4.936 7.525,-7.405c2.855,0.008 5.71,0.016 8.565,0.024c-5.378,5.376 -10.757,10.752 -16.136,16.128Z" style="fill:url(#_Linear5);fill-rule:nonzero;"/><path d="M67.687,66.229c-2.051,-2.072 -4.101,-4.145 -6.152,-6.218c0.028,-3.519 0.056,-7.037 0.085,-10.556c2.024,-2.014 4.049,-4.027 6.073,-6.04c-0.002,7.605 -0.004,15.209 -0.006,22.814Z" style="fill:url(#_Linear6);fill-rule:nonzero;"/><path d="M76.451,43.009c-2.915,-0.015 -5.831,-0.031 -8.747,-0.046c-2.468,-2.508 -4.936,-5.017 -7.405,-7.525c0.008,-2.855 0.016,-5.71 0.024,-8.565c5.376,5.378 10.752,10.757 16.128,16.136Z" style="fill:url(#_Linear7);fill-rule:nonzero;"/><path d="M66.229,20.393c-2.072,2.051 -4.145,4.101 -6.218,6.152c-3.519,-0.028 -7.037,-0.056 -10.556,-0.085c-2.014,-2.024 -4.027,-4.049 -6.04,-6.073c7.605,0.002 15.209,0.004 22.814,0.006Z" style="fill:url(#_Linear8);fill-rule:nonzero;"/><path d="M43.319,20.025l0,-8.629c2.877,2.89 5.755,5.78 8.633,8.671c-2.878,-0.014 -5.756,-0.028 -8.633,-0.042Z" style="fill:#bfbfbf;fill-rule:nonzero;"/><path d="M26.549,27.569c-2.034,-2.034 -4.068,-4.068 -6.102,-6.102c4.079,0.009 8.157,0.018 12.236,0.027c-2.045,2.025 -4.09,4.05 -6.134,6.075Z" style="fill:#bfbfbf;fill-rule:nonzero;"/><path d="M20.025,44.761l-8.629,0c2.89,-2.877 5.78,-5.755 8.671,-8.633c-0.014,2.878 -0.028,5.756 -0.042,8.633Z" style="fill:#bfbfbf;fill-rule:nonzero;"/><path d="M27.569,61.531c-2.034,2.034 -4.068,4.068 -6.102,6.102c0.009,-4.079 0.018,-8.157 0.027,-12.236c2.025,2.045 4.05,4.09 6.075,6.134Z" style="fill:#bfbfbf;fill-rule:nonzero;"/><path d="M44.761,68.055l0,8.629c-2.877,-2.89 -5.755,-5.78 -8.633,-8.671c2.878,0.014 5.756,0.028 8.633,0.042Z" style="fill:#bfbfbf;fill-rule:nonzero;"/><path d="M61.531,60.511c2.034,2.034 4.068,4.068 6.102,6.102c-4.079,-0.009 -8.157,-0.018 -12.236,-0.027c2.045,-2.025 4.09,-4.05 6.134,-6.075Z" style="fill:#bfbfbf;fill-rule:nonzero;"/><path d="M68.055,43.319l8.629,0c-2.89,2.877 -5.78,5.755 -8.671,8.633c0.014,-2.878 0.028,-5.756 0.042,-8.633Z" style="fill:#bfbfbf;fill-rule:nonzero;"/><path d="M60.511,26.549c2.034,-2.034 4.068,-4.068 6.102,-6.102c-0.009,4.079 -0.018,8.157 -0.027,12.236c-2.025,-2.045 -4.05,-4.09 -6.075,-6.134Z" style="fill:#bfbfbf;fill-rule:nonzero;"/></g></g><defs><linearGradient id="_Linear1" x1="0" y1="0" x2="1" y2="0" gradientUnits="userSpaceOnUse" gradientTransform="matrix(17.0662,16.9992,-16.9992,17.0662,26.4371,11.1561)"><stop offset="0" style="stop-color:#000;stop-opacity:1"/><stop offset="1" style="stop-color:#000;stop-opacity:1"/></linearGradient><linearGradient id="_Linear2" x1="0" y1="0" x2="1" y2="0" gradientUnits="userSpaceOnUse" gradientTransform="matrix(24.0879,-0.0474057,0.0474057,24.0879,8.3404,33.2347)"><stop offset="0" style="stop-color:#000;stop-opacity:1"/><stop offset="1" style="stop-color:#000;stop-opacity:1"/></linearGradient><linearGradient id="_Linear3" x1="0" y1="0" x2="1" y2="0" gradientUnits="userSpaceOnUse" gradientTransform="matrix(16.9992,-17.0662,17.0662,16.9992,11.1561,61.6429)"><stop offset="0" style="stop-color:#000;stop-opacity:1"/><stop offset="1" style="stop-color:#000;stop-opacity:1"/></linearGradient><linearGradient id="_Linear4" x1="0" y1="0" x2="1" y2="0" gradientUnits="userSpaceOnUse" gradientTransform="matrix(-0.047402,-24.0879,24.0879,-0.047402,33.2347,79.7396)"><stop offset="0" style="stop-color:#000;stop-opacity:1"/><stop offset="1" style="stop-color:#000;stop-opacity:1"/></linearGradient><linearGradient id="_Linear5" x1="0" y1="0" x2="1" y2="0" gradientUnits="userSpaceOnUse" gradientTransform="matrix(-17.0662,-16.9992,16.9992,-17.0662,61.6429,76.9239)"><stop offset="0" style="stop-color:#000;stop-opacity:1"/><stop offset="1" style="stop-color:#000;stop-opacity:1"/></linearGradient><linearGradient id="_Linear6" x1="0" y1="0" x2="1" y2="0" gradientUnits="userSpaceOnUse" gradientTransform="matrix(-24.0879,0.0474057,-0.0474057,-24.0879,79.7396,54.8453)"><stop offset="0" style="stop-color:#000;stop-opacity:1"/><stop offset="1" style="stop-color:#000;stop-opacity:1"/></linearGradient><linearGradient id="_Linear7" x1="0" y1="0" x2="1" y2="0" gradientUnits="userSpaceOnUse" gradientTransform="matrix(-16.9992,17.0662,-17.0662,-16.9992,76.9239,26.4371)"><stop offset="0" style="stop-color:#000;stop-opacity:1"/><stop offset="1" style="stop-color:#000;stop-opacity:1"/></linearGradient><linearGradient id="_Linear8" x1="0" y1="0" x2="1" y2="0" gradientUnits="userSpaceOnUse" gradientTransform="matrix(0.047402,24.0879,-24.0879,0.047402,54.8453,8.3404)"><stop offset="0" style="stop-color:#000;stop-opacity:1"/><stop offset="1" style="stop-color:#000;stop-opacity:1"/></linearGradient></defs></svg>