<?xml version="1.0" encoding="UTF-8" standalone="no"?><!DOCTYPE svg PUBLIC "-//W3C//DTD SVG 1.1//EN" "http://www.w3.org/Graphics/SVG/1.1/DTD/svg11.dtd"><svg width="100%" height="100%" viewBox="0 0 89 89" version="1.1" xmlns="http://www.w3.org/2000/svg" xmlns:xlink="http://www.w3.org/1999/xlink" xml:space="preserve" xmlns:serif="http://www.serif.com/" style="fill-rule:evenodd;clip-rule:evenodd;stroke-linejoin:round;stroke-miterlimit:2;"><g><rect x="0" y="0" width="88.08" height="88.08" style="fill:#f2f2f2;"/><path d="M88.08,0l-88.08,0l0,88.08l88.08,0l0,-88.08Zm-0.4,0.4l-0,87.28c0,-0 -87.28,-0 -87.28,-0c0,0 0,-87.28 0,-87.28l87.28,-0Z"/><g><path d="M43.726,10.999c-0.024,3.526 -0.047,7.053 -0.071,10.58c-6.287,3.759 -12.573,7.519 -18.86,11.278c6.311,-7.286 12.621,-14.572 18.931,-21.858Z" style="fill:url(#_Linear1);fill-rule:nonzero;"/><path d="M44.183,21.329c-0.013,-3.414 -0.026,-6.828 -0.039,-10.242c3.338,4.093 6.676,8.186 10.014,12.279c-3.325,-0.679 -6.65,-1.358 -9.975,-2.037Z" style="fill:url(#_Linear2);fill-rule:nonzero;"/><path d="M15.268,27.791c3.043,1.784 6.085,3.568 9.127,5.352c0.113,7.324 0.225,14.648 0.338,21.972c-3.155,-9.108 -6.31,-18.216 -9.465,-27.324Z" style="fill:url(#_Linear3);fill-rule:nonzero;"/><path d="M44.354,77.081c0.024,-3.526 0.047,-7.053 0.071,-10.58c6.287,-3.759 12.573,-7.519 18.86,-11.278c-6.311,7.286 -12.621,14.572 -18.931,21.858Z" style="fill:url(#_Linear4);fill-rule:nonzero;"/><path d="M72.498,27.247c-3.066,1.743 -6.132,3.486 -9.198,5.229c-6.4,-3.565 -12.799,-7.129 -19.198,-10.694c9.465,1.822 18.93,3.644 28.396,5.465Z" style="fill:url(#_Linear5);fill-rule:nonzero;"/><path d="M72.812,60.289c-3.043,-1.784 -6.085,-3.568 -9.127,-5.352c-0.113,-7.324 -0.225,-14.648 -0.338,-21.972c3.155,9.108 6.31,18.216 9.465,27.324Z" style="fill:url(#_Linear6);fill-rule:nonzero;"/><path d="M15.582,60.833c3.066,-1.743 6.132,-3.486 9.198,-5.229c6.4,3.565 12.799,7.129 19.198,10.694c-9.465,-1.822 -18.93,-3.644 -28.396,-5.465Z" style="fill:url(#_Linear7);fill-rule:nonzero;"/><path d="M24.3,55.272c-2.95,1.718 -5.9,3.436 -8.85,5.155c1.875,-4.938 3.751,-9.875 5.627,-14.812c1.074,3.219 2.148,6.438 3.223,9.657Z" style="fill:url(#_Linear8);fill-rule:nonzero;"/><path d="M63.78,32.808c2.95,-1.718 5.9,-3.436 8.85,-5.155c-1.875,4.938 -3.751,9.875 -5.627,14.812c-1.074,-3.219 -2.148,-6.438 -3.223,-9.657Z" style="fill:url(#_Linear9);fill-rule:nonzero;"/><path d="M24.443,32.56c-2.963,-1.695 -5.926,-3.391 -8.889,-5.087c5.213,-0.844 10.427,-1.688 15.64,-2.532c-2.25,2.54 -4.501,5.079 -6.751,7.619Z" style="fill:url(#_Linear10);fill-rule:nonzero;"/><path d="M43.897,66.751c0.013,3.414 0.026,6.828 0.039,10.242c-3.338,-4.093 -6.676,-8.186 -10.014,-12.279c3.325,0.679 6.65,1.358 9.975,2.037Z" style="fill:url(#_Linear11);fill-rule:nonzero;"/><path d="M63.637,55.52c2.963,1.695 5.926,3.391 8.889,5.087c-5.213,0.844 -10.427,1.688 -15.64,2.532c2.25,-2.54 4.501,-5.079 6.751,-7.619Z" style="fill:url(#_Linear12);fill-rule:nonzero;"/></g></g><defs><linearGradient id="_Linear1" x1="0" y1="0" x2="1" y2="0" gradientUnits="userSpaceOnUse" gradientTransform="matrix(18.428,0.665929,-0.665929,18.428,25.609,10.3392)"><stop offset="0" style="stop-color:#ebebeb;stop-opacity:1"/><stop offset="1" style="stop-color:#000;stop-opacity:1"/></linearGradient><linearGradient id="_Linear2" x1="0" y1="0" x2="1" y2="0" gradientUnits="userSpaceOnUse" gradientTransform="matrix(-4.66746,7.44936,-7.44936,-4.66746,56.9296,18.9413)"><stop offset="0" style="stop-color:#5e5e5e;stop-opacity:1"/><stop offset="1" style="stop-color:#ebebeb;stop-opacity:1"/></linearGradient><linearGradient id="_Linear3" x1="0" y1="0" x2="1" y2="0" gradientUnits="userSpaceOnUse" gradientTransform="matrix(9.79072,-15.6262,15.6262,9.79072,5.63879,43.1513)"><stop offset="0" style="stop-color:#ebebeb;stop-opacity:1"/><stop offset="1" style="stop-color:#000;stop-opacity:1"/></linearGradient><linearGradient id="_Linear4" x1="0" y1="0" x2="1" y2="0" gradientUnits="userSpaceOnUse" gradientTransform="matrix(-18.428,-0.665924,0.665924,-18.428,62.471,77.7408)"><stop offset="0" style="stop-color:#ebebeb;stop-opacity:1"/><stop offset="1" style="stop-color:#000;stop-opacity:1"/></linearGradient><linearGradient id="_Linear5" x1="0" y1="0" x2="1" y2="0" gradientUnits="userSpaceOnUse" gradientTransform="matrix(8.6373,16.2921,-16.2921,8.6373,64.0102,11.2279)"><stop offset="0" style="stop-color:#ebebeb;stop-opacity:1"/><stop offset="1" style="stop-color:#000;stop-opacity:1"/></linearGradient><linearGradient id="_Linear6" x1="0" y1="0" x2="1" y2="0" gradientUnits="userSpaceOnUse" gradientTransform="matrix(-9.79072,15.6262,-15.6262,-9.79072,82.4412,44.9287)"><stop offset="0" style="stop-color:#ebebeb;stop-opacity:1"/><stop offset="1" style="stop-color:#000;stop-opacity:1"/></linearGradient><linearGradient id="_Linear7" x1="0" y1="0" x2="1" y2="0" gradientUnits="userSpaceOnUse" gradientTransform="matrix(-8.6373,-16.2921,16.2921,-8.6373,24.0698,76.8521)"><stop offset="0" style="stop-color:#ebebeb;stop-opacity:1"/><stop offset="1" style="stop-color:#000;stop-opacity:1"/></linearGradient><linearGradient id="_Linear8" x1="0" y1="0" x2="1" y2="0" gradientUnits="userSpaceOnUse" gradientTransform="matrix(8.78507,0.317463,-0.317463,8.78507,15.8591,45.4267)"><stop offset="0" style="stop-color:#5e5e5e;stop-opacity:1"/><stop offset="1" style="stop-color:#ebebeb;stop-opacity:1"/></linearGradient><linearGradient id="_Linear9" x1="0" y1="0" x2="1" y2="0" gradientUnits="userSpaceOnUse" gradientTransform="matrix(-8.78506,-0.317463,0.317463,-8.78506,72.2209,42.6533)"><stop offset="0" style="stop-color:#5e5e5e;stop-opacity:1"/><stop offset="1" style="stop-color:#ebebeb;stop-opacity:1"/></linearGradient><linearGradient id="_Linear10" x1="0" y1="0" x2="1" y2="0" gradientUnits="userSpaceOnUse" gradientTransform="matrix(4.1176,7.76682,-7.76682,4.1176,28.7487,20.328)"><stop offset="0" style="stop-color:#5e5e5e;stop-opacity:1"/><stop offset="1" style="stop-color:#ebebeb;stop-opacity:1"/></linearGradient><linearGradient id="_Linear11" x1="0" y1="0" x2="1" y2="0" gradientUnits="userSpaceOnUse" gradientTransform="matrix(4.66746,-7.44936,7.44936,4.66746,31.1504,69.1387)"><stop offset="0" style="stop-color:#5e5e5e;stop-opacity:1"/><stop offset="1" style="stop-color:#ebebeb;stop-opacity:1"/></linearGradient><linearGradient id="_Linear12" x1="0" y1="0" x2="1" y2="0" gradientUnits="userSpaceOnUse" gradientTransform="matrix(-4.1176,-7.76682,7.76682,-4.1176,59.3313,67.752)"><stop offset="0" style="stop-color:#5e5e5e;stop-opacity:1"/><stop offset="1" style="stop-color:#ebebeb;stop-opacity:1"/></linearGradient></defs></svg>