<?xml version="1.0" encoding="UTF-8" standalone="no"?><!DOCTYPE svg PUBLIC "-//W3C//DTD SVG 1.1//EN" "http://www.w3.org/Graphics/SVG/1.1/DTD/svg11.dtd"><svg width="100%" height="100%" viewBox="0 0 89 89" version="1.1" xmlns="http://www.w3.org/2000/svg" xmlns:xlink="http://www.w3.org/1999/xlink" xml:space="preserve" xmlns:serif="http://www.serif.com/" style="fill-rule:evenodd;clip-rule:evenodd;stroke-linejoin:round;stroke-miterlimit:2;"><g><rect x="0" y="0" width="88.08" height="88.08" style="fill:#f2f2f2;"/><path d="M88.08,0l-88.08,0l0,88.08l88.08,0l0,-88.08Zm-0.4,0.4l-0,87.28c0,-0 -87.28,-0 -87.28,-0c0,0 0,-87.28 0,-87.28l87.28,-0Z"/><path d="M44.04,18.313l1.401,-2.441c6.421,3.707 12.841,7.414 19.261,11.121l-0.079,6.33l5.522,3.098l0,22.24l-2.814,-0.007l1.413,2.434c-6.42,3.707 -12.841,7.413 -19.261,11.12l-5.443,-3.234l-5.443,3.234c-6.42,-3.707 -12.841,-7.413 -19.261,-11.12l1.413,-2.434l-2.814,0.007l0,-22.24l5.522,-3.098l-0.079,-6.33c6.42,-3.707 12.84,-7.414 19.261,-11.121l1.401,2.441Zm2.094,3.647l6.721,11.704l-1.549,4.309l-7.266,-12.43l-7.266,12.43l-1.549,-4.309l6.721,-11.704l-0.73,-1.248c-4.684,2.74 -9.368,5.481 -14.051,8.221l0.005,2.308l10.729,-6.018c-1.174,2.038 -2.349,4.077 -3.523,6.116l-7.197,4.134l0.019,8.299c-1.179,2.036 -2.357,4.073 -3.536,6.109l-0.152,-12.301l-2.001,1.15c-0.032,5.426 -0.063,10.852 -0.095,16.279l1.446,0.008l6.776,-11.673l4.506,-0.813l-7.132,12.508l14.398,0.078l-2.957,3.496l-13.496,0.031l-0.717,1.257c4.716,2.686 9.431,5.372 14.146,8.058l1.996,-1.159l-10.576,-6.282c2.352,-0.003 4.705,-0.005 7.058,-0.008l7.178,4.166l7.178,-4.166c2.353,0.003 4.706,0.005 7.058,0.008l-10.576,6.282l1.996,1.159c4.715,-2.686 9.43,-5.372 14.146,-8.058l-0.717,-1.257l-13.496,-0.031l-2.957,-3.496l14.398,-0.078l-7.132,-12.508l4.506,0.813l6.776,11.673l1.446,-0.008c-0.032,-5.427 -0.063,-10.853 -0.095,-16.279l-2.001,-1.15l-0.152,12.301c-1.179,-2.036 -2.357,-4.073 -3.536,-6.109l0.019,-8.299l-7.197,-4.134c-1.174,-2.039 -2.349,-4.078 -3.523,-6.116l10.729,6.018l0.005,-2.308c-4.683,-2.74 -9.367,-5.481 -14.051,-8.221l-0.73,1.248Z" style="fill:url(#_Linear1);fill-rule:nonzero;"/></g><defs><linearGradient id="_Linear1" x1="0" y1="0" x2="1" y2="0" gradientUnits="userSpaceOnUse" gradientTransform="matrix(-13.8688,-51.4455,51.4455,-13.8688,177.608,187.815)"><stop offset="0" style="stop-color:#000;stop-opacity:1"/><stop offset="1" style="stop-color:#000;stop-opacity:1"/></linearGradient></defs></svg>