<?xml version="1.0" encoding="UTF-8" standalone="no"?><!DOCTYPE svg PUBLIC "-//W3C//DTD SVG 1.1//EN" "http://www.w3.org/Graphics/SVG/1.1/DTD/svg11.dtd"><svg width="100%" height="100%" viewBox="0 0 89 89" version="1.1" xmlns="http://www.w3.org/2000/svg" xmlns:xlink="http://www.w3.org/1999/xlink" xml:space="preserve" xmlns:serif="http://www.serif.com/" style="fill-rule:evenodd;clip-rule:evenodd;stroke-linejoin:round;stroke-miterlimit:2;"><g><rect x="0" y="0" width="88.08" height="88.08" style="fill:#f2f2f2;"/><path d="M88.08,0l-88.08,0l0,88.08l88.08,0l0,-88.08Zm-0.45,0.45l0,87.18c-0,0 -87.18,0 -87.18,0c-0,-0 -0,-87.18 -0,-87.18l87.18,0Z"/><path d="M49.871,62.561c-0.034,2.077 -0.069,4.153 -0.103,6.23c-3.993,-0.068 -7.985,-0.136 -11.978,-0.204c-0.004,-6.734 -0.008,-13.467 -0.012,-20.201c0,-0.476 -0.251,-0.918 -0.66,-1.163c-0.972,-0.581 -1.944,-1.163 -2.916,-1.745c-0.642,-0.384 -1.476,-0.175 -1.86,0.467c-0.384,0.642 -0.175,1.476 0.467,1.86c0.753,0.451 1.505,0.901 2.257,1.351c0.004,6.922 0.008,13.843 0.012,20.765c0.001,0.74 0.594,1.343 1.333,1.355c4.889,0.084 9.779,0.167 14.668,0.25c0.36,0.006 0.707,-0.131 0.966,-0.381c0.258,-0.25 0.407,-0.593 0.413,-0.953c0.042,-2.528 0.083,-5.057 0.125,-7.586c0.012,-0.748 -0.585,-1.366 -1.334,-1.378c-0.748,-0.013 -1.366,0.585 -1.378,1.333Zm13.124,-14.31c1.782,1.068 3.563,2.136 5.344,3.204c-2.055,3.424 -4.111,6.848 -6.166,10.271c-5.833,-3.363 -11.667,-6.726 -17.5,-10.09c-0.413,-0.238 -0.921,-0.242 -1.337,-0.01c-0.99,0.551 -1.98,1.102 -2.97,1.653c-0.654,0.364 -0.889,1.19 -0.525,1.844c0.364,0.654 1.19,0.89 1.844,0.526l2.299,-1.279c5.996,3.457 11.992,6.914 17.989,10.372c0.64,0.369 1.459,0.157 1.84,-0.477c2.517,-4.193 5.033,-8.385 7.55,-12.578c0.185,-0.308 0.24,-0.678 0.153,-1.027c-0.087,-0.349 -0.31,-0.649 -0.618,-0.834c-2.17,-1.3 -4.339,-2.601 -6.508,-3.901c-0.642,-0.385 -1.476,-0.176 -1.86,0.466c-0.385,0.641 -0.177,1.475 0.465,1.86Zm-32.08,10.099c-1.815,1.009 -3.63,2.018 -5.446,3.026c-1.937,-3.492 -3.875,-6.984 -5.812,-10.475c5.829,-3.371 11.659,-6.741 17.488,-10.111c0.413,-0.239 0.67,-0.676 0.677,-1.153c0.018,-1.132 0.036,-2.265 0.054,-3.398c0.012,-0.748 -0.586,-1.365 -1.335,-1.377c-0.748,-0.012 -1.365,0.586 -1.377,1.335c-0.014,0.876 -0.028,1.753 -0.042,2.629c-5.992,3.465 -11.984,6.929 -17.977,10.393c-0.64,0.37 -0.866,1.186 -0.507,1.832c2.373,4.276 4.745,8.552 7.118,12.828c0.174,0.314 0.467,0.547 0.813,0.646c0.346,0.099 0.717,0.056 1.031,-0.119c2.211,-1.228 4.422,-2.456 6.633,-3.685c0.654,-0.363 0.89,-1.19 0.527,-1.844c-0.364,-0.654 -1.19,-0.89 -1.845,-0.527Zm26.25,-28.62c1.815,-1.009 3.63,-2.018 5.446,-3.026c1.937,3.492 3.875,6.984 5.812,10.475c-5.829,3.371 -11.659,6.741 -17.488,10.111c-0.413,0.239 -0.67,0.676 -0.677,1.153c-0.018,1.132 -0.036,2.265 -0.054,3.398c-0.012,0.748 0.586,1.365 1.335,1.377c0.748,0.012 1.365,-0.586 1.377,-1.335c0.014,-0.876 0.028,-1.753 0.042,-2.629c5.992,-3.465 11.984,-6.929 17.977,-10.393c0.64,-0.37 0.866,-1.186 0.507,-1.832c-2.373,-4.276 -4.745,-8.552 -7.118,-12.828c-0.174,-0.314 -0.467,-0.547 -0.813,-0.646c-0.346,-0.099 -0.717,-0.056 -1.031,0.119c-2.211,1.228 -4.422,2.456 -6.633,3.685c-0.654,0.363 -0.89,1.19 -0.527,1.844c0.364,0.654 1.19,0.89 1.845,0.527Zm-18.956,-4.211c0.034,-2.077 0.069,-4.153 0.103,-6.23c3.993,0.068 7.985,0.136 11.978,0.204c0.004,6.734 0.008,13.467 0.012,20.201c-0,0.476 0.251,0.918 0.66,1.163c0.972,0.581 1.944,1.163 2.916,1.745c0.642,0.384 1.476,0.175 1.86,-0.467c0.384,-0.642 0.175,-1.476 -0.467,-1.86c-0.753,-0.451 -1.505,-0.901 -2.257,-1.351c-0.004,-6.922 -0.008,-13.843 -0.012,-20.765c-0.001,-0.74 -0.594,-1.343 -1.333,-1.355c-4.889,-0.084 -9.779,-0.167 -14.668,-0.25c-0.36,-0.006 -0.707,0.131 -0.966,0.381c-0.258,0.25 -0.407,0.593 -0.413,0.953c-0.042,2.528 -0.083,5.057 -0.125,7.586c-0.012,0.748 0.585,1.366 1.334,1.378c0.748,0.013 1.366,-0.585 1.378,-1.333Zm-13.124,14.31c-1.782,-1.068 -3.563,-2.136 -5.344,-3.204c2.055,-3.424 4.111,-6.848 6.166,-10.271c5.833,3.363 11.667,6.726 17.5,10.09c0.413,0.238 0.921,0.242 1.337,0.01c0.99,-0.551 1.98,-1.102 2.97,-1.653c0.654,-0.364 0.889,-1.19 0.525,-1.844c-0.364,-0.654 -1.19,-0.89 -1.844,-0.526l-2.299,1.279c-5.996,-3.457 -11.992,-6.914 -17.989,-10.372c-0.64,-0.369 -1.459,-0.157 -1.84,0.477c-2.517,4.193 -5.033,8.385 -7.55,12.578c-0.185,0.308 -0.24,0.678 -0.153,1.027c0.087,0.349 0.31,0.649 0.618,0.834c2.17,1.3 4.339,2.601 6.508,3.901c0.642,0.385 1.476,0.176 1.86,-0.465c0.385,-0.642 0.177,-1.476 -0.465,-1.861Z"/></g></svg>