<?xml version="1.0" encoding="UTF-8" standalone="no"?><!DOCTYPE svg PUBLIC "-//W3C//DTD SVG 1.1//EN" "http://www.w3.org/Graphics/SVG/1.1/DTD/svg11.dtd"><svg width="100%" height="100%" viewBox="0 0 89 89" version="1.1" xmlns="http://www.w3.org/2000/svg" xmlns:xlink="http://www.w3.org/1999/xlink" xml:space="preserve" xmlns:serif="http://www.serif.com/" style="fill-rule:evenodd;clip-rule:evenodd;stroke-linejoin:round;stroke-miterlimit:2;"><g><rect x="0" y="0" width="88.08" height="88.08" style="fill:#f2f2f2;"/><path d="M88.08,0l-88.08,0l0,88.08l88.08,0l0,-88.08Zm-0.4,0.4l-0,87.28c0,-0 -87.28,-0 -87.28,-0c0,0 0,-87.28 0,-87.28l87.28,-0Z"/><path d="M49.503,55.482c-0.547,4.016 -2.351,8.137 -5.383,12.377c-0.541,-10.032 -3.193,-17.027 -7.789,-21.041l-1.571,1.799c4.707,4.111 6.989,11.677 7.073,22.626l0.025,3.288l2.091,-2.538c4.587,-5.57 7.21,-10.974 7.92,-16.189l-2.366,-0.322Zm7.177,-10.452c3.205,2.481 5.871,6.104 8.027,10.85c-8.958,-4.547 -16.342,-5.748 -22.115,-3.775l0.772,2.26c5.914,-2.021 13.607,-0.214 23.131,5.188l2.86,1.622l-1.153,-3.079c-2.529,-6.758 -5.899,-11.732 -10.059,-14.954l-1.463,1.888Zm-19.818,9.462c-3.751,1.535 -8.222,2.032 -13.41,1.526c8.417,-5.484 13.15,-11.279 14.327,-17.265l-2.343,-0.461c-1.206,6.132 -6.618,11.891 -16.058,17.438l-2.835,1.666l3.243,0.541c7.118,1.189 13.11,0.758 17.981,-1.235l-0.905,-2.21Zm14.356,-20.904c3.751,-1.535 8.222,-2.032 13.41,-1.526c-8.417,5.484 -13.15,11.279 -14.327,17.265l2.343,0.461c1.206,-6.132 6.618,-11.891 16.058,-17.438l2.835,-1.666l-3.243,-0.541c-7.118,-1.189 -13.11,-0.758 -17.981,1.235l0.905,2.21Zm-19.818,9.462c-3.205,-2.481 -5.871,-6.104 -8.027,-10.85c8.958,4.547 16.342,5.748 22.115,3.775l-0.772,-2.26c-5.914,2.021 -13.607,0.214 -23.131,-5.188l-2.86,-1.622l1.153,3.079c2.529,6.758 5.899,11.732 10.059,14.954l1.463,-1.888Zm7.177,-10.452c0.547,-4.016 2.351,-8.137 5.383,-12.377c0.541,10.032 3.193,17.027 7.789,21.041l1.571,-1.799c-4.707,-4.111 -6.989,-11.677 -7.073,-22.626l-0.025,-3.288l-2.091,2.538c-4.587,5.57 -7.21,10.974 -7.92,16.189l2.366,0.322Z"/></g></svg>