<?xml version="1.0" encoding="UTF-8" standalone="no"?><!DOCTYPE svg PUBLIC "-//W3C//DTD SVG 1.1//EN" "http://www.w3.org/Graphics/SVG/1.1/DTD/svg11.dtd"><svg width="100%" height="100%" viewBox="0 0 89 89" version="1.1" xmlns="http://www.w3.org/2000/svg" xmlns:xlink="http://www.w3.org/1999/xlink" xml:space="preserve" xmlns:serif="http://www.serif.com/" style="fill-rule:evenodd;clip-rule:evenodd;stroke-linejoin:round;stroke-miterlimit:2;"><g><rect x="0" y="0" width="88.08" height="88.08" style="fill:#f2f2f2;"/><path d="M88.08,0l-88.08,0l0,88.08l88.08,0l0,-88.08Zm-0.45,0.45l0,87.18c-0,0 -87.18,0 -87.18,0c-0,-0 -0,-87.18 -0,-87.18l87.18,0Z"/><path d="M30.651,20.85c-1.792,0.118 -3.585,0.639 -5.245,1.598c-2.958,1.708 -4.923,4.476 -5.692,7.547c-2.276,2.202 -3.69,5.288 -3.69,8.704c0,1.917 0.445,3.73 1.238,5.341c-0.793,1.611 -1.238,3.424 -1.238,5.341c0,3.416 1.414,6.502 3.69,8.704c0.769,3.071 2.734,5.839 5.692,7.547c1.66,0.959 3.453,1.48 5.245,1.598c0.999,1.493 2.346,2.785 4.006,3.743c2.959,1.708 6.338,2.026 9.383,1.156c3.045,0.87 6.424,0.552 9.383,-1.156c1.66,-0.958 3.007,-2.25 4.006,-3.743c1.792,-0.118 3.585,-0.639 5.245,-1.598c2.958,-1.708 4.923,-4.476 5.692,-7.547c2.276,-2.202 3.69,-5.288 3.69,-8.704c-0,-1.917 -0.445,-3.73 -1.238,-5.341c0.793,-1.611 1.238,-3.424 1.238,-5.341c-0,-3.416 -1.414,-6.502 -3.69,-8.704c-0.769,-3.071 -2.734,-5.839 -5.692,-7.547c-1.66,-0.959 -3.453,-1.48 -5.245,-1.598c-0.999,-1.493 -2.346,-2.785 -4.006,-3.743c-2.959,-1.708 -6.338,-2.026 -9.383,-1.156c-3.045,-0.87 -6.424,-0.552 -9.383,1.156c-1.66,0.958 -3.007,2.25 -4.006,3.743Zm16.912,-3.244c1.448,0.991 2.701,2.313 3.636,3.933l-1.837,1.061c-1.239,-2.147 -3.155,-3.659 -5.322,-4.424c-2.167,0.765 -4.083,2.277 -5.322,4.424l-1.837,-1.061c0.935,-1.62 2.188,-2.942 3.636,-3.933c-1.635,0.03 -3.284,0.463 -4.799,1.338c-0.953,0.55 -1.78,1.233 -2.474,2.013c3.525,0.527 6.784,2.597 8.704,5.923l-1.837,1.061c-1.776,-3.077 -4.941,-4.851 -8.245,-4.988c-1.534,2.931 -1.58,6.559 0.196,9.635l-1.837,1.06c-1.92,-3.325 -2.084,-7.183 -0.778,-10.499c-1.022,0.21 -2.027,0.586 -2.98,1.136c-1.515,0.875 -2.715,2.087 -3.558,3.486c1.582,-0.757 3.353,-1.181 5.224,-1.181l0,2.121c-2.478,-0 -4.746,0.903 -6.492,2.397c-0.421,2.259 -0.069,4.674 1.17,6.821l-1.837,1.06c-0.935,-1.62 -1.454,-3.366 -1.589,-5.115c-0.79,1.431 -1.24,3.075 -1.24,4.825c0,1.1 0.178,2.158 0.506,3.149c2.219,-2.789 5.642,-4.577 9.482,-4.577l0,2.122c-3.552,-0 -6.671,1.854 -8.442,4.647c1.771,2.793 4.89,4.647 8.442,4.647l0,2.122c-3.84,-0 -7.263,-1.788 -9.482,-4.577c-0.328,0.991 -0.506,2.049 -0.506,3.149c0,1.75 0.45,3.394 1.24,4.825c0.135,-1.749 0.654,-3.495 1.589,-5.115l1.837,1.06c-1.239,2.147 -1.591,4.562 -1.17,6.821c1.746,1.494 4.014,2.397 6.492,2.397l0,2.121c-1.871,-0 -3.642,-0.424 -5.224,-1.181c0.843,1.399 2.043,2.611 3.558,3.486c0.953,0.55 1.958,0.926 2.98,1.136c-1.306,-3.316 -1.142,-7.174 0.778,-10.499l1.837,1.06c-1.776,3.076 -1.73,6.704 -0.196,9.635c3.304,-0.137 6.469,-1.911 8.245,-4.988l1.837,1.061c-1.92,3.326 -5.179,5.396 -8.704,5.923c0.694,0.78 1.521,1.463 2.474,2.013c1.515,0.875 3.164,1.308 4.799,1.338c-1.448,-0.991 -2.701,-2.313 -3.636,-3.933l1.837,-1.061c1.239,2.147 3.155,3.659 5.322,4.424c2.167,-0.765 4.083,-2.277 5.322,-4.424l1.837,1.061c-0.935,1.62 -2.188,2.942 -3.636,3.933c1.635,-0.03 3.284,-0.463 4.799,-1.338c0.953,-0.55 1.78,-1.233 2.474,-2.013c-3.525,-0.527 -6.784,-2.597 -8.704,-5.923l1.837,-1.061c1.776,3.077 4.941,4.851 8.245,4.988c1.534,-2.931 1.58,-6.559 -0.196,-9.635l1.837,-1.06c1.92,3.325 2.084,7.183 0.778,10.499c1.022,-0.21 2.027,-0.586 2.98,-1.136c1.515,-0.875 2.715,-2.087 3.558,-3.486c-1.582,0.757 -3.353,1.181 -5.224,1.181l0,-2.121c2.478,-0 4.746,-0.903 6.492,-2.397c0.421,-2.259 0.069,-4.674 -1.17,-6.821l1.837,-1.06c0.935,1.62 1.454,3.366 1.589,5.115c0.79,-1.431 1.24,-3.075 1.24,-4.825c0,-1.1 -0.178,-2.158 -0.506,-3.149c-2.219,2.789 -5.642,4.577 -9.482,4.577l0,-2.122c3.552,-0 6.671,-1.854 8.442,-4.647c-1.771,-2.793 -4.89,-4.647 -8.442,-4.647l0,-2.122c3.84,-0 7.263,1.788 9.482,4.577c0.328,-0.991 0.506,-2.049 0.506,-3.149c0,-1.75 -0.45,-3.394 -1.24,-4.825c-0.135,1.749 -0.654,3.495 -1.589,5.115l-1.837,-1.06c1.239,-2.147 1.591,-4.562 1.17,-6.821c-1.746,-1.494 -4.014,-2.397 -6.492,-2.397l0,-2.121c1.871,-0 3.642,0.424 5.224,1.181c-0.843,-1.399 -2.043,-2.611 -3.558,-3.486c-0.953,-0.55 -1.958,-0.926 -2.98,-1.136c1.306,3.316 1.142,7.174 -0.778,10.499l-1.837,-1.06c1.776,-3.076 1.73,-6.704 0.196,-9.635c-3.304,0.137 -6.469,1.911 -8.245,4.988l-1.837,-1.061c1.92,-3.326 5.179,-5.396 8.704,-5.923c-0.694,-0.78 -1.521,-1.463 -2.474,-2.013c-1.515,-0.875 -3.164,-1.308 -4.799,-1.338Z"/></g></svg>