<?xml version="1.0" encoding="UTF-8" standalone="no"?><!DOCTYPE svg PUBLIC "-//W3C//DTD SVG 1.1//EN" "http://www.w3.org/Graphics/SVG/1.1/DTD/svg11.dtd"><svg width="100%" height="100%" viewBox="0 0 89 89" version="1.1" xmlns="http://www.w3.org/2000/svg" xmlns:xlink="http://www.w3.org/1999/xlink" xml:space="preserve" xmlns:serif="http://www.serif.com/" style="fill-rule:evenodd;clip-rule:evenodd;stroke-linejoin:round;stroke-miterlimit:2;"><g><rect x="0" y="0" width="88.08" height="88.08" style="fill:#f2f2f2;"/><path d="M88.08,0l-88.08,0l0,88.08l88.08,0l0,-88.08Zm-0.4,0.4l-0,87.28c0,-0 -87.28,-0 -87.28,-0c0,0 0,-87.28 0,-87.28l87.28,-0Z"/><path d="M46.505,51.085l19.9,0c0.011,4.986 0.021,9.972 0.031,14.959c-5.06,0.002 -10.12,0.004 -15.179,0.005l-0.021,-5.009l10,-0.007l-0.004,-4.75l-14.766,0.011l0.06,14.507l24.67,-0.009l-0.051,-24.457l-24.64,0l0,4.75Zm-4.93,-4.75l-24.64,0l-0.051,24.457l24.67,0.009l0.06,-14.507l-14.766,-0.011l-0.004,4.75l10,0.007l-0.021,5.009c-5.059,-0.001 -10.119,-0.003 -15.179,-0.005c0.01,-4.987 0.02,-9.973 0.031,-14.959l19.9,0l-0,-4.75Zm4.93,-4.59l24.64,0l0.051,-24.457l-24.67,-0.009l-0.06,14.507l14.766,0.011l0.004,-4.75l-10,-0.007l0.021,-5.009c5.059,0.001 10.119,0.003 15.179,0.005c-0.01,4.987 -0.02,9.973 -0.031,14.959l-19.9,0l0,4.75Zm-4.93,-4.75l-19.9,0c-0.011,-4.986 -0.021,-9.972 -0.031,-14.959c5.06,-0.002 10.12,-0.004 15.179,-0.005l0.021,5.009l-10,0.007l0.004,4.75l14.766,-0.011l-0.06,-14.507l-24.67,0.009l0.051,24.457l24.64,0l0,-4.75Z"/></g></svg>