<?xml version="1.0" encoding="UTF-8" standalone="no"?><!DOCTYPE svg PUBLIC "-//W3C//DTD SVG 1.1//EN" "http://www.w3.org/Graphics/SVG/1.1/DTD/svg11.dtd"><svg width="100%" height="100%" viewBox="0 0 89 89" version="1.1" xmlns="http://www.w3.org/2000/svg" xmlns:xlink="http://www.w3.org/1999/xlink" xml:space="preserve" xmlns:serif="http://www.serif.com/" style="fill-rule:evenodd;clip-rule:evenodd;stroke-linejoin:round;stroke-miterlimit:2;"><g><rect x="0" y="0" width="88.08" height="88.08" style="fill:#f2f2f2;"/><path d="M88.08,0l-88.08,0l0,88.08l88.08,0l0,-88.08Zm-0.45,0.45l0,87.18c-0,0 -87.18,0 -87.18,0c-0,-0 -0,-87.18 -0,-87.18l87.18,0Z"/><path d="M44.04,18.464c-1.88,-1.517 -4.227,-2.756 -7.044,-3.712l-0.542,-0.184l-0.329,0.468c-1.025,1.452 -1.744,3.028 -2.172,4.652c-1.451,-0.846 -3.074,-1.451 -4.825,-1.754l-0.564,-0.098l-0.253,0.513c-1.316,2.668 -2.099,5.204 -2.356,7.606c-2.402,0.257 -4.938,1.04 -7.606,2.356l-0.513,0.253l0.098,0.564c0.303,1.751 0.908,3.374 1.754,4.825c-1.624,0.428 -3.2,1.147 -4.652,2.172l-0.468,0.329l0.184,0.542c0.956,2.817 2.195,5.164 3.712,7.044c-1.517,1.88 -2.756,4.227 -3.712,7.044l-0.184,0.542l0.468,0.329c1.452,1.025 3.028,1.744 4.652,2.172c-0.846,1.451 -1.451,3.074 -1.754,4.825l-0.098,0.564l0.513,0.253c2.668,1.316 5.204,2.099 7.606,2.356c0.257,2.402 1.04,4.938 2.356,7.606l0.253,0.513l0.564,-0.098c1.751,-0.303 3.374,-0.908 4.825,-1.754c0.428,1.624 1.147,3.2 2.172,4.652l0.329,0.468l0.542,-0.184c2.817,-0.956 5.164,-2.195 7.044,-3.712c1.88,1.517 4.227,2.756 7.044,3.712l0.542,0.184l0.329,-0.468c1.025,-1.452 1.744,-3.028 2.172,-4.652c1.451,0.846 3.074,1.451 4.825,1.754l0.564,0.098l0.253,-0.513c1.316,-2.668 2.099,-5.204 2.356,-7.606c2.402,-0.257 4.938,-1.04 7.606,-2.356l0.513,-0.253l-0.098,-0.564c-0.303,-1.751 -0.908,-3.374 -1.754,-4.825c1.624,-0.428 3.2,-1.147 4.652,-2.172l0.468,-0.329l-0.184,-0.542c-0.956,-2.817 -2.195,-5.164 -3.712,-7.044c1.517,-1.88 2.756,-4.227 3.712,-7.044l0.184,-0.542l-0.468,-0.329c-1.452,-1.025 -3.028,-1.744 -4.652,-2.172c0.846,-1.451 1.451,-3.074 1.754,-4.825l0.098,-0.564l-0.513,-0.253c-2.668,-1.316 -5.204,-2.099 -7.606,-2.356c-0.257,-2.402 -1.04,-4.938 -2.356,-7.606l-0.253,-0.513l-0.564,0.098c-1.751,0.303 -3.374,0.908 -4.825,1.754c-0.428,-1.624 -1.147,-3.2 -2.172,-4.652l-0.329,-0.468l-0.542,0.184c-2.817,0.956 -5.164,2.195 -7.044,3.712Zm-4.756,44.511c-0.99,1.758 -2.342,3.303 -3.974,4.52c0.321,1.454 0.899,2.873 1.745,4.191c2.289,-0.828 4.229,-1.862 5.818,-3.105c-1.641,-1.604 -2.836,-3.474 -3.589,-5.606Zm9.512,0c-0.753,2.132 -1.948,4.002 -3.589,5.606c1.589,1.243 3.529,2.277 5.819,3.105c0.845,-1.318 1.423,-2.737 1.744,-4.191c-1.632,-1.217 -2.983,-2.762 -3.974,-4.52Zm-14.782,-2.183c-2.04,0.975 -4.207,1.452 -6.502,1.426c0.244,2.003 0.886,4.106 1.919,6.31c1.53,-0.334 2.942,-0.929 4.197,-1.73c-0.294,-2.014 -0.157,-4.062 0.386,-6.006Zm20.052,0c0.543,1.943 0.68,3.991 0.386,6.006c1.255,0.801 2.667,1.396 4.197,1.73c1.034,-2.204 1.675,-4.307 1.919,-6.31c-2.295,0.026 -4.462,-0.451 -6.502,-1.426Zm-10.026,-40.282c-1.918,1.845 -3.18,4.08 -3.777,6.715c0.846,2.305 1.116,4.855 0.668,7.447c-0.05,0.292 -0.259,0.516 -0.523,0.6c-0.246,0.127 -0.552,0.116 -0.794,-0.054c-2.15,-1.516 -3.761,-3.511 -4.793,-5.739c-2.286,-1.44 -4.759,-2.129 -7.419,-2.077c-0.052,2.661 0.637,5.133 2.077,7.419c2.228,1.032 4.223,2.643 5.739,4.793c0.17,0.242 0.181,0.548 0.054,0.794c-0.084,0.264 -0.308,0.473 -0.6,0.523c-2.592,0.448 -5.142,0.178 -7.447,-0.668c-2.635,0.597 -4.87,1.859 -6.715,3.777c1.845,1.918 4.08,3.18 6.715,3.777c2.305,-0.846 4.855,-1.116 7.447,-0.668c0.292,0.05 0.516,0.259 0.6,0.523c0.127,0.246 0.116,0.552 -0.054,0.794c-1.516,2.15 -3.511,3.761 -5.739,4.793c-1.44,2.286 -2.129,4.759 -2.077,7.419c2.661,0.052 5.133,-0.637 7.419,-2.077c1.032,-2.228 2.643,-4.223 4.793,-5.739c0.242,-0.17 0.548,-0.181 0.794,-0.054c0.264,0.084 0.473,0.308 0.523,0.6c0.448,2.592 0.178,5.142 -0.668,7.447c0.597,2.635 1.859,4.87 3.777,6.715c1.918,-1.845 3.18,-4.08 3.777,-6.715c-0.846,-2.305 -1.116,-4.855 -0.668,-7.447c0.05,-0.292 0.259,-0.516 0.523,-0.6c0.246,-0.127 0.552,-0.116 0.794,0.054c2.15,1.516 3.761,3.511 4.793,5.739c2.286,1.44 4.759,2.129 7.419,2.077c0.052,-2.661 -0.637,-5.133 -2.077,-7.419c-2.228,-1.032 -4.223,-2.643 -5.739,-4.793c-0.17,-0.242 -0.181,-0.548 -0.054,-0.794c0.084,-0.264 0.308,-0.473 0.6,-0.523c2.592,-0.448 5.142,-0.178 7.447,0.668c2.635,-0.597 4.87,-1.859 6.715,-3.777c-1.845,-1.918 -4.08,-3.18 -6.715,-3.777c-2.305,0.846 -4.855,1.116 -7.447,0.668c-0.292,-0.05 -0.516,-0.259 -0.6,-0.523c-0.127,-0.246 -0.116,-0.552 0.054,-0.794c1.516,-2.15 3.511,-3.761 5.739,-4.793c1.44,-2.286 2.129,-4.759 2.077,-7.419c-2.661,-0.052 -5.133,0.637 -7.419,2.077c-1.032,2.228 -2.643,4.223 -4.793,5.739c-0.242,0.17 -0.548,0.181 -0.794,0.054c-0.264,-0.084 -0.473,-0.308 -0.523,-0.6c-0.448,-2.592 -0.178,-5.142 0.668,-7.447c-0.597,-2.635 -1.859,-4.87 -3.777,-6.715Zm4.469,34.319c-0.35,4.259 1.43,8.286 4.522,10.918c0.325,-4.049 -1.263,-8.155 -4.522,-10.918Zm-8.938,0c-3.26,2.764 -4.848,6.87 -4.522,10.918c3.093,-2.633 4.873,-6.659 4.522,-10.918Zm-12.283,-0.763c-1.943,0.543 -3.991,0.68 -6.006,0.386c-0.801,1.255 -1.396,2.667 -1.73,4.197c2.204,1.034 4.307,1.675 6.31,1.919c-0.026,-2.295 0.451,-4.462 1.426,-6.502Zm33.504,0c0.975,2.04 1.452,4.207 1.426,6.502c2.003,-0.244 4.106,-0.886 6.31,-1.919c-0.334,-1.53 -0.929,-2.942 -1.73,-4.197c-2.014,0.294 -4.062,0.157 -6.006,-0.386Zm-27.541,-5.557c-4.259,-0.35 -8.286,1.43 -10.918,4.522c4.049,0.325 8.155,-1.263 10.918,-4.522Zm32.496,4.522c-2.633,-3.093 -6.659,-4.873 -10.918,-4.522c2.764,3.26 6.87,4.848 10.918,4.522Zm-46.248,-7.824c-1.243,1.589 -2.277,3.529 -3.105,5.819c1.318,0.845 2.737,1.423 4.191,1.744c1.217,-1.632 2.762,-2.983 4.52,-3.974c-2.132,-0.753 -4.002,-1.948 -5.606,-3.589Zm49.082,0c-1.604,1.641 -3.474,2.836 -5.606,3.589c1.758,0.99 3.303,2.342 4.52,3.974c1.454,-0.321 2.873,-0.899 4.191,-1.745c-0.828,-2.289 -1.862,-4.229 -3.105,-5.818Zm-47.996,-9.897c-1.454,0.321 -2.873,0.899 -4.191,1.745c0.828,2.289 1.862,4.229 3.105,5.818c1.604,-1.641 3.474,-2.836 5.606,-3.589c-1.758,-0.99 -3.303,-2.342 -4.52,-3.974Zm46.91,-0c-1.217,1.632 -2.762,2.983 -4.52,3.974c2.132,0.753 4.002,1.948 5.606,3.589c1.243,-1.589 2.277,-3.529 3.105,-5.819c-1.318,-0.845 -2.737,-1.423 -4.191,-1.744Zm-34.244,4.261c-2.764,-3.26 -6.87,-4.848 -10.918,-4.522c2.633,3.093 6.659,4.873 10.918,4.522Zm32.496,-4.522c-4.049,-0.325 -8.155,1.263 -10.918,4.522c4.259,0.35 8.286,-1.43 10.918,-4.522Zm-39.885,-7.537c-2.003,0.244 -4.106,0.886 -6.31,1.919c0.334,1.53 0.929,2.942 1.73,4.197c2.014,-0.294 4.062,-0.157 6.006,0.386c-0.975,-2.04 -1.452,-4.207 -1.426,-6.502Zm36.356,-0c0.026,2.295 -0.451,4.462 -1.426,6.502c1.943,-0.543 3.991,-0.68 6.006,-0.386c0.801,-1.255 1.396,-2.667 1.73,-4.197c-2.204,-1.034 -4.307,-1.675 -6.31,-1.919Zm-27.169,-5.179c-0.325,4.049 1.263,8.155 4.522,10.918c0.35,-4.259 -1.43,-8.286 -4.522,-10.918Zm17.982,-0c-3.093,2.633 -4.873,6.659 -4.522,10.918c3.26,-2.764 4.848,-6.87 4.522,-10.918Zm7.537,3.529c-0.244,-2.003 -0.886,-4.106 -1.919,-6.31c-1.53,0.334 -2.942,0.929 -4.197,1.73c0.294,2.014 0.157,4.062 -0.386,6.006c2.04,-0.975 4.207,-1.452 6.502,-1.426Zm-26.94,-4.58c-1.255,-0.801 -2.667,-1.396 -4.197,-1.73c-1.034,2.204 -1.675,4.307 -1.919,6.31c2.295,-0.026 4.462,0.451 6.502,1.426c-0.543,-1.943 -0.68,-3.991 -0.386,-6.006Zm9.245,-1.783c-1.589,-1.243 -3.529,-2.277 -5.819,-3.105c-0.845,1.318 -1.423,2.737 -1.744,4.191c1.632,1.217 2.983,2.762 3.974,4.52c0.753,-2.132 1.948,-4.002 3.589,-5.606Zm9.897,1.086c-0.321,-1.454 -0.899,-2.873 -1.745,-4.191c-2.289,0.828 -4.229,1.862 -5.818,3.105c1.641,1.604 2.836,3.474 3.589,5.606c0.99,-1.758 2.342,-3.303 3.974,-4.52Z"/></g></svg>