<?xml version="1.0" encoding="UTF-8" standalone="no"?><!DOCTYPE svg PUBLIC "-//W3C//DTD SVG 1.1//EN" "http://www.w3.org/Graphics/SVG/1.1/DTD/svg11.dtd"><svg width="100%" height="100%" viewBox="0 0 89 89" version="1.1" xmlns="http://www.w3.org/2000/svg" xmlns:xlink="http://www.w3.org/1999/xlink" xml:space="preserve" xmlns:serif="http://www.serif.com/" style="fill-rule:evenodd;clip-rule:evenodd;stroke-linejoin:round;stroke-miterlimit:2;"><g><rect x="0" y="0" width="88.08" height="88.08" style="fill:#f2f2f2;"/><path d="M88.08,0l-88.08,0l0,88.08l88.08,0l0,-88.08Zm-0.4,0.4l-0,87.28c0,-0 -87.28,-0 -87.28,-0c0,0 0,-87.28 0,-87.28l87.28,-0Z"/><path d="M35.564,52.516l-0.007,-7.695l-1.454,0c-9.538,0 -17.27,7.732 -17.27,17.27l0,1.45l7.679,0.027l0.022,6.229l0.005,1.45l1.45,0c9.538,0 17.27,-7.732 17.27,-17.27l0,-1.454l-7.695,-0.007Zm16.952,-0l-7.695,0.007l0,1.454c0,9.538 7.732,17.27 17.27,17.27l1.45,0l0.027,-7.679l6.229,-0.022l1.45,-0.005l0,-1.45c0,-9.538 -7.732,-17.27 -17.27,-17.27l-1.454,0l-0.007,7.695Zm-0.003,2.911l-0.007,8.179l8.151,-0.028l-0.016,4.686c-6.771,-0.679 -12.156,-6.062 -12.837,-12.833l4.709,-0.004Zm-16.939,8.179l-0.007,-8.179l4.709,0.004c-0.681,6.771 -6.066,12.154 -12.837,12.833l-0.016,-4.686l8.151,0.028Zm-8.161,-2.939l5.248,0.018l-0.005,-5.261l-5.261,-0.005l0.018,5.248Zm28.011,-5.243l-0.005,5.261l5.248,-0.018l0.018,-5.248l-5.261,0.005Zm-22.771,-2.911l-8.179,-0.007l0.028,8.151l-4.686,-0.016c0.679,-6.771 6.062,-12.156 12.833,-12.837l0.004,4.709Zm22.774,-0l0.004,-4.709c6.771,0.681 12.154,6.066 12.833,12.837l-4.686,0.016l0.028,-8.151l-8.179,0.007Zm-30.915,-28.001l-6.229,0.022l-1.45,0.005l-0,1.45c-0,9.538 7.732,17.27 17.27,17.27l1.454,-0l0.007,-7.695l7.695,-0.007l-0,-1.454c-0,-9.538 -7.732,-17.27 -17.27,-17.27l-1.45,-0l-0.027,7.679Zm28.004,11.052l0.007,7.695l1.454,-0c9.538,-0 17.27,-7.732 17.27,-17.27l-0,-1.45l-7.679,-0.027l-0.022,-6.229l-0.005,-1.45l-1.45,-0c-9.538,-0 -17.27,7.732 -17.27,17.27l-0,1.454l7.695,0.007Zm11.09,0.01l-0.028,-8.151l4.686,0.016c-0.679,6.771 -6.062,12.156 -12.833,12.837l-0.004,-4.709l8.179,0.007Zm-39.104,-8.151l-0.028,8.151l8.179,-0.007l-0.004,4.709c-6.771,-0.681 -12.154,-6.066 -12.833,-12.837l4.686,-0.016Zm2.911,-0.01l-0.018,5.248l5.261,-0.005l0.005,-5.261l-5.248,0.018Zm28.011,5.243l5.261,0.005l-0.018,-5.248l-5.248,-0.018l0.005,5.261Zm-19.857,-0.003l0.007,-8.179l-8.151,0.028l0.016,-4.686c6.771,0.679 12.156,6.062 12.837,12.833l-4.709,0.004Zm25.09,-8.151l-8.151,-0.028l0.007,8.179l-4.709,-0.004c0.681,-6.771 6.066,-12.154 12.837,-12.833l0.016,4.686Z"/></g></svg>