<?xml version="1.0" encoding="UTF-8" standalone="no"?><!DOCTYPE svg PUBLIC "-//W3C//DTD SVG 1.1//EN" "http://www.w3.org/Graphics/SVG/1.1/DTD/svg11.dtd"><svg width="100%" height="100%" viewBox="0 0 89 89" version="1.1" xmlns="http://www.w3.org/2000/svg" xmlns:xlink="http://www.w3.org/1999/xlink" xml:space="preserve" xmlns:serif="http://www.serif.com/" style="fill-rule:evenodd;clip-rule:evenodd;stroke-linejoin:round;stroke-miterlimit:2;"><g><rect x="0" y="0" width="88.08" height="88.08" style="fill:#f2f2f2;"/><path d="M88.08,0l-88.08,0l0,88.08l88.08,0l0,-88.08Zm-0.45,0.45l0,87.18c-0,0 -87.18,0 -87.18,0c-0,-0 -0,-87.18 -0,-87.18l87.18,0Z"/><path d="M55.729,28.783l-4.762,-13.939l-1.317,0.449c-2.132,0.726 -4.02,1.845 -5.61,3.25c-1.59,-1.405 -3.478,-2.524 -5.61,-3.25l-1.317,-0.449l-4.762,13.939l-14.728,0.221l0.019,1.391c0.032,2.253 0.514,4.394 1.358,6.341c-1.827,1.078 -3.475,2.527 -4.825,4.331l-0.833,1.114l11.784,8.836l-4.34,14.075l1.329,0.412c2.152,0.665 4.338,0.869 6.45,0.668c0.46,2.071 1.329,4.086 2.628,5.927l0.802,1.137l12.045,-8.478l12.045,8.478l0.802,-1.137c1.299,-1.841 2.168,-3.856 2.628,-5.927c2.112,0.201 4.298,-0.003 6.45,-0.668l1.329,-0.412l-4.34,-14.075l11.784,-8.836l-0.833,-1.114c-1.35,-1.804 -2.998,-3.253 -4.825,-4.331c0.844,-1.947 1.326,-4.088 1.358,-6.341l0.019,-1.391l-14.728,-0.221Zm-1.884,2.592l-0.155,0.053c-1.478,-4.328 -2.957,-8.657 -4.436,-12.985c-1.216,0.555 -2.318,1.272 -3.289,2.116c3.432,4.263 4.673,10.138 2.778,15.702l-2.636,-0.898c1.53,-4.492 0.601,-9.228 -2.067,-12.745c-2.668,3.517 -3.597,8.253 -2.067,12.745l-2.636,0.898c-1.895,-5.564 -0.654,-11.439 2.778,-15.702c-0.971,-0.844 -2.073,-1.561 -3.289,-2.116c-1.479,4.328 -2.958,8.657 -4.436,12.985l-0.155,-0.053l0.002,0.164c-4.574,0.069 -9.147,0.138 -13.721,0.207c0.153,1.328 0.494,2.597 0.997,3.781c5.114,-1.946 11.085,-1.311 15.791,2.211l-1.668,2.23c-3.8,-2.844 -8.591,-3.424 -12.76,-1.973c2.52,3.624 6.737,5.971 11.482,5.904l0.04,2.784c-5.877,0.083 -11.081,-2.912 -14.075,-7.493c-1.103,0.663 -2.125,1.489 -3.029,2.473c3.659,2.744 7.319,5.488 10.979,8.232l-0.099,0.132l0.157,0.048c-1.348,4.371 -2.696,8.742 -4.044,13.113c1.311,0.265 2.623,0.333 3.905,0.221c-0.27,-5.466 2.179,-10.948 6.982,-14.336l1.605,2.276c-3.878,2.735 -5.911,7.112 -5.819,11.526c4.226,-1.277 7.761,-4.563 9.163,-9.096l2.661,0.823c-1.738,5.615 -6.195,9.638 -11.477,11.07c0.29,1.254 0.76,2.481 1.417,3.645c3.741,-2.632 7.481,-5.265 11.222,-7.897l0.094,0.134l0.094,-0.134c3.741,2.632 7.481,5.265 11.222,7.897c0.657,-1.164 1.127,-2.391 1.417,-3.645c-5.282,-1.432 -9.739,-5.455 -11.477,-11.07l2.661,-0.823c1.402,4.533 4.937,7.819 9.163,9.096c0.092,-4.414 -1.941,-8.791 -5.819,-11.526l1.605,-2.276c4.803,3.388 7.252,8.87 6.982,14.336c1.282,0.112 2.594,0.044 3.905,-0.221c-1.348,-4.371 -2.696,-8.742 -4.044,-13.113l0.157,-0.048l-0.099,-0.132c3.66,-2.744 7.32,-5.488 10.979,-8.232c-0.904,-0.984 -1.926,-1.81 -3.029,-2.473c-2.994,4.581 -8.198,7.576 -14.075,7.493l0.04,-2.784c4.745,0.067 8.962,-2.28 11.482,-5.904c-4.169,-1.451 -8.96,-0.871 -12.76,1.973l-1.668,-2.23c4.706,-3.522 10.677,-4.157 15.791,-2.211c0.503,-1.184 0.844,-2.453 0.997,-3.781c-4.574,-0.069 -9.147,-0.138 -13.721,-0.207l0.002,-0.164Z"/></g></svg>