<?xml version="1.0" encoding="UTF-8" standalone="no"?><!DOCTYPE svg PUBLIC "-//W3C//DTD SVG 1.1//EN" "http://www.w3.org/Graphics/SVG/1.1/DTD/svg11.dtd"><svg width="100%" height="100%" viewBox="0 0 89 89" version="1.1" xmlns="http://www.w3.org/2000/svg" xmlns:xlink="http://www.w3.org/1999/xlink" xml:space="preserve" xmlns:serif="http://www.serif.com/" style="fill-rule:evenodd;clip-rule:evenodd;stroke-linejoin:round;stroke-miterlimit:2;"><g><rect x="0" y="0" width="88.08" height="88.08" style="fill:#f2f2f2;"/><path d="M88.08,0l-88.08,0l0,88.08l88.08,0l0,-88.08Zm-0.5,0.5l0,87.08c-0,-0 -87.08,0 -87.08,0c0,-0 0,-87.08 0,-87.08l87.08,0Z"/><path d="M53.338,23.549c-3.776,1.24 -7.132,3.81 -9.298,7.503c-2.166,-3.693 -5.521,-6.262 -9.298,-7.503c1.153,-2.608 3.116,-4.888 5.775,-6.423l-1.48,-2.564c-3.399,1.962 -5.859,4.927 -7.221,8.306c-3.607,-0.51 -7.404,0.138 -10.804,2.1l1.481,2.564c2.659,-1.536 5.615,-2.095 8.45,-1.79c-0.814,3.89 -0.266,8.082 1.849,11.804c-4.281,0.029 -8.184,1.65 -11.147,4.301c-1.682,-2.303 -2.675,-5.142 -2.675,-8.213l-2.961,0c0,3.925 1.338,7.537 3.583,10.406c-2.245,2.869 -3.583,6.481 -3.583,10.406l2.961,0c0,-3.071 0.993,-5.91 2.675,-8.213c2.962,2.65 6.866,4.272 11.147,4.301c-2.115,3.722 -2.663,7.913 -1.849,11.804c-2.835,0.305 -5.791,-0.254 -8.45,-1.79l-1.481,2.564c3.4,1.962 7.197,2.61 10.804,2.1c1.362,3.379 3.822,6.344 7.221,8.306l1.48,-2.564c-2.659,-1.535 -4.622,-3.815 -5.775,-6.423c3.776,-1.24 7.132,-3.81 9.298,-7.503c2.166,3.693 5.521,6.262 9.298,7.503c-1.153,2.608 -3.116,4.888 -5.775,6.423l1.48,2.564c3.399,-1.962 5.859,-4.927 7.221,-8.306c3.607,0.51 7.404,-0.138 10.804,-2.1l-1.481,-2.564c-2.659,1.536 -5.615,2.095 -8.45,1.79c0.814,-3.89 0.266,-8.082 -1.849,-11.804c4.281,-0.029 8.184,-1.65 11.147,-4.301c1.682,2.303 2.675,5.142 2.675,8.213l2.961,0c0,-3.925 -1.338,-7.537 -3.583,-10.406c2.245,-2.869 3.583,-6.481 3.583,-10.406l-2.961,0c0,3.071 -0.993,5.91 -2.675,8.213c-2.962,-2.65 -6.866,-4.272 -11.147,-4.301c2.115,-3.722 2.663,-7.913 1.849,-11.804c2.835,-0.305 5.791,0.254 8.45,1.79l1.481,-2.564c-3.4,-1.962 -7.197,-2.61 -10.804,-2.1c-1.362,-3.379 -3.822,-6.344 -7.221,-8.306l-1.48,2.564c2.659,1.535 4.622,3.815 5.775,6.423Zm0.905,2.819c-3.136,1.036 -5.918,3.182 -7.698,6.266l-2.505,-1.446l-2.505,1.446c-1.78,-3.084 -4.562,-5.23 -7.698,-6.266c-0.671,3.234 -0.203,6.716 1.578,9.8l-2.505,1.446l-0,2.892c-3.561,0 -6.811,1.336 -9.275,3.534c2.464,2.198 5.714,3.534 9.275,3.534l-0,2.892l2.505,1.446c-1.781,3.084 -2.249,6.566 -1.578,9.8c3.136,-1.036 5.918,-3.182 7.698,-6.266l2.505,1.446l2.505,-1.446c1.78,3.084 4.562,5.23 7.698,6.266c0.671,-3.234 0.203,-6.716 -1.578,-9.8l2.505,-1.446l-0,-2.892c3.561,0 6.811,-1.336 9.275,-3.534c-2.464,-2.198 -5.714,-3.534 -9.275,-3.534l0,-2.892l-2.505,-1.446c1.781,-3.084 2.249,-6.566 1.578,-9.8Z"/></g></svg>