<?xml version="1.0" encoding="UTF-8" standalone="no"?><!DOCTYPE svg PUBLIC "-//W3C//DTD SVG 1.1//EN" "http://www.w3.org/Graphics/SVG/1.1/DTD/svg11.dtd"><svg width="100%" height="100%" viewBox="0 0 89 89" version="1.1" xmlns="http://www.w3.org/2000/svg" xmlns:xlink="http://www.w3.org/1999/xlink" xml:space="preserve" xmlns:serif="http://www.serif.com/" style="fill-rule:evenodd;clip-rule:evenodd;stroke-linejoin:round;stroke-miterlimit:2;"><g><rect x="0" y="0" width="88.08" height="88.08" style="fill:#f2f2f2;"/><path d="M88.08,0l-88.08,0l0,88.08l88.08,0l0,-88.08Zm-0.4,0.4l-0,87.28c0,-0 -87.28,-0 -87.28,-0c0,0 0,-87.28 0,-87.28l87.28,-0Z"/><path d="M44.04,55.462l-4.444,-4.155l-0.978,-0.915l-0.918,0.975c-6.038,6.413 -5.734,16.507 0.68,22.545l0.977,0.92l4.683,-4.965l4.683,4.965l0.977,-0.92c6.414,-6.038 6.718,-16.132 0.68,-22.545l-0.918,-0.975l-5.422,5.07Zm1.847,12.447l5.373,-5.697l-5.252,-4.91l3.284,-3.072c3.83,4.983 3.619,12.012 -0.502,16.756l-2.903,-3.077Zm-3.815,-10.607l-5.252,4.91l5.373,5.697l-2.903,3.077c-4.121,-4.744 -4.332,-11.773 -0.502,-16.756l3.284,3.072Zm-1.444,5.03l3.412,3.618l3.412,-3.618l-3.412,-3.191l-3.412,3.191Zm14.834,-18.292l-4.155,4.444l-0.915,0.978l0.975,0.918c6.413,6.038 16.507,5.734 22.545,-0.68l0.92,-0.977l-4.965,-4.683l4.965,-4.683l-0.92,-0.977c-6.038,-6.414 -16.132,-6.718 -22.545,-0.68l-0.975,0.918l5.07,5.422Zm-37.249,0l-4.965,4.683l0.92,0.977c6.038,6.414 16.132,6.718 22.545,0.68l0.975,-0.918l-5.07,-5.422l4.155,-4.444l0.915,-0.978l-0.975,-0.918c-6.413,-6.038 -16.507,-5.734 -22.545,0.68l-0.92,0.977l4.965,4.683Zm43.999,7.22l5.697,-5.373l3.077,2.903c-4.744,4.121 -11.773,4.332 -16.756,0.502l3.072,-3.284l4.91,5.252Zm-42.041,-5.373l5.697,5.373l4.91,-5.252l3.072,3.284c-4.983,3.83 -12.012,3.619 -16.756,-0.502l3.077,-2.903Zm38.97,-1.847l3.191,3.412l3.618,-3.412l-3.618,-3.412l-3.191,3.412Zm-37.011,0l3.618,3.412l3.191,-3.412l-3.191,-3.412l-3.618,3.412Zm45.779,-1.847l-5.697,-5.373l-4.91,5.252l-3.072,-3.284c4.983,-3.83 12.012,-3.619 16.756,0.502l-3.077,2.903Zm-37.131,-0.121l-4.91,-5.252l-5.697,5.373l-3.077,-2.903c4.744,-4.121 11.773,-4.332 16.756,-0.502l-3.072,3.284Zm13.262,-23.859l-4.683,-4.965l-0.977,0.92c-6.414,6.038 -6.718,16.132 -0.68,22.545l0.918,0.975l5.422,-5.07l4.444,4.155l0.978,0.915l0.918,-0.975c6.038,-6.413 5.734,-16.507 -0.68,-22.545l-0.977,-0.92l-4.683,4.965Zm-1.847,1.958l-5.373,5.697l5.252,4.91l-3.284,3.072c-3.83,-4.983 -3.619,-12.012 0.502,-16.756l2.903,3.077Zm3.694,0l2.903,-3.077c4.121,4.744 4.332,11.773 0.502,16.756l-3.284,-3.072l5.252,-4.91l-5.373,-5.697Zm-5.259,5.577l3.412,3.191l3.412,-3.191l-3.412,-3.618l-3.412,3.618Z"/></g></svg>