<?xml version="1.0" encoding="UTF-8" standalone="no"?><!DOCTYPE svg PUBLIC "-//W3C//DTD SVG 1.1//EN" "http://www.w3.org/Graphics/SVG/1.1/DTD/svg11.dtd"><svg width="100%" height="100%" viewBox="0 0 89 89" version="1.1" xmlns="http://www.w3.org/2000/svg" xmlns:xlink="http://www.w3.org/1999/xlink" xml:space="preserve" xmlns:serif="http://www.serif.com/" style="fill-rule:evenodd;clip-rule:evenodd;stroke-linejoin:round;stroke-miterlimit:2;"><g><rect x="0" y="0" width="88.08" height="88.08" style="fill:#f2f2f2;"/><path d="M88.08,0l-88.08,0l0,88.08l88.08,0l0,-88.08Zm-0.4,0.4l-0,87.28c0,-0 -87.28,-0 -87.28,-0c0,0 0,-87.28 0,-87.28l87.28,-0Z"/><path d="M44.04,17.298c-1.525,-1.405 -3.36,-2.522 -5.449,-3.234l-0.574,-0.195l-0.35,0.495c-0.832,1.177 -1.543,2.343 -2.133,3.498c-1.156,-0.588 -2.417,-1.113 -3.781,-1.576l-0.574,-0.195l-0.35,0.495c-1.271,1.804 -2.1,3.786 -2.508,5.819c-2.059,-0.24 -4.201,-0.065 -6.309,0.587l-0.579,0.179l0.008,0.607c0.019,1.44 0.129,2.802 0.331,4.083c-1.281,0.204 -2.61,0.52 -3.986,0.947l-0.579,0.18l0.008,0.607c0.032,2.206 0.527,4.297 1.391,6.181c-1.807,1.016 -3.436,2.417 -4.758,4.184l-0.364,0.485l0.363,0.486c0.862,1.154 1.751,2.191 2.668,3.109c-0.917,0.918 -1.806,1.955 -2.668,3.109l-0.363,0.486l0.364,0.485c1.322,1.767 2.951,3.168 4.758,4.184c-0.864,1.884 -1.359,3.975 -1.391,6.181l-0.008,0.607l0.579,0.18c1.376,0.427 2.705,0.743 3.986,0.947c-0.202,1.281 -0.312,2.643 -0.331,4.083l-0.008,0.607l0.579,0.179c2.108,0.652 4.25,0.827 6.309,0.587c0.408,2.033 1.237,4.015 2.508,5.819l0.35,0.495l0.574,-0.195c1.364,-0.463 2.625,-0.988 3.781,-1.576c0.59,1.155 1.301,2.321 2.133,3.498l0.35,0.495l0.574,-0.195c2.089,-0.712 3.924,-1.829 5.449,-3.234c1.525,1.405 3.36,2.522 5.449,3.234l0.574,0.195l0.35,-0.495c0.832,-1.177 1.543,-2.343 2.133,-3.498c1.156,0.588 2.417,1.113 3.781,1.576l0.574,0.195l0.35,-0.495c1.271,-1.804 2.1,-3.786 2.508,-5.819c2.059,0.24 4.201,0.065 6.309,-0.587l0.579,-0.179l-0.008,-0.607c-0.019,-1.44 -0.129,-2.802 -0.331,-4.083c1.281,-0.204 2.61,-0.52 3.986,-0.947l0.579,-0.18l-0.008,-0.607c-0.032,-2.206 -0.527,-4.297 -1.391,-6.181c1.807,-1.016 3.436,-2.417 4.758,-4.184l0.364,-0.485l-0.363,-0.486c-0.862,-1.154 -1.751,-2.191 -2.668,-3.109c0.917,-0.918 1.806,-1.955 2.668,-3.109l0.363,-0.486l-0.364,-0.485c-1.322,-1.767 -2.951,-3.168 -4.758,-4.184c0.864,-1.884 1.359,-3.975 1.391,-6.181l0.008,-0.607l-0.579,-0.18c-1.376,-0.427 -2.705,-0.743 -3.986,-0.947c0.202,-1.281 0.312,-2.643 0.331,-4.083l0.008,-0.607l-0.579,-0.179c-2.108,-0.652 -4.25,-0.827 -6.309,-0.587c-0.408,-2.033 -1.237,-4.015 -2.508,-5.819l-0.35,-0.495l-0.574,0.195c-1.364,0.463 -2.625,0.988 -3.781,1.576c-0.59,-1.155 -1.301,-2.321 -2.133,-3.498l-0.35,-0.495l-0.574,0.195c-2.089,0.712 -3.924,1.829 -5.449,3.234Zm-3.279,49.159c-1.075,1.107 -2.342,2.099 -3.804,2.976c0.475,0.938 1.036,1.884 1.683,2.838c1.617,-0.631 3.051,-1.539 4.266,-2.65c-0.846,-0.965 -1.565,-2.028 -2.145,-3.164Zm6.558,0c-0.579,1.135 -1.299,2.199 -2.145,3.164c1.215,1.111 2.649,2.019 4.266,2.65c0.647,-0.954 1.208,-1.9 1.683,-2.838c-1.461,-0.877 -2.729,-1.869 -3.804,-2.976Zm-13.803,-2.354c-1.136,0.578 -2.343,1.016 -3.595,1.299c0.33,1.613 0.957,3.191 1.894,4.652c1.084,-0.392 2.094,-0.828 3.03,-1.307c-0.667,-1.569 -1.11,-3.117 -1.329,-4.644Zm21.048,-0c-0.219,1.527 -0.661,3.075 -1.329,4.644c0.936,0.479 1.946,0.915 3.03,1.307c0.938,-1.461 1.564,-3.039 1.894,-4.652c-1.252,-0.283 -2.459,-0.721 -3.595,-1.299Zm-10.524,-2.689c-0.534,1.339 -1.24,2.576 -2.12,3.71c0.542,1.201 1.255,2.323 2.12,3.328c0.865,-1.005 1.578,-2.127 2.12,-3.328c-0.879,-1.134 -1.586,-2.371 -2.12,-3.71Zm-4.958,-2.116c-1.103,1.558 -2.476,2.876 -4.031,3.909c0.15,1.556 0.558,3.136 1.221,4.74c1.479,-0.908 2.738,-1.946 3.775,-3.117c-0.652,-1.75 -0.988,-3.623 -0.965,-5.532Zm9.916,-0c0.023,1.909 -0.313,3.782 -0.965,5.532c1.037,1.171 2.295,2.209 3.775,3.117c0.663,-1.604 1.071,-3.184 1.221,-4.74c-1.555,-1.033 -2.928,-2.351 -4.031,-3.909Zm-20.787,0.951c-1.52,0.263 -3.129,0.321 -4.827,0.171c-0.167,1.038 -0.269,2.134 -0.307,3.285c1.679,0.441 3.374,0.549 5.01,0.364c-0.118,-1.278 -0.075,-2.561 0.124,-3.82Zm31.658,-0c0.199,1.258 0.242,2.542 0.124,3.82c1.636,0.185 3.331,0.077 5.01,-0.364c-0.038,-1.151 -0.14,-2.247 -0.307,-3.285c-1.698,0.15 -3.307,0.092 -4.827,-0.171Zm-26.041,-2.153c-1.219,0.769 -2.517,1.355 -3.896,1.755c-0.267,1.29 -0.35,2.617 -0.241,3.939c1.29,-0.305 2.527,-0.794 3.671,-1.447c-0.045,-1.434 0.111,-2.85 0.466,-4.247Zm20.424,-0c0.355,1.397 0.511,2.813 0.466,4.247c1.144,0.653 2.38,1.142 3.671,1.447c0.109,-1.321 0.026,-2.648 -0.241,-3.939c-1.378,-0.4 -2.677,-0.986 -3.896,-1.755Zm-13.011,-33.291c-0.752,2.607 -0.741,5.46 0.2,8.222c0.144,0.424 -0.083,0.885 -0.506,1.029c-0.043,0.015 -0.086,0.025 -0.128,0.033c-0.039,0.019 -0.08,0.035 -0.123,0.049c-0.428,0.132 -0.882,-0.108 -1.015,-0.535c-0.862,-2.788 -2.53,-5.103 -4.67,-6.77c0.075,1.698 0.465,3.367 1.174,5.008c0.155,0.359 0.029,0.77 -0.28,0.986c-0.301,0.227 -0.73,0.22 -1.024,-0.039c-1.342,-1.181 -2.808,-2.068 -4.4,-2.664c0.924,2.55 2.611,4.853 4.995,6.534c0.366,0.258 0.453,0.764 0.195,1.13c-0.025,0.037 -0.054,0.071 -0.084,0.102c-0.02,0.038 -0.044,0.076 -0.07,0.111c-0.269,0.359 -0.777,0.432 -1.136,0.164c-2.336,-1.748 -5.046,-2.64 -7.757,-2.731c1.058,1.329 2.355,2.45 3.892,3.361c0.337,0.199 0.477,0.605 0.354,0.962c-0.11,0.361 -0.462,0.607 -0.852,0.57c-1.779,-0.166 -3.487,-0.022 -5.124,0.431c2.246,1.521 4.964,2.392 7.881,2.351c0.447,-0.007 0.816,0.352 0.822,0.799c0.001,0.045 -0.002,0.089 -0.009,0.132c0.007,0.043 0.01,0.087 0.009,0.132c-0.006,0.447 -0.375,0.806 -0.822,0.799c-2.917,-0.041 -5.635,0.83 -7.881,2.351c1.637,0.453 3.345,0.597 5.124,0.431c0.39,-0.037 0.742,0.209 0.852,0.57c0.123,0.357 -0.017,0.763 -0.354,0.962c-1.537,0.911 -2.834,2.032 -3.892,3.361c2.711,-0.091 5.421,-0.983 7.757,-2.731c0.359,-0.268 0.867,-0.195 1.136,0.164c0.026,0.035 0.05,0.073 0.07,0.111c0.03,0.031 0.059,0.065 0.084,0.102c0.258,0.366 0.171,0.872 -0.195,1.13c-2.384,1.681 -4.071,3.984 -4.995,6.534c1.592,-0.596 3.058,-1.483 4.4,-2.664c0.294,-0.259 0.723,-0.266 1.024,-0.039c0.309,0.216 0.435,0.627 0.28,0.986c-0.709,1.641 -1.099,3.31 -1.174,5.008c2.14,-1.667 3.808,-3.982 4.67,-6.77c0.133,-0.427 0.587,-0.667 1.015,-0.535c0.043,0.014 0.084,0.03 0.123,0.049c0.042,0.008 0.085,0.018 0.128,0.033c0.423,0.144 0.65,0.605 0.506,1.029c-0.941,2.762 -0.952,5.615 -0.2,8.222c0.937,-1.418 1.602,-2.997 1.993,-4.741c0.086,-0.382 0.429,-0.641 0.806,-0.634c0.377,-0.007 0.72,0.252 0.806,0.634c0.391,1.744 1.056,3.323 1.993,4.741c0.752,-2.607 0.741,-5.46 -0.2,-8.222c-0.144,-0.424 0.083,-0.885 0.506,-1.029c0.043,-0.015 0.086,-0.025 0.128,-0.033c0.039,-0.019 0.08,-0.035 0.123,-0.049c0.428,-0.132 0.882,0.108 1.015,0.535c0.862,2.788 2.53,5.103 4.67,6.77c-0.075,-1.698 -0.465,-3.367 -1.174,-5.008c-0.155,-0.359 -0.029,-0.77 0.28,-0.986c0.301,-0.227 0.73,-0.22 1.024,0.039c1.342,1.181 2.808,2.068 4.4,2.664c-0.924,-2.55 -2.611,-4.853 -4.995,-6.534c-0.366,-0.258 -0.453,-0.764 -0.195,-1.13c0.025,-0.037 0.054,-0.071 0.084,-0.102c0.02,-0.038 0.044,-0.076 0.07,-0.111c0.269,-0.359 0.777,-0.432 1.136,-0.164c2.336,1.748 5.046,2.64 7.757,2.731c-1.058,-1.329 -2.355,-2.45 -3.892,-3.361c-0.337,-0.199 -0.477,-0.605 -0.354,-0.962c0.11,-0.361 0.462,-0.607 0.852,-0.57c1.779,0.166 3.487,0.022 5.124,-0.431c-2.246,-1.521 -4.964,-2.392 -7.881,-2.351c-0.447,0.007 -0.816,-0.352 -0.822,-0.799c-0.001,-0.045 0.002,-0.089 0.009,-0.132c-0.007,-0.043 -0.01,-0.087 -0.009,-0.132c0.006,-0.447 0.375,-0.806 0.822,-0.799c2.917,0.041 5.635,-0.83 7.881,-2.351c-1.637,-0.453 -3.345,-0.597 -5.124,-0.431c-0.39,0.037 -0.742,-0.209 -0.852,-0.57c-0.123,-0.357 0.017,-0.763 0.354,-0.962c1.537,-0.911 2.834,-2.032 3.892,-3.361c-2.711,0.091 -5.421,0.983 -7.757,2.731c-0.359,0.268 -0.867,0.195 -1.136,-0.164c-0.026,-0.035 -0.05,-0.073 -0.07,-0.111c-0.03,-0.031 -0.059,-0.065 -0.084,-0.102c-0.258,-0.366 -0.171,-0.872 0.195,-1.13c2.384,-1.681 4.071,-3.984 4.995,-6.534c-1.592,0.596 -3.058,1.483 -4.4,2.664c-0.294,0.259 -0.723,0.266 -1.024,0.039c-0.309,-0.216 -0.435,-0.627 -0.28,-0.986c0.709,-1.641 1.099,-3.31 1.174,-5.008c-2.14,1.667 -3.808,3.982 -4.67,6.77c-0.133,0.427 -0.587,0.667 -1.015,0.535c-0.043,-0.014 -0.084,-0.03 -0.123,-0.049c-0.042,-0.008 -0.085,-0.018 -0.128,-0.033c-0.423,-0.144 -0.65,-0.605 -0.506,-1.029c0.941,-2.762 0.952,-5.615 0.2,-8.222c-0.937,1.418 -1.602,2.997 -1.993,4.741c-0.086,0.382 -0.429,0.641 -0.806,0.634c-0.377,0.007 -0.72,-0.252 -0.806,-0.634c-0.391,-1.744 -1.056,-3.323 -1.993,-4.741Zm-10.181,28.665c-1.808,0.612 -3.693,0.871 -5.558,0.792c-0.794,1.348 -1.392,2.866 -1.798,4.553c1.73,0.135 3.358,0.035 4.885,-0.303c0.502,-1.798 1.331,-3.511 2.471,-5.042Zm25.96,0c1.14,1.531 1.969,3.244 2.471,5.042c1.527,0.338 3.155,0.438 4.885,0.303c-0.406,-1.687 -1.004,-3.205 -1.798,-4.553c-1.865,0.079 -3.751,-0.18 -5.558,-0.792Zm-36.958,-0.447c-0.682,1.499 -1.102,3.144 -1.203,4.877c1.107,0.32 2.18,0.561 3.22,0.723c0.382,-1.661 0.934,-3.173 1.654,-4.538c-1.258,-0.2 -2.493,-0.555 -3.671,-1.062Zm47.956,0c-1.178,0.507 -2.412,0.862 -3.671,1.062c0.72,1.365 1.272,2.877 1.654,4.538c1.04,-0.162 2.113,-0.403 3.22,-0.723c-0.1,-1.733 -0.521,-3.378 -1.203,-4.877Zm-44.685,-4.484c-0.975,0.887 -1.822,1.911 -2.51,3.045c1.222,0.512 2.51,0.843 3.82,0.987c0.807,-1.186 1.765,-2.24 2.874,-3.162c-1.439,-0.095 -2.833,-0.384 -4.184,-0.87Zm41.414,0c-1.35,0.486 -2.745,0.775 -4.184,0.87c1.109,0.921 2.067,1.975 2.874,3.162c1.309,-0.144 2.597,-0.475 3.82,-0.987c-0.688,-1.133 -1.535,-2.158 -2.51,-3.045Zm-47.046,-3.389c-0.745,0.743 -1.472,1.569 -2.179,2.478c1.099,1.343 2.407,2.427 3.839,3.238c0.655,-1.102 1.445,-2.115 2.346,-3.017c-1.385,-0.68 -2.72,-1.579 -4.006,-2.699Zm52.678,0c-1.285,1.12 -2.621,2.019 -4.006,2.699c0.901,0.902 1.69,1.915 2.346,3.017c1.432,-0.811 2.74,-1.895 3.839,-3.238c-0.707,-0.91 -1.434,-1.736 -2.179,-2.478Zm-47.345,-3.736c-1.434,0.624 -2.811,1.5 -4.131,2.626c1.32,1.126 2.697,2.003 4.131,2.626c1.462,-1.16 3.14,-2.058 4.962,-2.626c-1.822,-0.568 -3.5,-1.467 -4.962,-2.626Zm42.012,0c-1.462,1.16 -3.14,2.058 -4.962,2.626c1.822,0.568 3.5,1.467 4.962,2.626c1.434,-0.624 2.811,-1.5 4.131,-2.626c-1.32,-1.126 -2.697,-2.002 -4.131,-2.626Zm-45.685,-4.2c-1.432,0.811 -2.74,1.895 -3.839,3.238c0.707,0.91 1.434,1.736 2.179,2.478c1.285,-1.12 2.621,-2.019 4.006,-2.699c-0.901,-0.902 -1.69,-1.915 -2.346,-3.017Zm49.358,0c-0.655,1.102 -1.445,2.115 -2.346,3.017c1.385,0.68 2.72,1.579 4.006,2.699c0.745,-0.743 1.472,-1.569 2.179,-2.478c-1.099,-1.343 -2.407,-2.427 -3.839,-3.238Zm-44.076,-1.705c-1.309,0.144 -2.597,0.475 -3.82,0.987c0.688,1.133 1.535,2.158 2.51,3.045c1.35,-0.486 2.745,-0.775 4.184,-0.87c-1.109,-0.921 -2.067,-1.975 -2.874,-3.162Zm38.794,0c-0.807,1.186 -1.765,2.24 -2.874,3.162c1.439,0.095 2.833,0.384 4.184,0.87c0.975,-0.887 1.822,-1.911 2.51,-3.045c-1.222,-0.512 -2.51,-0.843 -3.82,-0.987Zm-41.358,-6.052c-1.04,0.162 -2.113,0.403 -3.22,0.723c0.1,1.733 0.521,3.378 1.203,4.877c1.178,-0.507 2.412,-0.862 3.671,-1.062c-0.72,-1.365 -1.272,-2.877 -1.654,-4.538Zm43.922,0c-0.382,1.661 -0.934,3.173 -1.654,4.538c1.258,0.2 2.493,0.555 3.671,1.062c0.682,-1.499 1.102,-3.144 1.203,-4.877c-1.107,-0.32 -2.18,-0.561 -3.22,-0.723Zm-37.412,0.111c-1.527,-0.338 -3.155,-0.438 -4.885,-0.303c0.406,1.687 1.004,3.205 1.798,4.553c1.865,-0.079 3.751,0.18 5.558,0.792c-1.14,-1.531 -1.969,-3.244 -2.471,-5.042Zm35.787,-0.303c-1.73,-0.135 -3.358,-0.035 -4.885,0.303c-0.502,1.798 -1.331,3.511 -2.471,5.042c1.808,-0.612 3.693,-0.871 5.558,-0.792c0.794,-1.348 1.392,-2.866 1.798,-4.553Zm-5.987,-4.975c-1.29,0.305 -2.527,0.794 -3.671,1.447c0.045,1.434 -0.111,2.85 -0.466,4.247c1.219,-0.769 2.517,-1.355 3.896,-1.755c0.267,-1.29 0.35,-2.617 0.241,-3.939Zm-28.698,0c-0.109,1.321 -0.026,2.648 0.241,3.939c1.378,0.4 2.677,0.986 3.896,1.755c-0.355,-1.397 -0.511,-2.813 -0.466,-4.247c-1.144,-0.653 -2.38,-1.142 -3.671,-1.447Zm22.117,-4.157c-1.479,0.908 -2.738,1.946 -3.775,3.117c0.652,1.75 0.988,3.623 0.965,5.532c1.103,-1.558 2.476,-2.876 4.031,-3.909c-0.15,-1.556 -0.558,-3.136 -1.221,-4.74Zm-15.536,0c-0.663,1.604 -1.071,3.184 -1.221,4.74c1.555,1.033 2.928,2.351 4.031,3.909c-0.023,-1.909 0.313,-3.782 0.965,-5.532c-1.037,-1.171 -2.295,-2.209 -3.775,-3.117Zm-8.185,3.878c-1.636,-0.185 -3.331,-0.077 -5.01,0.364c0.038,1.151 0.14,2.247 0.307,3.285c1.698,-0.15 3.307,-0.092 4.827,0.171c-0.199,-1.258 -0.242,-2.542 -0.124,-3.82Zm36.609,3.649c0.167,-1.038 0.269,-2.134 0.307,-3.285c-1.679,-0.441 -3.374,-0.549 -5.01,-0.364c0.118,1.278 0.075,2.561 -0.124,3.82c1.52,-0.263 3.129,-0.321 4.827,-0.171Zm-20.656,-8.032c-0.865,1.005 -1.578,2.127 -2.12,3.328c0.879,1.134 1.586,2.371 2.12,3.71c0.534,-1.339 1.24,-2.576 2.12,-3.71c-0.542,-1.201 -1.255,-2.323 -2.12,-3.328Zm-9.195,-0.295c-0.936,-0.479 -1.946,-0.915 -3.03,-1.307c-0.938,1.461 -1.564,3.039 -1.894,4.652c1.252,0.283 2.459,0.721 3.595,1.299c0.219,-1.527 0.661,-3.075 1.329,-4.644Zm23.314,3.345c-0.33,-1.613 -0.957,-3.191 -1.894,-4.652c-1.084,0.392 -2.094,0.828 -3.03,1.307c0.667,1.569 1.11,3.117 1.329,4.644c1.136,-0.578 2.343,-1.016 3.595,-1.299Zm-7.036,-4.031c-0.475,-0.938 -1.036,-1.884 -1.683,-2.838c-1.617,0.631 -3.051,1.539 -4.266,2.65c0.846,0.965 1.565,2.028 2.145,3.164c1.075,-1.107 2.342,-2.099 3.804,-2.976Zm-8.217,-0.188c-1.215,-1.111 -2.649,-2.019 -4.266,-2.65c-0.647,0.954 -1.208,1.9 -1.683,2.838c1.461,0.877 2.729,1.869 3.804,2.976c0.579,-1.135 1.299,-2.199 2.145,-3.164Z"/></g></svg>