<?xml version="1.0" encoding="UTF-8" standalone="no"?><!DOCTYPE svg PUBLIC "-//W3C//DTD SVG 1.1//EN" "http://www.w3.org/Graphics/SVG/1.1/DTD/svg11.dtd"><svg width="100%" height="100%" viewBox="0 0 89 89" version="1.1" xmlns="http://www.w3.org/2000/svg" xmlns:xlink="http://www.w3.org/1999/xlink" xml:space="preserve" xmlns:serif="http://www.serif.com/" style="fill-rule:evenodd;clip-rule:evenodd;stroke-linejoin:round;stroke-miterlimit:2;"><g><rect x="0" y="0" width="88.08" height="88.08" style="fill:#f2f2f2;"/><path d="M88.08,0l-88.08,0l0,88.08l88.08,0l0,-88.08Zm-0.4,0.4l-0,87.28c0,-0 -87.28,-0 -87.28,-0c0,0 0,-87.28 0,-87.28l87.28,-0Z"/><path d="M34.229,56.813l-2.613,-8.477l-15.013,4.701l-1.565,0.49l0.809,1.427c0,0 2.837,5 7.515,8.169c1.335,0.904 2.814,1.66 4.415,2.127c2.457,4.747 7.261,8.072 12.856,8.461l0,0.037l0.897,0l0.229,0.002l0.186,-0.002l1.337,0l-0.183,-17.068l-8.87,0.133Zm19.622,-0l-8.87,-0.133l-0.183,17.068l1.337,0c6.046,0.079 11.34,-3.268 14.032,-8.241c5.567,-1.024 10.39,-5.032 12.179,-10.815l0.39,-1.26l-16.272,-5.096l-2.613,8.477Zm-0.813,2.636l-5.438,-0.082l-0.125,11.686c3.852,-0.331 7.235,-2.337 9.405,-5.295c-1.39,-0.041 -2.796,-0.268 -4.188,-0.699l-1.264,-0.391l1.61,-5.219Zm-17.996,-0l1.597,5.179l-1.21,0.418c-1.466,0.506 -2.878,0.723 -4.227,0.714c2.169,2.956 5.552,4.962 9.403,5.293l-0.125,-11.686l-5.438,0.082Zm20.754,0.042l3.522,0.053c-0.142,1.238 -0.457,2.422 -0.919,3.529c-1.196,0.098 -2.42,0.031 -3.641,-0.216l1.038,-3.366Zm-23.512,-0l1.047,3.397c-1.294,0.277 -2.53,0.275 -3.696,0.073c-0.437,-1.075 -0.736,-2.221 -0.873,-3.417l3.522,-0.053Zm24.325,-2.636l5.46,0.082l-0.018,1.323c-0.021,1.457 -0.239,2.865 -0.629,4.198c3.483,-1.15 6.437,-3.747 7.942,-7.308l-11.153,-3.492l-1.602,5.197Zm-25.138,-0l-1.602,-5.197c-3.605,1.129 -7.21,2.258 -10.814,3.386c1.082,1.546 3.093,4.058 5.792,5.886c0.527,0.357 1.081,0.688 1.661,0.978c-0.296,-1.169 -0.461,-2.39 -0.479,-3.648l-0.018,-1.323l5.46,-0.082Zm-13.525,-22.023c-3.902,4.1 -5.448,10.178 -3.496,15.908l0.425,1.249l16.159,-5.442l-2.868,-8.395l7.254,-5.105l-9.11,-12.825l-0.764,-1.076l-1.078,0.761c-4.947,3.488 -7.268,9.314 -6.522,14.925Zm41.968,3.32l-2.868,8.395l14.909,5.021l1.25,0.421l0.425,-1.249c2.028,-5.952 0.281,-12.279 -3.96,-16.376c0.017,-1.651 -0.244,-3.26 -0.669,-4.771c-1.521,-5.401 -5.163,-9.485 -5.163,-9.485l-1.106,-1.241l-10.072,14.18l7.254,5.105Zm-41.191,-0.117c-2.142,2.979 -3.005,6.816 -2.13,10.581l11.075,-3.73l-1.758,-5.146l-4.466,3.143l-0.762,-1.081c-0.84,-1.19 -1.491,-2.458 -1.959,-3.767Zm50.479,-0.211c-0.356,1.319 -0.93,2.641 -1.777,3.939l-0.75,1.148l-4.505,-3.171l-1.758,5.146l11.075,3.73c0.896,-3.855 -0.03,-7.786 -2.285,-10.792Zm-44.184,-0.694l-2.88,2.027c-0.613,-1.085 -1.054,-2.229 -1.331,-3.396c0.91,-0.781 1.939,-1.447 3.073,-1.965l1.138,3.334Zm38.044,0l1.138,-3.334c1.002,0.458 1.922,1.03 2.749,1.696c-0.133,1.204 -0.464,2.424 -1.059,3.629l-2.828,-1.991Zm3.804,-4.918c-0.099,-0.651 -0.241,-1.286 -0.414,-1.901c-0.86,-3.054 -2.481,-5.636 -3.549,-7.112l-6.544,9.213l4.447,3.13l1.765,-5.168l1.252,0.426c1.084,0.37 2.101,0.845 3.043,1.412Zm-39.592,3.33l4.447,-3.13c-2.176,-3.063 -5.309,-7.475 -6.767,-9.527c-2.921,2.531 -4.479,6.143 -4.496,9.811c1.148,-0.783 2.419,-1.426 3.799,-1.896l1.252,-0.426l1.765,5.168Zm16.766,-8.923l7.097,5.322l9.382,-12.627l0.787,-1.06l-1.056,-0.79c-4.847,-3.627 -11.104,-4.034 -16.21,-1.591c-5.106,-2.443 -11.363,-2.036 -16.21,1.591l-1.056,0.79l10.169,13.687l7.097,-5.322Zm-2.807,-9.017c-3.494,-1.117 -7.41,-0.751 -10.721,1.244c2.324,3.127 4.647,6.254 6.97,9.381l4.351,-3.262l-4.37,-3.277l0.793,-1.059c0.873,-1.166 1.877,-2.177 2.977,-3.027Zm5.014,7.363l4.351,3.262c2.323,-3.127 4.646,-6.254 6.97,-9.381c-3.311,-1.995 -7.227,-2.361 -10.721,-1.244c1.1,0.85 2.104,1.861 2.977,3.027l0.793,1.059l-4.37,3.277Zm-2.207,-6.083c1.025,0.623 1.976,1.396 2.818,2.315l-2.818,2.113l-2.818,-2.114c0.842,-0.918 1.793,-1.691 2.818,-2.314Z"/></g></svg>