<?xml version="1.0" encoding="UTF-8" standalone="no"?><!DOCTYPE svg PUBLIC "-//W3C//DTD SVG 1.1//EN" "http://www.w3.org/Graphics/SVG/1.1/DTD/svg11.dtd"><svg width="100%" height="100%" viewBox="0 0 29 29" version="1.1" xmlns="http://www.w3.org/2000/svg" xmlns:xlink="http://www.w3.org/1999/xlink" xml:space="preserve" xmlns:serif="http://www.serif.com/" style="fill-rule:evenodd;clip-rule:evenodd;stroke-linejoin:round;stroke-miterlimit:2;"><g><path d="M14.424,28.849c7.966,-0 14.424,-6.458 14.424,-14.425c-0,-7.966 -6.458,-14.424 -14.424,-14.424c-7.967,0 -14.424,6.458 -14.424,14.424c0,7.967 6.457,14.425 14.424,14.425Zm-0,-0.266c-7.82,-0 -14.158,-6.339 -14.158,-14.159c-0,-7.819 6.338,-14.158 14.158,-14.158c7.819,-0 14.158,6.339 14.158,14.158c0,7.82 -6.339,14.159 -14.158,14.159Z" style="fill:#19171b;"/><path d="M18.999,10.402c-0.095,-0.049 -0.188,-0.103 -0.277,-0.161c-0.26,-0.172 -0.499,-0.375 -0.711,-0.604c-0.53,-0.606 -0.728,-1.222 -0.801,-1.652l0.003,-0c-0.061,-0.358 -0.036,-0.589 -0.032,-0.589l-2.414,-0l-0,9.335c-0,0.125 -0,0.249 -0.005,0.372c-0,0.015 -0.002,0.029 -0.003,0.045c0,0.007 0,0.014 -0.001,0.021l-0,0.005c-0.052,0.68 -0.439,1.291 -1.032,1.627c-0.304,0.174 -0.648,0.264 -0.998,0.264c-1.125,-0 -2.037,-0.917 -2.037,-2.05c0,-1.133 0.912,-2.05 2.037,-2.05c0.212,-0 0.424,0.033 0.627,0.099l0.002,-2.458c-1.241,-0.16 -2.495,0.207 -3.455,1.011c-0.416,0.362 -0.766,0.793 -1.034,1.275c-0.102,0.176 -0.486,0.882 -0.533,2.028c-0.029,0.65 0.166,1.324 0.259,1.602l0,0.006c0.059,0.164 0.286,0.724 0.656,1.196c0.298,0.378 0.65,0.71 1.045,0.986l0,-0.006l0.006,0.006c1.169,0.794 2.465,0.742 2.465,0.742c0.224,-0.009 0.976,0 1.829,-0.404c0.946,-0.449 1.485,-1.117 1.485,-1.117c0.345,-0.399 0.618,-0.854 0.81,-1.345c0.218,-0.574 0.291,-1.263 0.291,-1.538l0,-4.952c0.029,0.017 0.419,0.275 0.419,0.275c0,0 0.562,0.36 1.439,0.595c0.629,0.167 1.477,0.202 1.477,0.202l-0,-2.397c-0.297,0.033 -0.9,-0.061 -1.517,-0.369Z" style="fill-rule:nonzero;"/></g></svg>