<?xml version="1.0" encoding="UTF-8" standalone="no"?><!DOCTYPE svg PUBLIC "-//W3C//DTD SVG 1.1//EN" "http://www.w3.org/Graphics/SVG/1.1/DTD/svg11.dtd"><svg width="100%" height="100%" viewBox="0 0 29 29" version="1.1" xmlns="http://www.w3.org/2000/svg" xmlns:xlink="http://www.w3.org/1999/xlink" xml:space="preserve" xmlns:serif="http://www.serif.com/" style="fill-rule:evenodd;clip-rule:evenodd;stroke-linejoin:round;stroke-miterlimit:2;"><g><path d="M14.424,28.849c7.966,-0 14.424,-6.459 14.424,-14.425c-0,-7.966 -6.458,-14.424 -14.424,-14.424c-7.967,0 -14.424,6.458 -14.424,14.424c0,7.966 6.457,14.425 14.424,14.425Zm-0,-0.266c-7.82,-0 -14.158,-6.34 -14.158,-14.159c-0,-7.819 6.338,-14.158 14.158,-14.158c7.819,-0 14.158,6.339 14.158,14.158c0,7.819 -6.339,14.159 -14.158,14.159Z" style="fill:#19171b;"/><path d="M7.672,19.244c1.227,0.786 2.683,1.244 4.247,1.244c5.143,0 8.05,-4.343 7.875,-8.24c0.54,-0.391 1.01,-0.878 1.382,-1.434c-0.498,0.22 -1.032,0.369 -1.591,0.436c0.571,-0.343 1.01,-0.886 1.217,-1.533c-0.536,0.317 -1.128,0.548 -1.758,0.673c-0.506,-0.539 -1.225,-0.875 -2.023,-0.875c-1.788,-0 -3.102,1.668 -2.699,3.401c-2.302,-0.115 -4.343,-1.218 -5.71,-2.895c-0.725,1.246 -0.376,2.875 0.858,3.7c-0.455,-0.015 -0.882,-0.14 -1.256,-0.347c-0.029,1.284 0.891,2.484 2.223,2.752c-0.39,0.106 -0.818,0.129 -1.251,0.047c0.352,1.101 1.375,1.901 2.588,1.924c-1.165,0.912 -2.632,1.32 -4.102,1.147Z" style="fill:#19171b;fill-rule:nonzero;"/></g></svg>