<?xml version="1.0" encoding="UTF-8" standalone="no"?><!DOCTYPE svg PUBLIC "-//W3C//DTD SVG 1.1//EN" "http://www.w3.org/Graphics/SVG/1.1/DTD/svg11.dtd"><svg width="100%" height="100%" viewBox="0 0 29 29" version="1.1" xmlns="http://www.w3.org/2000/svg" xmlns:xlink="http://www.w3.org/1999/xlink" xml:space="preserve" xmlns:serif="http://www.serif.com/" style="fill-rule:evenodd;clip-rule:evenodd;stroke-linejoin:round;stroke-miterlimit:2;"><g><path d="M14.425,28.849c7.966,-0 14.424,-6.458 14.424,-14.425c0,-7.966 -6.458,-14.424 -14.424,-14.424c-7.967,-0 -14.425,6.458 -14.425,14.424c0,7.967 6.458,14.425 14.425,14.425Zm-0,-0.266c-7.82,-0 -14.159,-6.339 -14.159,-14.159c-0,-7.819 6.339,-14.158 14.159,-14.158c7.819,-0 14.158,6.339 14.158,14.158c0,7.82 -6.339,14.159 -14.158,14.159Z" style="fill:#19171b;"/><path d="M12.803,16.781l0,-4.714l4.143,2.357l-4.143,2.357Zm9.215,-6.196c-0.182,-0.687 -0.719,-1.227 -1.401,-1.411c-1.236,-0.333 -6.192,-0.333 -6.192,-0.333c-0,-0 -4.957,-0 -6.193,0.333c-0.682,0.184 -1.219,0.724 -1.401,1.411c-0.331,1.244 -0.331,3.839 -0.331,3.839c-0,-0 -0,2.596 0.331,3.839c0.182,0.687 0.719,1.228 1.401,1.411c1.236,0.333 6.193,0.333 6.193,0.333c-0,0 4.956,0 6.192,-0.333c0.682,-0.183 1.219,-0.724 1.401,-1.411c0.331,-1.243 0.331,-3.839 0.331,-3.839c0,-0 0,-2.595 -0.331,-3.839Z" style="fill:#19171b;fill-rule:nonzero;"/></g></svg>